<svg id="Layer_1" data-name="Layer 1" xmlns="http://www.w3.org/2000/svg" viewBox="0 0 1920 1080"><defs><style>.cls-1{fill:#dce2f9;}.cls-2{fill:#879efd;}.cls-3{fill:#7c93f8;}.cls-4{fill:#4c70e0;isolation:isolate;opacity:0.5;}.cls-5{fill:#2c1d1b;}.cls-6{fill:#ff85c5;}.cls-7{fill:#ffc9b6;}.cls-8{fill:#bbcdff;}.cls-9{fill:#a6c2ff;}.cls-10{fill:#ffb9a4;}.cls-11{fill:#ff61ad;}.cls-12{fill:#3f2a28;}.cls-13{fill:#352221;}.cls-14{fill:#778dfd;}.cls-15{fill:#472f2e;}.cls-16{fill:#8da3ff;}.cls-17{fill:#f4ebea;}.cls-18{fill:#281818;}.cls-19{fill:#fff;}.cls-20{fill:#543a3a;}.cls-21{fill:#ffbbe2;}.cls-22{fill:#3d2828;}.cls-23{fill:#593d3d;}.cls-24{fill:#d8c4c3;}.cls-25{fill:#2b1b1a;}.cls-26{fill:#eddcda;}.cls-27{fill:#ccb5b4;}.cls-28{fill:#f9bba7;}</style></defs><rect class="cls-1" width="1920" height="1080"/><path class="cls-2" d="M1920,144.12V1080H0V632.32a199.1,199.1,0,0,1,75.58,14.89q4.62,1.89,9.22,3.73l4.76,1.87.56.23c2.31.9,4.62,1.8,6.93,2.68l1.88.72,1.73.67,1,.39c2.17.82,4.34,1.62,6.5,2.42l2.06.76q5.25,1.94,10.49,3.8l1.59.55.87.31c2.49.88,5,1.74,7.48,2.6,1.59.55,3.19,1.08,4.78,1.62,2.54.85,5.07,1.7,7.6,2.53l1.17.38,6.33,2,.95.3,2.88.91,4.26,1.33,1.13.34,3.1,1,5.25,1.58,1.68.5,5.29,1.54c2.72.79,5.43,1.58,8.15,2.33q4.92,1.38,9.83,2.69l4.11,1.09c.91.24,1.82.49,2.74.72l.48.12c3.32.87,6.64,1.7,10,2.52l2,.51c3,.73,6,1.44,9,2.15l1.6.38q5.29,1.23,10.58,2.4l2,.43q2.79.62,5.58,1.2l1,.21,1.59.33c2.27.47,4.54.94,6.81,1.39l2.24.45,2.07.4c2,.39,3.9.77,5.83,1.13l2.22.41c2.79.52,5.57,1,8.35,1.52l3,.52,4.54.78h.13c1.93.33,3.87.64,5.8,1l1.9.31.66.1,4.92.76c2.06.32,4.11.63,6.17.93l2.3.33q5.83.84,11.66,1.6h.12q5.7.74,11.39,1.4l1.54.18q11.4,1.32,22.76,2.33l2.84.25,5.74.48,3.12.25,5.32.39,3.22.22c3.45.24,6.9.44,10.34.63,1.26.07,2.52.15,3.78.21h.72c3.33.17,6.65.32,10,.45h.83l5.86.21,2.66.08c1.83.06,3.67.1,5.5.15l3.2.07,4.5.08,4.31.06,6.09,0h10.37c2.48,0,4.95,0,7.42-.08h1c2,0,4-.08,6.07-.12l3.47-.08,5.33-.15,1.83-.06h.5l1.84-.07q4.1-.15,8.18-.33l5.25-.24c3.31-.17,6.62-.34,9.92-.54l1.52-.1q24.61-1.5,49-4.23l.78-.08,6.86-.8,2.15-.26,5.51-.68,2.89-.37q3.42-.43,6.82-.9l1.08-.15c2.48-.34,5-.69,7.45-1l1.09-.16,6.87-1,4.36-.68,3.75-.59c.85-.12,1.69-.27,2.54-.41,2-.32,4-.66,6-1l1.26-.22.38-.06,6.8-1.18,1.63-.29,6.09-1.1,3.49-.65,4.27-.81,1.6-.3,1.3-.26,6-1.17,2.8-.57,4-.81,2.15-.45q5.09-1,10.17-2.16l1.08-.23.23-.06q5.51-1.2,11-2.46l1.69-.39q5.32-1.23,10.66-2.5l.57-.14q5.65-1.35,11.27-2.77l1.56-.39,1.79-.46q5.25-1.33,10.5-2.71l5.88-1.57c2.85-.77,5.71-1.54,8.56-2.33l7.3-2,1.56-.44Q727,674,732.42,672.4l1.19-.35c2.35-.69,4.7-1.4,7-2.1l4.55-1.36c2.82-.86,5.65-1.74,8.47-2.62l3.81-1.18c2.84-.89,5.67-1.8,8.5-2.71l3.92-1.26,7.74-2.54,5.51-1.84q4-1.35,8.08-2.73l1-.34c3.63-1.23,7.27-2.5,10.89-3.78l.53-.18.59-.21q5.4-1.91,10.78-3.85l.89-.32q5.64-2,11.24-4.12l.39-.14q5.18-1.92,10.34-3.88l2.49-.94q4.41-1.68,8.82-3.39l3.32-1.29q4.56-1.77,9.12-3.58l.61-.24c2.18-.86,4.35-1.74,6.52-2.61l5-2h0q5.73-2.33,11.44-4.69h.07c4.22-1.74,8.42-3.51,12.62-5.28l6-2.54,7.1-3q10-4.29,19.89-8.71l.46-.2q8.22-3.67,16.42-7.41l6.57-3,6.56-3,7.93-3.7,5.27-2.48,2.18-1,2.81-1.34,3.9-1.86,10.48-5,3.62-1.76q6.44-3.12,12.84-6.29,9.14-4.51,18.23-9.09h.08l.08,0q27.23-13.73,54-28l1.13-.61q8.74-4.65,17.44-9.35l2.5-1.36q7.77-4.2,15.51-8.44,23.81-13,47.28-26.33l10-5.66.71-.4,1.06-.6,11.57-6.61.12-.07,10.9-6.26c.25-.14.5-.28.74-.43h0l11-6.36.5-.29.1-.06q10.32-6,20.55-12l9.45-5.53,1.64-1,1.66-1,13.33-7.84,1.41-.83,13.11-7.74,3.53-2.09,8.59-5.09,23.68-14.07L1330.6,382l7.12-4.24,15.4-9.17,2.57-1.53,8.58-5.1,3.46-2.06,9.61-5.7,2.69-1.61,9.84-5.83,2.56-1.51,9.62-5.68,2.51-1.48,9.59-5.65,2.5-1.47,9.74-5.71,2.36-1.38,9.87-5.76,2.6-1.51,9.67-5.61,2.72-1.57,9.56-5.5,2.72-1.56q4.77-2.75,9.54-5.45c.89-.52,1.79-1,2.68-1.53l9.52-5.4,2.62-1.48,9.57-5.37,2.45-1.38,9.51-5.28.81-.45,1.61-.89,9.46-5.2,1-.53,1.32-.72,9.22-5,1.45-.79.25-.13.86-.46,8.26-4.44,1.87-1,1.83-1,6.86-3.63.31-.17,1.79-.94,5.68-3,.28-.15.59-.31,1.08-.56,2.81-1.47,2.51-1.29L1578,241l.22-.12.81-.41,2.44-1.24,4.1-2.09,2.76-1.39,1.42-.72,2.11-1.05,4.45-2.23.32-.16,1.72-.85,2.15-1.06q6.72-3.33,13.4-6.55l.59-.28,5.69-2.72,1.55-.74q5.41-2.56,10.8-5.08l2.93-1.34,4.49-2.07,1.88-.86.18-.08.68-.3c2.67-1.21,5.33-2.4,8-3.58l1-.46,1.4-.61q4.14-1.84,8.26-3.63l.3-.13c1.63-.71,3.25-1.41,4.88-2.1l3.07-1.31,1.78-.75,5.36-2.24,2.35-1,.75-.3c.78-.33,1.56-.64,2.34-1l3.26-1.33.3-.12.43-.17,1.23-.5,2.16-.87.51-.2,3.65-1.44.9-.36.59-.23,1.6-.63,1.42-.55,2.19-.85.73-.28,8.09-3.06.49-.18,1.73-.64,2-.74,1-.38,1.23-.44,1.77-.64,2.28-.82,4.14-1.48h.07l2-.68,1.61-.56.83-.29,2.2-.75.6-.21h.12l3.61-1.22.17-.06q3.33-1.11,6.64-2.18l1.2-.39h.06l1.51-.48,2.88-.92h.13l1.25-.39,1.2-.38,1.44-.45.72-.22,2.75-.83,2-.6.64-.19,3.44-1,1.79-.52,1.33-.38,1.35-.4,2.81-.78,1.29-.36,2.55-.71a2.71,2.71,0,0,0,.66-.18l1.52-.41.51-.13,2.09-.56,2.63-.69.62-.16h.09c1.66-.43,3.31-.85,5-1.26l1.58-.38,2.28-.56.63-.15,1-.23.34-.08,1-.25,2.2-.5,3.24-.74,1.08-.25,2.79-.61.58-.13,4.26-.89,1.59-.33q1.63-.34,3.27-.66l.48-.09.64-.13.24,0,.87-.16,2.48-.47.49-.1.44-.08.57-.1,2.25-.4,1.8-.33.69-.12,3-.51,1.8-.29,2.36-.39.81-.13,3-.44,1.49-.22.5-.08h.22l2.1-.29,2.68-.37.37,0,3.58-.46.54-.07,4.5-.52,3.5-.37.87-.1.94-.09,1.46-.14.58-.06,2.15-.2h.82l1.78-.15,2.64-.2h.61l2.29-.17,1.45-.1h1.63L1872,145l1.58-.09h.34l1.41-.06,1.36-.06,1.4-.06,2.13-.07h2.64l3-.06h5.65Z"/><path class="cls-3" d="M1920,677.59V1080H0V677.58c1.85,0,3.71,0,5.56.08h.27c1.92.06,3.83.14,5.74.25h.14c2.89.17,5.78.39,8.67.69l2.9.32c1,.11,1.93.23,2.9.36l2.89.4q2.89.42,5.77.93l2.88.53,2.87.57c1.76.37,3.52.75,5.27,1.17l.45.1c.44.1.87.2,1.31.32,2.46.59,4.92,1.24,7.36,1.94,1.22.35,2.44.71,3.65,1.08s2.37.74,3.55,1.12h0l.31.11,2.8.93c2.07.71,4.14,1.46,6.19,2.25.86.32,1.7.66,2.55,1l.94.37,2.5,1,.27.11,2.43,1,.14.06.63.27h0c.64.28,1.28.56,1.92.86,1.27.57,2.53,1.16,3.79,1.76C373.17,834.5,680.43,880.05,960,881.23c279.57-1.18,586.82-46.73,873.22-183.93A201.42,201.42,0,0,1,1920,677.59Z"/><path class="cls-4" d="M812.05,947.34l113.22,65.37c5.35,3.09,14.77,2.74,21-.87L984,990c6.18-3.57,6.84-9,1.51-12.1L872.3,912.51c-5.35-3.09-14.77-2.73-20.95.88l-37.8,21.86C807.38,938.82,806.69,944.25,812.05,947.34Z"/><path class="cls-4" d="M464,787.34c-72.22,0-130.78,31.14-130.78,69.56S391.8,926.45,464,926.45s130.77-31.14,130.77-69.55S536.24,787.34,464,787.34Z"/><path class="cls-4" d="M855.8,702.6c-24.76,3-65.88,36.9-107.78,52.57S593.87,786.6,572.34,795.73s-33.78,27.54-5.67,44.32,70.15-22.93,121.2-37.22,200.73-36.59,221.74-59.51S885.24,699.08,855.8,702.6Z"/><path class="cls-4" d="M968.48,787.34c-38.43,17.06-39.63,42.45,7.91,59.24s90.29,32.39,114.34,57,56,50,98.9,29.3c17.67-8.54,23.53-25.26,26.06-40.53,4-24.19,2.58-43.4-17.65-52.27-50.11-22-100.83-48.72-127.82-56.34S1002.32,772.3,968.48,787.34Z"/><path class="cls-4" d="M1569.16,949.43l-125.28,72.33c-6.83,3.91-18.7,3.41-26.52-1.09L1278,940.17c-7.83-4.51-8.68-11.41-1.92-15.32l125.25-72.32c6.83-3.91,18.72-3.42,26.54,1.09l139.37,80.5C1575.07,938.63,1575.93,945.53,1569.16,949.43Z"/><path class="cls-5" d="M856.79,249.38C829.32,237,815.67,195,812.49,168c-3.23-27.33,1.21-56.87-9.32-83C795,64.55,779,54.68,757,55.67c-10.81.49-22.1,3.62-29.37,10.47a19,19,0,0,0-7.77,18.32v.85c0,.3.14.25.29.27a16.91,16.91,0,0,0,.47,2.11A18.64,18.64,0,0,0,725,94.31a9.31,9.31,0,0,0,.84.82c3.83,3.58,8.94,5.93,13.67,4.92,8.2,1.37,17,2,21.2,6,10,9.49,6.92,31.43,8.6,44,1.67,12.4,2.73,34,5.55,46.24C781.94,228,814.36,261.44,856.79,249.38Z"/><path class="cls-6" d="M702.35,83.53s12-16.27,28-5.46c21.22,14.25,15,28.82,9.57,32.67S702.35,83.53,702.35,83.53Z"/><path class="cls-7" d="M865.41,664l9.77,21.08s-5.06,14.17-9.25,22.59-11.37,7.12-17.66,17.76.72,17.19,20.28,17.93,23.78-9.11,29.8-21.93,15.16-29.32,15.27-40c.22-16.72-14.15-16.19-22.54-22C885.71,655.76,865.41,664,865.41,664Z"/><path class="cls-7" d="M629.76,747.59c-3.24,8.19-8.06,18.46-24.6,21.2-21.19,3.51-26,0-35.29,6.29s3.77,18.12,14.1,25.47c15.12,10.77,32.61,5.66,43.72,3.17,14.88-3.31,30.26-8.34,29.49-23.05a46.2,46.2,0,0,1,5.21-24.6S635.2,733.85,629.76,747.59Z"/><path class="cls-8" d="M602.87,769.15s-.21,7,8.37,11.18,25.75,4.89,32,.34a105.91,105.91,0,0,1,14.29-8.37s6.36,17.37-14.44,26.84S611,815.42,589.8,809s-34.64-20.25-23.12-33.85C572.34,768.42,602.87,769.15,602.87,769.15Z"/><path class="cls-8" d="M851.27,591.32c-8.65-5.94-17.06-8.2-27.54-10.3,26-45.09,26.14-90.31,16-140.92-2.73-14-8.62-46.7-23.05-54.37-5.82-3.09-73.87-.6-80.72-2.73l-.41-.12c-6.13,21.37-13.49,49.06-14.17,60.81-1.75,30.23,22.46,37.57,22.46,37.57A215.3,215.3,0,0,0,748,510.84c6.14,29,18.61,70.19,35.94,93.87-1.37,15.94,9.14,20.13,22.24,23.23,10.18,2.45,47.83,40.49,69,57.06.1,0,21.86-2.56,21.86-23.32C884.13,645.71,882.69,612.94,851.27,591.32Z"/><path class="cls-9" d="M721.38,443.72c.68-11.75,8-39.45,14.17-60.82-12.44-3.78-29.51-6.61-34-8.66-40.45,60.12-52.35,137.27-53.1,209.23-9.49,15-6,34.43-5.82,51.56.34,33.22-7.51,66.54-11.37,99.51-.55,4.62-2.3,11.2-3.57,18.07,7.09,4.1,30.2,9.57,32.37,8.71,11.34-33.46,32.18-69.69,37.89-104.91a114.51,114.51,0,0,0,1.37-28.82c-.81-8.87-5.32-18.31-2-27,2.73-7.14,10.93-15,15.12-21.68,6.55-10.33,12.48-21,18-31.91,5.92-11.6,12-23.72,17.55-36.15a215.29,215.29,0,0,1-4.19-29.59S719.63,474,721.38,443.72Z"/><path class="cls-6" d="M674.93,191.51c18.17-23,28.7-20.14,50.76-7.54,26.95,15.42,48.72,25.15,60.51,35,20,16.63,31.63,50.93,35,94,.52,6.55,4.47,28.82,6.83,35.43,8.28,23.56,4.25,27.44-1.64,32.93,3.23,3.19,6.4,17-.39,21-31.2,18.3-100.5,21.55-124.61-22.78-1.5-2.73,2.39-12.29,4.31-14.81-5-2.83-8.61-9.8-8.61-16.29-9.24-5-17.15-12.54-19.25-25.6-18.52-4.18-38.48-14.6-32.46-36.9,2.94-10.93,12.1-35.73,15.58-48.29C667.83,212.72,669.75,198.09,674.93,191.51Z"/><path class="cls-10" d="M689,203.57c5.07-.83,18.32-7.59,14.36-32.18-1.1-6.83,29.83-25.37,29.82-24.4-.32,22.27,3.17,47.72,13.37,59.29-14.71,15.37-31.53,54.33-56.72,49C676,252.34,679,231.94,689,203.57Z"/><path class="cls-11" d="M677.21,195.92s-4.44,23.05-7.33,31.43-8.94,27.46-8.94,27.46,8.2-4.31,12.68-2.06,8.1,8.2,12,9.22a24.6,24.6,0,0,0,8.89,0l2.74-10.63s-8.08-2.25-8.39-15.79,1.28-31.88,1.28-31.88Z"/><path class="cls-11" d="M736.6,186.52c-.18.4-6.83,16.08-13.35,27.94-6.83,12.58-20.84,25.08-28.33,31.43-10.93,9.35-6.83,24.16-6.83,24.16s4-9.56,9.17-8.05,10.48,6.18,16.61,11.48c4.51-7.27,15.33-14.62,22.78-27.26,7.24-12.3,18.67-33.5,14.45-48.3S736.6,186.52,736.6,186.52Z"/><path class="cls-7" d="M662.88,119.57c19.72-4.43,30.06-5.25,47.55,1.84a97.18,97.18,0,0,1,28,12.89,2.5,2.5,0,0,1,1.1,2.24c-4.51,26-13.23,53.52-42.36,65.05-24,9.5-37.44-16.82-41.61-34.46C650.66,146.58,649.2,122.65,662.88,119.57Z"/><path class="cls-12" d="M726.19,93.26C707.36,78,683.55,79.89,670.61,90.42c-13.66,11.16-24.72,27.73-18.54,45.52,6.45,1.28,15.59-4.46,19.95-8.2,7.91,8.82,21.86,19.25,39,16.85,3.38,10.83,10.58,34.65,20.5,34C751.3,137.81,756.46,117.79,726.19,93.26Z"/><path class="cls-7" d="M707.36,156.65s4.71-16,15.11-7.76-4.32,24.35-4.32,24.35Z"/><path class="cls-8" d="M865.93,707.66s-1.37,3.7-11.15,10.23-12.42,14.93-12.42,20.16,11.37,12.57,26.64,11.53,24.19-6.83,31.51-21.49,18-47.36,14.86-54.66c-1.73-4.1-8-5.85-9.46-6.94,0,0,2.39,7.3.37,13.88a117.43,117.43,0,0,1-12.57,27.69c-5.25,8.75-14.43,10.2-20.73,7.06S865.93,707.66,865.93,707.66Z"/><path class="cls-13" d="M343.11,783.85V848c0,33.86,51.61,61.31,115.27,61.31S573.64,881.85,573.64,848V783.85Z"/><path class="cls-14" d="M458.38,882.79c-63.66,0-115.27-27.45-115.27-61.31v9.57c0,33.86,51.61,61.32,115.27,61.32s115.26-27.46,115.26-61.32v-9.57C573.64,855.34,522,882.79,458.38,882.79Z"/><path class="cls-13" d="M699.72,407.33S687.78,441.9,671,477.6s-44.94,48.71-87.63,29.56,45.29-142.92,45.29-142.92Z"/><path class="cls-15" d="M458.38,725.37c-63.66,0-115.27,27.45-115.27,61.31S394.72,848,458.38,848s115.26-27.45,115.26-61.31S522,725.37,458.38,725.37Z"/><path class="cls-14" d="M557,758.7c-11.35-23.37-51.16-40.64-98.64-40.64s-87.3,17.3-98.65,40.66h-3.37v13.67c0,30,45.67,54.26,102,54.26s102-24.3,102-54.26V758.72Z"/><path class="cls-16" d="M458.38,703c-56.35,0-102,24.29-102,54.26s45.67,54.26,102,54.26,102-24.3,102-54.26S514.72,703,458.38,703Z"/><path class="cls-17" d="M411.64,746.4c-14.64-8.4-21.47-15.8-21.47-23.35,0-8.48,8.77-14.43,16.4-18.68,6.83-3.86,15.11-7.45,23.07-10.93C442.19,688,455.17,682.3,461.92,676c13.25-12.39,15.11-17.39,19.62-39.91C488.07,603.39,517.71,600,518,600l.6,6c-1,.11-25.47,3-31.1,31.21-4.68,23.43-7.05,29.73-21.44,43.19-7.51,7-20.38,12.66-34,18.6-7.83,3.42-15.93,6.94-22.54,10.64-8.9,5-13.23,9.35-13.24,13.37,0,3.43,3.15,9.32,18.36,18Z"/><path class="cls-18" d="M523.19,878.89c0-18.22,11.08-39.38,24.75-47.28a22.65,22.65,0,0,1,10.8-3A30.32,30.32,0,0,1,574.59,833c7.79,4.81,8.83,15.74,8.83,15.74l-27.79,57.09a21,21,0,0,1-18.15-.64A28.46,28.46,0,0,1,526.73,894a37.16,37.16,0,0,1-2-4.74A33.82,33.82,0,0,1,523.19,878.89Z"/><path class="cls-12" d="M584,856.78c0,18.21-11.08,39.38-24.75,47.27s-24.74-.49-24.74-18.7,11.08-39.38,24.74-47.28S584,838.56,584,856.78Z"/><path class="cls-14" d="M581.07,859.18c0,16.1-9.78,34.78-21.86,41.75s-21.86-.43-21.86-16.52,9.78-34.78,21.86-41.73S581.07,843.1,581.07,859.18Z"/><path class="cls-19" d="M575,865.55c0,8-4.85,17.23-10.82,20.67s-10.82-.2-10.82-8.2,4.85-17.23,10.82-20.68S575,857.58,575,865.55Z"/><rect class="cls-13" x="428.33" y="599.47" width="223.82" height="37.06" transform="translate(-241.17 869.33) rotate(-66.67)"/><polygon class="cls-13" points="537.37 740 450.54 790.31 390.65 755.17 477.48 704.86 537.37 740"/><path class="cls-13" d="M400.35,726.17c-7.76,5.33-9.7,19.61-9.7,29,9.7,0,41.71-11.42,41.71-11.42l-5.46-12.92Z"/><polygon class="cls-20" points="537.37 716.55 522.78 737.28 460.23 761.32 400.35 726.17 477.48 681.41 537.37 716.55"/><path class="cls-15" d="M537.37,716.55s2.74,2.55,2.74,10.5v11.34l-21.78,12.76,6-18.81Z"/><path class="cls-15" d="M537.37,716.55s-69,40.25-77.13,44.77-9.7,19.47-9.7,29l89.57-51.92Z"/><path class="cls-14" d="M436.4,695v23c0,10.56,16.11,19.13,36,19.13s36-8.57,36-19.13V695Z"/><path class="cls-16" d="M472.36,675.89c-19.85,0-36,8.55-36,19.13s16.11,19.13,36,19.13,36-8.55,36-19.13S492.21,675.89,472.36,675.89Z"/><path class="cls-17" d="M506.59,783.71c-20.35,0-40.67-8.19-41.73-8.58a3.06,3.06,0,1,1,2.31-5.67c.3.13,31.42,12.59,53.42,6.4,24.31-6.83,36.47-21.06,32.52-38-1.62-7-5-12.66-8-17.77-3.39-5.74-6.57-11.16-6.41-17.17.56-19.6,10.36-32.55,16.85-41.12,1.7-2.24,3.21-4.25,4.35-6.06a43.86,43.86,0,0,0,4.79-33.82,3.06,3.06,0,0,1,5.57-2.55,3,3,0,0,1,.23.72A49.56,49.56,0,0,1,565.07,659c-1.22,2-2.84,4.1-4.67,6.56-6.38,8.42-15,20-15.61,37.59-.12,4.25,2.52,8.72,5.56,13.9,3.19,5.47,6.84,11.55,8.64,19.42,4.71,20.19-9.4,37.55-36.89,45.28A58.44,58.44,0,0,1,506.59,783.71Z"/><path class="cls-14" d="M656.89,383.29a72.49,72.49,0,0,0-16.79-13.67s-1.43-1-3.72-2.31h0c-11.2-7.36-26.49-11.82-26.49-11.82S558.61,444.31,540.75,488c-13.67,33.24-39.63,112.34-39.63,112.34s-.16,40.33,3.61,53.92h0c.12.74.23,1.53.35,2.22,2.41,14.41,12.52,20.74,23.32,14.62A186.42,186.42,0,0,0,545,660.3c26.32-18.92,54.16-80.79,72-124.48S671,411.2,671,411.2,664,391.48,656.89,383.29Z"/><path class="cls-16" d="M645.5,377.82a71.33,71.33,0,0,0-16.8-13.66s-9.31-6.47-18.81-8.7-26.59,2.45-26.59,2.45l-43.43,106.2c-17.86,43.72-41.64,108.1-38.38,145.55.83,9.5,1.8,17,2.73,23,2.41,14.4,12.52,20.74,23.33,14.62a190.11,190.11,0,0,0,16.59-10.81c26.31-18.91,54.16-80.78,72-124.47l43.43-106.2S652.52,386,645.5,377.82Z"/><polygon class="cls-14" points="739.43 441.93 684.63 411.19 675.2 426.94 731.42 459.25 739.43 441.93"/><path class="cls-16" d="M741.57,446.93c0,4.59-2.73,9.92-6.23,11.9s-6.23-.12-6.23-4.7,2.73-9.92,6.23-11.9S741.57,442.36,741.57,446.93Z"/><polygon class="cls-14" points="595.98 358.99 540.95 327.36 532.47 344.4 587.97 376.3 595.98 358.99"/><path class="cls-14" d="M543,332.29c0,4.59-2.74,9.92-6.24,11.9s-6.23-.11-6.23-4.7,2.74-9.92,6.23-11.9S543,327.71,543,332.29Z"/><path class="cls-10" d="M634,270.82s-6.49,15.53-8.6,22.35L623.32,300s-27.71,21.35-38.52,30.65-19.62,3.43-31.43,10.48c-13.66,8.13-13,13.49-13.15,23.12s13.66,18.65,13.66,18.65,34.54-24.59,48.33-31.06c27.51-13,50.37-40.61,50.37-40.61s-8.64-6.83-8.2-17.53c.3-7.27,3.7-16.39,3.7-16.39A16,16,0,0,0,634,270.82Z"/><path class="cls-13" d="M699.29,410.11l.2,1.51L652,384.12l-60.84-35.25s-20.5,12.77-32,26.48a32.74,32.74,0,0,0-2.35,3.25l-3.47-.29v12.26h0c.3,7.72,5.13,14.73,10.33,20.62,8.48,9.56,36.56,25.84,52.43,30.36s36.42,8.2,57.27,0,39.48-22.14,39.48-22.14v-11Z"/><path class="cls-15" d="M712.85,408.32,652,373.08l-60.84-35.26s-20.5,12.78-32,26.49-3.93,26.26,4.53,35.84,36.55,25.84,52.43,30.36,36.41,8.2,57.26,0S712.85,408.32,712.85,408.32Z"/><path class="cls-7" d="M768.48,317.79c-1.88,10.13,1.36,25.84.47,34.94-17,9.57-46.84,39.45-65.2,54.93-13.08,2.74-21.65,0-30.65,17.56-5.47,10.51,2.25,22.66,11.52,26.76,10.75,4.76,19.13-1.45,19.73-8.29-4.63-4.59-5.36-12.29,8.5-16.68,16.78-1.73,54.66-23.43,67.34-33.64,12.09-9.73,17.76-8.2,20.15-15.11,6.34-18.15,18.62-53.39,18.62-53.39S776,320,768.48,317.79Z"/><path class="cls-11" d="M782.55,216.24c-18.13,9.81-26.49,42.25-22.2,70.11,3.52,22.88,5.83,31.89,5.83,31.89s29.56,4,52.79,8.6c14.3-28.3,11.92-48,11.42-72.68C829.91,230.25,799.64,215.41,782.55,216.24Z"/><path class="cls-21" d="M766.18,318.24a70.43,70.43,0,0,1,27-1.77,196.27,196.27,0,0,1,28,5.7l-6.39,14.56s-16.87-4.79-26-5.46-20.59,2-20.59,2Z"/><path class="cls-11" d="M660.94,182.42a107,107,0,0,0-12.82,21.22c-4.53,10.78-7.43,26.16-8.78,35.94a66.21,66.21,0,0,0-.47,16.22s12,6.2,13.92,7.25c2.49-4.7,5.47-16.78,8.67-27.15,4.7-15.18,10.59-38.34,10.59-38.34A135,135,0,0,1,660.94,182.42Z"/><path class="cls-21" d="M638.86,255.77l-4.87,15,14,6.45,5.67-16.08A26.81,26.81,0,0,0,638.86,255.77Z"/><path class="cls-22" d="M1548.89,632.37V844.7c0,2.21,3.38,4,7.56,4s7.56-1.8,7.56-4V632.37Z"/><path class="cls-23" d="M1556.42,628.35c-4.18,0-7.55,1.81-7.55,4s3.37,4.1,7.55,4.1,7.56-1.8,7.56-4.1S1560.6,628.35,1556.42,628.35Z"/><path class="cls-19" d="M1551,631.75h10.68V575.31c0-19.66-12.16-42.69-27.1-51.31l-56.48-32.6c-7.57-4.38-15.13-4.83-21.29-1.26-7.09,4.1-11.15,13-11.15,24.35v260.3h10.69V514.46c0-7.36,2.16-13,5.8-15,2.74-1.56,6.55-1.09,10.61,1.26l56.49,32.6c11.79,6.83,21.75,26.07,21.75,42.06Z"/><path class="cls-24" d="M1556.33,628.93c-2.94,0-5.32,1.25-5.32,2.82s2.38,2.83,5.32,2.83,5.32-1.27,5.32-2.83S1559.26,628.93,1556.33,628.93Z"/><path class="cls-25" d="M1583.52,863.05s0,22-10.48,28.58c-10.73,6.69-32.47-38.72-32.47-38.72l41,4.78Z"/><path class="cls-18" d="M1413,997.82c0-11.25,6.83-24.3,15.25-29.16a14,14,0,0,1,6.67-1.86,18.54,18.54,0,0,1,9.78,2.73c4.8,3,5.47,9.72,5.47,9.72L1433,1014.46a13,13,0,0,1-11.19-.39,17.44,17.44,0,0,1-6.63-6.84,22.22,22.22,0,0,1-1.27-2.92A21,21,0,0,1,1413,997.82Z"/><path class="cls-12" d="M1450.51,984.18c0,11.23-6.83,24.28-15.26,29.15S1420,1013,1420,1001.79s6.84-24.28,15.27-29.15S1450.51,972.94,1450.51,984.18Z"/><path class="cls-19" d="M1444.85,988.61c0,6.15-3.74,13.29-8.36,16s-8.35-.17-8.35-6.31,3.73-13.31,8.35-16S1444.85,982.46,1444.85,988.61Z"/><path class="cls-24" d="M1443.38,968.11h-9.94v29A4.57,4.57,0,0,0,1435,1001h0l3.43,1.79,3.06-3.59-.88-.36a12.6,12.6,0,0,0,2.74-7.49Z"/><path class="cls-26" d="M1436.49,968.11v30.57c0,3.66,2.23,5.34,5,3.76s5-5.84,5-9.57V968.11Z"/><path class="cls-18" d="M1285.27,922.61c0-11.23,6.83-24.28,15.25-29.14a13.72,13.72,0,0,1,6.67-1.86,18.54,18.54,0,0,1,9.78,2.73c4.8,3,5.47,9.71,5.47,9.71l-17.15,35.22a13,13,0,0,1-11.19-.4,17.46,17.46,0,0,1-6.63-6.9,22.22,22.22,0,0,1-1.27-2.92A21,21,0,0,1,1285.27,922.61Z"/><path class="cls-12" d="M1322.75,909c0,11.25-6.83,24.3-15.26,29.16s-15.27-.3-15.27-11.53,6.84-24.29,15.27-29.16S1322.75,897.74,1322.75,909Z"/><path class="cls-19" d="M1317.09,913.46c0,6.16-3.74,13.3-8.36,16s-8.35-.16-8.35-6.31,3.73-13.31,8.35-16S1317.09,907.27,1317.09,913.46Z"/><path class="cls-24" d="M1315.62,893h-9.95v29a4.57,4.57,0,0,0,1.54,3.88h0l3.43,1.79,3.06-3.6-.87-.34a12.52,12.52,0,0,0,2.73-7.48Z"/><path class="cls-26" d="M1308.73,893v30.58c0,3.66,2.23,5.34,5,3.76s5-5.84,5-9.57V893Z"/><path class="cls-18" d="M1524.58,913.7c0-18.65,11.33-40.29,25.31-48.37a23.21,23.21,0,0,1,11-3.07,30.82,30.82,0,0,1,16.24,4.53c8,4.92,8.93,17.1,8.93,17.1l-28.34,57.39a21.52,21.52,0,0,1-18.57-.66,29.16,29.16,0,0,1-11-11.44,40.88,40.88,0,0,1-2.09-4.86A34.69,34.69,0,0,1,1524.58,913.7Z"/><path class="cls-12" d="M1586.76,891.07c0,18.64-11.33,40.3-25.31,48.38s-25.32-.5-25.32-19.13,11.33-40.3,25.32-48.36S1586.76,872.46,1586.76,891.07Z"/><path class="cls-19" d="M1577.38,898.43c0,10.2-6.2,22.08-13.87,26.49s-13.87-.27-13.87-10.48,6.22-22.07,13.87-26.5S1577.38,888.23,1577.38,898.43Z"/><path class="cls-12" d="M1576.22,901.79c0,7-4.23,15-9.48,18.12s-9.48-.2-9.48-7.18,4.24-15.1,9.48-18.12S1576.22,894.8,1576.22,901.79Z"/><path class="cls-13" d="M1528.75,909.89l-5.82-21.22-91.1-52.59c-16.26-9.39-41.1-10.43-55.2-2.29l-73.21,42.27v-.74H1279v24.47h.08c.56,5.9,5.07,12,13.38,16.79l101.82,58.76c16.28,9.39,41.12,10.43,55.2,2.28l79.39-45.83a45.71,45.71,0,0,1-1.16-10.49A64.14,64.14,0,0,1,1528.75,909.89Z"/><path class="cls-15" d="M1424.26,786a39.55,39.55,0,0,0-11.23,4.1l-124.59,72.2c-14.09,8.2-12.3,22.47,4,31.86l101.83,58.76c16.27,9.4,41.11,10.42,55.2,2.29l79.25-45.35c0-6.35,9.28-54.35,10.85-56.54l-116-67Z"/><path class="cls-23" d="M1421.68,785.3l12.56-59.55-12.56-7.21-26.59,15.34c-17.76,10.24-22.45,10.86-34.86,37.06-10.68,22.56-21.6,55.28-24.43,63.95l12.54,7.23Z"/><path class="cls-13" d="M1434.24,792.53V725.75l-26.59,15.36c-17.77,10.23-22.45,10.85-34.86,37-10.69,22.56-21.6,55.3-24.45,64Z"/><path class="cls-24" d="M1415,800.43c-47.92,0-86.75-20.66-86.75-46.15v123c0,25.48,38.83,46.14,86.75,46.14s86.74-20.66,86.74-46.14v-123C1501.74,779.77,1462.9,800.43,1415,800.43Z"/><path class="cls-13" d="M1328.24,754.28c0,25.49,38.84,46.15,86.76,46.15s86.74-20.66,86.74-46.15V632H1328.2Z"/><path class="cls-14" d="M1328.24,741.29c0,25.48,38.84,46.14,86.76,46.14s86.74-20.66,86.74-46.14V618.84H1328.2Z"/><path class="cls-27" d="M1415,877c-47.92,0-86.75-20.66-86.75-46.15v7.42c0,25.49,38.83,46.15,86.75,46.15s86.74-20.66,86.74-46.15v-7.46C1501.74,856.37,1462.9,877,1415,877Z"/><path class="cls-27" d="M1415,850.23c-47.92,0-86.75-20.66-86.75-46.14v7.46c0,25.47,38.83,46.14,86.75,46.14s86.74-20.67,86.74-46.14v-7.41C1501.74,829.57,1462.9,850.23,1415,850.23Z"/><path class="cls-23" d="M1544.92,850l38.6-38.54L1571,804.28l-26.59,15.34c-17.76,10.24-22.45,10.87-34.86,37.06-10.68,22.56-21.61,55.29-24.44,64l12.55,7.23,26.59-20.61Z"/><path class="cls-13" d="M1503.38,566a2.82,2.82,0,0,0-.08-.82v1.65C1503.31,566.58,1503.38,566.39,1503.38,566Z"/><polygon class="cls-22" points="1364.47 747.83 1326.04 725.65 1326.04 688 1364.47 710.19 1364.47 747.83"/><polygon class="cls-23" points="1339.9 680.21 1326.04 688 1364.47 710.19 1378.32 702.38 1339.9 680.21"/><polygon class="cls-13" points="1364.47 710.19 1364.47 747.83 1378.32 740.06 1378.32 702.38 1364.47 710.19"/><path class="cls-13" d="M1559,861.42c9.94-5.74,18.77-4.66,24.52,1.63V811.49l-26.59,15.36c-17.77,10.24-22.45,10.85-34.86,37-10.69,22.56-21.62,55.29-24.45,64l31.13-18C1532.33,890,1544.49,869.8,1559,861.42Z"/><polygon class="cls-22" points="1362.51 928.94 1324.08 906.75 1324.08 838.67 1362.51 860.86 1362.51 928.94"/><polygon class="cls-23" points="1337.93 830.88 1324.08 838.67 1362.51 860.86 1376.36 853.07 1337.93 830.88"/><polygon class="cls-13" points="1362.51 860.86 1362.51 928.94 1376.36 921.15 1376.36 853.07 1362.51 860.86"/><path class="cls-23" d="M1364.71,960.47a39.43,39.43,0,0,1-11.42-1.69c-21.25-6.37-29.42-18.6-32.53-27.72-5.47-16-.44-37.09,13.41-56.42a6.28,6.28,0,0,1,10.22,7.31c-8.89,12.39-16.64,30.74-11.76,45.09,3.16,9.22,11.31,15.86,24.27,19.74a27.21,27.21,0,0,0,22.86-3.33c15.27-9.35,27.11-31.43,32.46-60.74,6.64-36.28,3.39-115.9,1.25-168.59-.75-18.42-1.37-33-1.37-41.48a6.29,6.29,0,0,1,12.56,0c0,8.2.59,22.69,1.36,41,2.18,53.29,5.47,133.72-1.36,171.38-6,32.79-19.94,58-38.26,69.18A41.1,41.1,0,0,1,1364.71,960.47Z"/><path class="cls-13" d="M1512.38,627.44V616.37h-2.64c-10.18-22.85-48.68-39.87-94.74-39.87s-84.58,17-94.76,39.87h-2.74v12c0,28.63,43.65,51.86,97.48,51.86s97.48-23.23,97.48-51.86A7.3,7.3,0,0,0,1512.38,627.44Z"/><path class="cls-15" d="M1415,562.41c-53.83,0-97.48,23.23-97.48,51.85s43.65,51.93,97.48,51.93,97.48-23.23,97.48-51.93S1468.83,562.41,1415,562.41Z"/><path class="cls-14" d="M1415,635.28c-46.09,0-83.68-19.13-86.48-43.26h-.16c0,.71-.11,1.37-.11,2.13v17.33h.27c2.74,24.13,40.39,43.26,86.48,43.26,47.91,0,86.74-20.66,86.74-46.15V594.15c0-1.11-.11-2.17-.16-3.26C1499.84,615.58,1461.8,635.28,1415,635.28Z"/><path class="cls-13" d="M1425.46,517.86h-20.93A76.54,76.54,0,0,0,1328.35,592h.17c2.73,24.13,40.39,43.26,86.48,43.26,46.8,0,84.84-19.73,86.57-44.39A76.52,76.52,0,0,0,1425.46,517.86Z"/><ellipse class="cls-22" cx="1428.14" cy="942.48" rx="15.13" ry="8.05"/><ellipse class="cls-22" cx="1304.34" cy="876.69" rx="15.13" ry="8.05"/><path class="cls-15" d="M1464.83,550.58l-90.62,52.32c11.49,4.92,26.07,7.87,42,7.87,37,0,67.08-16,67.08-35.68C1483.3,565.58,1476.23,557,1464.83,550.58Z"/><path class="cls-22" d="M1374.21,602.9s0-30.65,40.76-52.32c36.13-19.22,49.86,0,49.86,0Z"/><path class="cls-24" d="M1405.08,593.51c-3.35,0-6.07,1.45-6.07,3.24s2.73,3.22,6.07,3.22,6.08-1.45,6.08-3.22S1408.44,593.51,1405.08,593.51Z"/><path class="cls-24" d="M1423,583.18c-3.36,0-6.08,1.45-6.08,3.22s2.74,3.24,6.08,3.24,6.08-1.45,6.08-3.24S1426.37,583.18,1423,583.18Z"/><path class="cls-24" d="M1440.84,572.75c-3.37,0-6.08,1.45-6.08,3.23s2.73,3.24,6.08,3.24,6.08-1.45,6.08-3.24S1444.2,572.75,1440.84,572.75Z"/><path class="cls-24" d="M1458.71,562.41c-3.35,0-6.07,1.45-6.07,3.24s2.73,3.24,6.07,3.24,6.08-1.45,6.08-3.24S1462.11,562.41,1458.71,562.41Z"/><polygon class="cls-24" points="1475.91 579.5 1431.42 605.19 1422.02 599.77 1466.53 574.08 1475.91 579.5"/><path class="cls-11" d="M1130,184l-33.27-21.72s-18.11,9.26-27.56,21.72-15.7,33.25-11.51,45.87c-9.77,27.76-11.92,75.51-13.25,85.6-6.53,28.92-24.6,117.78-24.3,133.78,5.32,7.31,22,20.5,33.36,9.29S1096,284.07,1096,284.07l-4.55-1.76C1109.68,237.93,1130,184,1130,184Z"/><path class="cls-7" d="M1020.09,449.28s-6.19,13.37-10.29,21.13-3.25,23.53,0,33.27,17,18.56,30.18,4.85,9.57-50.45,9.57-50.45S1030.54,457.14,1020.09,449.28Z"/><path class="cls-5" d="M1066.55,361.2s-29,73.87-33.45,103.76-13.49,75.15-18.89,112.81-5.34,74.34-2.81,111.11c1,14.61,6.32,52.76,3.51,73.48,3.17,13.48,34.75,15.16,38.49-.49,2.34-9.72,26.58-95.74,29-122.8s-3.93-46.46-3.93-46.46,39.43-84.45,53.29-117.67,4.43-74.38,4.43-74.38Z"/><path class="cls-5" d="M1052.88,758.24a122,122,0,0,0,3.86,18.22c2.73,9.3-.65,22.28-.65,22.28s-2,5.73-10.64,7.42a33.3,33.3,0,0,1-14.53-.34,107.41,107.41,0,0,1-18.22,16.85c-10.33,7.31-33.11,13-39.32,12-10-1.52-15.34-9.32-14.58-14.35s12.55-19,22.21-25c6.28-3.92,20.49-17.16,24.84-21.76a119.66,119.66,0,0,0,12.3-16.06Z"/><path class="cls-5" d="M1201.54,834s5.34,19.84,4.67,31.31-3.4,14.23-6.83,18.1a6.84,6.84,0,0,1-7.55,2.2s-1.6,23.66-12.81,33.23-31.58,10.48-40.91,7-3.21-20.5,5.94-37,20.81-34.5,23.72-49.52C1190.11,836.23,1201.54,834,1201.54,834Z"/><path class="cls-12" d="M1170.31,391.81s14.19,20.05,25.49,55.33c7.94,24.8,6.65,84.27,6.65,84.27s2,58.56-1.73,78.81-3.46,24.35-3.46,24.35,16.26,48.55,13.74,106-7.18,98.58-7.18,98.58-3.21,10.87-17.94,12.3c-13.44,1.37-23.23-7.94-23.23-7.94s-24.6-121.61-33.75-149.25-12.49-59.65-12.49-59.65l-18.64-136.49s-36.89-24.07-18-84.81C1091.62,375.31,1170.31,391.81,1170.31,391.81Z"/><path class="cls-6" d="M1218.14,236.59c-18.29-36.36-73.22-62.49-112.73-56.79-18.93,15-27.69,25.15-34.52,43.22a116.9,116.9,0,0,0-6.83,52.76c6,51.3-6.22,101.23-10.64,120.79,20.94,21.86,48.76,36.12,79.47,41.44,16.67,2.9,28.83-3.36,45.09-9.39a5.48,5.48,0,0,0,3.76-4.93c5.46-41.46,19.75-76.23,34.16-115C1223.52,288,1228.58,257.34,1218.14,236.59Z"/><path class="cls-8" d="M1105.41,179.8a201.19,201.19,0,0,0-20.4,29.95c-8.31,15.5-10.44,33.18-10.44,33.18l52.58,28.51s18.55-32.07,31.94-48c14.58-17.35,22.77-24.27,22.77-24.27l9.13,6.59s-17.32,19.38-25.65,34.79c-4.25,7.87-19,30.92-22.52,50-1.37,7.35,3.12,49,5.88,70.61,4.89,38.59,38.83,31.77,38.83,31.77S1194,419.36,1202.3,462c6,31.13,5.33,59.49,4.62,106.85-.53,36.15-2.39,78.26-2.39,78.26s-55.93,17.67-93.55,11.26c-46-7.84-79.58-28-90.92-35.61-17.76-12-24.17-26-24.17-26s18.23-68.84,34.77-134.79c11.22-44.76,13.55-70.08,19.34-100.76,3.69-19.44,8.2-60.88,8.58-87.76s14.12-68.51,23-82.26c12.3-18.91,22.86-22.3,22.86-22.3Z"/><path class="cls-28" d="M1116.83,157.24s3.79,25-5.38,33.67-9.23,26.46,9.13,32.45c22.24,7.26,37.94-8.79,51.81-19.83-6-12.69-8.92-12.62-8.92-48.25C1163.47,126.3,1116.83,157.24,1116.83,157.24Z"/><path class="cls-13" d="M982.74,976.76h0V963.44H965l-88.2-50.93c-4.85-2.73-13.39-2.43-19,.8l-20.83,12v-.57l-18.12,1.36v12.56c-.3,2,.75,4,3.21,5.47l102.68,59.27c4.85,2.8,13.39,2.45,19-.78L978,982.86C981.13,981.05,982.66,978.85,982.74,976.76Z"/><path class="cls-15" d="M822.22,930.82,924.89,990.1c4.85,2.73,13.39,2.44,19-.78l34.29-19.84c5.59-3.23,6.2-8.2,1.36-10.93L876.86,899.26c-4.85-2.73-13.39-2.45-19,.79l-34.29,19.79C818,923.09,817.37,928,822.22,930.82Z"/><path class="cls-24" d="M905.9,940.32l-9.12-12.75c32.39-23.13,36.2-31.59,57.39-78.49,13.82-30.56,44.06-107.27,70.74-174.9,25.12-63.71,48.85-123.9,56.39-139.47l1.78-3.65c16.58-34.16,25.7-53,49.05-62.76,21-8.73,63.42-27.56,63.83-27.75l6.37,14.32c-.43.19-43,19.13-64.22,27.9-17.86,7.42-25.12,22.37-41,55.14l-1.77,3.65c-7.29,15-30.91,75-55.92,138.37-28.05,71.17-57.07,144.75-71.05,175.66C947.37,902.2,941.71,914.74,905.9,940.32Z"/><path class="cls-23" d="M892.72,937.2c-4.93-4.22-2.84-8.81,7-17.24,7.57-6.52,23.31-18.41,31.73-31.85C941.78,871.51,983,769.38,998,731.42c2.39-6,24.25,2.61,21.86,8.65-5.6,14.17-55.15,139.06-68.54,160.5a124.76,124.76,0,0,1-34.72,36.12C912,940.32,901,944.34,892.72,937.2Z"/><path class="cls-24" d="M1004.73,725.18l-2.27,5.56c-.75,2,2,4.9,6.08,6.42s8,1.09,8.79-.94l2.17-5.75Z"/><path class="cls-13" d="M932.86,941.65V931.11s-12.22,3.35-18.1,9.21S905,958.47,905,958.47Z"/><path class="cls-23" d="M916.24,942.46a172.74,172.74,0,0,1,16.62-11.35l-36.08-21.43A173.84,173.84,0,0,0,880.15,921c-5.61,4.51-11.27,16-11.27,16L905,958.47S910.62,947,916.24,942.46Z"/><path class="cls-23" d="M1246.75,964.2a61.28,61.28,0,0,1-7.16-.43c-22.35-2.63-39.16-13-50-30.92-21.2-35.16-17.15-97.4,11.15-170.81,5.09-13.18,11.4-28.31,18.09-44.32,27-64.7,60.65-145.23,54.24-192.75-4.42-32.79-14.72-54.75-30.6-65.29-13.66-9.07-29-7.6-39.51-4.75a348,348,0,0,0-46,16.79,5.87,5.87,0,0,1-5.37-10.45h0a2.62,2.62,0,0,1,.48-.22A350.19,350.19,0,0,1,1200,443.59c18.36-5,35.36-2.82,49.08,6.29,18.83,12.49,30.86,37.24,35.76,73.52,6.83,50.69-27.48,132.84-55,198.85-6.65,15.94-13,31-18,44-26.59,68.92-31.08,128.91-12.06,160.46,8.82,14.62,22.71,23.14,41.28,25.33,11.78,1.37,21.35-1.3,29.21-8.2,26.81-23.69,27.33-91.41,27.53-131.87.09-11.66.15-21.71.78-28.6,6.73-72.27,43.25-73.1,44.81-73.1a5.88,5.88,0,0,1,0,11.75c-.18,0-27.45,1.71-33.1,62.44-.6,6.37-.65,16.21-.73,27.59-.3,45.18-.76,113.41-31.43,140.61A45.74,45.74,0,0,1,1246.75,964.2Z"/><path class="cls-11" d="M1239.89,262.1c-1.37-31.43-35.62-44.82-35.62-44.82s-24.6,19.95-21,86.86c1.37,6.23,10.93,12.22,13.67,18.56-1.23,25.81,4.61,38.5,14.42,51.21-8.64,5.7-29,38.51-41.49,54.81,18.18,5.2,17.86,25.7,17.86,25.7s46.67-21.08,70.54-50c9.76-11.84,6.36-23.23,10.07-36C1275.61,344,1241.09,290.15,1239.89,262.1Z"/><path class="cls-11" d="M1164.27,179s-4.29,15.13-15.79,23.77c-13.87,10.46-40,12.17-40,19.3,7.58,0,9,.44,9,5.9,0,10.25,3,12.6,3,12.6s18.83-5.37,32.42-11c17-7.07,24.73-30.6,24.73-30.6S1174.38,178.06,1164.27,179Z"/><path class="cls-11" d="M1108.5,179.8s-11,12-15.75,17.49-2,15.67-4.33,20.23a61,61,0,0,0-3.41,7.66s9.85-2,11.75-7.66,11.74,4.57,11.74,4.57l7-5.71s-10.49-6.71-7-13.89,9.45-16.61,9.45-16.61Z"/><path class="cls-7" d="M1157.13,95.56C1143.34,80.3,1107,74,1094,96.38c-9.81,16.82-10.22,46.77-7.56,60.53C1092,185.8,1115.71,203,1143,180.8,1169,159.62,1180.9,121.86,1157.13,95.56Z"/><path class="cls-5" d="M1187.08,114.62c-2.27-9.81-15-22.67-26.81-20.2,2.2-10.61-2.73-23.39-14.18-26.78-23.79-7.08-45.53,7.56-68.43,12.7-6.52,1.46-8.2,5,3,11.9-6.16.53-11.94,4-11.1,10.93.58,4.88,3.92,7.24,8.08,8.32-6.37,9.2,2.73,17,11.41,20.4,14.48,5.75,34.16,5.55,47.17-3.77,3,13.42,15,30.65,27.33,34.16C1175.78,153.34,1190.33,128.69,1187.08,114.62Z"/><path class="cls-7" d="M1142.85,147.09s8-12.08,15-2.89-7.45,18.11-7.45,18.11Z"/><path class="cls-9" d="M1096,399.79c3,.17,17.46,12.38,33.19,14.64,17.45,2.5,25.57-1.67,32.1-4.64-4.1-.16-15.24,1.74-31.28-2.47S1096,399.79,1096,399.79Z"/><path class="cls-7" d="M1171.6,426.57c-8.75,6.19-15.81,12.63-24,15.7-10.1,3.77-14.31,4.1-20,12.15s-2.35,17.25-2.35,17.25l13.58-6.21s4.1,7.8-1.06,13.87c-2.87,3.39-13,12.12-13,12.12s14.13,10.71,34.39,3.29,16.24-21.27,22.5-30.84,11.71-12.16,11.71-12.16,3.11-5.37-3.58-14.37C1181.18,425.93,1177.58,426.57,1171.6,426.57Z"/><path class="cls-9" d="M1069.47,357.88s9.57,13.19,22.57,21a88.64,88.64,0,0,0,26,10.28s-13.53-10.62-22-17.3S1069.47,357.88,1069.47,357.88Z"/><path class="cls-9" d="M1134.48,507.18s-13.66,36.6-26,68.8c-6.83,18.1-17.76,42.86-17.76,42.86s14.67-8.07,27.22-35.66C1131.6,553.1,1134.48,507.18,1134.48,507.18Z"/></svg>