<svg id="Layer_1" data-name="Layer 1" xmlns="http://www.w3.org/2000/svg" xmlns:xlink="http://www.w3.org/1999/xlink" viewBox="0 0 1920 1080"><defs><style>.cls-1{fill:#dce2f9;}.cls-2{fill:#879efd;}.cls-3{fill:#7c93f8;}.cls-4{fill:#4c70e0;isolation:isolate;opacity:0.5;}.cls-5{fill:#3f2a28;}.cls-6{fill:#fff;}.cls-7{fill:#d8c4c3;}.cls-8{fill:#eddcda;}.cls-9{fill:#f4ebea;}.cls-10{fill:#a9beff;}.cls-11{fill:#92b1ff;}.cls-12{fill:#778dfd;}.cls-13{fill:#352221;}.cls-14{fill:#593d3d;}.cls-15{fill:#ff61ad;}.cls-16{fill:#fed517;}.cls-17{fill:#ffb600;}.cls-18{fill:#efa500;}.cls-19{fill:#9fb6ff;}.cls-20{fill:#8da3ff;}.cls-21{fill:#d3bcba;}.cls-22{fill:#f445a1;}.cls-23{fill:#ff76be;}.cls-24{fill:#bbcdff;}.cls-25{fill:#493130;}.cls-26{fill:#472f2e;}.cls-27{fill:#c6afaf;}.cls-28{fill:#9e8282;}.cls-29{fill:#b29a9a;}.cls-30{fill:#ff85c5;}.cls-31{fill:#ffce00;}.cls-32{fill:#fde01a;}.cls-33{fill:url(#linear-gradient);}.cls-34{fill:#ffc9b6;}.cls-35{fill:#ffb9a4;}.cls-36{fill:#71abff;}.cls-37{fill:#2c1d1b;}.cls-38{fill:#a6c2ff;}.cls-39{fill:#ffbbe2;}</style><linearGradient id="linear-gradient" x1="1009.45" y1="571.99" x2="1058.17" y2="571.99" gradientTransform="translate(0 2)" gradientUnits="userSpaceOnUse"><stop offset="0" stop-color="#8da3ff"/><stop offset="1" stop-color="#6781ef"/></linearGradient></defs><rect class="cls-1" width="1920" height="1080"/><path class="cls-2" d="M1920,144.12V1080H0V632.32a199.1,199.1,0,0,1,75.58,14.89c131,53.73,257.75,74,380.12,70.69,408.82-11,768.44-284.68,1071.61-450,132.3-72.16,253.85-123.69,364-123.75Z"/><path class="cls-3" d="M1920,677.58V1080H0V677.58A200.78,200.78,0,0,1,86.77,697.3C373.45,834.64,681,880.14,960.83,881.24q19.57-.09,39.34-.47h.24q8-.15,16.05-.36h.71q24.36-.64,48.94-1.75h.71q8-.36,16-.78h1q24.48-1.29,49.15-3.09l1.1-.08c5.3-.39,10.59-.8,15.9-1.22l1.16-.1q16.5-1.33,33.06-2.9h.14c5.36-.51,10.73-1,16.1-1.59l1.49-.16q7.89-.81,15.78-1.67l1.35-.15q16.35-1.81,32.76-3.86l.76-.1q8-1,15.9-2.05l1.76-.24q7.86-1,15.71-2.16l1.49-.21q16.24-2.29,32.53-4.86l1.24-.2q7.85-1.23,15.7-2.54l2-.34q7.81-1.29,15.64-2.66l1.53-.27q16.15-2.83,32.34-5.93l1.67-.32q7.76-1.48,15.5-3l2.24-.45q7.77-1.58,15.55-3.2l1.54-.32q16.08-3.39,32.17-7l2-.46q7.67-1.75,15.33-3.58l2.38-.56q7.74-1.85,15.47-3.76l1.51-.37,15.76-4,.56-.14q7.86-2,15.71-4.12l2.27-.6q7.59-2,15.18-4.14l2.46-.68q7.71-2.14,15.42-4.36l1.36-.39q7.71-2.24,15.42-4.52l1.1-.33q7.71-2.3,15.43-4.68l2.47-.76q7.52-2.32,15-4.72l2.5-.8q7.68-2.46,15.36-5l1.18-.4q7.59-2.51,15.16-5.09l1.54-.53q7.59-2.6,15.16-5.27l2.63-.92q7.44-2.64,14.86-5.34l2.5-.91q7.67-2.81,15.31-5.68l.9-.34q7.53-2.84,15-5.75l1.87-.73q7.45-2.89,14.91-5.88l2.72-1.09,14.72-6,2.42-1q7.65-3.16,15.29-6.41l.49-.21q7.54-3.21,15.06-6.51l2.13-.93q7.35-3.22,14.67-6.54l2.76-1.24q7.31-3.32,14.59-6.69l2.29-1.07q7.63-3.57,15.26-7.21A200.76,200.76,0,0,1,1920,677.58Z"/><path class="cls-4" d="M465,771.06,694.23,905.37c7.93,4.57,21.91,4,31.06-1.29L773.9,876c9.16-5.28,10.16-13.35,2.23-17.93L546.92,723.76c-7.94-4.57-21.91-4-31.06,1.23l-48.61,28.07C458.1,758.4,457.09,766.47,465,771.06Z"/><path class="cls-4" d="M841.6,674c-22.44,9.57-29.64,26.39-49.47,54.77s-39.38,46-14,62.94,76.15-12.46,87.72-43.79c5.11-13.86,10.32-26.25,17.34-33.17C902,696,933.44,688,931.39,674.06c-2.31-15.76-21.48-16.75-35.88-15.56S855.21,668.22,841.6,674Z"/><path class="cls-4" d="M1135.41,751.41l239.66,139c15.87,9.15,43.82,8,62.14-2.58l113.86-65.1c18.32-10.58,20.33-26.72,4.46-35.88l-239.65-139c-15.87-9.16-43.83-8-62.14,2.57l-113.87,65.1C1121.56,726.05,1119.54,742.2,1135.41,751.41Z"/><polygon class="cls-4" points="1185.93 851.3 977.06 971.13 854.6 900.42 1063.48 780.6 1185.93 851.3"/><path d="M1407.14,858.27c0-15.35-9.32-33.16-20.88-39.83a18.9,18.9,0,0,0-9.1-2.53,25.37,25.37,0,0,0-13.36,3.68c-6.55,4.06-7.44,13.27-7.44,13.27l23.41,48.1a17.74,17.74,0,0,0,15.29-.54,24,24,0,0,0,9.06-9.42,34.48,34.48,0,0,0,1.73-4A28.72,28.72,0,0,0,1407.14,858.27Z"/><path class="cls-5" d="M1355.94,839.68c0,15.35,9.34,33.16,20.88,39.83s20.89-.42,20.89-15.76-9.34-33.16-20.89-39.83S1355.94,824.34,1355.94,839.68Z"/><path class="cls-6" d="M1363.67,845.74c0,8.41,5.11,18.18,11.41,21.82s11.42-.22,11.42-8.6-5.11-18.18-11.42-21.81S1363.67,837.39,1363.67,845.74Z"/><path class="cls-7" d="M1365.67,817.74h13.59v39.62c0,2.58-.83,4.4-2.12,5.3h0l-4.69,2.45-4.17-4.91,1.22-.47a17.15,17.15,0,0,1-3.8-10.23Z"/><path class="cls-8" d="M1375.08,817.74V859.5c0,5-3,7.3-6.79,5.14s-6.79-8-6.79-13v-33.9Z"/><path d="M1194,734.83c0-15.36-9.34-33.17-20.88-39.82a19.26,19.26,0,0,0-9.1-2.55,25.6,25.6,0,0,0-13.37,3.69c-6.56,4.05-7.44,13.26-7.44,13.26l23.5,48.14A17.71,17.71,0,0,0,1182,757a24,24,0,0,0,9.06-9.42,32.12,32.12,0,0,0,1.72-4A28.48,28.48,0,0,0,1194,734.83Z"/><path class="cls-5" d="M1142.52,716.21c0,15.34,9.34,33.16,20.89,39.82s20.88-.41,20.88-15.76-9.33-33.16-20.88-39.82S1142.52,700.85,1142.52,716.21Z"/><path class="cls-6" d="M1150.5,722.26c0,8.42,5.11,18.18,11.42,21.82s11.41-.22,11.41-8.6-5.11-18.18-11.41-21.82S1150.5,713.86,1150.5,722.26Z"/><path class="cls-7" d="M1152.51,694.27h13.59v39.62c0,2.57-.83,4.39-2.12,5.3h0l-4.69,2.46-4.17-4.92,1.22-.48a17.15,17.15,0,0,1-3.8-10.23Z"/><path class="cls-8" d="M1161.92,694.27V736c0,5-3.05,7.3-6.79,5.14s-6.8-8-6.8-13V694.27Z"/><path d="M1543.19,779.66c0-15.35-9.33-33.16-20.88-39.83a19,19,0,0,0-9.11-2.53,25.37,25.37,0,0,0-13.36,3.68c-6.55,4.06-7.37,13.27-7.37,13.27l23.41,48.1a17.74,17.74,0,0,0,15.29-.54,24.2,24.2,0,0,0,9.06-9.42,33.75,33.75,0,0,0,1.73-4A28.66,28.66,0,0,0,1543.19,779.66Z"/><path class="cls-5" d="M1491.74,761c0,15.35,9.34,33.16,20.89,39.83s20.88-.42,20.88-15.76-9.34-33.16-20.88-39.83S1491.74,745.67,1491.74,761Z"/><path class="cls-6" d="M1499.7,767.08c0,8.41,5.13,18.18,11.43,21.82s11.42-.22,11.42-8.6-5.12-18.18-11.42-21.81S1499.7,758.67,1499.7,767.08Z"/><path class="cls-7" d="M1501.72,739.13h13.58v39.62c0,2.58-.82,4.4-2.11,5.3h0l-4.69,2.45-4.18-4.91,1.23-.47a17.16,17.16,0,0,1-3.81-10.23Z"/><path class="cls-8" d="M1511.13,739.13v41.76c0,5-3.05,7.3-6.8,5.13s-6.79-8-6.79-13V739.13Z"/><path class="cls-8" d="M1174.55,659.45l73.78-42.21c15.77-9.1,39.84-10.11,53.49-2.22l222.41,128.41-.09-.74H1558v29.82h-.1c-.67,5.62-5,11.38-12.94,16l-98,56.06c-15.77,9.1-39.83,10.1-53.49,2.22l-247-142.6c-6.56-3.78-9.49-9-9.09-14.34h-.08V661.74Z"/><path class="cls-9" d="M1146.48,675.48l246.89,142.57c13.66,7.87,37.72,6.87,53.49-2.23l98-56.06c15.76-9.1,17.49-23,3.83-30.88L1301.8,586.31c-13.66-7.87-37.72-6.87-53.49,2.23l-98,56C1134.55,653.7,1132.82,667.59,1146.48,675.48Z"/><path class="cls-10" d="M1087.83,268.59l139.39-81a4.9,4.9,0,0,1,5.29.18h0l-143.71,83Z"/><path class="cls-10" d="M1239.3,197.52l-146.17,84.37-2.45-6.26,145.63-84.08A20.28,20.28,0,0,1,1239.3,197.52Z"/><path class="cls-10" d="M1237.58,208.38l-141.08,81.8-1.41-3.51L1240,203C1239.83,205.58,1239,207.49,1237.58,208.38Z"/><path class="cls-11" d="M1240.1,202.36c0,.26-.1.42-.11.66l-144.94,83.66-1.92-4.78,146.17-84.37A16.85,16.85,0,0,1,1240.1,202.36Z"/><path class="cls-11" d="M1232.52,187.84a13.48,13.48,0,0,1,3.77,3.68L1090.67,275.6l-1.92-4.76Z"/><path class="cls-12" d="M1099.57,283.84c0,5.6-3.4,8.17-7.59,5.75s-7.6-8.92-7.6-14.52,3.4-8.16,7.6-5.74S1099.57,278.25,1099.57,283.84Z"/><path class="cls-13" d="M1162.24,286.84l-37.39-21.7a2.13,2.13,0,0,0-2.37.07h0l39.76,23Z"/><path class="cls-13" d="M1162.24,290.8l-41.44-23.93a8.57,8.57,0,0,0-1.35,2.66l42.79,24.72Z"/><path class="cls-13" d="M1162.24,296.94l-43.1-24.89a3,3,0,0,0,1.07,2.46l42,24.37Z"/><path class="cls-13" d="M1162.24,294.26l-42.79-24.71a7.24,7.24,0,0,0-.36,2.16,1.41,1.41,0,0,0,0,.29l43.15,24.94Z"/><path class="cls-13" d="M1162.24,288.18l-39.77-23a5.94,5.94,0,0,0-1.69,1.66l41.46,23.92Z"/><path class="cls-13" d="M1253.82,231.31l-37.39-21.72a2.17,2.17,0,0,0-2.37.09h0l39.76,23Z"/><path class="cls-13" d="M1253.82,235.28l-41.44-23.94A8.87,8.87,0,0,0,1211,214l42.79,24.72Z"/><path class="cls-13" d="M1253.82,241.36l-43.1-24.89a2.93,2.93,0,0,0,1.07,2.4l42,24.38Z"/><path class="cls-13" d="M1253.82,238.73,1211,214a7.26,7.26,0,0,0-.36,2.17v.29l43.1,24.89Z"/><path class="cls-13" d="M1253.82,232.65l-39.76-22.92a5.78,5.78,0,0,0-1.68,1.66l41.44,23.94Z"/><rect class="cls-14" x="1342.12" y="488.92" width="112.23" height="9.06" transform="translate(537.23 1700.61) rotate(-73.94)"/><path class="cls-15" d="M1439.37,407.91c-.6-4.91-7.27-4.66-11,.52,1.74-5.17,3.68-13.11-2.79-14.26-3.41-.6-6.75,1.39-9.38,4-.52-1.76-1.51-3.16-3.31-3.36-2.15-.24-3.5,1.38-4.34,3.42-1.35-3.77-3.55-7.37-6.66-8.23-4.29-1.23-6.35,1.78-7.09,5.27a10.78,10.78,0,0,0-5.07-2c-3.15,0-6.14.54-8,3.35-3.26,5.06,2.57,10.49,6.23,14.3a9.63,9.63,0,0,0-1.23,9.82,6.28,6.28,0,0,0-6.62,5.91v.23c0,5.21,4.45,8.68,9.06,10.24-3.24,1.67-6.14,3.94-3.47,7.5s7.77,2.94,12,1.46c-1,4.17-.57,8.6,4.7,9.19,4,.42,8-3.43,10.46-7.5,1.85,3.25,5.61,5.52,9.44,4.63a6.45,6.45,0,0,0,4.79-4.65c5.49,2.77,12.09,4.41,16.25-.91a8.34,8.34,0,0,0,.36-8.91,6.14,6.14,0,0,0,5-4.11,6.53,6.53,0,0,0-.87-5.7,12,12,0,0,0,5.65-9.56,12.15,12.15,0,0,0-1.6-6.15A12.85,12.85,0,0,0,1439.37,407.91Z"/><path class="cls-12" d="M1493.6,281.06a7.55,7.55,0,0,0-6.73-1.23c.94-2.79,1.13-5.54-1.57-8.18-2-1.9-4.92-2.18-8.14.28,1.49-5.31-4.31-12.06-10.5-7-2.45-4.57-10.74-5.63-13-2-3.68-13.27-14.73-6.21-14.48.35-3.68-.8-9.48,0-11.73,3.68a8.41,8.41,0,0,0-.45,7.94,8.31,8.31,0,0,0-4.37,1.57c-3.2,2.39-3.27,5.64-2.06,8.67a8.3,8.3,0,0,0-6.4,4.56c-1.49,3.25-.39,7,1.93,9.73a6.75,6.75,0,0,0-2.93,2.64c-1.62,2.56-1.23,5.35-.17,7.92a9.14,9.14,0,0,0-6,2c-4,3.54-2.68,8.6-.51,12.82a8.22,8.22,0,0,0-6.28,5c-1.61,3.62-.46,7.68,1.88,10.75a21.12,21.12,0,0,1,6.67,6.33,6.89,6.89,0,0,1,6.52-3.15,9,9,0,0,1,7.1,5.24,4,4,0,0,1,4.26-1.64,5.28,5.28,0,0,1,3.83,3.28A9.21,9.21,0,0,1,1442,351a7,7,0,0,1,2.45,6.35c2.23-3.4,10.27-4.35,12,2.46,7.72-3.49,12-.32,16,6.52a5.49,5.49,0,0,0,.9-.17,9.84,9.84,0,0,0,5.13-4.69,9.36,9.36,0,0,0,.11-8.6,8.92,8.92,0,0,0,5.14-11.29c3.39.14,6.14-1.12,5.84-5.87a16.81,16.81,0,0,0-2.81-7.92c5.31,0,10.09-1.7,9.83-7.49-.16-3.31-2.46-6.26-5.39-8.21a15.14,15.14,0,0,0,7.37-10.67,7.07,7.07,0,0,0-3.62-7.3,10.18,10.18,0,0,0,1.68-3.68A9.25,9.25,0,0,0,1493.6,281.06Z"/><path class="cls-16" d="M1456.38,359.78c-1.73-6.81-9.82-5.86-12-2.46a7,7,0,0,0-2.46-6.35,9.18,9.18,0,0,0-11.47-.36,5.3,5.3,0,0,0-3.83-3.28,4,4,0,0,0-4.26,1.65,9,9,0,0,0-7.1-5.24,6.84,6.84,0,0,0-6.52,3.15,21.15,21.15,0,0,0-6.67-6.34,2.64,2.64,0,0,0,.23.35,8.2,8.2,0,0,0-6.23,4.47c-1.72,3.6-.46,7.37,2.09,10.07a7.5,7.5,0,0,0-3.22,6.82,7.24,7.24,0,0,0,3.16,5.13c-2.92-.07-5.74.86-7.37,3.69-2.14,3.79.55,8.35,3.19,12.15-2.28-.13-4.4.32-5.07,2.75a9.6,9.6,0,0,0,1.33,7.29h-.57a10.74,10.74,0,0,1,5.06,2c.75-3.49,2.8-6.5,7.1-5.27,3.11.89,5.31,4.46,6.66,8.23.83-2,2.18-3.68,4.33-3.43,1.81.21,2.79,1.61,3.32,3.37,2.63-2.65,6-4.64,9.37-4,6.48,1.15,4.54,9.09,2.79,14.26,3.8-5.19,10.47-5.44,11.06-.52a12.85,12.85,0,0,1,12.5,4.46A7.81,7.81,0,0,0,1455,411a8.71,8.71,0,0,0,3.1-10.42c6.57-1.82,10.07-8.9,6.25-14.8a15.74,15.74,0,0,0,9.39-11.13,11,11,0,0,0-1.44-8.39C1468.43,359.46,1464.1,356.29,1456.38,359.78Z"/><path class="cls-5" d="M1196.17,580.86A26.49,26.49,0,0,0,1202,585a176.83,176.83,0,0,1,22.34-65.1l13.83-23.9a7.5,7.5,0,0,0-6.61-2.46l-13.2,22.87a184.12,184.12,0,0,0-22.71,63.79A2.57,2.57,0,0,0,1196.17,580.86Z"/><path class="cls-17" d="M1201.41,537.54l6.35,98.26,2.31,35.92c13.25,13.95,40.37,23.54,71.77,23.54s58.54-9.6,71.78-23.57l2.31-35.88,6.33-98.26Z"/><path class="cls-16" d="M1281.84,494.77c-44.42,0-80.43,19.15-80.43,42.77s36,42.78,80.43,42.78,80.42-19.15,80.42-42.78S1326.26,494.77,1281.84,494.77Z"/><path class="cls-18" d="M1281.84,528.46c31.7,0,58.85,9.83,70.3,23.94a23.54,23.54,0,0,0,5.81-14.86c0-21.44-34.08-38.82-76.16-38.82s-76.15,17.38-76.15,38.82a23.39,23.39,0,0,0,5.79,14.86C1223,538.35,1250.14,528.46,1281.84,528.46Z"/><path class="cls-18" d="M1281.84,576.35c31.7,0,58.85-9.89,70.3-24-11.45-14-38.6-23.94-70.3-23.94s-58.85,9.83-70.3,23.94C1223,566.46,1250.14,576.35,1281.84,576.35Z"/><path class="cls-17" d="M1281.88,631.64c-39.7,0-71.9,17.11-71.9,38.24s32.2,38.23,71.9,38.23,71.89-17.12,71.89-38.23S1321.58,631.64,1281.88,631.64Z"/><circle class="cls-5" cx="1326.87" cy="551.64" r="7.46"/><path class="cls-16" d="M1343.94,540.4l-2.63-1.88a6.28,6.28,0,0,0-.52-.38l-.31-.22h0a6.15,6.15,0,0,0-6.14.51c-5.28,3.06-9.62,11.33-9.62,18.43v14l3.29,1.89c2.18-1.91,16-7.37,16-14.39V545.74a13.46,13.46,0,0,0-.5-3.62Zm-9.48,19.39a5.21,5.21,0,0,1-2.27.71,8.27,8.27,0,0,1-.42-2.52c0-4.77,2.9-10.3,6.46-12.36a5.07,5.07,0,0,1,2.27-.7,8.08,8.08,0,0,1,.42,2.53c0,4.8-2.92,10.34-6.46,12.34Z"/><path class="cls-17" d="M1337.62,540.84c-5.3,3.06-9.62,11.33-9.62,18.43v13.51l19.25-8.07v-16.6C1347.25,541.06,1342.91,537.8,1337.62,540.84Zm-3.16,18.95a5.21,5.21,0,0,1-2.27.71,8.27,8.27,0,0,1-.42-2.52c0-4.77,2.9-10.3,6.46-12.36a5.07,5.07,0,0,1,2.27-.7,8.08,8.08,0,0,1,.42,2.53c0,4.8-2.92,10.34-6.46,12.34Z"/><path class="cls-16" d="M1340.5,545a8.08,8.08,0,0,1,.42,2.53c0,4.75-2.89,10.29-6.46,12.28a5.07,5.07,0,0,1-2.27.7c.87,2.89,3.22,4,6,2.36,3.58-2.06,6.47-7.59,6.47-12.28C1344.7,546.87,1343,544.8,1340.5,545Z"/><path class="cls-16" d="M1239.84,480.14l-2.62-1.88a4.14,4.14,0,0,0-.55-.38l-.29-.22h0a6.15,6.15,0,0,0-6.14.51c-5.3,3.06-9.62,11.33-9.62,18.43v13.94l3.29,1.89c2.16-1.91,16-7.37,16-14.39V485.48a12.69,12.69,0,0,0-.52-3.68Zm-9.48,19.47a5.07,5.07,0,0,1-2.27.7,8.38,8.38,0,0,1-.42-2.53c0-4.76,2.89-10.28,6.46-12.29a5.33,5.33,0,0,1,2.27-.7,8.38,8.38,0,0,1,.42,2.53c0,4.68-2.9,10.2-6.46,12.29Z"/><path class="cls-17" d="M1233.52,480.58c-5.3,3.06-9.62,11.33-9.62,18.43v13.51l19.24-8.31V487.85C1243.14,480.8,1238.8,477.5,1233.52,480.58Zm-3.16,19a5.07,5.07,0,0,1-2.27.7,8.38,8.38,0,0,1-.42-2.53c0-4.76,2.89-10.28,6.46-12.29a5.33,5.33,0,0,1,2.27-.7,8.38,8.38,0,0,1,.42,2.53c0,4.71-2.9,10.23-6.46,12.32Z"/><path class="cls-16" d="M1236.4,484.71a8.38,8.38,0,0,1,.42,2.53c0,4.75-2.9,10.28-6.46,12.34a5.07,5.07,0,0,1-2.27.7c.87,2.88,3.2,4,6,2.36,3.58-2.06,6.46-7.59,6.46-12.34C1240.59,486.61,1238.85,484.54,1236.4,484.71Z"/><path class="cls-5" d="M1309.65,595.49c-18.32,31.71-43.78,53.79-66.45,57.61-10.48,1.78-19.43-.49-26.64-6.73-15-13-19-41.12-12.79-72.28-.57-8.72-.87-13.51-1.54-21.73-13.51,41.29-10.62,81.6,9.83,99.28a36.79,36.79,0,0,0,24.57,9,46.43,46.43,0,0,0,7.72-.67c24.67-4.15,52-27.52,71.33-61l22.72-39.31c2-4.39,1-7.21-4.25-9.63a16.88,16.88,0,0,0-2.33,7.1Z"/><circle class="cls-5" cx="1236.15" cy="498.72" r="7.46"/><polygon class="cls-13" points="1381.92 149.47 1371.65 149.47 1374.37 597.7 1384.64 597.7 1381.92 149.47"/><path class="cls-13" d="M1261.52,289.94V719.19c0,1.51,2.3,2.74,5.14,2.74s5.13-1.23,5.13-2.74V289.94Z"/><path class="cls-13" d="M1321.73,289.94V719.19c0,1.51,2.3,2.74,5.14,2.74s5.13-1.23,5.13-2.74V289.94Z"/><path class="cls-12" d="M1137.29,499.93s-.13,14.74,0,15.88,8.08,5.43,8.08,5.43-4.44-10.49,3.85-16.2,87.6-52.46,99.74-58.38,31.37-12.43,50-3.55,116.9,67.76,116.9,67.76l4.14-12.13s-114.23-67.48-126.07-72.22-26.63-2.1-38.18,3S1137.29,499.93,1137.29,499.93Z"/><path class="cls-12" d="M1301.8,439.42c-13.66-7.87-37.72-6.88-53.49,2.22l-98,56.06c-15.77,9.11-17.5,23-3.84,30.88l143.94,82.87,151.78-91.07ZM1161.45,521.3c-11.41-6.58-9.61-12.1,3.55-19.65l87.58-50.49c13.17-7.61,33.28-8.43,44.69-1.85l120,69.64L1290.4,595.11Z"/><path class="cls-19" d="M1301.8,424.08c-13.66-7.87-37.72-6.88-53.49,2.22l-98,56.11c-15.77,9.1-17.5,23-3.84,30.88l144,82.86,151.78-91.06ZM1161.45,506c-11.41-6.59-9.61-12.1,3.55-19.65l87.67-50.57c13.16-7.62,33.27-8.44,44.68-1.86l120,69.65-126.82,76.09Z"/><polygon class="cls-12" points="1290.42 757.07 1278.11 749.96 1278.11 389.91 1290.42 397.03 1290.42 757.07"/><polygon class="cls-20" points="1290.42 757.07 1302.74 749.96 1302.74 389.64 1290.42 397.03 1290.42 757.07"/><polygon class="cls-12" points="1429.89 675.39 1417.58 668.28 1417.58 305.96 1429.89 313.06 1429.89 675.39"/><polygon class="cls-20" points="1429.89 675.39 1442.21 668.28 1442.21 305.96 1429.89 313.06 1429.89 675.39"/><path class="cls-5" d="M1516,663a29.39,29.39,0,0,1-6.54,4.56c-2.92-23.34-11.31-48.94-24.91-72.47l-15.36-26.67a8.41,8.41,0,0,1,7.37-2.75l14.74,25.49a205.26,205.26,0,0,1,25.3,71.07A3.37,3.37,0,0,0,1516,663Z"/><path class="cls-21" d="M1510.11,742.81c0,7.72-3.53,15-9.66,21.44l2.58-40C1507.59,729.88,1510.11,736.16,1510.11,742.81Z"/><path class="cls-21" d="M1338,724.18l2.58,40c-6.14-6.45-9.63-13.71-9.63-21.41C1330.9,736.16,1333.4,729.89,1338,724.18Z"/><path class="cls-22" d="M1510.11,614.68,1503,724.17l-2.58,40c-14.74,15.53-45,26.22-80,26.22s-65.22-10.7-80-26.25l-2.58-40-7-109.5Z"/><path class="cls-23" d="M1420.5,567c49.49,0,89.61,21.33,89.61,47.66s-40.12,47.65-89.61,47.65-89.66-21.33-89.66-47.65S1371,567,1420.5,567Z"/><path class="cls-15" d="M1420.49,604.55c-35.31,0-65.57,11.06-78.3,26.68-4.17-5.09-6.48-10.68-6.48-16.55,0-23.89,38-43.25,84.76-43.25s84.75,19.36,84.75,43.25c0,5.87-2.32,11.46-6.47,16.55C1486.05,615.57,1455.82,604.55,1420.49,604.55Z"/><path class="cls-24" d="M1420.49,657.92c-35.31,0-65.57-11-78.3-26.69,12.73-15.66,43-26.68,78.3-26.68s65.58,11.06,78.32,26.68C1486.05,646.89,1455.82,657.92,1420.49,657.92Z"/><path class="cls-6" d="M1381.42,591.13a3.22,3.22,0,1,0,3.23-3.21h0a3.22,3.22,0,0,0-3.23,3.21Z"/><path class="cls-6" d="M1392.69,639.11a3.22,3.22,0,1,0,3.22-3.22h0A3.22,3.22,0,0,0,1392.69,639.11Z"/><path class="cls-6" d="M1434.83,609c1-1.93,3.93-5.53,6.63-6-.67-4.62.87-9.33,5.75-11.73,5.4-2.67,14.83.6,15.85,6.41a6.44,6.44,0,0,1,7.15-.93c3.69,1.79,4.38,5,3.6,8.22,4.73-1.23,10.38.61,12.46,5.22,1.38,3.08.11,8.31-2.82,10.15a7.36,7.36,0,0,1-2.57,10.09h0l-.19.11a10,10,0,0,1-10.45-.21,11,11,0,0,1-15.56-.05l-.07-.07a10.84,10.84,0,0,1-1.83-2.47c-5.63,1.52-12-1.35-16.1-5.08C1432.15,618.61,1432,614.26,1434.83,609Z"/><path class="cls-6" d="M1348.48,611.53a12.33,12.33,0,0,1,6-.88,9.29,9.29,0,0,1,6.14-9.09,8.19,8.19,0,0,1,7.3.66,7.74,7.74,0,0,1,6.84-4.52c2.65,0,4.07,2.24,4.44,4.73,3.12-2.46,8.23-4,11.16-3.43,3.69.68,6.81,2.85,7.89,6,3.28-2.79,9.64-2.46,12.1,1.08,3.53,5.17-2.76,8.13-7.52,9.82a7.07,7.07,0,0,1,2,3.17c1,3.82-1.76,6.91-5.12,8.18a14,14,0,0,1-11.65-1c-.42,4.32-3.15,7.15-9,7a12.5,12.5,0,0,1-6.62-2.46,12,12,0,0,1-11.7,8.29c-2.87,0-7.1-1.14-9-3.51a11.91,11.91,0,0,1-2-5.61,9.9,9.9,0,0,1-3.27-1.23,9.31,9.31,0,0,1-4.21-9A10.85,10.85,0,0,1,1348.48,611.53Z"/><path class="cls-6" d="M1425.65,591.13a4.69,4.69,0,1,0,4.69-4.69h0a4.69,4.69,0,0,0-4.69,4.67Z"/><path class="cls-6" d="M1485.42,601.34a4.69,4.69,0,1,0,4.69-4.7h0a4.69,4.69,0,0,0-4.69,4.69Z"/><circle class="cls-6" cx="1416" cy="634.16" r="8.3"/><path class="cls-6" d="M1428.06,641.39a5.63,5.63,0,1,0,5.64-5.62h0A5.62,5.62,0,0,0,1428.06,641.39Z"/><circle class="cls-6" cx="1406.56" cy="589.4" r="4.83"/><path class="cls-6" d="M1479,592.6a3.22,3.22,0,1,0,3.24-3.2h0A3.22,3.22,0,0,0,1479,592.6Z"/><circle class="cls-6" cx="1412.78" cy="581.35" r="3.22"/><path class="cls-6" d="M1456.66,642.46a3.22,3.22,0,1,0,3.22-3.22h0A3.22,3.22,0,0,0,1456.66,642.46Z"/><circle class="cls-5" cx="1370.33" cy="630.39" r="8.3"/><path class="cls-15" d="M1351.3,617.86l2.94-2.09a4.25,4.25,0,0,1,.59-.43l.34-.23h0c1.87-1,4.21-.94,6.82.56,5.88,3.4,10.71,12.62,10.71,20.48v15.52l-3.69,2.11c-2.45-2.13-17.77-8.18-17.77-16v-14a15,15,0,0,1,.56-4Zm10.56,21.66a6,6,0,0,0,2.53.79,9,9,0,0,0,.47-2.82c0-5.3-3.22-11.46-7.2-13.76a5.67,5.67,0,0,0-2.53-.78,9.62,9.62,0,0,0-.46,2.82c-.05,5.27,3.23,11.41,7.19,13.75Z"/><path class="cls-22" d="M1358.3,618.35c5.9,3.4,10.72,12.61,10.72,20.47v15l-21.43-8.9V626.49C1347.64,618.59,1352.47,615,1358.3,618.35Zm3.51,21.17a6,6,0,0,0,2.53.79,9,9,0,0,0,.47-2.82c0-5.3-3.22-11.46-7.2-13.76a5.67,5.67,0,0,0-2.53-.78,9.62,9.62,0,0,0-.46,2.82c0,5.27,3.28,11.41,7.24,13.75Z"/><path class="cls-15" d="M1355.13,623a9.62,9.62,0,0,0-.46,2.82c0,5.3,3.23,11.46,7.19,13.75a6,6,0,0,0,2.53.79c-1,3.21-3.57,4.45-6.73,2.63-4-2.3-7.19-8.46-7.19-13.77C1350.46,625.07,1352.42,622.76,1355.13,623Z"/><path class="cls-22" d="M1467.29,550.72l2.92-2.09c.2-.15.4-.3.6-.43l.34-.25h0c1.85-1,4.21-.93,6.8.57,5.9,3.4,10.72,12.61,10.72,20.47v15.53l-3.68,2.11c-2.46-2.13-17.76-8.18-17.76-16v-14a15,15,0,0,1,.56-4Zm10.56,21.67a5.94,5.94,0,0,0,2.53.78,9.31,9.31,0,0,0,.47-2.82c0-5.3-3.22-11.46-7.2-13.76a5.54,5.54,0,0,0-2.53-.77,9.25,9.25,0,0,0-.47,2.81c0,5.3,3.22,11.46,7.2,13.76Z"/><path class="cls-15" d="M1474.34,551.2c5.9,3.4,10.71,12.61,10.71,20.47v15l-21.42-9.25v-18.1C1463.63,551.45,1468.44,547.81,1474.34,551.2Zm3.51,21.17a6,6,0,0,0,2.53.79,9.38,9.38,0,0,0,.47-2.83c0-5.29-3.22-11.46-7.2-13.75a5.67,5.67,0,0,0-2.53-.78,9.31,9.31,0,0,0-.47,2.82c0,5.31,3.22,11.47,7.2,13.77Z"/><path class="cls-22" d="M1471.12,555.82a9.25,9.25,0,0,0-.47,2.81c0,5.3,3.22,11.46,7.2,13.76a5.94,5.94,0,0,0,2.53.78c-1,3.21-3.57,4.45-6.73,2.62-4-2.3-7.2-8.45-7.2-13.76C1466.45,557.93,1468.41,555.62,1471.12,555.82Z"/><path class="cls-5" d="M1389.51,679.24c20.38,35.32,48.78,59.89,74,64.19,11.68,2,21.67-.56,29.69-7.51,16.69-14.46,21.16-45.81,14.25-80.51.63-9.73,1-15.1,1.71-24.23,15.11,46,11.85,90.9-10.89,110.55a40.92,40.92,0,0,1-27.42,10,52.73,52.73,0,0,1-8.6-.73c-27.49-4.62-57.93-30.71-79.46-68l-25.33-43.87c-2.3-4.91-1.08-8,4.74-10.72a18.86,18.86,0,0,1,2.59,7.92Z"/><path class="cls-5" d="M1463.1,571.43a8.31,8.31,0,1,0,8.31-8.31h0A8.31,8.31,0,0,0,1463.1,571.43Z"/><polygon class="cls-20" points="1437.04 508.16 1298.61 591.24 1298.61 608.67 1437.77 526.03 1437.04 508.16"/><path class="cls-12" d="M1137.29,300.84s-.13,14.74,0,15.89,8.08,5.42,8.08,5.42-4.44-10.49,3.85-16.2,87.6-52.46,99.74-58.38,31.37-12.43,50-3.55,116.9,67.77,116.9,67.77l4.14-12.14s-114.23-67.47-126.07-72.21-26.63-2.1-38.18,2.95S1137.29,300.84,1137.29,300.84Z"/><path class="cls-12" d="M1301.8,240.44c-13.66-7.88-37.72-6.88-53.49,2.22l-98,56.06c-15.77,9.1-17.5,23-3.84,30.88l144,82.8,151.78-91.07Zm-140.35,81.87c-11.41-6.58-9.61-12.09,3.55-19.65l87.58-50.48c13.17-7.61,33.28-8.44,44.69-1.86l120,69.65L1290.4,396.06Z"/><path class="cls-19" d="M1301.8,225c-13.66-7.88-37.72-6.88-53.49,2.22l-98,56.06c-15.77,9.1-17.5,23-3.84,30.88L1290.4,397l151.78-91Zm-140.35,81.87c-11.41-6.58-9.61-12.09,3.55-19.65l87.67-50.47c13.16-7.6,33.27-8.44,44.68-1.85l120,69.64-126.82,76.09Z"/><polygon class="cls-20" points="1290.42 412.4 1442.21 321.34 1442.21 305.96 1290.42 397.03 1290.42 412.4"/><polygon class="cls-19" points="1429.89 512.35 1412.2 523.07 1398.21 514.99 1415.96 504.31 1429.89 512.35"/><rect class="cls-13" x="1261.52" y="410.35" width="10.27" height="52.83"/><rect class="cls-13" x="1321.73" y="418.34" width="10.27" height="52.83"/><rect class="cls-13" x="1261.52" y="203.37" width="10.27" height="96.89"/><path class="cls-25" d="M1254.71,216.21v6.65c0,3.51,5.35,6.36,12,6.36s12-2.85,12-6.36v-6.65Z"/><path class="cls-26" d="M1266.66,210.15c-6.6,0-12,2.84-12,6.36s5.35,6.35,12,6.35,12-2.84,12-6.35S1273.27,210.15,1266.66,210.15Z"/><polygon class="cls-27" points="1327.93 178.01 1224.6 237.66 1190.23 217.82 1293.56 158.16 1327.93 178.01"/><polygon class="cls-28" points="1224.6 237.66 1224.6 250.99 1327.93 191.34 1327.93 178.01 1224.6 237.66"/><polygon class="cls-29" points="1190.23 217.82 1190.23 231.15 1224.6 250.99 1224.6 237.66 1190.23 217.82"/><path class="cls-17" d="M1326.61,148.31c-2.66,3.85-4.45,11.55-4.45,11.55a28.92,28.92,0,0,0-3-4.74,12.19,12.19,0,0,0-5.17-3.26,38.1,38.1,0,0,1,.64,7.46c-.49,5-4.64,8.82-4.64,8.82a46.81,46.81,0,0,0-2.65-5c-1.49-2.37-5.63-4.91-5.63-4.91s-2.37,5.25-3.25,7.6-3.85,8.6-3.85,8.6-3-3.25-4.74-5.32-6.51-3.26-6.51-3.26a20,20,0,0,1-1.23,5.72,74,74,0,0,1-4.15,9s-2.6-3.75-3.49-4.69l-4-4.29a19.18,19.18,0,0,0-3.69,6.52,39.34,39.34,0,0,1-2.61,6.71,57.52,57.52,0,0,0-5.14-4.34,10.14,10.14,0,0,0-6.71-1.79,18.75,18.75,0,0,1,1.58,6.42,22.81,22.81,0,0,1-1.62,8.6s-4.14-1.77-4.73-4.43-1-7.37-1-7.37a47,47,0,0,0-6.66,8.28,92.61,92.61,0,0,0-4.44,10.35,28.61,28.61,0,0,1-2.07-5.61,28.82,28.82,0,0,0-3.26-6.81,53.16,53.16,0,0,0-5.52,6.81c-2.87,4.14-5.13,7.69-5.13,7.69a46.27,46.27,0,0,1-1.78-8.88,52.29,52.29,0,0,1,0-7.51,21.48,21.48,0,0,0-5.33,2.78,39.18,39.18,0,0,0-4.91,4.73,24.43,24.43,0,0,0-4.12-7.24c-2.85-3.38-10.07-7.76-10.07-7.76s2.34,5.92,1.68,16.19.8,21.43,2.46,23a130.91,130.91,0,0,0,15.54,9.74c4.59,2.46,9.91,6.34,14,4.91,4.6-1.63,15-9.22,31.08-17.9,9.41-5.08,20.31-12.29,28.25-16.6,13.51-7.37,25.79-13.06,33.8-18.42,5.41-3.69,5.31-5.68,6-9.23,1.75-9,6.66-28.25,6.66-28.25A29.25,29.25,0,0,0,1326.61,148.31Z"/><path class="cls-16" d="M1317.66,133s-6,2.45-7.63,6.14c-1.47-8.73-6.84-11.19-6.84-11.19s-6.62,3.79-8.92,9.09c-2.28-3.53-13-6.34-13-6.34s-4.43,7.7-5.92,13.62c-3.25-3.25-11.85-4.17-11.85-4.17s-3.68,6.68-3.68,11.71c-2.82-2.37-8-2.67-13.33-1.32-4,4.58-5.62,15.54-5.62,15.54a54,54,0,0,0-12.9-3.53c-2.88,4.52-5.59,14.13-5.59,14.13s-5.63-8.54-11.55-8.25c-.29,6.07-2.35,7.95-3.48,14.36l-14.18-4.2s7.22,4.39,10.07,7.77a24.57,24.57,0,0,1,4.11,7.23,40.74,40.74,0,0,1,4.92-4.73,21.45,21.45,0,0,1,5.33-2.77,52.15,52.15,0,0,0,0,7.5,45.52,45.52,0,0,0,1.78,8.88s2.26-3.55,5.12-7.69A52.31,52.31,0,0,1,1230,188a28.54,28.54,0,0,1,3.25,6.8,28.64,28.64,0,0,0,2.08,5.61,95.28,95.28,0,0,1,4.43-10.35,47.4,47.4,0,0,1,6.66-8.28,73.29,73.29,0,0,0,1,7.37c.6,2.64,4.72,4.44,4.72,4.44a23.05,23.05,0,0,0,1.63-8.6,19,19,0,0,0-1.59-6.43,10.17,10.17,0,0,1,6.72,1.8,57.28,57.28,0,0,1,5.13,4.33,38.47,38.47,0,0,0,2.62-6.7,19.13,19.13,0,0,1,3.69-6.53l4,4.29c.88,1,3.48,4.69,3.48,4.69a72.6,72.6,0,0,0,4.16-9,19.61,19.61,0,0,0,1.22-5.72s4.75,1.23,6.51,3.27,4.75,5.32,4.75,5.32,3-6.22,3.84-8.6,3.33-7.58,3.33-7.58,4.14,2.58,5.63,4.91a46.81,46.81,0,0,1,2.65,5s4.15-3.85,4.64-8.82a38.1,38.1,0,0,0-.64-7.46,11.89,11.89,0,0,1,5.17,3.26,29.6,29.6,0,0,1,3,4.74s1.78-7.7,4.45-11.55a28.87,28.87,0,0,1,6.22-6.36s-6.22.59-8.44,3.4C1323.65,141.36,1317.66,133,1317.66,133Z"/><path class="cls-25" d="M1391.47,147.85v6.6c0,3.52-5.36,6.35-12,6.35s-12-2.83-12-6.35V147.8Z"/><path class="cls-26" d="M1379.5,141.78c6.61,0,12,2.85,12,6.36s-5.36,6.36-12,6.36-12-2.85-12-6.36S1372.89,141.78,1379.5,141.78Z"/><polygon class="cls-27" points="1318.23 109.64 1421.56 169.3 1455.93 149.46 1352.62 89.8 1318.23 109.64"/><polygon class="cls-28" points="1421.56 169.3 1421.56 182.62 1318.23 122.97 1318.23 109.64 1421.56 169.3"/><polygon class="cls-29" points="1455.93 149.46 1455.93 162.78 1421.56 182.62 1421.56 169.3 1455.93 149.46"/><path class="cls-22" d="M1319.56,79.94c2.65,3.85,4.43,11.55,4.43,11.55a29.6,29.6,0,0,1,3-4.74,12.17,12.17,0,0,1,5.18-3.26,38.11,38.11,0,0,0-.65,7.46c.49,5,4.64,8.82,4.64,8.82a43.6,43.6,0,0,1,2.67-5c1.47-2.37,5.61-4.92,5.61-4.92s2.37,5.25,3.25,7.62,3.86,8.6,3.86,8.6,3-3.26,4.73-5.32,6.51-3.26,6.51-3.26a20,20,0,0,0,1.23,5.71,72.54,72.54,0,0,0,4.15,9s2.6-3.68,3.49-4.69l4-4.29a19.37,19.37,0,0,1,3.68,6.53,38.43,38.43,0,0,0,2.61,6.7,57.28,57.28,0,0,1,5.13-4.33,10.17,10.17,0,0,1,6.72-1.8,18.8,18.8,0,0,0-1.58,6.43,22.85,22.85,0,0,0,1.62,8.6s4.14-1.77,4.74-4.44a72.41,72.41,0,0,0,1-7.37,47.4,47.4,0,0,1,6.66,8.28,90.38,90.38,0,0,1,4.45,10.37,29,29,0,0,0,2.06-5.63,28.54,28.54,0,0,1,3.25-6.8,52.31,52.31,0,0,1,5.53,6.8c2.86,4.14,5.14,7.69,5.14,7.69a45.63,45.63,0,0,0,1.76-8.88,52,52,0,0,0,0-7.49,21.15,21.15,0,0,1,5.34,2.76,41.41,41.41,0,0,1,4.91,4.73,24.57,24.57,0,0,1,4.11-7.23c2.85-3.38,10.09-7.77,10.09-7.77s-2.35,5.92-1.7,16.19-.78,21.44-2.45,23a133.54,133.54,0,0,1-15.54,9.74c-4.61,2.45-9.91,6.33-14.07,4.85-4.59-1.64-14.94-9.23-31.07-17.91-9.4-5.07-20.32-12.28-28.25-16.6-13.51-7.37-25.8-13-33.81-18.42-5.4-3.69-5.3-5.67-6-9.22-1.77-9-6.66-28.26-6.66-28.26A29.07,29.07,0,0,1,1319.56,79.94Z"/><path class="cls-30" d="M1328.52,64.64s6,2.46,7.61,6.14c1.47-8.73,6.85-11.19,6.85-11.19s6.61,3.8,8.91,9.09c2.3-3.52,12.95-6.34,12.95-6.34s4.43,7.7,5.92,13.63c3.25-3.26,11.85-4.18,11.85-4.18s3.68,6.69,3.68,11.72c2.82-2.37,8-2.68,13.32-1.33,4,4.58,5.62,15.54,5.62,15.54a55,55,0,0,1,12.91-3.53c2.88,4.52,5.59,14.13,5.59,14.13s5.63-8.54,11.54-8.24c.29,6.06,2.34,7.94,3.47,14.36l14.2-4.21s-7.23,4.39-10.08,7.77a24.6,24.6,0,0,0-4.12,7.23,40.66,40.66,0,0,0-4.91-4.73,21.75,21.75,0,0,0-5.33-2.76,52,52,0,0,1,0,7.49,46.25,46.25,0,0,1-1.77,8.88s-2.27-3.55-5.13-7.69a55.48,55.48,0,0,0-5.53-6.8,28.57,28.57,0,0,0-3.26,6.8,29,29,0,0,1-2.06,5.63,90.38,90.38,0,0,0-4.45-10.37,47.35,47.35,0,0,0-6.65-8.28s-.45,4.73-1,7.37-4.74,4.44-4.74,4.44a23.24,23.24,0,0,1-1.62-8.6,18.76,18.76,0,0,1,1.59-6.42,10.17,10.17,0,0,0-6.72,1.79,57.41,57.41,0,0,0-5.14,4.33,39.2,39.2,0,0,1-2.6-6.7,19.09,19.09,0,0,0-3.69-6.52l-4,4.28c-.88.95-3.49,4.7-3.49,4.7a74,74,0,0,1-4.15-9,20,20,0,0,1-1.23-5.72s-4.72,1.23-6.51,3.26-4.72,5.32-4.72,5.32-3-6.22-3.86-8.6-3.26-7.62-3.26-7.62-4.14,2.58-5.61,4.92a45.15,45.15,0,0,0-2.66,5s-4.16-3.84-4.65-8.82a38,38,0,0,1,.65-7.45,12.05,12.05,0,0,0-5.18,3.25,30.32,30.32,0,0,0-3,4.74s-1.78-7.7-4.43-11.54a28.91,28.91,0,0,0-6.22-6.37s6.22.59,8.43,3.41C1322.51,73,1328.52,64.64,1328.52,64.64Z"/><polygon class="cls-13" points="1382.93 315.04 1372.66 315.04 1372.22 242.28 1382.49 242.28 1382.93 315.04"/><rect class="cls-13" x="1373.73" y="455.33" width="10.23" height="60.96"/><path class="cls-25" d="M1311.42,306.28v6.63c0,3.51,5.34,6.35,11.95,6.35s12-2.84,12-6.35v-6.66Z"/><path class="cls-26" d="M1323.37,300.22c-6.61,0-11.95,2.85-11.95,6.36s5.34,6.36,11.95,6.36,12-2.85,12-6.36S1330,300.22,1323.37,300.22Z"/><polygon class="cls-27" points="1384.64 268.08 1281.31 327.74 1246.94 307.89 1350.27 248.24 1384.64 268.08"/><polygon class="cls-28" points="1281.31 327.74 1281.31 341.06 1384.64 281.41 1384.64 268.08 1281.31 327.74"/><polygon class="cls-29" points="1246.94 307.89 1246.94 321.22 1281.31 341.06 1281.31 327.74 1246.94 307.89"/><path class="cls-30" d="M1253.1,261a53.79,53.79,0,0,1,4.66,7.12c1.55,3.14,1.32,8.86,1.32,8.86s2.46-3.45,3.94-5.66a24.53,24.53,0,0,1,3.69-4.44,39.16,39.16,0,0,0,3.68,8c1.07,1.67,6.92,6.76,6.92,6.76s.27-5.15.66-7.11c.66-3.33-.33-9.66-.33-9.66s3.17.6,5.55.79,6.56,2.45,6.56,2.45-.68-3.79-.9-6.9a19.28,19.28,0,0,1,1.59-7.37,15,15,0,0,0,4.51,3.88,46.42,46.42,0,0,0,6.44,2.46,67,67,0,0,0-.34-8.38,39.72,39.72,0,0,1,0-7.71s4.23,2.66,6,4.14a27.1,27.1,0,0,0,4.33,2.75V235.47s2.29.68,4.33,1.23a9.24,9.24,0,0,1,4.92,3.11s-.68-4.21-.9-7.13a63.72,63.72,0,0,1,.34-8.29,18,18,0,0,1,5.43.52l5.22,2s.27-3.57.67-6.22c.57-3.89,1.52-8.6,1.52-8.6a44.76,44.76,0,0,1,4,2.89,26,26,0,0,1,4.54,5.32s.33-5.32.11-8.66a27.86,27.86,0,0,1,1-7.65s2.64,2.94,4.43,5.22,3.55,4.32,3.55,4.32a32.63,32.63,0,0,1-.33-6.55,27.34,27.34,0,0,0-.55-7.76,20.6,20.6,0,0,1,5.44,2.21,12.31,12.31,0,0,1,4.1,4.78,74.68,74.68,0,0,0,.34-9.1c-.23-3.33-.67-5.89-.67-5.89a10.85,10.85,0,0,1,4.44,1.33,15.45,15.45,0,0,1,4.14,4s2.07-8.88,4.1-12.65a68.22,68.22,0,0,1,5.92-8.59s-4.32-.89-7.68,3.84a32.82,32.82,0,0,0-3.68,8.14,39,39,0,0,0-3.26-9.33,33,33,0,0,0-5.92-7.1l-4.71,9.7-6.82-8.22s-3.56,7.58-4,10.22c-2.81-2.67-8.46-4.6-8.46-4.6s3,8.6,1.66,13.62c-2.46-4-8.44-6.36-8.44-6.36s.09,13-.88,14.95a7.83,7.83,0,0,0-7.08-.74v12.12s-5.91-3-10.34-2c-.33,4.91-1.23,16.08-1.23,16.08s-4.29-3-8.71-2.56c-1.57,3.49-4.75,14.54-4.75,14.54s-3.47-4.15-8.44-4c.82,5.33-2.81,12.58-2.81,12.58s-4.14-5.47-7.84-5.76a90.42,90.42,0,0,1-3,15.39s-2.37-7.63-6.51-8.8c-2.09,6.3-5.27,9.07-6.36,15.6-.9-3.68-4.76-7.37-11.34-8.73,4,4.73,5,14.15,5,14.15Z"/><path class="cls-22" d="M1254.71,307.89s8.53,5.08,16.22,9.23c4.24,2.28,11.44,6.61,14.13,5,5.55-3.26,30.45-17.72,45.58-26.49,14.35-8.3,43.85-24.68,45.89-27.58s-.59-61.5-.32-73,1.36-19.66,1.36-19.66a71.29,71.29,0,0,0-5.92,8.6c-2,3.77-4.1,12.65-4.1,12.65a15.3,15.3,0,0,0-4.14-4,10.76,10.76,0,0,0-4.43-1.33s.44,2.56.66,5.89a76.74,76.74,0,0,1-.33,9.1,12.31,12.31,0,0,0-4.1-4.78,20.66,20.66,0,0,0-5.45-2.21,27.71,27.71,0,0,1,.56,7.76,31.23,31.23,0,0,0,.33,6.55s-1.88-2.22-3.55-4.32-4.43-5.22-4.43-5.22a27.11,27.11,0,0,0-1,7.65c.22,3.34-.11,8.66-.11,8.66a26,26,0,0,0-4.55-5.32,47.21,47.21,0,0,0-4-2.89s-.94,4.76-1.52,8.6c-.39,2.65-.66,6.22-.66,6.22l-5.22-2a18,18,0,0,0-5.43-.52,63.72,63.72,0,0,0-.35,8.29c.23,2.91.9,7.13.9,7.13a9.21,9.21,0,0,0-4.91-3.11c-2-.54-4.34-1.23-4.34-1.23V251a27.46,27.46,0,0,1-4.32-2.75c-1.82-1.48-6-4.14-6-4.14a41.37,41.37,0,0,0,0,7.71,67,67,0,0,1,.35,8.38,46.54,46.54,0,0,1-6.45-2.46,15.13,15.13,0,0,1-4.51-3.88,19.46,19.46,0,0,0-1.58,7.37c.22,3.11.89,6.9.89,6.9s-4.12-2.27-6.55-2.45-5.56-.79-5.56-.79,1,6.33.33,9.66c-.39,2-.66,7.11-.66,7.11s-5.85-5.09-6.91-6.76a39.2,39.2,0,0,1-3.69-8,24.89,24.89,0,0,0-3.68,4.44c-1.53,2.21-4,5.66-4,5.66s.24-5.72-1.31-8.86a54.88,54.88,0,0,0-4.67-7.12l-1.1,7.12s-1-9.42-5-14.15c-.22,5.73,1.55,11.8,1.72,17C1249.11,284.72,1254.71,307.89,1254.71,307.89Z"/><path class="cls-14" d="M1280.75,390.2a35,35,0,0,1-9,9c-15.78,9.77-22.68,13.16-44.12,6.22-17.31-5.6-22.24-17.85-34.39-28.85s-26.47-8.82-38.08-17.43c-17.86-13.21-20.11-31.44-20.11-31.44-4.91,23.49,6,33,14.15,45.84-5,22.37-27.77,88.26-40.79,118.92s-28.41,74.7-26,88.85,14.2,47.4,38.46,76.57,75.81,22,99.81,12c23.75-9.92,28.13-30.59,38.47-60.19s22.76-135.8,22.24-167.39C1280.84,414.24,1285.25,403.8,1280.75,390.2Z"/><path class="cls-5" d="M1155.13,359.18c11.63,8.59,25.9,6.42,38.07,17.43s17.2,23.25,34.4,28.85c21.43,6.94,28.33,3.55,44.12-6.22a35,35,0,0,0,9-9,47.6,47.6,0,0,0-2.12-5.3c-7.85-16.57-30.12-1.94-30.12-1.94s-5.56-18.6-14.56-23.78-26.53,0-26.53,0,.24-16.93-17.19-27-30.06-.59-36.31,8.85c-10.14-13.32-18.91-13.32-18.91-13.32S1137.27,346,1155.13,359.18Z"/><path class="cls-26" d="M1262.76,432.49c-5.28,3.54-14.59,29-18.42,56.51-2.46,17.92-31.47,87.38-41.76,110.65s-23.5,54.05-19,61,23.59,2.18,38.17-5.14,24.89-22.76,26.31-45.71,16.35-104.9,19.78-126.8C1272.49,453.67,1277.5,422.58,1262.76,432.49Z"/><path class="cls-26" d="M1166.69,397s-11.5,13.6-18.31,21.74-13.31,21.77-13.31,21.77,11.78-8.7,18.9-16.49S1166.69,397,1166.69,397Z"/><path class="cls-26" d="M1191.14,418.77s-11.63,27-13.84,36.56-3.58,30.93-3.58,30.93,10.83-16.13,14.38-30.93S1191.14,418.77,1191.14,418.77Z"/><path class="cls-26" d="M1220.79,429.47a121.14,121.14,0,0,0-18.7,27c-5.1,10.16-11.4,30.26-11.4,30.26s13.9-13.1,18.69-23.52S1220.79,429.47,1220.79,429.47Z"/><polygon class="cls-14" points="1404.62 474.27 1399.02 474.27 1389.48 507.43 1398.21 509.88 1406.97 479.44 1404.62 474.27"/><path class="cls-16" d="M1305,371.86s7.53-.7,7.27,12.1-.33,57.5,0,79.25,3.54,84.17,3.54,84.17,14.9,7.93,21.83,7.69,8.53-5.52,13.68-15.33,15.21-10.62,20.35-11.24,21.93,1.55,24.24-8.53,1.48-14.54,9-15.62,19-2.29,18.85-10.82,1.65-106.86,0-131.1-6.7-39.88-17.19-47.35-24.7-2.85-34.4,4.25-26.55,17.52-37.89,24.76c-18.53,11.83-32.19,13.51-37.74,17.9s0,14.92,0,14.92Z"/><path class="cls-17" d="M1330.9,380.57s2.09,29.95,3.43,43.47,6.64,79.23,9.61,92.26,3.69,18.94,3.69,18.94,5.33-14.48,2.82-39.3c-1.23-12.68-2.58-39.24-6.52-66.47A236.4,236.4,0,0,0,1330.9,380.57Z"/><path class="cls-17" d="M1389.48,345.82s1.42,38.81,6.41,66.55,5.86,80.13,5.86,80.13,5.87-28.54,4.81-47.65-5.1-46-8.35-64.28A278.58,278.58,0,0,0,1389.48,345.82Z"/><polygon class="cls-18" points="1117.58 882.73 1106.93 876.59 1102.72 860.67 1111.63 855.52 1117.58 882.73"/><polygon class="cls-16" points="974.22 560.83 1078 500.9 1057.89 792.8 1009.81 820.56 1004.51 796.34 972.07 815.07 958.65 822.82 926.21 841.56 920.91 871.89 872.83 899.65 974.22 560.83"/><polygon class="cls-18" points="981.57 564.95 1085.35 505.04 1065.24 796.93 1017.15 824.69 1011.86 800.47 979.41 819.2 965.99 826.95 933.54 845.68 928.25 876.02 880.12 903.87 981.57 564.95"/><polygon class="cls-16" points="989.97 570.05 1093.74 510.13 1165.68 855.02 1117.59 882.78 1112.3 858.56 1079.85 877.29 1066.43 885.04 1033.98 903.77 1028.69 934.11 980.6 961.87 989.97 570.05"/><polygon class="cls-31" points="989.97 570.05 974.22 560.83 872.83 899.65 880.12 903.87 981.42 565.36 981.42 565.43 972.07 956.94 980.6 961.87 989.97 570.05"/><polygon class="cls-32" points="1078 500.9 1093.74 510.13 989.97 570.05 974.22 560.83 1078 500.9"/><path class="cls-17" d="M1081.93,540.39l-7.88,4.54c.39,12.65-2.1,35.24-22.11,49.66a123.15,123.15,0,0,1-11.47,6.62c-7,3-12.9,3.21-17.88,1.77,6.27,5.26,15,8.17,26.69,3.06a123.47,123.47,0,0,0,11.49-6.62C1089.83,578.5,1081.93,540.39,1081.93,540.39Z"/><path class="cls-18" d="M1074.07,544.93l-5,2.91c-2.74,13-10.11,32-30,44.71a141.47,141.47,0,0,1-12.64,6.64,41.43,41.43,0,0,1-5.86,1.83c.66.66,1.3,1.35,2,2,4.91,1.44,10.88,1.23,17.87-1.77a123.15,123.15,0,0,0,11.47-6.62C1072,580.17,1074.46,557.58,1074.07,544.93Z"/><path class="cls-17" d="M1039,592.55c19.91-12.7,27.28-31.71,30-44.71l-10.87,6.28a66.24,66.24,0,0,1-26,31.58c-1.83,1.23-10.89,5.94-12.64,6.62a39.41,39.41,0,0,1-4.64,1.54,41.08,41.08,0,0,0,5.64,7.16,41.43,41.43,0,0,0,5.86-1.83C1028.13,598.51,1037.2,593.77,1039,592.55Z"/><path class="cls-33" d="M1014.89,593.86a39.41,39.41,0,0,0,4.64-1.54c1.75-.68,10.81-5.42,12.64-6.62a66.24,66.24,0,0,0,26-31.58l-48.72,28.14A55.28,55.28,0,0,0,1014.89,593.86Z"/><path d="M1017.32,670.82l5.37-3.11,2.72,15.49c.52,3.49,1.14,7,1.67,10.54l.14-.07c.21-4,.42-8,.64-11.88l1.38-17.86,4.46-2.57,3.6,15c.7,3.28,1.42,6.78,2.13,10.28l.15-.09c0-3.95.14-7.85.21-11.63l.5-17.33,5-2.9-1.75,37.45-6.59,3.8-3.36-14.61c-.57-2.46-1-5.15-1.48-7.59l-.13.09c-.11,2.75-.21,5.76-.42,8.68l-1.09,17.2-6.49,3.68Z"/><path d="M1048.5,652.83l14.53-8.39.44,6.67-9.28,5.36.47,7,7.9-4.55.46,6.6-7.91,4.56.54,8.08,9.65-5.57.46,6.67-14.89,8.59Z"/><path d="M1073,645.62l-6.38,3.68-.45-6.67,18-10.4.45,6.67-6.37,3.68,1.91,28.4-5.27,3Z"/><path d="M1003.55,725.54l14.65-8.45.44,6.66-9.4,5.43.55,8.12,8.05-4.65.44,6.67-8,4.65.91,13.61-5.24,3Z"/><path d="M1022.21,714.77l5.24-3,1.91,28.38,9.19-5.29.45,6.67-14.43,8.32Z"/><path d="M1039.43,722.86c-.77-11.44,3.06-20.47,9.33-24.09s11,.52,11.76,11.92-3,20.81-9.31,24.43S1040.17,734.32,1039.43,722.86Zm15.71-9.06c-.48-7-2.75-10-5.92-8.21s-4.91,7.18-4.41,14.18,2.77,10.35,6,8.52,4.85-7.44,4.38-14.49Z"/><path d="M1063.79,708.81c-.77-11.46,3-20.49,9.32-24.1s11,.53,11.76,11.93-3,20.8-9.3,24.42S1064.56,720.26,1063.79,708.81Zm15.7-9.06c-.47-7-2.75-10-5.92-8.21s-4.92,7.18-4.41,14.17,2.77,10.35,5.94,8.52,4.87-7.44,4.38-14.48Z"/><path d="M1088.07,676.75l8.38-4.84c4.91-2.83,9.12-2.57,9.68,5.77a18.22,18.22,0,0,1-3.45,12.49l6.21,11.05-5.87,3.39-5.32-10.06-2.87,1.66.85,12.64-5.24,3Zm9,11.55a7.72,7.72,0,0,0,3.89-7.68c-.24-3.42-1.81-3.76-4.56-2.17l-2.7,1.56.66,9.83Z"/><path d="M1098.74,823.06a12.68,12.68,0,0,0-6.49,2.66c-.43-5.4-3.21-17.19-4.1-20.52-3.45-5.76-10.58-6.14-15.37-7,.57-4.83-.8-6.07-2-11.06-.93-3.74-1.23-4.8-.85-7.84.37-3.31,3.34-6.94,4.45-10.14,3.48-10,3-19.65-.53-27-.28-.6-1,0-1,.82-.48,8.12,2.73,11.72-.79,23.63a61.81,61.81,0,0,0-6.14,9.6c-.83,1.61-1.59,4.1-2.25,5.38a13.3,13.3,0,0,1-1.14-2.3c.25-.9,1-1.56,1-2.64.07-3.26-2.94-6.89-4.11-7a4.86,4.86,0,0,0,.21-3.44,7.49,7.49,0,0,1-2.59,3.12,8.22,8.22,0,0,0-3,3.55c-1.16,2.59-.75,4.82.38,6-.86,1.39-.3,3.54.65,4.8,1.23,1.62,3.86-1,4-1a18.07,18.07,0,0,1,.94,4.24c-.43.91-1.45,2.15-2.45,3.68a40.18,40.18,0,0,0-4.11,9.69c-1.61,5-2.56,11.87-3.75,17.26-.68,3.07-2.09,6.08-2.46,9.08-.59,5.43.44,6.78,1.52,5,1.77-2.86,1.78-10.39,2.46-12.57,1.1-3.69,2.27-7.17,3.68-11.42,1.32-3.82,3.14-8,5.2-10.21,1.08,2.45,1.36,9.59,4.29,10.51a21.7,21.7,0,0,0,.93,8.84c1.12,4,3.83,7.18,5.16,13-1.06,8.4-1,11.83-3.36,21.36a5.14,5.14,0,0,0-.76,6.45c2.39,3.8,4.55,4.68,8.11,2.17a1.78,1.78,0,0,0,.47-2.06,15.33,15.33,0,0,0-5-4.78c1.57-3.69,6.34-17.85,7.08-23.49.57-4.8-1.12-12.67-3.22-19.95,2.25,2.46,7.24,3.52,10.38,2.93.87,6.82,4.14,12.67,5,17.1-.38,2.93.43,4.71,1.57,4.25a19.77,19.77,0,0,0,8.18-8.1C1099.58,824.49,1099.35,823,1098.74,823.06Z"/><polygon points="1036.69 882.16 1108.11 840.98 1107.42 836.04 1036.01 877.23 1036.69 882.16"/><path class="cls-14" d="M759.4,849.82c1-.54.63-2.72,2.62-4.91-.54-1.39-4.78-1.63-8.33-1.38,0-3.37-4.7-10.88-8.36-13.68-3.23.25-5.86,2.86-7,4-.32-3.13-1.9-6.6-3.55-7.86a15.09,15.09,0,0,0-15.88-1.41c-.74-2.46-1.23-5.72-2.95-7.68-3.35.41-5.78-1.22-8.24.84-.07-1.07-3-4.41-.31-6.4-3.81-1.47-11.26-1.23-13.25.88a18.68,18.68,0,0,0-2.95-4.41c-3.05-3.46-7.2-7.78-12.15-6.89a16.26,16.26,0,0,0-4.27-7.85c-3.8-3-6.66-3.19-11.31-1.81-1.87-1.87-5.77-4.65-8.8-4.23-.52-2.6-1.52-5-1.23-7.11-4,.09-6.37-.42-8.67,1.35,0-1.5.36-5.85-1.72-7.37-2.16,2.52-5.82,1.72-8.38,3.34-1.46-4.21-6.24-7.75-10.58-6.94.55-1.23-.25-4.44,1.48-6.35-6.37-3.38-13.61-1.23-15-.69a9.84,9.84,0,0,0-9.94-9.71,10.05,10.05,0,0,0-3.39.65c-.17-2-.11-5-1.13-6.6-1.87-2.87-5.91-.29-8.71,1.64a14,14,0,0,1,2.46-6.8,14,14,0,0,0-12.47.64c-1.23-4.11-6.14-8.25-10-6.89a14.15,14.15,0,0,0-5.39-8.47c-1,2.15-3,2.45-5.63,3.68-3.33-5.4-8.39-6.39-10.52-6,.68-1.4.62-3.68,2.24-5.82a18.18,18.18,0,0,0-13,.7,9.18,9.18,0,0,0-1.23.68,14.26,14.26,0,0,0-1.23-1.58c-1.23-1.43-4.63-4.17-6.76-4-1.74,2.11-2,4.1-2.54,6.46a10.79,10.79,0,0,0-1.94-.48c-4-.45-10,1.61-14,1.41.27,2.34,2.92,3.14,3.47,3.32a6.3,6.3,0,0,0-4.38,4.15c-3.58,0-8.6.75-12.28-.11-.89,2,1.64,3.82,2.56,4.56-5.72-.68-11.94,1.9-17,4.18,0,1.81,4.39,1.86,5.29,2.07-1.67.89-4.82,2.8-5.6,3.9a6.82,6.82,0,0,0-1.11,4.21c-3.23.4-7.47,2.28-10,2.38-.15,2.85,5.06,4.23,7.7,4.73a49.63,49.63,0,0,0-4.57,10c2.68-1.14,9.1-2.23,12.28-3a7.37,7.37,0,0,0,2.91,6.14,10.36,10.36,0,0,0,6.4,2.18c-1.58,1.23-4.79,3.68-6.92,5.38a24.59,24.59,0,0,0,9.66,2.8,11.23,11.23,0,0,0-3.09,4.37,30,30,0,0,0,13.45-.51c-1.13,2.06-1,4.43-1.53,6.69,4.51-.9,8.93-3.22,12.66-4.07a5.6,5.6,0,0,0,0,2,8.35,8.35,0,0,0,5,5.69,16.79,16.79,0,0,0,10.72.85c-.47.6,0,4.37-2.83,7.1,3.69,2,9.61,1.73,14.3-.13a106.43,106.43,0,0,0,.78,12.37c3.52-1.05,6.76-5.09,7.88-7,1,4.41,6.86,10.27,11.9,10.21-2,2.35-3.19,4.24-2,6.57,3.12.69,10.56-1.47,15.7-3.57.82,3.91,5.45,6.36,9.74,6.33a18.61,18.61,0,0,0,.51,10.22c3.21-1.73,8-2.8,10.49-3.87.68-.29,1.37-.6,2-.93,1,3.28,3.69,5.63,7.27,7a14.88,14.88,0,0,0,6.26,1c-2,1.74-4.92,3.46-5.91,7.07a72.72,72.72,0,0,0,16.33,1.23,16.09,16.09,0,0,0,3.3-.59c-1.85,4.52-.75,10.23,3.46,13,1.68-3.68,5.59-5.57,7.61-7a15,15,0,0,0,.26,5.78c.87,3.46,2.08,6.27,5.06,8.15,2.61-2.45,6.45-4.42,7.37-5.59.14,1.23,3.14,6.55,4.69,10.36,3.69.44,6.15-2.64,7.9-5.14.26,2.46,2.74,6.43,3.69,10.17,2.22.86,5.1-.66,7.45-2.58a12.65,12.65,0,0,0,5.89,8,13.9,13.9,0,0,0,10.38,0c.3,3.68,3.21,7.65,5.83,9.71,3.35-4.42,8.89-3.56,10.69-6.14,1.34,2.37,2.8,3.56,5.13,6.14,3.69-.59,9.69-8.23,9.25-12.28,2,1.23,10.54,2.36,12.81,2a24.25,24.25,0,0,0,9-4.19c-3.14-2.39-2.55-6.28-3.14-7.37,4.65,1.23,10.68.08,13.51-3.68a11.78,11.78,0,0,0,2-6.56c5.47.88,13-1.15,15.15-4.51A35.89,35.89,0,0,0,759.4,849.82Z"/><path class="cls-20" d="M483.06,759.48,696.55,882.74c5.69,3.29,15.72,2.88,22.3-.92l34.88-20.14c6.57-3.8,7.3-9.59,1.6-12.88L541.83,725.54c-5.68-3.28-15.72-2.86-22.29.92l-34.88,20.15C478.09,750.4,477.37,756.2,483.06,759.48Z"/><path class="cls-10" d="M495.08,752.86,698.34,870.78c4.62,2.66,12.77,2.33,18.11-.75l28.25-16.35c5.34-3.08,5.92-7.79,1.3-10.45L542.74,725.31c-4.62-2.67-12.76-2.32-18.09.75l-28.32,16.35C491.12,745.49,490.47,750.18,495.08,752.86Z"/><path class="cls-12" d="M617.84,782.38c-13.12,0-23.75,5.65-23.75,12.62s10.63,12.64,23.75,12.64S641.6,802,641.6,795,631,782.38,617.84,782.38Z"/><path class="cls-6" d="M841.6,285.47l-9.59-4.1-218.77,512h.11a1.79,1.79,0,0,0-.24.63c0,1.66,2.53,3,5.65,3,2.82,0,5-1.12,5.48-2.54h.1Z"/><path class="cls-34" d="M838.79,297.08H805.71s-10.94,17.83-12.54,30.22,10.58,20.26,10.58,20.26l8-18.88s.57.1,1.39.21c-.38,2.8-.48,5.84.46,7.66,2.06,4.07,7.46,5.15,9.42-1.23a76,76,0,0,1,2.85-7.72,19.89,19.89,0,0,0,6-3.22C840.3,317.63,838.79,297.08,838.79,297.08Z"/><path class="cls-15" d="M812.72,183.83s-13.9,0-19.55,30.84c-4.11,22.47,23.69,39.14,23.69,39.14l27-53.13Z"/><path class="cls-35" d="M806.24,483.11s-4.41,29.48,12.07,56.39c9.13,15,26.68,38.52,45.21,60.37,14.16,16.71,22.79,35.74,22.36,40.8-.54,6.31-23.59,24.12-23.59,24.12l9,13.51,47.55-33.44s-13.8-23.69-18.12-40.34c-4.68-18-9.62-42.78-19.66-62.51-19.33-38-27.91-58.85-27.91-58.85Z"/><path class="cls-6" d="M914.6,637s-7.49,11.78-11.63,15.4c-8.44,7.37-15.32,12.36-25,12.36-7.51,0-11.52-3.38-11.52-3.38S833.83,682.29,843.06,690c7.23,6,14.74,7.84,30.49,3.22,7.62-2.22,22.66-12.12,30-20.69,6.75-2.15,18-8,21-14.24C926.21,654.9,921.32,643.38,914.6,637Z"/><path class="cls-34" d="M899.26,418.2c-11.89-11.38-31.73.38-40.87,11.63-16,19.76-12.88,52.21-14.2,76-1.67,30.25-3,60.55-5.23,90.77-1.53,20.64-4.91,59.93-11.05,90.59-5.35,26.49-15.06,33.65-21.17,42.85-4.46,6.73,26.23,20.45,31,15,4.35-4.91,20-20.23,20.35-36,.51-22.84,10.69-45.91,23.15-84.15,2.45-7.48,8.26-14.59,6.21-49.13-.49-8.12-.59-24.41,1.87-32.16,1.91-6,8.73-13,11.59-19a122.07,122.07,0,0,0,7.16-18.78C915.88,478.6,920.48,438.49,899.26,418.2Z"/><path class="cls-30" d="M821,197.81c15.61-19.8,23.33-21.33,42.2-10.5,23.17,13.27,44.22,18.93,54.37,27.36,17.19,14.29,24.82,46.47,27.74,83.52.45,5.63,2.64,21.88-5.07,33.3,4.74,16,11.93,22.64,6.14,39.48C919.57,386.69,863,393.49,842.3,355.38c-1.23-2.36,2.06-10.6,3.68-12.73-4.31-2.45-7.37-8.42-7.37-14-8-4.3-14.74-10.78-16.56-22-16-3.59-33.08-12.53-27.89-31.74,2.53-9.36,15.25-31.11,17.5-42.08C815.71,213,816.51,203.48,821,197.81Z"/><path class="cls-35" d="M831.9,200.68c4.36-.72,10.18-15.56,12.06-24.18,1.23-5.86,25.65-21.81,25.64-21-.29,19.15,2.72,41,11.49,51-12.65,13.22-24.64,40.24-46.29,35.63C822.92,239.62,823.29,225.06,831.9,200.68Z"/><path class="cls-36" d="M853.75,325.84s21.48-6.95,33.09-5.56a90.94,90.94,0,0,1,21.59,5.56s-16.37,2.33-27.34,2.79S853.75,325.84,853.75,325.84Z"/><path class="cls-36" d="M863.17,352.11c1.39,0,25.54-.7,38.53-1.62s18.11-1.56,18.11-1.56A46.45,46.45,0,0,1,894,357C879,357,863.17,352.11,863.17,352.11Z"/><path class="cls-24" d="M824.89,320.09c-2.46,8.6,3.77,17.2,8,24-3.28,16.65-10.46,51.21-17.27,83.53-7.49,35.69-16.21,75.08-16.84,113.1C815.49,564,833.3,574,863,576.13c51.59,3.69,80.3-20.14,80.3-20.14s3.38-72.93,3.38-123.19c24.21-49.34-1.49-87.8-1.49-87.8s-33.16-2.46-53.68-16.38c-12-8.14-30.42-42-25.91-55.78,8-24.57,36.77-66.93,36.77-66.93l-10.79-4.78s-33.73,55.37-42.91,67.31c-2.95,3.85-16-.43-23.34-4.05-14.74-7.23-14.81-5.87-13.43-14.62,2.19-14.05,22.78-52.36,22.78-52.36l-14.51-8.83s-16.22,52.2-24.76,70.1c-6.82,14.32-8.71,23.92-2.15,34.39C798.19,301,810.88,313.67,824.89,320.09Z"/><path class="cls-15" d="M824.55,190.79s-3.89,20.22-6.43,27.56-7.85,24.09-7.85,24.09,7.17-3.79,11.13-1.81,7.11,7.24,10.5,8.08a21.3,21.3,0,0,0,7.8,0l2.38-9.32s-7.07-2-7.37-13.84,1.13-28,1.13-28Z"/><path class="cls-34" d="M811.07,125c17-3.82,25.93-4.52,41.06,1.6a83.84,83.84,0,0,1,24.17,11.12,2.14,2.14,0,0,1,1,1.93c-3.9,22.42-11.43,46.2-36.61,56.17C820,204,808.33,181.26,804.73,166,800.54,148.31,799.26,127.68,811.07,125Z"/><path class="cls-37" d="M892.86,107.57c-6.14-22.59-20.13-34-29.93-23.88-2-10.77-12.51-17.67-18.55-9.6-4.91-11.69-17.39-8.73-24.2-3.38-12.92,10.16-40.53,48.43-20.36,63,1.22,19.15,24.12,20.58,37.36,11.24,7.2,6.61,21,6.4,25.14-.25,2.46,12.05,6.15,23.44,8.6,33.62C879.46,173,901.84,140.65,892.86,107.57Z"/><path class="cls-34" d="M856.66,157s4.07-13.77,13.05-6.69-3.69,21-3.69,21Z"/><path class="cls-15" d="M872.09,185.16c-.15.35-6.56,11.47-12.28,21.88-6,11.05-13.17,22-19.74,27.59-9.61,8.19-6.05,21.18-6.05,21.18s3.48-8.37,8-7.06,9.2,5.42,14.58,10.07c4-6.37,9.71-13.73,16.25-24.81,6.35-10.77,15.3-22.93,11.59-35.91S872.09,185.16,872.09,185.16Z"/><path class="cls-6" d="M783.92,758.5c-7.29,11.53-8.6,19.75,1,24.92,14.54,7.82,22.79,1.62,39.31-11.62,11-8.89,12.7-17.49,22.27-27.72,5.89-.74,10.56-7.72,11.53-15.21A102.85,102.85,0,0,0,858,709s-4.91,8.87-9.07,17.39c-4.77,9.83-14.08,14.61-19.5,13.52-8.28-1.7-22.76-9.83-22.76-9.83S789.8,749.19,783.92,758.5Z"/><path class="cls-38" d="M841.07,347.56s4.24,9.17,20.89,19.24,45.27,0,45.27,0-25.25-2-39.17-7.1C858.81,356.29,841.07,347.56,841.07,347.56Z"/><path class="cls-38" d="M831.9,324.39c1.05.14,11.94,11.17,23.43,12.09s23.44-7.15,23.44-7.15-14.14.66-23.44-.65S831.9,324.39,831.9,324.39Z"/><path class="cls-38" d="M871.56,433.53s-15.3,18.79-22.11,35.8-12.87,70.33-12.87,70.33,12.1-41.22,18.71-63.44A346.57,346.57,0,0,1,871.56,433.53Z"/><path class="cls-34" d="M884.51,290.94s-12.41,23.91-26.35,48.73c-30.5,16.14-67,43.85-67,43.85l8.73,13.63s31.53-3.93,59.11-18.26c15.82-8.23,21.84-4.54,29.37-16.91,16.12-26.52,35.75-58.26,35.75-58.26S903,288.12,884.51,290.94Z"/><path class="cls-15" d="M917.54,214.64c-17.94,2.29-26.95,22.22-33.93,46a163.7,163.7,0,0,0-6.71,43.47,238.23,238.23,0,0,1,35.35,18.16c20.66-18.62,35.18-45.39,37.27-66.92S931.78,219.41,917.54,214.64Z"/><path class="cls-39" d="M877.15,297.08a62,62,0,0,1,22.69,7.13c11.84,6.37,17.7,13.08,17.7,13.08l-8.66,10.45S898.8,318.36,891.59,315s-17.46-4.91-17.46-4.91Z"/><path class="cls-34" d="M815,383.52l-18.89-3.68s-14.21,6.32-21.56,10-12,16.56-14.74,28.05.47,14.24,0,20.23,6,6.43,7.82,0,5.51-17.94,5.51-17.94,7.37-3,17.93-6.57,25.8-19.9,25.8-19.9Z"/><path class="cls-6" d="M1267.65,895.88c-15.24-18.11-37.4-25.39-59.52-15.77-16.13,7-25.91,21.22-39.11,32.66-26.54,23-58.46,31.74-93.35,43-12.37,4-56.9,11.66-54.62,31.85,2.45,21.79,42.21,26.13,57.85,27.73,36.85,3.76,76.76,11.17,111.55-4.55,18.72-8.46,36.72-18.8,54.88-28.38,11.22-5.92,23.81-11.3,31.5-21.88C1291.17,940.78,1282,913,1267.65,895.88Z"/><path class="cls-6" d="M598.16,890.77c-26-6.25-50.61-16.31-77.31-14.31-21.88,1.65-55.35,7.3-71.57,24-12,12.38-7.37,27.14,5.84,36.47,10.63,7.52,24.65,9.16,37.18,10.91,21.64,3,39.74,4.91,58.51,17.54,22.48,15.07,40.77,23.73,68.1,16.69,20.39-5.26,44.56-16.59,52.41-37.63C686.42,903.88,636.18,899.91,598.16,890.77Z"/><path class="cls-6" d="M490.48,814.57c-9.68-11.41-27.75-10-41-9.52a309.22,309.22,0,0,0-58.59,7.48c-21.17.76-44.21,6.14-35.11,24.38,5.62,11.25,27,11.36,36.85,13.12,22.25,4,38.88,12.86,62,9.59C473.79,856.93,511.79,839.73,490.48,814.57Z"/></svg>