<svg id="Layer_1" data-name="Layer 1" xmlns="http://www.w3.org/2000/svg" viewBox="0 0 1920 1080"><defs><style>.cls-1{fill:#dce2f9;}.cls-2{fill:#879efd;}.cls-3{fill:#7c93f8;}.cls-4{fill:#4c70e0;isolation:isolate;opacity:0.5;}.cls-5{fill:#897dd3;}.cls-6{fill:#3f2a28;}.cls-7{fill:#513534;}.cls-8{fill:#ffc9b6;}.cls-9{fill:#ff61ad;}.cls-10{fill:#543a3a;}.cls-11{fill:#ffb9a4;}.cls-12{fill:#fff;}.cls-13{fill:#bbd9f9;}.cls-14{fill:#2c1d1b;}.cls-15{fill:#ff85c5;}.cls-16{fill:#f4ebea;}.cls-17{fill:#f445a1;}.cls-18{fill:#ff76be;}.cls-19{fill:#d9eafe;}.cls-20{fill:#d8c4c3;}.cls-21{fill:#eddcda;}.cls-22{fill:#d3bcba;}.cls-23{fill:#ffb600;}.cls-24{fill:#fde01a;}.cls-25{fill:#bbcdff;}.cls-26{fill:#c9b2b1;}.cls-27{fill:#a9beff;}.cls-28{fill:#92b1ff;}</style></defs><rect class="cls-1" width="1920" height="1080"/><path class="cls-2" d="M1920,144.12V1080H0V632.32a199.1,199.1,0,0,1,75.58,14.89q12.53,5.13,25,9.86l1.75.67,6.44,2.4,2.52.93,6,2.17,2.94,1.06,5.7,2,3.23,1.13,5.49,1.87,3.42,1.16,5.36,1.76,3.54,1.16L152.2,675l3.65,1.15,5.14,1.59,3.74,1.14,5.06,1.51,3.8,1.12,5,1.43,3.84,1.1,4.95,1.36,3.89,1.07,4.89,1.3,3.93,1,4.85,1.24,4,1,4.81,1.18,4,1,4.78,1.13,4,.93,4.74,1.06,4,.9,4.7,1,4.05.85,4.68,1,4.06.82,4.65.91,4.08.77,4.63.86,4.08.74,4.6.8,4.11.7,4.57.76,4.11.66,4.56.71,4.12.61,4.53.66,4.13.58,4.51.62,4.14.54,4.48.56,4.16.5c1.49.18,3,.36,4.46.52l4.17.47,4.42.47,4.19.42,4.41.43c1.39.14,2.79.26,4.18.39l4.39.38,4.2.35,4.36.34,4.2.3,4.35.3,4.23.27,4.3.26,4.26.22,4.26.22,4.26.19,4.25.17,4.27.15,4.23.14,4.3.11,4.18.09,4.35.07,4.11.06h16.9l4.59-.06h3.83l4.83-.1,3.58-.08,5.25-.15,3.15-.1c2.18-.07,4.35-.16,6.52-.25l1.86-.07q4.2-.18,8.4-.4l1.52-.08c2.28-.13,4.57-.25,6.84-.39.92,0,1.83-.12,2.75-.18,1.87-.11,3.74-.23,5.6-.36l3.13-.23,5.22-.38,3.26-.27,5.07-.41,3.4-.31,4.9-.44,3.5-.35,4.8-.47,3.55-.38,4.73-.51,3.6-.41,4.67-.54,3.61-.45,4.65-.57,3.62-.48,4.62-.61,3.63-.5,4.61-.65,3.62-.53,4.59-.69,3.62-.56,4.59-.72,3.59-.58,4.61-.76,3.58-.61,4.58-.79,3.6-.65,4.57-.82,3.58-.67,4.57-.86,3.55-.69,4.59-.9,3.54-.71,4.57-.93,3.55-.74,4.57-1,3.52-.76,4.58-1,3.49-.79,4.6-1,3.46-.8c1.54-.35,3.07-.71,4.61-1.08l3.45-.82,4.6-1.11,3.43-.84,4.62-1.15,3.4-.86,4.64-1.19,3.36-.87c1.56-.4,3.11-.82,4.66-1.23l3.34-.89c1.56-.41,3.12-.84,4.67-1.26l3.31-.9,4.7-1.31,3.25-.91,4.77-1.36,3.17-.91,4.81-1.4,3.13-.92L740.6,670l3.08-.93,4.92-1.5,3-.91,5-1.56,2.89-.91,5.07-1.62,2.81-.89,5.18-1.69,2.68-.87,5.31-1.77,2.53-.84,5.49-1.85,2.34-.8q2.88-1,5.74-2l2.07-.71,6.06-2.13,1.75-.61q3.27-1.15,6.53-2.34l1.25-.44,7.19-2.61.59-.22q23.52-8.62,46.78-18h0l7.65-3.09.72-.3,6.93-2.85,1.24-.51,6.42-2.67,1.52-.63,6.12-2.59,1.73-.73,5.9-2.52,1.88-.81,5.73-2.47,2-.87,5.6-2.45,2.11-.93,5.46-2.42,2.22-1,5.37-2.4,2.22-1,5.33-2.41,2.3-1,5.24-2.4,2.32-1.07,5.21-2.4,2.35-1.1,5.17-2.41,2.35-1.1,5.16-2.43,2.35-1.12,5.14-2.45,2.35-1.12,5.13-2.47,2.33-1.13,5.13-2.49,2.35-1.14,5.1-2.5,2.33-1.14,5.13-2.54,2.27-1.12,5.16-2.57,2.25-1.13,5.17-2.6,2.21-1.11,5.2-2.63,2.18-1.11,5.2-2.65,2.17-1.11,5.25-2.7,2-1.06,5.36-2.77,2-1,5.42-2.82,1.9-1,5.45-2.86,1.84-1L1079,526l1.72-.91,5.66-3,1.59-.85,5.78-3.09,1.47-.79,5.9-3.18,1.33-.72,6.11-3.31,1.08-.59,6.3-3.44.91-.49,6.61-3.63.55-.3,7.09-3.91h0c90-49.74,176.37-102.29,259.06-151.23h0l6.34-3.75.43-.25,6-3.55.63-.37,5.8-3.42.78-.46,5.64-3.32.94-.55,5.49-3.22,1.07-.62,5.3-3.11,1.4-.81,5-2.93,1.49-.87,4.89-2.85,1.73-1,4.65-2.7,1.77-1,4.68-2.7,1.47-.85,4.9-2.82c.48-.28,1-.56,1.45-.83l4.92-2.83,1.34-.77,5-2.86,1.24-.7,5.1-2.91.62-.35q11.31-6.42,22.53-12.68l2-1.1,3.84-2.13,2.44-1.35,3.43-1.9,2.87-1.58,3.19-1.75,3.06-1.69,3.15-1.71,3.1-1.69,3-1.64,3.22-1.75,2.93-1.58,3.28-1.76,2.88-1.54,3.33-1.78,2.79-1.48,3.4-1.8,2.76-1.46,3.4-1.79,2.75-1.44,3.4-1.77,2.73-1.42,3.41-1.76,2.7-1.39,3.42-1.75L1582,239l3.43-1.75,2.67-1.34,3.42-1.72,2.66-1.33,3.4-1.7,2.65-1.31,3.43-1.69,2.58-1.26,3.47-1.69,2.56-1.25,3.46-1.66,2.55-1.22c1.15-.56,2.31-1.11,3.46-1.65.85-.41,1.69-.81,2.54-1.2l3.45-1.63,2.52-1.18,3.47-1.61,2.48-1.15,3.49-1.6,2.45-1.12,3.5-1.58,2.43-1.09,3.52-1.57,2.38-1.06,3.56-1.56,2.33-1,3.57-1.55,2.32-1c1.19-.52,2.38-1,3.58-1.53l2.28-1,3.6-1.52,2.24-.93,3.64-1.5,2.19-.89c1.23-.51,2.46-1,3.7-1.5l2.1-.84c1.25-.51,2.51-1,3.76-1.5l2-.8,3.81-1.49,2-.76,3.88-1.48,1.88-.71,4-1.48c.6-.22,1.19-.45,1.79-.66l4.06-1.49,1.67-.6c1.39-.51,2.79-1,4.18-1.5l1.53-.54,4.35-1.51,1.35-.47q2.29-.79,4.59-1.56l1.09-.37c1.65-.55,3.3-1.1,4.94-1.63l.72-.24q2.74-.9,5.49-1.76l.16-.06q22.77-7.22,45-12.5l.35-.08c1.72-.41,3.45-.81,5.17-1.2l.61-.13c1.63-.37,3.25-.73,4.87-1.07l.88-.19,4.6-1,1-.2,4.44-.88,1.15-.22,4.29-.79,1.24-.22,4.19-.73,1.31-.22c1.37-.22,2.73-.45,4.1-.66l1.36-.21,4-.6,1.4-.2,4-.55,1.43-.18,3.93-.49,1.47-.17c1.29-.15,2.58-.3,3.88-.43l1.49-.16,3.84-.38,1.5-.13,3.82-.33,1.5-.11,3.8-.27,1.51-.1,3.78-.22,1.5-.07,3.78-.17,1.47,0c1.26,0,2.52-.08,3.78-.11H1920Z"/><path class="cls-3" d="M1920,677.58V1080H0V677.58A200.78,200.78,0,0,1,86.77,697.3C373.17,834.5,680.43,880.05,960,881.23c279.57-1.18,586.82-46.73,873.22-183.93A200.82,200.82,0,0,1,1920,677.58Z"/><path class="cls-4" d="M1391.61,751.17c-8.38-13.41-48.86,9.3-89.74-5.25-25.24-9-88.43-39.12-102.44-40s-26.48,10.84-18.13,39.25,51.69,24.69,82.36,34S1368.23,809.58,1380,790.8,1403.2,769.76,1391.61,751.17Z"/><path class="cls-5" d="M977,592.53c-6.24-5.29-12.7-14.83-8.56-27.19s9.45-46.74-1.69-53.2-17.16-25-17.16-25a48.79,48.79,0,0,0-21.93.7c-11.07,3.2-18.78,16.39-23.09,22.35s-20.69,16.65-39.78,13.48c-16.66-2.76-20.23,5.5-24.48,11.48-4.59,6.46-2.64,12.21,1.43,12.85,2.84.45,4.74.1,11.06-7,5.92-6.73,14.08-3.18,23.36-4.06-1.29,1-13.55,6.13-19.3,17.22-6.66,12.87-2,23.16,6.48,22.17,5-.59,1.94-10.78,7-18.31,3.49-5.2,10.27-6.6,19.9-10a83.4,83.4,0,0,0,14.18-7.08c-2.8,7.24-7.13,17.85-8.64,22.89-3.88,12.87.08,28.45,14.37,40.69s29,16.87,31.74,11.56-9.32-10.61-12.62-13.63c-8.8-8.25-6.2-17-6.2-17s6,14.64,25.29,22.83c4,1.7,14.21,4.2,17.16,1.1,1.36-1.44-2.36-6.06-5.67-11,6.42,3.57,11.87,6.17,17.91,5.9C984.27,604,983.7,598.21,977,592.53Z"/><path class="cls-6" d="M950.92,484l-9.9,7.7c-4,3.14-2.48,11.8,3.43,19.33s13.95,11.1,18,8l9.9-7.7Z"/><path class="cls-7" d="M968.82,491.92c5.92,7.53,7.46,16.19,3.44,19.33s-12.1-.42-18-7.95-7.45-16.2-3.44-19.33S963,484.39,968.82,491.92Z"/><path class="cls-8" d="M1349.89,237.63c3.1,0,6.39,6.27,8.23,8.37s10.62,14.3,13.73,25.55,3.65,19.27,0,27-22.39,15.78-32.44,19-42,11-42,11l-18.5-14.3s15.52-9.9,21.75-14.29a185.58,185.58,0,0,1,31-16.94L1318,269.71Z"/><path class="cls-9" d="M1260.35,174.47c18.49-11.53,41.79-5.41,61.66,17.27a239.12,239.12,0,0,1,32,47.9s0,12.09-13.19,21.68A61.26,61.26,0,0,1,1318,271l-47.41-31S1243.26,185.13,1260.35,174.47Z"/><path class="cls-10" d="M1481.93,219.67a5.34,5.34,0,0,0-7.07-2.66h0l-.39.19-513.56,272a6.15,6.15,0,0,0-2.74,7.87,5.36,5.36,0,0,0,7.09,2.66c.14-.06.26-.13.39-.2l513.56-272A6.15,6.15,0,0,0,1481.93,219.67Z"/><path class="cls-11" d="M1199.08,711.31c-11.7,4.63-15,8.8-11.9,16.34,4.64,11,16.42,17.88,26.84,20.05,15.74,3.3,27.49,25,44.32,7.7,4.31-4.4.52-16.13-1-22.26.31-4.28-7.28-17.77-6.7-29.32-16.58,6.32-18.44,2.47-22.9,5.38a114.2,114.2,0,0,0,2.53,11.86C1224.29,719.17,1206.91,708.18,1199.08,711.31Z"/><path class="cls-12" d="M1257.53,731.06s-9.84,3.53-16.17,5.5a34.86,34.86,0,0,1-33.13-8.43c-9-8.8,4.85-14.77,4.85-14.77s-12.39-14.18-27-8.06c-6.8,2.83-10.85,17.73-7,24.4,4.13,7.08,12.69,14.64,19.27,16.3s19.54,6,24.52,9c9.14,5.5,24.66,15,35.1,5S1257.53,731.06,1257.53,731.06Z"/><path class="cls-8" d="M1363.5,708.18c.37,1.71-5.2,27.42-7.69,34.69-1.92,5.68-2.39,9-7.84,10.74-11.23.68-11.78,2.61-14.41,8.27-2.29,5,13.66,14.86,24.5,13.46,2.88-.38,16-.7,20.24-7.59,6.25-10.14-.58-19,3.22-30.7,4.25-13.11,21.32-12.61,16.21-26.57-1.52-4.16-6.13-12.57-8.19-16.09-1.34-2.29-3.14-9.7-4.67-19.54-12.09,5.62-22.65,4.56-28.72,6.89C1359.13,689.6,1360.9,695.92,1363.5,708.18Z"/><path class="cls-12" d="M1374.61,762.93c1.39-9.31,1.39-28.59,5.87-35.88,3.63-5.87,12.39-14.4,21.9-18-6.36-10.15-12.85-14.67-12.85-14.67s-17.33,12.32-19.39,28.69-1.9,37.18-13.48,38.56-6.33-9.09-6.33-9.09-19.18-9.3-21.36,9.31c-.75,6.46,2,11.72,13.27,16.93a39,39,0,0,0,18.61,3.66C1367.8,779.58,1373.28,772.24,1374.61,762.93Z"/><path class="cls-13" d="M1386.81,740.58c1.31-9.39,25.73-14.93,16.09-30.8l-.48-.73c-9.51,3.58-18.26,12.09-21.89,18-4.49,7.24-4.49,26.57-5.87,35.88s-6.86,16.65-13.76,19.53a28.88,28.88,0,0,0,17.44-6.91C1388.69,766.58,1385.5,750,1386.81,740.58Z"/><path class="cls-14" d="M1318.83,340.52c28.52,37,67.88,91.19,25,121.32,8,18.7,17.6,47.58,1.69,84.68,10.73,7.53,19,25.21,22.91,40,6.73,25.74,18.7,89.07,18.23,97.66-4.33-.52-18.19,3.45-25.7,11.73-11.85-24.51-28.17-61.58-42.29-84.75-9.23-15.12-17.6-31.67-21.08-51.37-6.23-3.7-7.24-14.65-5.2-18.69-11.44-15-16-37.39-18.41-54.89-2.39-17.28.16-29.51-10.86-44-6.44-8.46-13-15.39-16.94-25.55a167.37,167.37,0,0,1-8.35-31.9C1268.22,385.11,1303.31,365.12,1318.83,340.52Z"/><path class="cls-6" d="M1184,552.1c-4.8-22,4.16-57.82,7.51-76.28,5.83-32.12,16.34-73,31.28-102.27,12.47,16.13,49,24.48,74,17.8,16.62,36.91,19.56,90.38-26.58,98.87,2.49,28.7-13.5,54.26-35.6,70.43,14,21.36,18,19.38,21.94,53.33,1.49,12.89-4.22,78.08-5.6,95.11-8.13,2.66-17.85,3.6-23.1.12-18.87-24.53-39.92-102.51-43.79-138.51C1177.48,563.9,1180,557.11,1184,552.1Z"/><path class="cls-8" d="M1286.86,190.31a4.32,4.32,0,0,0-3-3c-20.89-5.74-25.7-17-29.32-35.88-.51-2.69-4-3.9-6.24-2.54-11,6.81-15.74,3.78-28.23,7.2,11.69,34.89-16.17,50.33-25.3,64.19-2.32,3.5,21.81,21.06,34.71,19.24a79.88,79.88,0,0,0,31.75-11.18C1271.69,221.62,1289.93,204.64,1286.86,190.31Z"/><path class="cls-15" d="M1182.39,256.3c-1.22-8.75-3.69-18.35,1.59-28,3.91-7.21,14.37-15,20.83-19.52,15.9-4,33,9.43,50.23-4.71,12.26-10.07,11.56-22,13.79-23.76,16.29-12.39,25.46-3.77,33.73,8.14,11,15.75,10.2,33.34,9.63,51.23-.44,13.54-2.3,17.59-2.3,40.42,0,23.16,16.28,63.7,27.6,81.38-4.76,13.58-18.86,27.92-37.87,36-16.34,7-71.48,17.24-85.13-5.42,2.43-22.87,2.2-38.21.5-49-2.13-13.53-6.54-19.9-10.88-25-4.88-5.75-24.41-16.28-26.47-26.47C1175.33,280.15,1184.1,268.48,1182.39,256.3Z"/><path class="cls-9" d="M1276.42,171.43s5.43,11.46,0,22.53-16.5,17.53-30.51,18.89-43.6-2.2-43.6-2.2a10.64,10.64,0,0,1,6.91-11.74c8.52-3.42,35.12,1.49,45.84-5s10.16-13.8,13.89-20S1276.42,171.43,1276.42,171.43Z"/><path class="cls-8" d="M1262.74,110.3c-2-18-16.66-41.88-36.81-40.35-20.53,1.54-39.45,18.83-41,33-2.72,24.1,4.4,82.73,42.43,68.18C1256.94,159.74,1265.64,137.09,1262.74,110.3Z"/><path class="cls-12" d="M1211.31,366.47S1196.46,412.2,1180,456c-11.21,29.9-22.5,85.48-22.06,129,.19,17.51,18.58,38.25,41.44,39.22,29.82,1.29,40.44.07,61-13.19s47.29,2.53,68.56-2.65A175.36,175.36,0,0,0,1383,584.94s-22.12-55.64-22.12-96c0-29,11.45-42.23,5.7-74.12s-38.65-68-38.65-68-19.8,29.69-61.24,29.69c-13,0-30.18,4.63-38.7-6.6-6.93-20.67-16.71-47.16-33.49-65.61-15-16.49-11.6-58.28-11.6-58.28s-11.5,27-12,41.85,20.54,27.9,23.57,38.42C1202.18,352.75,1211.31,366.47,1211.31,366.47Z"/><path class="cls-13" d="M1207.72,360.15l1.26,13.38s11,10.06,48.39,10.17c49.36.14,74.18-33.94,74.18-33.94l-5.94-9.24s-43.36,34-86.88,30.06C1224.74,369.34,1207.72,360.15,1207.72,360.15Z"/><path class="cls-13" d="M1289,481.11s-22.92,21.15-31.65,57.11-6,47-6,47,10.66-24.33,19.15-47S1289,481.11,1289,481.11Z"/><path class="cls-13" d="M1215.93,468s-7.23,18.25-15.76,37.24c-6.41,14.24-11.74,37.23-11.74,37.23s15.85-18.27,21.59-38.35A151.53,151.53,0,0,0,1215.93,468Z"/><path class="cls-13" d="M1202.31,210.67s26.92,2.2,33.32,40.62,9.81,83,15.31,104.11S1262.5,381,1262.5,381h12.56s-12.92-31.71-18.4-66.1-4-75.39-18-94.72-31-14.6-31-14.6Z"/><path class="cls-13" d="M1269.63,176.71s17.6,6.9,19.93,24.28,7.15,67.69,10.26,93.72c2.2,18.19,10.3,44.33,14.42,50.73s13.71.22,9.14-4.92-17.6-38-18.28-74.14c-.55-27.49-3.13-52.88-7.38-70.25-2.82-11.53-6.37-16.65-10.52-19.33C1276.74,170.07,1269.63,176.71,1269.63,176.71Z"/><path class="cls-8" d="M1152.84,300s-.41,9.3-.41,20.26c-10,20.22-18,45-20.33,54.84-4.69,19.64-4.55,26.67.65,34.09,4.12,5.9,11.8,10.58,18.34,8.37,6.87-2.32,16-16.3,16.49-23.3.44-6.83-10-9.71-5.9-20.82s21-25.36,32.89-50.3C1195.44,289.87,1152.84,300,1152.84,300Z"/><path class="cls-9" d="M1192.65,218.1s-19.66-.95-29.61,29.82c-7.94,24.54-10.61,56.33-10.61,56.33s10.56,24,42.09,19c13.53-14.7,21.41-20.74,30.8-52C1233.5,243.88,1210.37,218.93,1192.65,218.1Z"/><path class="cls-16" d="M1152.84,300l-.41,10.21s.94,6.77,13.28,13.67,26.39,4.1,26.39,4.1l4.69-7.25a61,61,0,0,1-25.84-6.46C1157,307.51,1152.84,300,1152.84,300Z"/><path class="cls-16" d="M1317.9,271l6.69,5.42s10.4,2.2,22.31-8.8c11.22-10.34,11.22-21.6,11.22-21.6l-5.13-8.37s-5.18,13.19-14.88,21.88A54.93,54.93,0,0,1,1317.9,271Z"/><path class="cls-6" d="M1275.81,83c-5.58-11.34-16.55-18.25-27.63-16.91-7.7-8.35-21.06-15.18-38.68-6.26-17.38,8.8-25.14,18.87-44.76,28.7,7.57,17.72,35.06,41.11,49.9,36.45.35,6.27,3.82,10.88,6.8,17.48,10.55,23.34,28.43,29.12,35.93,31.8.64-22,20.32-43.88,22.67-60.06C1281.54,103.72,1280.52,92.54,1275.81,83Z"/><path class="cls-8" d="M1209,131.09s9.15-15,18.15-4.45-7.57,25.08-7.57,25.08Z"/><path class="cls-4" d="M1070.48,761.54c-41.18,0-74.56,17.74-74.56,39.65s33.38,39.66,74.56,39.66S1145,823.09,1145,801.19,1111.65,761.54,1070.48,761.54Z"/><path class="cls-6" d="M986.41,707.25a25.33,25.33,0,0,0,5.68,4,170.81,170.81,0,0,1,21.6-62.89L1027,625.23a7.31,7.31,0,0,0-6.39-2.38L1007.86,645a178.57,178.57,0,0,0-22,61.66A3.08,3.08,0,0,1,986.41,707.25Z"/><path class="cls-17" d="M991.54,665.39l6.14,95,2.2,34.73c12.8,13.48,39,22.75,69.35,22.75s56.58-9.28,69.38-22.78l2.2-34.68,6.13-95Z"/><path class="cls-18" d="M1069.28,624c-42.89,0-77.74,18.51-77.74,41.35s34.8,41.35,77.74,41.35S1147,688.22,1147,665.39,1112.21,624,1069.28,624Z"/><path class="cls-9" d="M1069.29,656.6c30.64,0,56.88,9.57,67.94,23.1,3.59-4.4,5.61-9.28,5.61-14.37,0-20.72-33-37.52-73.55-37.52s-73.56,16.8-73.56,37.52a22.67,22.67,0,0,0,5.61,14.37C1012.4,666.17,1038.64,656.6,1069.29,656.6Z"/><path class="cls-19" d="M1069.29,702.9c30.64,0,56.88-9.56,67.94-23.15-11.06-13.58-37.3-23.09-67.94-23.09s-56.89,9.56-67.95,23.09C1012.4,693.34,1038.64,702.9,1069.29,702.9Z"/><path class="cls-12" d="M1103.18,645a2.79,2.79,0,1,1-2.79-2.8,2.79,2.79,0,0,1,2.79,2.8Z"/><path class="cls-12" d="M1093.42,686.58a2.8,2.8,0,1,1-2.81-2.79h0a2.79,2.79,0,0,1,2.8,2.78Z"/><path class="cls-12" d="M1056.85,660.51c-.9-1.69-3.41-4.81-5.75-5.18.58-4-.76-8.1-5-10.19-4.7-2.31-12.88.53-13.76,5.58a5.59,5.59,0,0,0-6.21-.82c-3.2,1.55-3.79,4.4-3.12,7.13-4.11-1.1-9,.53-10.81,4.53-1.19,2.67-.09,7.22,2.45,8.8a6.43,6.43,0,0,0,2.36,8.77h.06a8.65,8.65,0,0,0,9-.18,9.57,9.57,0,0,0,13.53,0h0a9.42,9.42,0,0,0,1.61-2.16c4.88,1.32,10.43-1.18,14-4.4C1059.18,668.8,1059.31,665,1056.85,660.51Z"/><path class="cls-12" d="M1131.73,662.66a10.71,10.71,0,0,0-5.16-.77,8.06,8.06,0,0,0-5.35-7.88,7.07,7.07,0,0,0-6.34.57,6.73,6.73,0,0,0-5.94-3.92c-2.29,0-3.51,1.94-3.83,4.1-2.71-2.19-7.15-3.44-9.69-3-3.16.57-5.91,2.47-6.84,5.15-2.85-2.43-8.37-2.2-10.5.94-3.07,4.48,2.39,7,6.53,8.55a6.06,6.06,0,0,0-1.74,2.75c-.91,3.3,1.53,6,4.4,7.1a12.1,12.1,0,0,0,10.09-.86c.37,3.75,2.74,6.19,7.82,6.06a11,11,0,0,0,5.75-2.1,10.37,10.37,0,0,0,10.14,7.19c2.49,0,6.16-1,7.77-3a10.38,10.38,0,0,0,1.77-4.86,8.87,8.87,0,0,0,2.84-1.1,8.1,8.1,0,0,0,3.66-7.78A9.39,9.39,0,0,0,1131.73,662.66Z"/><path class="cls-12" d="M1064.81,645a4.07,4.07,0,1,1-4.07-4.07h0A4.07,4.07,0,0,1,1064.81,645Z"/><path class="cls-12" d="M1013,653.81a4.07,4.07,0,1,1-4.07-4.07h0a4.07,4.07,0,0,1,4.07,4.07Z"/><path class="cls-12" d="M1080.4,682.28a7.22,7.22,0,1,1-7.24-7.2h0A7.22,7.22,0,0,1,1080.4,682.28Z"/><path class="cls-12" d="M1062.72,688.56a4.88,4.88,0,1,1-4.88-4.88h0a4.87,4.87,0,0,1,4.88,4.86Z"/><path class="cls-12" d="M1085.55,643.45a4.19,4.19,0,1,1-4.2-4.18h0A4.2,4.2,0,0,1,1085.55,643.45Z"/><path class="cls-12" d="M1018.54,646.24a2.8,2.8,0,1,1-2.81-2.79h0a2.79,2.79,0,0,1,2.8,2.78Z"/><path class="cls-12" d="M1078.79,636.48a2.8,2.8,0,1,1-2.8-2.8h0a2.79,2.79,0,0,1,2.79,2.79Z"/><path class="cls-12" d="M1037.9,689.48a2.79,2.79,0,1,1-2.79-2.79h0a2.79,2.79,0,0,1,2.79,2.79Z"/><path class="cls-17" d="M1069.32,756.33c-38.38,0-69.49,16.55-69.49,37s31.11,37,69.49,37,69.48-16.5,69.48-37S1107.69,756.33,1069.32,756.33Z"/><path class="cls-6" d="M1120,679a7.22,7.22,0,1,1-7.23-7.21h0A7.23,7.23,0,0,1,1120,679Z"/><path class="cls-9" d="M1129.31,668.15l-2.54-1.82a6.15,6.15,0,0,0-.52-.37l-.28-.21h0a5.89,5.89,0,0,0-5.91.5c-5.11,2.94-9.29,11-9.29,17.76v13.47l3.18,1.83c2.09-1.85,15.39-7.1,15.39-13.92v-12.1a12.23,12.23,0,0,0-.49-3.5Zm-9.16,18.79a5,5,0,0,1-2.2.68,8.11,8.11,0,0,1-.41-2.44c0-4.6,2.8-9.95,6.25-11.94a4.75,4.75,0,0,1,2.2-.67,8.11,8.11,0,0,1,.41,2.44C1126.4,679.59,1123.59,685,1120.15,686.94Z"/><path class="cls-17" d="M1123.2,668.59c-5.12,2.95-9.3,11-9.3,17.76v13l18.59-7.7v-16C1132.49,668.79,1128.28,665.63,1123.2,668.59Zm-3,18.36a5.16,5.16,0,0,1-2.2.69,8.17,8.17,0,0,1-.41-2.45c0-4.6,2.8-10,6.25-11.94a5,5,0,0,1,2.2-.67,8.11,8.11,0,0,1,.41,2.44c0,4.57-2.81,9.93-6.25,11.92Z"/><path class="cls-9" d="M1126,672.57a8.11,8.11,0,0,1,.41,2.44c0,4.6-2.81,9.9-6.25,11.93a5,5,0,0,1-2.2.68c.85,2.79,3.1,3.86,5.84,2.28,3.45-2,6.25-7.33,6.25-11.93C1130,674.41,1128.34,672.39,1126,672.57Z"/><path class="cls-17" d="M1028.69,609.9l-2.54-1.82a6,6,0,0,0-.52-.36l-.3-.21h0a5.92,5.92,0,0,0-5.9.5c-5.12,2.94-9.31,10.94-9.31,17.76v13.47l3.18,1.83c2.1-1.86,15.4-7.1,15.4-13.92v-12.1a12.48,12.48,0,0,0-.5-3.49Zm-9.17,18.8a5,5,0,0,1-2.2.67,8.11,8.11,0,0,1-.41-2.44c0-4.6,2.79-9.9,6.25-11.93a5,5,0,0,1,2.2-.68,8.1,8.1,0,0,1,.4,2.44c0,4.61-2.76,9.94-6.24,11.94Z"/><path class="cls-9" d="M1022.57,610.3c-5.11,3-9.3,11-9.3,17.76v13l18.6-8V617.34C1031.87,610.53,1027.69,607.38,1022.57,610.3Zm-3.05,18.38a5,5,0,0,1-2.2.67,8.11,8.11,0,0,1-.41-2.44c0-4.6,2.79-9.9,6.25-11.93a4.89,4.89,0,0,1,2.2-.68,8.1,8.1,0,0,1,.4,2.44c0,4.63-2.79,10-6.24,12Z"/><path class="cls-17" d="M1025.37,614.32a8.1,8.1,0,0,1,.4,2.44c0,4.61-2.8,9.9-6.25,11.94a5,5,0,0,1-2.2.67c.84,2.78,3.1,3.86,5.84,2.28,3.45-2,6.24-7.34,6.24-11.93C1029.41,616.15,1027.72,614.14,1025.37,614.32Z"/><path class="cls-6" d="M1096.15,721.37c-17.69,30.66-42.3,52-64.22,55.69-10.13,1.72-18.78-.48-25.74-6.51C991.7,758,987.82,730.81,993.82,700.7c-.54-8.44-.84-13.1-1.49-21-13.1,39.92-10.27,78.88,9.45,96a35.59,35.59,0,0,0,23.8,8.69,44.58,44.58,0,0,0,7.47-.64c23.85-4,50.25-26.6,68.93-59l22-38c2-4.23.93-7-4.12-9.3a16.57,16.57,0,0,0-2.2,6.87Z"/><path class="cls-6" d="M1032.33,627.9a7.22,7.22,0,1,1-7.24-7.2h0A7.22,7.22,0,0,1,1032.33,627.9Z"/><path class="cls-4" d="M495.77,888.33,689,1018.3c13.61,8.35,39.13,8.09,56.73-.59l100-62.71c17.6-8.69,20.9-22.64,7.25-31L653.68,800.2c-13.61-8.36-39.13-8.09-56.73.58l-94,56.55C485.43,866,482.16,880,495.77,888.33Z"/><path d="M731.07,988.35c0-12.91-7.85-27.92-17.54-33.51a16,16,0,0,0-7.7-2.13,21.3,21.3,0,0,0-11.23,3.14c-5.5,3.41-6.26,11.17-6.26,11.17L708,1007.49a14.9,14.9,0,0,0,12.87-.47,20.19,20.19,0,0,0,7.62-7.91,29.42,29.42,0,0,0,1.44-3.37A23.47,23.47,0,0,0,731.07,988.35Z"/><path class="cls-6" d="M688,972.68c0,12.91,7.85,27.91,17.59,33.51s17.53-.34,17.53-13.26-7.85-27.92-17.53-33.51S688,959.77,688,972.68Z"/><path class="cls-12" d="M694.5,977.78c0,7.07,4.3,15.29,9.6,18.36s9.61-.19,9.61-7.27-4.3-15.29-9.61-18.36S694.5,970.7,694.5,977.78Z"/><path class="cls-20" d="M696.19,954.23h11.43v33.33c0,2.2-.7,3.69-1.79,4.45h0l-3.94,2.07L698.38,990l1-.4a14.48,14.48,0,0,1-3.2-8.61Z"/><path class="cls-21" d="M704.1,954.23v35.19c0,4.21-2.55,6.14-5.71,4.32s-5.72-6.71-5.72-10.92V954.23Z"/><path d="M551.73,884.47c0-12.92-7.85-27.92-17.53-33.51a16,16,0,0,0-7.69-2.13A21.25,21.25,0,0,0,515.27,852c-5.5,3.4-6.26,11.16-6.26,11.16l19.69,40.47a14.93,14.93,0,0,0,12.87-.46,20.28,20.28,0,0,0,7.62-7.92,27.81,27.81,0,0,0,1.45-3.37A23.89,23.89,0,0,0,551.73,884.47Z"/><path class="cls-6" d="M508.45,868.8c0,12.91,7.85,27.91,17.59,33.51s17.54-.35,17.54-13.26-7.85-27.91-17.54-33.51S508.45,855.88,508.45,868.8Z"/><path class="cls-12" d="M515.16,873.9c0,7.08,4.3,15.29,9.61,18.36s9.6-.2,9.6-7.27-4.3-15.29-9.6-18.36S515.16,866.82,515.16,873.9Z"/><path class="cls-20" d="M516.84,850.35h11.44v33.33c0,2.2-.7,3.7-1.79,4.4h0l-3.94,2.06-3.51-4,1-.4a14.48,14.48,0,0,1-3.2-8.61Z"/><path class="cls-21" d="M524.77,850.35v35.19c0,4.21-2.56,6.15-5.72,4.32s-5.72-6.71-5.72-10.92V850.35Z"/><path d="M845.53,922.17c0-12.91-7.85-27.91-17.59-33.51a16.28,16.28,0,0,0-7.7-2.13A21.55,21.55,0,0,0,809,889.67c-5.5,3.42-6.27,11.17-6.27,11.17l19.83,40.48a15,15,0,0,0,12.86-.45,20.15,20.15,0,0,0,7.61-7.93,25.78,25.78,0,0,0,1.46-3.37A23.49,23.49,0,0,0,845.53,922.17Z"/><path class="cls-6" d="M802.25,906.5c0,12.91,7.85,27.92,17.59,33.51s17.53-.34,17.53-13.27-7.85-27.91-17.53-33.49S802.25,893.59,802.25,906.5Z"/><path class="cls-12" d="M809,911.62c0,7.08,4.3,15.29,9.6,18.36s9.62-.19,9.62-7.26-4.3-15.3-9.62-18.35S809,904.53,809,911.62Z"/><path class="cls-20" d="M810.64,888.05h11.43v33.33c0,2.2-.69,3.69-1.78,4.4h0l-3.95,2.05-3.5-4.13,1-.4a14.49,14.49,0,0,1-3.21-8.61Z"/><path class="cls-21" d="M818.55,888.05v35.19c0,4.21-2.56,6.14-5.7,4.32s-5.72-6.71-5.72-10.92V888.05Z"/><path class="cls-20" d="M659.8,620.2l8,5v160h-.07c-.15,2.67-1.83,3.89-4,2.68s-4-4.72-4-7.7c0-.18.06-.29.07-.46h-.08Z"/><path class="cls-21" d="M535.39,821l62.08-35.5c13.26-7.7,33.51-8.5,45-1.87l187.12,108-.09-.63H858v25.09h-.08c-.57,4.72-4.24,9.57-10.9,13.41L764.5,976.75c-13.26,7.7-33.5,8.5-45,1.87L511.78,858.68c-5.5-3.19-8-7.54-7.64-12.09h-.07V822.94Z"/><path class="cls-16" d="M511.78,834.53l207.74,120c11.49,6.6,31.73,5.79,45-1.87L847,905.48c13.27-7.7,14.72-19.35,3.24-26l-207.76-120c-11.49-6.6-31.74-5.79-45,1.87L515,808.56C501.74,816.21,500.34,827.9,511.78,834.53Z"/><path class="cls-6" d="M700.82,753.6a24.65,24.65,0,0,1-5.5,3.83,166.07,166.07,0,0,0-20.89-61l-13-22.35a7,7,0,0,1,6.2-2.31L680,693.21A172.92,172.92,0,0,1,701.3,753C701.14,753.17,701,753.41,700.82,753.6Z"/><path class="cls-22" d="M695.88,820.74c0,6.49-3,12.61-8.11,18l2.2-33.67A24.88,24.88,0,0,1,695.88,820.74Z"/><path class="cls-22" d="M551.05,805.12l2.2,33.64c-5.15-5.42-8.1-11.53-8.1-18A24.92,24.92,0,0,1,551.05,805.12Z"/><path class="cls-23" d="M695.88,713l-6,92.12-2.2,33.67c-12.42,13.07-37.84,22.06-67.27,22.06s-54.87-9-67.28-22.08L551,805.12l-6-92.12Z"/><path class="cls-24" d="M620.5,672.9c41.63,0,75.38,18,75.38,40.09s-33.75,40.1-75.38,40.1-75.39-18-75.39-40.1S578.86,672.9,620.5,672.9Z"/><path class="cls-23" d="M620.5,704.47c-29.69,0-55.17,9.28-65.9,22.46A22,22,0,0,1,549.17,713c0-20.09,31.89-36.37,71.33-36.37S691.82,692.9,691.82,713a22,22,0,0,1-5.49,13.94C675.66,713.75,650.21,704.47,620.5,704.47Z"/><path class="cls-25" d="M620.5,749.37c-29.69,0-55.17-9.27-65.9-22.44,10.73-13.2,36.18-22.46,65.9-22.46s55.16,9.28,65.88,22.46C675.66,740.07,650.21,749.37,620.5,749.37Z"/><path class="cls-12" d="M587.62,693.19a2.71,2.71,0,1,0,2.71-2.71h0a2.7,2.7,0,0,0-2.7,2.7Z"/><path class="cls-12" d="M597.12,733.55a2.71,2.71,0,1,0,2.71-2.71h0a2.7,2.7,0,0,0-2.7,2.7Z"/><path class="cls-12" d="M634.09,719.78c3.44,3.14,8.8,5.56,13.55,4.29a9.29,9.29,0,0,0,12.59,3.75,9.43,9.43,0,0,0,2.1-1.55,8.36,8.36,0,0,0,8.8.17,6.21,6.21,0,0,0,2.43-8.44h0a.64.64,0,0,0-.08-.14c2.46-1.54,3.53-6,2.37-8.54-1.74-3.88-6.5-5.41-10.48-4.4.64-2.68.08-5.41-3-6.91a5.46,5.46,0,0,0-6,.79c-.86-4.9-8.8-7.7-13.34-5.4-4.11,2-5.4,6-4.84,9.9-2.28.36-4.7,3.38-5.58,5C630.16,712.64,630.3,716.3,634.09,719.78Z"/><path class="cls-12" d="M554.67,717.31a7.85,7.85,0,0,0,3.55,7.54,8.42,8.42,0,0,0,2.75,1,9.94,9.94,0,0,0,1.72,4.72c1.55,2,5.11,2.95,7.52,3a10.08,10.08,0,0,0,9.9-7,10.66,10.66,0,0,0,5.57,2c4.93.13,7.23-2.2,7.58-5.88a11.77,11.77,0,0,0,9.8.83c2.83-1.1,5.2-3.67,4.32-6.87A5.9,5.9,0,0,0,605.7,714c4-1.45,9.3-4,6.32-8.29-2.07-3-7.42-3.3-10.17-.92-.92-2.6-3.58-4.4-6.6-5-2.47-.45-6.78.79-9.39,2.88-.31-2.09-1.5-4-3.73-4a6.52,6.52,0,0,0-5.76,3.79,6.9,6.9,0,0,0-6.14-.56,7.84,7.84,0,0,0-5.19,7.7,10.2,10.2,0,0,0-5,.75A9.13,9.13,0,0,0,554.67,717.31Z"/><circle class="cls-12" cx="628.77" cy="693.19" r="3.95"/><path class="cls-12" d="M675.11,701.77a3.95,3.95,0,1,0,3.95-3.95,4,4,0,0,0-3.95,3.95Z"/><path class="cls-12" d="M609.72,729.38a7,7,0,1,0,7-7h0A7,7,0,0,0,609.72,729.38Z"/><path class="cls-12" d="M626.81,735.47a4.74,4.74,0,1,0,4.74-4.74h0A4.74,4.74,0,0,0,626.81,735.47Z"/><circle class="cls-12" cx="608.77" cy="691.73" r="4.06"/><path class="cls-12" d="M669.7,694.43a2.71,2.71,0,1,0,2.72-2.7h0a2.7,2.7,0,0,0-2.7,2.7Z"/><path class="cls-12" d="M611.29,685a2.71,2.71,0,1,0,2.71-2.71A2.71,2.71,0,0,0,611.29,685Z"/><circle class="cls-12" cx="653.63" cy="736.37" r="2.71"/><path class="cls-6" d="M571.3,726.2a7,7,0,1,0,7-7h0A7,7,0,0,0,571.3,726.2Z"/><path class="cls-24" d="M562.76,717.28a12.25,12.25,0,0,0-.48,3.4v11.76c0,6.6,12.91,11.7,14.94,13.49l3.09-1.78V731.08c0-6.59-4-14.36-9-17.22a5.79,5.79,0,0,0-5.73-.48h0l-.29.21a5.62,5.62,0,0,0-.5.35l-2.47,1.76Zm2.36,5.05a7.59,7.59,0,0,1,.38-2.37,4.59,4.59,0,0,1,2.13.66c3.3,1.92,6.06,7.11,6.06,11.56a8,8,0,0,1-.39,2.38,5,5,0,0,1-2.14-.66c-3.34-1.94-6-7.12-6-11.57Z"/><path class="cls-23" d="M559.2,722.9v15.53l18,7.5V733.31c0-6.6-4-14.36-9-17.23S559.2,716.29,559.2,722.9Zm5.92-.57a7.59,7.59,0,0,1,.38-2.37,4.59,4.59,0,0,1,2.13.66c3.3,1.92,6.06,7.11,6.06,11.56a8,8,0,0,1-.39,2.38,5,5,0,0,1-2.14-.66C567.82,732,565.12,726.78,565.12,722.33Z"/><path class="cls-24" d="M565.5,720a7.59,7.59,0,0,0-.38,2.37c0,4.4,2.7,9.63,6,11.57a5,5,0,0,0,2.14.66c-.82,2.69-3,3.74-5.67,2.2-3.29-1.94-6-7.12-6-11.58C561.58,721.74,563.21,719.79,565.5,720Z"/><path class="cls-23" d="M660.34,660.8a11.76,11.76,0,0,0-.47,3.39V676c0,6.59,12.91,11.7,14.94,13.5l3.08-1.78V674.6c0-6.59-4.06-14.36-9-17.22a5.72,5.72,0,0,0-5.73-.48h0l-.28.2-.51.36-2.45,1.76Zm2.35,5a7.6,7.6,0,0,1,.4-2.37,5.09,5.09,0,0,1,2.12.65c3.3,1.94,6.06,7.12,6.06,11.58a7.59,7.59,0,0,1-.39,2.37,4.86,4.86,0,0,1-2.13-.65c-3.34-1.9-6.06-7.08-6.06-11.54Z"/><path class="cls-23" d="M656.78,666.39v15.24l18,7.79V676.83c0-6.6-4.06-14.37-9-17.23S656.78,659.79,656.78,666.39Zm5.91-.58a7.6,7.6,0,0,1,.4-2.37,4.82,4.82,0,0,1,2.12.65c3.3,1.94,6.06,7.12,6.06,11.58a7.58,7.58,0,0,1-.39,2.36,4.85,4.85,0,0,1-2.13-.64c-3.34-1.91-6.06-7.09-6.06-11.55Z"/><path class="cls-24" d="M663.1,663.47a7.6,7.6,0,0,0-.4,2.37c0,4.46,2.72,9.64,6.06,11.58a4.86,4.86,0,0,0,2.13.65c-.82,2.7-3,3.75-5.67,2.2-3.3-1.93-6.06-7.12-6.06-11.57C659.15,665.29,660.8,663.3,663.1,663.47Z"/><path class="cls-6" d="M594.43,767.31c17.17,29.69,41,50.42,62.28,54,9.82,1.68,18.22-.46,25-6.3,14-12.16,17.8-38.49,12-67.74.53-8.18.83-12.7,1.44-20.38,12.7,38.7,10,76.49-9.16,93a34.4,34.4,0,0,1-23.09,8.43,44.07,44.07,0,0,1-7.25-.61c-23.09-3.89-48.74-25.8-66.85-57.19l-21.3-36.89c-1.94-4.1-.91-6.74,4-9a16,16,0,0,1,2.2,6.67Z"/><path class="cls-6" d="M656.34,676.62a7,7,0,1,0,7-7h0A7,7,0,0,0,656.34,676.62Z"/><path class="cls-20" d="M737.68,666.25,698.57,793.81l43.35,25.9,40.77,20.55-38.3-170.13Zm22.84,107L740.9,762l-19.6-11.32a146.36,146.36,0,0,1,4-14.22c1.16-3.3,2.9-3.91,7.49-1.26l8.12,4.67,8.14,4.72c4.58,2.65,6.31,5.3,7.48,9.89,2.25,8.72,4,18.85,4,18.85ZM740.9,806.74l-29.69-17.13a222.11,222.11,0,0,1,6.06-21.51c1.76-4.94,4.4-5.92,11.33-1.91,4.67,2.7,12.29,7.07,12.29,7.07s7.62,4.4,12.31,7.14c6.93,4,9.57,8,11.33,15,3.3,13.12,6,28.51,6,28.51Z"/><polygon class="cls-26" points="721.29 750.64 713.17 755.83 716.91 733.51 725.16 735.65 721.29 750.64"/><polygon class="cls-26" points="711.22 789.61 717.79 766.04 706.14 768.89 703.11 794.8 711.22 789.61"/><polygon class="cls-20" points="774.58 845.43 782.69 840.25 744.39 670.13 736.26 675.32 774.58 845.43"/><polygon class="cls-16" points="729.31 671.3 736.26 675.32 744.39 670.13 737.43 666.1 729.31 671.3"/><path class="cls-21" d="M729.31,671.3,691,797.18l41.79,24.12,41.79,24.13L736.26,675.32Zm-8.79,100.08,12.3,7.07s7.62,4.4,12.31,7.14c6.93,4,9.56,8,11.32,15,3.3,13.13,6,28.51,6,28.51L732.76,812,703.12,794.8a220,220,0,0,1,6-21.52c1.76-4.93,4.38-5.9,11.31-1.9Zm4.17-31c3.1,1.8,8.13,4.68,8.13,4.68l8.13,4.72c4.58,2.65,6.32,5.3,7.49,9.89,2.2,8.68,4,18.84,4,18.84L732.82,767.2,713.2,755.83a146.36,146.36,0,0,1,4-14.22c1.13-3.26,2.87-3.91,7.47-1.27Z"/><path class="cls-27" d="M610.85,743.5l117.28-68.09a4,4,0,0,1,4.39.15h0l-121,69.84Z"/><path class="cls-27" d="M738.29,683.72l-122.94,71-2.11-5.27,122.52-70.74A16.54,16.54,0,0,1,738.29,683.72Z"/><path class="cls-27" d="M736.85,692.85,618.16,761.68,617,758.76l121.9-70.38C738.74,690.49,738,692.11,736.85,692.85Z"/><path class="cls-28" d="M739,687.78c0,.22-.09.35-.1.56L617,758.76l-1.62-4,122.94-71A14.41,14.41,0,0,1,739,687.78Z"/><path class="cls-28" d="M732.59,675.57a11.35,11.35,0,0,1,3.17,3.12L613.24,749.43l-1.62-4Z"/><path class="cls-21" d="M620.74,756.34c0,4.71-2.87,6.88-6.4,4.84S608,753.67,608,749s2.86-6.88,6.39-4.84S620.74,751.64,620.74,756.34Z"/><path class="cls-20" d="M614.82,736.59l-39.1,127.57,43.39,25.9L659.8,910.6,621.53,740.49Zm22.85,107L618,832.31,598.44,821a142.83,142.83,0,0,1,4-14.22c1.17-3.3,2.9-3.91,7.49-1.27,3.09,1.8,8.13,4.68,8.13,4.68l8.12,4.71c4.59,2.64,6.33,5.31,7.49,9.9,2.19,8.68,4,18.84,4,18.84ZM618,877.1,588.32,860a219,219,0,0,1,6-21.51c1.76-4.93,4.4-5.91,11.33-1.9,4.68,2.7,12.3,7.06,12.3,7.06s7.62,4.4,12.31,7.14c6.92,4,9.55,8,11.32,15,3.3,13.13,6,28.51,6,28.51Z"/><polygon class="cls-26" points="598.44 821 590.32 826.18 594.06 803.87 602.31 806.01 598.44 821"/><polygon class="cls-26" points="588.38 859.96 594.93 836.39 583.29 839.25 580.26 865.15 588.38 859.96"/><polygon class="cls-20" points="651.73 915.79 659.85 910.6 621.53 740.49 613.41 745.68 651.73 915.79"/><polygon class="cls-16" points="606.47 741.65 613.41 745.68 621.53 740.49 614.58 736.45 606.47 741.65"/><path class="cls-21" d="M606.45,741.65l-38.3,125.89,41.79,24.12,41.79,24.13L613.42,745.68Zm-8.79,100.08L610,848.8l12.3,7.13c6.94,4,9.56,8,11.32,15,3.3,13.12,6.06,28.51,6.06,28.51L610,882.28l-29.69-17.13a216.24,216.24,0,0,1,6-21.51c1.76-4.93,4.4-5.92,11.32-1.91Zm4.16-31,8.14,4.68,8.13,4.72c4.58,2.63,6.32,5.3,7.49,9.89,2.2,8.68,4,18.84,4,18.84L610,837.5l-19.62-11.32a142.83,142.83,0,0,1,4-14.22c1.14-3.26,2.88-3.91,7.45-1.26Z"/><path class="cls-20" d="M447.56,544.56l90.17-51c13.25-7.7,33-11,44.31,6h0L712.72,684.33,706.46,688,577.1,505.05c-8.57-13.06-24.85-11.5-35.72-5.21l-90.17,51c-2.94,1.69-6.45,4.61-6.44,8.88s2.6,7.4,7.49,14.82h0l157,221.69h0a10.19,10.19,0,0,1,2.29,6.11c0,3-1.8,4.33-4,3a7.17,7.17,0,0,1-2.2-2.32v.05L447.26,580c-6.09-8.28-9.72-13.48-9.72-20.26C437.54,553.68,441.11,548.31,447.56,544.56Z"/><path class="cls-20" d="M530.09,694.38l8,5V859.32H538c-.15,2.67-1.83,3.89-3.94,2.67s-4-4.7-4-7.69c0-.18.07-.29.08-.45l-.09-.06Z"/><path class="cls-9" d="M540.34,481.71h0a5.54,5.54,0,0,1,5.14.6c4.58,2.65,8.29,9.74,8.29,15.86,0,3.39-1.17,5.73-3,6.7l-12,6.73L460.36,557l-10.19-23.29Z"/><path class="cls-17" d="M463.33,550.28c0,6.12-3.72,8.92-8.31,6.28s-8.3-9.75-8.3-15.86,3.72-8.93,8.3-6.28S463.33,544.17,463.33,550.28Z"/><path class="cls-20" d="M452.23,542a1.49,1.49,0,0,1,1.55.09,5.68,5.68,0,0,1,2.38,4.53,2.2,2.2,0,0,1-.75,1.85l-6.24,3.65-2.93-6.6Z"/><path class="cls-6" d="M822.63,824a24.44,24.44,0,0,1-5.49,3.85,165.85,165.85,0,0,0-20.9-61l-13-22.37a7.07,7.07,0,0,1,6.21-2.31l12.38,21.43a173.13,173.13,0,0,1,21.29,59.79C822.94,823.56,822.82,823.8,822.63,824Z"/><path class="cls-22" d="M817.7,891.13c0,6.49-3,12.61-8.12,18l2.2-33.66A25,25,0,0,1,817.7,891.13Z"/><path class="cls-22" d="M672.87,875.51l2.19,33.63c-5.14-5.42-8.1-11.53-8.1-18A24.93,24.93,0,0,1,672.87,875.51Z"/><path class="cls-17" d="M817.7,783.38l-6,92.12-2.2,33.66c-12.43,13.08-37.84,22.07-67.27,22.07s-54.88-9-67.28-22.09l-2.2-33.63-5.94-92.13Z"/><path class="cls-18" d="M742.28,743.28c41.63,0,75.38,18,75.38,40.1s-33.75,40.1-75.38,40.1-75.39-18-75.39-40.1S700.68,743.28,742.28,743.28Z"/><path class="cls-9" d="M742.28,774.86c-29.69,0-55.16,9.27-65.88,22.45a22,22,0,0,1-5.5-13.93c0-20.1,31.89-36.38,71.32-36.38s71.34,16.28,71.34,36.38a22,22,0,0,1-5.5,13.93C797.47,784.13,772,774.86,742.28,774.86Z"/><path class="cls-25" d="M742.28,819.77c-29.69,0-55.16-9.29-65.88-22.46,10.72-13.2,36.18-22.45,65.88-22.45s55.17,9.27,65.89,22.45C797.47,810.45,772,819.77,742.28,819.77Z"/><path class="cls-12" d="M709.43,763.58a2.71,2.71,0,1,0,2.71-2.72,2.71,2.71,0,0,0-2.71,2.72Z"/><path class="cls-12" d="M718.9,803.93a2.71,2.71,0,1,0,2.71-2.71h0a2.7,2.7,0,0,0-2.7,2.7Z"/><path class="cls-12" d="M755.9,790.17c3.44,3.15,8.8,5.56,13.55,4.28a9.26,9.26,0,0,0,14.67,2.2,8.4,8.4,0,0,0,8.79.18,6.23,6.23,0,0,0,2.43-8.47h0a.75.75,0,0,1-.07-.12c2.46-1.55,3.53-6,2.36-8.55-1.74-3.87-6.5-5.4-10.48-4.4.65-2.68.09-5.41-3-6.91a5.42,5.42,0,0,0-6,.79c-.86-4.9-8.8-7.7-13.34-5.4-4.1,2-5.4,6-4.84,9.9-2.27.36-4.69,3.39-5.58,5C752,783,752.11,786.7,755.9,790.17Z"/><path class="cls-12" d="M676.48,787.69a7.84,7.84,0,0,0,3.56,7.55,8.45,8.45,0,0,0,2.74,1A10.09,10.09,0,0,0,684.5,801c1.55,2,5.11,3,7.52,3a10.07,10.07,0,0,0,9.9-7,10.61,10.61,0,0,0,5.58,2c4.92.12,7.22-2.2,7.57-5.88a11.77,11.77,0,0,0,9.8.83c2.83-1.09,5.2-3.67,4.31-6.88a5.91,5.91,0,0,0-1.68-2.67c4-1.45,9.31-3.94,6.33-8.29-2.06-3-7.42-3.3-10.18-.92-.9-2.59-3.57-4.39-6.6-5-2.46-.46-6.77.78-9.4,2.88-.3-2.1-1.49-4-3.72-4a6.59,6.59,0,0,0-5.76,3.8,6.84,6.84,0,0,0-6.14-.55,7.81,7.81,0,0,0-5.19,7.64,10.21,10.21,0,0,0-5,.77A9.11,9.11,0,0,0,676.48,787.69Z"/><path class="cls-12" d="M746.68,763.58a4,4,0,1,0,4-4A4,4,0,0,0,746.68,763.58Z"/><path class="cls-12" d="M796.92,772.16a4,4,0,1,0,4.05-3.95h-.05A4,4,0,0,0,796.92,772.16Z"/><path class="cls-12" d="M731.54,799.77a7,7,0,1,0,7-7h0A7,7,0,0,0,731.54,799.77Z"/><path class="cls-12" d="M748.67,805.85a4.74,4.74,0,1,0,4.76-4.72h0a4.73,4.73,0,0,0-4.75,4.71Z"/><circle class="cls-12" cx="730.59" cy="762.11" r="4.06"/><path class="cls-12" d="M791.51,764.81a2.71,2.71,0,1,0,2.72-2.7h0a2.7,2.7,0,0,0-2.71,2.69Z"/><path class="cls-12" d="M733.11,755.34a2.71,2.71,0,1,0,2.72-2.7h0a2.7,2.7,0,0,0-2.7,2.7Z"/><path class="cls-12" d="M772.73,806.76a2.71,2.71,0,1,0,2.71-2.71h0a2.71,2.71,0,0,0-2.71,2.71Z"/><path class="cls-6" d="M693.11,796.59a7,7,0,1,0,7-7h0A7,7,0,0,0,693.11,796.59Z"/><path class="cls-9" d="M684.58,787.68a12.12,12.12,0,0,0-.49,3.38v11.76c0,6.6,12.91,11.7,14.95,13.5l3.08-1.78V801.48c0-6.6-4-14.37-9-17.22a5.72,5.72,0,0,0-5.73-.49h0l-.27.21c-.18.11-.35.23-.51.35l-2.46,1.76Zm2.34,5a7.59,7.59,0,0,1,.4-2.36,4.86,4.86,0,0,1,2.13.65c3.3,1.93,6.06,7.11,6.06,11.58a7.9,7.9,0,0,1-.4,2.36,4.86,4.86,0,0,1-2.13-.65C689.64,802.33,686.92,797.15,686.92,792.68Z"/><path class="cls-17" d="M681,793.3v15.52l18,7.5V803.7c0-6.6-4.06-14.36-9-17.22S681,786.67,681,793.3Zm5.91-.59a7.59,7.59,0,0,1,.4-2.36,4.86,4.86,0,0,1,2.13.65c3.3,1.93,6.06,7.11,6.06,11.58a7.9,7.9,0,0,1-.4,2.36,4.86,4.86,0,0,1-2.13-.65c-3.33-1.93-6.05-7.11-6.05-11.58Z"/><path class="cls-9" d="M687.29,790.35a7.88,7.88,0,0,0-.39,2.36c0,4.47,2.71,9.65,6.06,11.58a4.86,4.86,0,0,0,2.13.65c-.82,2.71-3,3.75-5.66,2.2-3.3-1.92-6.06-7.11-6.06-11.57C683.39,792.13,685,790.18,687.29,790.35Z"/><path class="cls-17" d="M782.15,731.18a12.25,12.25,0,0,0-.48,3.4v11.76c0,6.6,12.91,11.7,15,13.49l3.09-1.77V745c0-6.59-4.06-14.35-9-17.22a5.74,5.74,0,0,0-5.73-.47h0l-.29.2a5.74,5.74,0,0,0-.5.36l-2.47,1.75Zm2.36,5.05a7.59,7.59,0,0,1,.39-2.37,4.87,4.87,0,0,1,2.13.66c3.3,1.93,6.06,7.11,6.06,11.56a8.36,8.36,0,0,1-.4,2.38,4.67,4.67,0,0,1-2.12-.66C787.21,745.88,784.51,740.69,784.51,736.23Z"/><path class="cls-9" d="M778.57,736.77v15.29l18,7.77V747.22c0-6.6-4-14.36-9-17.24S778.57,730.17,778.57,736.77Zm5.92-.57a7.71,7.71,0,0,1,.39-2.38,5,5,0,0,1,2.12.66c3.3,1.94,6.06,7.12,6.06,11.57a8,8,0,0,1-.39,2.38,4.83,4.83,0,0,1-2.12-.66c-3.34-1.89-6-7.08-6-11.54Z"/><path class="cls-17" d="M784.9,733.86a7.59,7.59,0,0,0-.39,2.37c0,4.4,2.7,9.65,6.06,11.57a4.67,4.67,0,0,0,2.12.66c-.81,2.69-3,3.74-5.66,2.2-3.3-1.94-6.06-7.12-6.06-11.58C781,735.67,782.61,733.69,784.9,733.86Z"/><path class="cls-6" d="M716.25,837.69c17.17,29.69,41,50.43,62.28,54,9.82,1.66,18.22-.46,25-6.3,14-12.18,17.8-38.56,12-67.76.52-8.18.82-12.7,1.44-20.36,12.7,38.69,10,76.48-9.16,93a34.47,34.47,0,0,1-23.1,8.44,43.87,43.87,0,0,1-7.24-.63c-23.1-3.89-48.74-25.8-66.86-57.18L689.31,804c-1.93-4.11-.91-6.75,4-9a16,16,0,0,1,2.2,6.67Z"/><path class="cls-6" d="M778.14,747a7,7,0,1,0,7.07-6.93h0A7,7,0,0,0,778.14,747Z"/></svg>