<svg id="Layer_1" data-name="Layer 1" xmlns="http://www.w3.org/2000/svg" viewBox="0 0 1920 1080"><defs><style>.cls-1{fill:#dce2f9;}.cls-2{fill:#879efd;}.cls-3{fill:#7c93f8;}.cls-4{fill:#4c70e0;isolation:isolate;opacity:0.5;}.cls-5{fill:#fff;}.cls-6{fill:#d8c4c3;}.cls-7{fill:#eddcda;}.cls-8{fill:#ceb7b6;}.cls-9{fill:#eddbda;}.cls-10{fill:#ddc9c7;}.cls-11{fill:#bfa5a5;}.cls-12{fill:#513534;}.cls-13{fill:#ff61ad;}.cls-14{fill:#ffc9b6;}.cls-15{fill:#f9bba7;}.cls-16{fill:#ff85c5;}.cls-17{fill:#bbd9f9;}.cls-18{fill:#2c1d1b;}.cls-19{fill:#3f2a28;}.cls-20{fill:#897dd3;}.cls-21{fill:#fed517;}.cls-22{fill:#b3b3ff;}.cls-23{fill:#928ce5;}.cls-24{fill:#352221;}.cls-25{fill:#593d3d;}.cls-26{fill:#ffb600;}.cls-27{fill:#efa500;}.cls-28{fill:#a9a9fc;}.cls-29{fill:#d3bcba;}.cls-30{fill:#f445a1;}.cls-31{fill:#ff76be;}.cls-32{fill:#d9eafe;}.cls-33{fill:#493130;}.cls-34{fill:#472f2e;}.cls-35{fill:#c6afaf;}.cls-36{fill:#9e8282;}.cls-37{fill:#b29a9a;}</style></defs><rect class="cls-1" width="1920" height="1080"/><path class="cls-2" d="M1920,632.32V1080H0V144.12H28.64c118.27.06,249.62,59.42,393.3,139.93,300.1,168.16,654,428.63,1054.88,434.1,118.48,1.61,241.07-19,367.59-70.94A199,199,0,0,1,1920,632.32Z"/><path class="cls-3" d="M1920,677.58V1080H0V677.59A200.62,200.62,0,0,1,86.77,697.3C372.93,834.39,679.92,880,959.3,881.23c3.64,0,7.27,0,10.92-.05q8.84-.07,17.69-.2h.19l4.35-.08,6.32-.11h1.64q7.53-.13,15.08-.34h1.68l13.22-.38c3.72-.12,7.46-.24,11.19-.38h.87c3.24-.11,6.49-.24,9.73-.37l3.81-.15c3-.13,6-.25,8.94-.39h1.89c1.92-.08,3.85-.17,5.77-.27l10.2-.51h1.65q5.79-.3,11.6-.64,6.14-.35,12.28-.74,12.29-.76,24.62-1.67l1.1-.08q7-.51,13.93-1.07h.66l2.2-.18h.27q16.5-1.33,33.06-2.9h.14l3.41-.33,10.46-1,2.23-.23,1.49-.16q7.89-.81,15.78-1.67l1.35-.15q7.31-.81,14.61-1.67l4.23-.49,2.17-.26,11.75-1.44.76-.1q7.95-1,15.9-2.05l1.76-.24,9.13-1.24,6.58-.92,1.49-.21c2.71-.38,5.41-.77,8.12-1.17q8.13-1.17,16.27-2.43l7.87-1.22h.27l1.24-.2q7.85-1.23,15.7-2.54l2-.34q7.35-1.21,14.72-2.5l2.45-.43,11.16-2,2.19-.4,10.9-2c2.61-.48,5.23-1,7.84-1.48h.25l1.67-.32q7.23-1.39,14.46-2.83l1-.21,2.24-.45q7.77-1.57,15.55-3.2l5.9-1.25,9.67-2.09,5.73-1.25,12.41-2.78,2-.46q7.66-1.75,15.33-3.58,2.46-.57,4.9-1.17,6.48-1.54,13-3.15l1.08-.27,3.44-.86q6.38-1.59,12.75-3.23l.56-.14.88-.23,7-1.82c2.59-.67,5.18-1.36,7.77-2h.08l2.27-.6q7.59-2,15.18-4.14l2.46-.68,6.13-1.72c3.1-.87,6.19-1.75,9.29-2.64l1.36-.39.92-.27.55-.16q7-2,14-4.09l1.1-.33c2.4-.71,4.79-1.44,7.19-2.17l2-.61c2.07-.62,4.14-1.26,6.21-1.9l2.47-.76,6.26-1.95c2.92-.91,5.84-1.84,8.76-2.77l2.5-.8.36-.12c2.44-.78,4.88-1.56,7.32-2.36,1.9-.61,3.79-1.23,5.69-1.86h.06l3.11-1,7.58-2.53c1.64-.54,3.27-1.1,4.9-1.65l2.68-.91,1.54-.53.62-.21q7.28-2.49,14.54-5.06l2.63-.92.83-.3.62-.22q6.71-2.39,13.41-4.82l2.5-.91q7.67-2.8,15.31-5.68l.9-.34c2.51-.94,5-1.89,7.52-2.86q3.09-1.17,6.16-2.37l1.36-.52,1.87-.73q7.45-2.89,14.91-5.88l2.72-1.09q3.69-1.47,7.37-3c2.23-.9,4.47-1.82,6.7-2.74l.65-.27.34-.14,2.08-.87,7.27-3,.52-.22c2.5-1,5-2.1,7.5-3.17l.49-.21,7.54-3.24c2.54-1.09,5-2.17,7.52-3.27l2.13-.93c2.45-1.07,4.9-2.16,7.34-3.25q5.06-2.24,10.09-4.53,7.3-3.32,14.59-6.69l2.29-1.07q3.83-1.77,7.63-3.59l7.63-3.62q2.58-1.23,5.17-2.39c1.73-.77,3.47-1.52,5.22-2.23,1.12-.46,2.25-.91,3.37-1.35l.71-.27c1.13-.44,2.26-.86,3.39-1.28l2-.74.4-.14h0c1.36-.48,2.73-.93,4.09-1.38l3-1h.06l1.52-.46c2.67-.8,5.33-1.55,8-2.24,1.81-.46,3.63-.9,5.44-1.31q5.13-1.15,10.31-2h0c1.13-.19,2.27-.38,3.4-.55,1.77-.28,3.55-.52,5.33-.74h.19l.81-.09c1-.12,2.08-.25,3.13-.36l2-.2.68-.06c.86-.08,1.71-.16,2.56-.22l.54-.05,2.16-.15h1.42c.84-.06,1.69-.11,2.55-.14l2.28-.08h4.09Z"/><path class="cls-4" d="M680.52,869.3s-16.82,23.13,3.42,36.7c5.48,3.67,11.5,6.33,12.75,12.8,1.9,9.83,30.08,17.8,51.11,7.28,59.47-29.73,37.76-54.54,37.76-54.54l-32.5,3s5.86-7.49,1.88-19.51-60.76,11.1-60.76,11.1Z"/><polygon class="cls-5" points="821.45 125.4 1118.37 296.83 1239.28 227.02 942.37 55.6 821.45 125.4"/><polygon class="cls-6" points="821.45 281.17 1118.37 452.59 1239.28 382.78 942.37 211.35 821.45 281.17"/><polygon class="cls-7" points="821.45 125.4 821.45 281.17 1118.37 452.59 1118.37 296.83 821.45 125.4"/><polygon class="cls-8" points="1111.94 441.77 1111.94 309.26 942.37 211.35 828.03 277.37 828.03 277.62 1111.94 441.77"/><polygon class="cls-9" points="1239.28 227.02 1118.37 296.83 1118.37 452.59 1239.28 382.78 1239.28 227.02"/><polygon class="cls-10" points="828.03 135.57 828.03 277.37 941.95 211.6 941.95 201.44 828.03 135.57"/><polygon class="cls-11" points="1111.94 309.26 1111.94 299.72 941.95 201.44 941.95 211.6 942.37 211.35 1111.94 309.26"/><polygon class="cls-10" points="1084.66 283.71 969.91 217.6 969.91 359.91 1084.66 293.66 1084.66 283.71"/><polygon class="cls-7" points="969.91 363.6 961.86 358.85 961.86 208.92 969.91 213.67 969.91 363.6"/><path class="cls-8" d="M1229.65,367.06a.94.94,0,0,0-1.18-.6,1,1,0,0,0-.61.6c-.66,2-.89,4.13-1.47,6.17s-1.53,4-2.19,6a1.73,1.73,0,0,0,3.14,1.33C1229.36,376.9,1230.54,371.21,1229.65,367.06Z"/><path class="cls-8" d="M1224.37,386c-1-1.69-2.7-2.32-4.3-3.32s-3.12-2.55-5-2.84a.36.36,0,0,0-.45.26v.1c.1,3.62,5.64,8,9.1,7.47a1.14,1.14,0,0,0,.79-1.39v0A.91.91,0,0,0,1224.37,386Z"/><path class="cls-8" d="M1132.7,299.93a19.49,19.49,0,0,0-5.59,7.4c-.82,1.93-2,4.77-.33,6.51a.67.67,0,0,0,.84.11c1.66-1.18,1.62-3.41,2.33-5.2a16.79,16.79,0,0,1,4.92-6.65C1136.38,300.82,1134.21,298.69,1132.7,299.93Z"/><path class="cls-8" d="M1135.6,311.65a.84.84,0,0,0-1-.57.86.86,0,0,0-.57.57,26,26,0,0,1-2.62,8c-1.27,2.37-3.16,4.26-4.32,6.68-.42.87.3,2.28,1.41,1.84C1134.63,325.76,1136.42,317.54,1135.6,311.65Z"/><path class="cls-8" d="M1135.86,431c-1.61-1.53-3.45-2.7-5.08-4.19a38.49,38.49,0,0,1-4.44-5.65c-.61-.8-2.12-.66-2.08.56.19,5.32,5.58,11.08,11,10.71a.85.85,0,0,0,.83-.87.88.88,0,0,0-.23-.56Z"/><path class="cls-8" d="M1145.41,400.85c-.07-.54-.86-.56-1.1-.15-1.52,2.59-2.38,5.46-3.79,8.11-1.2,2.25-3.38,4.36-3.45,7a1.14,1.14,0,0,0,1.14,1.12h0a.57.57,0,0,0,.26,0c2.9-.88,4.22-4.4,5.29-7C1145,407,1145.86,404.06,1145.41,400.85Z"/><path class="cls-8" d="M1231.21,241.91a.26.26,0,0,0-.33,0c-1.56,1.46-1.44,3.9-1.78,5.91-.42,2.53-1.39,5.05-1.33,7.62a1.53,1.53,0,0,0,1.56,1.5h0a1.51,1.51,0,0,0,1.27-.73c1.34-2.35,1.47-5.29,1.67-8C1232.44,246.18,1232.86,243.48,1231.21,241.91Z"/><path class="cls-8" d="M980.5,323a1,1,0,0,0-1.12-.86h0a1,1,0,0,0-.87,1.11v0a42.5,42.5,0,0,0,.62,11.86c.29,1.83,3.33,1.4,3.23-.44A42.16,42.16,0,0,0,980.5,323Z"/><path class="cls-8" d="M991.27,331.21a.41.41,0,0,0-.43-.39h0a.4.4,0,0,0-.33.18c-1.49,2.13-2.6,4.49-4.11,6.61s-3.74,3.72-5.15,5.9c-.69,1.05.48,2.81,1.75,2.28C987.86,343.76,991.86,336.4,991.27,331.21Z"/><path class="cls-8" d="M1053.62,287.38a.42.42,0,0,0-.57.15.44.44,0,0,0,0,.32c.5,1.9,1.25,3.71,1.65,5.64a23.14,23.14,0,0,1,.16,6.49c-.13,1.87,2.9,2.29,3.28.44C1059,295.92,1057.68,290,1053.62,287.38Z"/><path class="cls-8" d="M1050,295.1c-5,1.14-8.68,6-9.64,10.85-.4,2.06,2.7,2.95,3.18.87,1.08-4.65,3.54-7.68,7-10.82a.54.54,0,0,0,0-.76A.56.56,0,0,0,1050,295.1Z"/><path class="cls-12" d="M730,370.11h0a2.91,2.91,0,0,1-.6-4.06L829.94,230.69a2.91,2.91,0,0,1,4.06-.6h0a2.91,2.91,0,0,1,.6,4.06L734.05,369.51a2.89,2.89,0,0,1-4,.61Z"/><path class="cls-13" d="M837.21,246.46c.69-3.76-4.28-5.12-8.27-2.18,2.48-3.4,5.74-8.8,1.25-11.14-2.37-1.23-5.29-.54-7.84.81,0-1.42-.38-2.68-1.67-3.24-1.52-.67-2.89.2-4,1.52-.13-3.09-.92-6.23-3-7.61-2.87-1.89-5.08-.15-6.44,2.24A8.22,8.22,0,0,0,804,224.2c-2.32-.72-4.65-1-6.64.63-3.58,3-.54,8.32,1.27,12a7.48,7.48,0,0,0-3.14,6.92,4.85,4.85,0,0,0-6.25,2.82,1.34,1.34,0,0,0-.07.18c-1.16,3.84,1.28,7.41,4.32,9.62-2.77.49-5.49,1.47-4.3,4.72s5,4,8.5,3.85c-1.72,2.83-2.41,6.24,1.34,7.86,2.82,1.22,6.66-.68,9.43-3.11a6.87,6.87,0,0,0,5.88,5.6,5,5,0,0,0,4.6-2.32c3.4,3.31,7.88,6,12.18,3.1a6.46,6.46,0,0,0,2.32-6.49,4.75,4.75,0,0,0,4.64-1.87,5,5,0,0,0,.67-4.38,8.86,8.86,0,0,0,6.64-10.62v0h0A9.92,9.92,0,0,0,837.21,246.46Z"/><path class="cls-14" d="M792.39,281.24c-3.51,7.76-11.52,17.47-9,20.38,4,4.74,11.38,3.56,11.38,3.56s-2.78,11.93-8.69,14.38c-10.67,4.42-18.86,6.83-18.86,6.83s-30.91,64-51.66,71.53c-8.63,3.13-14.94-4.9-15.16-11.44-.83-24.58,34-60.87,56.16-77.65C763.76,303.34,777.39,280.41,792.39,281.24Z"/><path class="cls-14" d="M777.86,308.83a17.48,17.48,0,0,1,5.54-7.21c3.87-2.75,4.23-7.07,9-7.86s10.48,1.18,6,5.9-3.89,9.43-9.47,12.57S777.86,308.83,777.86,308.83Z"/><path class="cls-15" d="M671.05,611.76c-32.08-34-1.53-70,13.93-81,8.16,10.09,56.76,30,57,31.25,5.88,25,.5,51.14-6.89,75.34-4.61,15.08-8.6,40.55-19.32,81.85,5,20.54-.67,51.66-2.74,74.91-1.45,16.2-7.88,58.73-8.89,62.36,2.92-.89,7.79-5.23,14.4-7.51,6.16-2.12,14-2.28,17.6-.87,11,4.36,14.14,8.31,11.18,15.37-4.35,10.38-18.17,13.7-28,15.73-14.8,3.08-23.14,26.62-38.93,10.34-4-4.17-.49-15.16.91-20.93-.29-4,.92-39.71-3.62-66.92-5.47-32.76-8.32-69.5,10.85-88.69C667.08,658.21,667.86,628.52,671.05,611.76Z"/><path class="cls-5" d="M681.24,866.66s9.24,3.32,15.19,5.21a32.77,32.77,0,0,0,31.15-7.93c4.25-4.11,7.3-9.3,5.81-12.23-2.81-5.52-14.8-2.75-14.8-2.75s20.6-14.29,32.14-4.85c5.36,4.38,6.66,13.13-2.3,22.44-5.35,5.55-21.07,15.45-34.61,22.7-8.85,4.74-23.18,14.13-33,4.66S681.24,866.66,681.24,866.66Z"/><path class="cls-14" d="M704.72,636c-32.09-34-1.53-70,13.92-81,8.16,10.09,56.77,30,57.06,31.25,5.87,25,.5,51.15-6.9,75.35-4.61,15.07-8.59,40.54-19.31,81.84,5,20.54-.67,51.66-2.75,74.91-1.45,16.21-7.87,58.73-8.89,62.37,2.92-.9,7.8-5.24,14.41-7.52,6.16-2.12,14-2.28,17.6-.87,11,4.36,14.14,8.32,11.18,15.37-4.36,10.38-18.17,13.7-28,15.74-14.79,3.07-23.13,26.61-38.93,10.33-4-4.17-.48-15.16.91-20.93-.28-4,.93-39.71-3.61-66.91-5.48-32.77-8.33-69.5,10.85-88.7C700.75,682.42,701.51,652.76,704.72,636Z"/><path class="cls-5" d="M714.86,890.87s9.25,3.32,15.2,5.21a32.77,32.77,0,0,0,31.15-7.93c4.25-4.11,7.29-9.3,5.8-12.23-2.81-5.52-14.79-2.75-14.79-2.75s20.59-14.29,32.14-4.85c5.36,4.38,6.66,13.14-2.31,22.44-5.34,5.55-21.06,15.45-34.6,22.7-8.85,4.74-23.19,14.13-33,4.67S714.86,890.87,714.86,890.87Z"/><path class="cls-13" d="M668.21,384.05c14.31-5.13,31.72,3,32.43,17.71,7.88,13.35.15,32.95-12.16,41.89-14.31,10.4-36.42-.12-41.18-16.2C642.37,410.81,651.5,390,668.21,384.05Z"/><path class="cls-14" d="M702.94,421.76c13.36,3.88,25.43.7,38.2-1.27-8-8.38-18.06-16.62-10.32-39.74a106.56,106.56,0,0,1-28.26-12.3c-1.78-1.1-4.64-.12-5.06,2.06-2,10.5-4.56,22.73-11.4,28,.07,3.78-.19,3-.19,6.66v8.15C690.37,417.76,696.86,420,702.94,421.76Z"/><path class="cls-14" d="M693.69,343.48c1.58-14.54,13.49-33.91,29.8-32.68,16.62,1.25,27.92,25.92,29.22,37.41,2.2,19.51.48,56.32-30.33,44.5C698.38,383.51,691.34,365.17,693.69,343.48Z"/><path class="cls-16" d="M660.28,466.19c-10.68-33-4.16-55,5.28-65.77C669.44,396,681.18,383,691.25,392c-3.27,15,26.28,23.13,45.1,23.13,14.25,10.63,20.9,18.65,29,33,8.62,15.23,15.84,27.82-2.54,38.92,5.63,16.7-6.34,36.9-1.44,79.59-17.16,13.64-50.22,13.49-68.49,2.42-14.27-8.66-21.86-18.31-21.15-28.74,4.74-10.15,6.71-12.26,6.19-24.89C677.31,499.56,665.17,481.33,660.28,466.19Z"/><path class="cls-5" d="M757.57,447.81c2.68.34,16,24.84,16.75,34.08s-3.06,27.59-4.11,37-2.46,25.24-2.46,25.24l-21.68,7.13a85.81,85.81,0,0,0,7.3-29.75c1.12-17.3-4.94-55.56-4.94-55.56Z"/><path class="cls-5" d="M693.26,758.15c32.76,20.26,41.25,17.29,64.31,10.28,16.75-5.1,24.52-17.35,28.24-30.37,1.52-52.12,1-126.23-1.88-146.06-5.33-37-13.72-43.21-13.72-43.21l-60,6.18-35.35-22.21s-18.42,23.57-23.09,45.92-6.82,47.12-5.85,81.21c1.14,39.79,2.91,56.27,0,76C651.86,763.33,673.34,745.84,693.26,758.15Z"/><path class="cls-5" d="M744,421.25s-19.94-4.93-29.45,8.8-6.32,39.07-6,59.51-.45,62.89-.45,62.89l-9.43-3.4s2-26,1.6-54.66,0-57.08,6.68-68.1,27.5-13.06,27.5-13.06Z"/><path class="cls-5" d="M666.17,448.9c-1.39-18.76-.11-26.53,4.76-35.67a59.28,59.28,0,0,1,21.16-22.62c.53-1.18,1-2.36,1.61-3.53-2.57-1.36-5.07-3.39-6.43-3.26-12.92,1.26-25.32,16.24-29,37.27-2.86,16.48,2.12,42.49,7.85,63,6.71,24.07,8.73,29,8.73,45.55,0,3.73,11,10,11,10a405.4,405.4,0,0,0-7.73-40.14C673.52,480.64,667,459.85,666.17,448.9Z"/><path class="cls-17" d="M767.75,537.76l2.46,11S739,570,708.55,561.1c-31-9.08-38.93-21-38.93-21l4.6-14.16c4.59,4.66,20.46,19.37,42.24,22.78C728.62,550.69,751.19,545.16,767.75,537.76Z"/><path class="cls-17" d="M685.93,647.42a280.93,280.93,0,0,0,7.33,40.72c5.7,22,10.57,36.13,10.57,36.13a340,340,0,0,0-5.16-42.44C694.41,659.25,685.93,647.42,685.93,647.42Z"/><path class="cls-17" d="M749.43,629.13s-2.34,28.48-1,49.94,11.81,49.76,11.81,49.76-2.21-37-2.67-56.61S749.43,629.13,749.43,629.13Z"/><path class="cls-14" d="M773.93,460.35c5.59,6.17,12.21,14.47,15.37,22.23,3.62,8.89,11,22.34,14.27,29.94,7.35,3.49,20.09,7.68,35.77,16.81,16.1,9.37,22.34,13.91,30.39,14.14,8.26.24,13.8,1.86,19.49,2.82,11.43,1.94,1.83,6.19-1.54,6.62-3.87.49-10.22,1.8-10.22,1.8s13.28,17.65,19.27,29.48c6.15,12.18-11.29,25.35-22,14s-19.26-28.86-22.27-33.8-32-13-40.84-14.94c-2.78-.6-16.2-3.56-19.1-4.1-4.6-.86-6-3.43-10.7-8.09-5.38-5.33-6.52-5.53-18.69-21C752.7,503,745.91,497.08,741.71,480,737.08,461.2,767.59,453.33,773.93,460.35Z"/><path class="cls-13" d="M751.16,426.21c19.67,3.79,37.49,33.28,37.1,52.53,5.3,6.84-22.9,31.08-32.18,28.5-14.86-1.92-28.52-22.31-32.77-43.86C718.29,437.83,731.07,422.35,751.16,426.21Z"/><path class="cls-5" d="M788.26,478.76l4,8.68s1.52,7.09-8.89,16.13a39.52,39.52,0,0,1-22.85,9.33L756,507.26s12.92-3.41,21.29-10.51S788.26,478.76,788.26,478.76Z"/><path class="cls-18" d="M761.07,327.76a12.91,12.91,0,0,0,2.94-6.08c.84-6.16-9-7.71-15.07-6.25-8.67-13.9-30.88-18.94-43.44-6.13-12.91,1.78-21,8.24-23.45,21-5.1,26.15,1.78,28.67,10,60.34,11.42,3.74,22-7.73,30.13-17.54,4.68-5.65,10.52-15.75,15.25-28.77,16.39,6.17,29.9,1.75,32.32-6.26C771.59,332.09,766.74,328.7,761.07,327.76Z"/><path class="cls-14" d="M732.74,357.32s-12.33-8.45-14.29,3.57S728.23,377,728.23,377Z"/><path class="cls-16" d="M697.15,300A13.25,13.25,0,0,0,685,305.8c-4.69,7.29-.36,14.37,1.35,16.74,6.31,8.73,18.34,6.56,24-1.63C717,311.38,707.05,300.64,697.15,300Z"/><path class="cls-19" d="M696.65,303.06c-7.38-5.1-19.46-11.42-35.77-2.72s-16.31,34.72-13.73,48,11.21,23.83,13,35.39c2.59,16.68-10.35,22.68-10.35,22.68s11.73,11,25.1-6,9.34-35.77,8.91-54.31,13.87-23.91,17.28-28.55S702.18,306.88,696.65,303.06Z"/><path class="cls-20" d="M906.48,165.61a5.88,5.88,0,0,0-4.67-2.48c1.34-1.83,2.12-3.81.73-6.38-1-1.84-3.08-2.73-6-1.67,2.33-3.56-.39-9.88-6.11-7.59-.79-3.94-6.61-6.63-9.12-4.48.36-10.64-9.41-8-10.73-3.1-2.54-1.45-7-2.18-9.5,0a6.51,6.51,0,0,0-2.16,5.73,6.64,6.64,0,0,0-3.59.15c-2.91,1-3.7,3.4-3.51,5.91a6.38,6.38,0,0,0-5.76,1.88c-1.86,2-1.93,5.09-.84,7.6a5.3,5.3,0,0,0-2.77,1.26,6.39,6.39,0,0,0-2,5.8,7.06,7.06,0,0,0-4.88.12c-3.74,1.69-4,5.73-3.34,9.32a6.39,6.39,0,0,0-5.78,2.21c-2,2.3-2.11,5.56-1.1,8.35a16.32,16.32,0,0,1,3.45,6.21,5.29,5.29,0,0,1,5.52-.81,6.92,6.92,0,0,1,4,5.49,3.09,3.09,0,0,1,3.52-.22,4.1,4.1,0,0,1,2.06,3.3,7.09,7.09,0,0,1,8.36,2.92,5.41,5.41,0,0,1,.34,5.24c2.42-2,8.56-.83,8.26,4.58,6.49-.79,9,2.56,10.28,8.51.23,0,.44.09.69.08a7.46,7.46,0,0,0,4.87-2.28,7.18,7.18,0,0,0,2.06-6.29,6.88,6.88,0,0,0,6.4-7.13c2.46.88,4.78.6,5.67-3a13.05,13.05,0,0,0-.25-6.48c3.93,1.18,7.82,1.08,9-3.25.65-2.48-.34-5.17-2.07-7.29a11.63,11.63,0,0,0,7.91-6.14,5.43,5.43,0,0,0-1-6.21,7.72,7.72,0,0,0,2.09-2.35A7.13,7.13,0,0,0,906.48,165.61Z"/><path class="cls-21" d="M860.86,215c.3-5.41-5.84-6.57-8.26-4.58a5.41,5.41,0,0,0-.34-5.24,7.09,7.09,0,0,0-8.36-2.92,4.1,4.1,0,0,0-2.06-3.3,3.09,3.09,0,0,0-3.52.22,6.92,6.92,0,0,0-4-5.49,5.29,5.29,0,0,0-5.52.81,16.32,16.32,0,0,0-3.45-6.21.44.44,0,0,0,.09.31,6.39,6.39,0,0,0-5.62,1.85,6.86,6.86,0,0,0-.79,7.9,5.82,5.82,0,0,0-4,4.27,5.63,5.63,0,0,0,1.14,4.51,5.93,5.93,0,0,0-6.25,1c-2.45,2.3-1.53,6.27-.45,9.68-1.66-.61-3.32-.77-4.38.86a7.44,7.44,0,0,0-.71,5.67c-.14-.05-.28-.07-.42-.12a8.28,8.28,0,0,1,3.26,2.66c1.36-2.39,3.57-4.13,6.44-2.24,2.09,1.38,2.88,4.52,3,7.61,1.08-1.32,2.45-2.19,4-1.52,1.29.56,1.69,1.82,1.67,3.24,2.55-1.35,5.47-2,7.84-.81,4.49,2.34,1.23,7.74-1.25,11.14,4-2.94,9-1.58,8.27,2.18a9.94,9.94,0,0,1,8.17,6.18,5.85,5.85,0,0,0,2.69-.24,6.74,6.74,0,0,0,4.69-7c5.25.19,9.46-4.22,8-9.45a12.1,12.1,0,0,0,9.5-6,8.45,8.45,0,0,0,.87-6.5C869.86,217.52,867.36,214.17,860.86,215Z"/><path class="cls-4" d="M1255.36,944.3l-137.9,76.83c-9.12,5.06-25.38,4.13-36.12-2.07l-66.79-38.22c-10.75-6.2-12.07-15.42-2.94-20.48l137.89-76.83c9.12-5.07,25.38-4.13,36.12,2.07l66.79,38.21C1263.16,930,1264.48,939.23,1255.36,944.3Z"/><path d="M1095.86,1006.11c0-8.43,5.13-18.22,11.45-21.87a10.58,10.58,0,0,1,5-1.39,14,14,0,0,1,7.33,2c3.6,2.23,4.09,7.29,4.09,7.29l-12.87,26.45a9.67,9.67,0,0,1-8.4-.29,13.29,13.29,0,0,1-5-5.17,19.39,19.39,0,0,1-.94-2.2A15.72,15.72,0,0,1,1095.86,1006.11Z"/><path class="cls-19" d="M1124,995.88c0,8.43-5.12,18.22-11.44,21.87s-11.44-.23-11.44-8.65,5.12-18.22,11.44-21.87S1124,987.45,1124,995.88Z"/><path class="cls-5" d="M1119.75,999.21c0,4.62-2.8,10-6.27,12s-6.26-.12-6.26-4.74,2.8-10,6.26-12S1119.75,994.59,1119.75,999.21Z"/><path class="cls-6" d="M1118.65,983.84h-7.46v21.75a3.43,3.43,0,0,0,1.16,2.91h0l2.58,1.34,2.29-2.7-.65-.25a9.46,9.46,0,0,0,2.09-5.62Z"/><path class="cls-7" d="M1113.48,983.84v22.92c0,2.75,1.67,4,3.73,2.82s3.73-4.38,3.73-7.12V983.84Z"/><path d="M1212.91,938.32c0-8.43,5.13-18.22,11.45-21.87a10.58,10.58,0,0,1,5-1.39,14.13,14.13,0,0,1,7.33,2.05c3.6,2.23,4.09,7.29,4.09,7.29l-12.86,26.36a9.65,9.65,0,0,1-8.39-.29,13.29,13.29,0,0,1-5-5.17,19.39,19.39,0,0,1-.94-2.2A15.79,15.79,0,0,1,1212.91,938.32Z"/><path class="cls-19" d="M1241.16,928.09c0,8.43-5.12,18.22-11.44,21.87s-11.45-.23-11.45-8.65,5.13-18.22,11.45-21.87S1241.16,919.66,1241.16,928.09Z"/><path class="cls-5" d="M1236.79,931.42c0,4.62-2.81,10-6.27,12s-6.27-.12-6.27-4.74,2.8-10,6.27-12S1236.79,926.76,1236.79,931.42Z"/><path class="cls-6" d="M1235.68,916.05h-7.46v21.71a3.46,3.46,0,0,0,1.16,2.91h0L1232,942l2.3-2.7-.66-.25a9.46,9.46,0,0,0,2.09-5.62Z"/><path class="cls-7" d="M1230.52,916.05v23c0,2.75,1.67,4,3.73,2.82s3.72-4.38,3.72-7.12V916.05Z"/><path d="M1021.19,962.92c0-8.43,5.12-18.22,11.44-21.86a10.56,10.56,0,0,1,5-1.4,14.08,14.08,0,0,1,7.34,2.06c3.6,2.22,4.08,7.28,4.08,7.28l-12.85,26.41a9.71,9.71,0,0,1-8.4-.3,13.22,13.22,0,0,1-5-5.17,19.64,19.64,0,0,1-1-2.19A16.1,16.1,0,0,1,1021.19,962.92Z"/><path class="cls-19" d="M1049.44,952.7c0,8.42-5.13,18.21-11.45,21.86s-11.44-.22-11.44-8.65,5.12-18.22,11.44-21.87S1049.44,944.27,1049.44,952.7Z"/><path class="cls-5" d="M1045.06,956c0,4.62-2.81,10-6.27,12s-6.27-.12-6.27-4.74,2.81-10,6.27-12S1045.06,951.41,1045.06,956Z"/><path class="cls-6" d="M1044,940.65h-7.46v21.76a3.4,3.4,0,0,0,1.16,2.9h0l2.58,1.34,2.29-2.69-.67-.2a9.46,9.46,0,0,0,2.09-5.62Z"/><path class="cls-7" d="M1038.79,940.65v22.94c0,2.74,1.67,4,3.73,2.81s3.73-4.38,3.73-7.12V940.65Z"/><path class="cls-7" d="M1223.58,896.93l-40.51-23.17c-8.65-5-21.87-5.55-29.36-1.22L1031.6,943v-.41H1013V959h0c.37,3.08,2.77,6.25,7.11,8.76L1074,998.55c8.65,5,21.87,5.54,29.36,1.21l135.57-78.27c3.6-2.08,5.21-4.92,5-7.87h0V898.17Z"/><path class="cls-5" d="M1239,905.76,1103.42,984c-7.49,4.33-20.71,3.78-29.36-1.21L1020.24,952c-8.65-5-9.6-12.63-2.11-17l135.58-78.28c7.49-4.33,20.71-3.78,29.36,1.22l53.79,30.78C1245.54,893.76,1246.49,901.4,1239,905.76Z"/><path class="cls-22" d="M1271.19,682.34l-76.53-44.44a2.67,2.67,0,0,0-2.9.1h0l78.94,45.58Z"/><path class="cls-22" d="M1188,643.33l80.23,46.31,1.38-3.43-80-46.16A11.25,11.25,0,0,0,1188,643.33Z"/><path class="cls-22" d="M1189,649.28l77.46,44.92.78-1.93-79.55-45.93A3.56,3.56,0,0,0,1189,649.28Z"/><path class="cls-23" d="M1187.59,646c0,.15.06.23.07.37l79.55,45.93,1-2.63L1188,643.33A9.71,9.71,0,0,0,1187.59,646Z"/><path class="cls-23" d="M1191.75,638a7.72,7.72,0,0,0-2.07,2l80,46.16,1-2.62Z"/><path class="cls-20" d="M1264.74,690.76c0,3.07,1.87,4.48,4.18,3.15s4.17-4.9,4.17-8-1.87-4.48-4.17-3.15S1264.74,687.65,1264.74,690.76Z"/><path class="cls-24" d="M1230.34,692.36l20.52-11.92a1.18,1.18,0,0,1,1.3,0h0l-21.83,12.61Z"/><path class="cls-24" d="M1230.34,694.54l22.76-13.14a4.84,4.84,0,0,1,.74,1.47l-23.5,13.57Z"/><path class="cls-24" d="M1230.34,697.88,1254,684.22a1.57,1.57,0,0,1-.59,1.32l-23.07,13.38Z"/><path class="cls-24" d="M1230.34,696.44l23.5-13.57a4.41,4.41,0,0,1,.19,1.19.43.43,0,0,1,0,.16l-23.66,13.66Z"/><path class="cls-24" d="M1230.34,693.1l21.83-12.61a3.36,3.36,0,0,1,.93.91l-22.76,13.14Z"/><path class="cls-24" d="M1180.06,661.87,1200.59,650a1.2,1.2,0,0,1,1.29,0h0l-21.83,12.61Z"/><path class="cls-24" d="M1180.06,664.05l22.8-13.14a4.73,4.73,0,0,1,.74,1.47L1180.11,666Z"/><path class="cls-24" d="M1180.06,667.39l23.66-13.63a1.57,1.57,0,0,1-.59,1.32l-23.07,13.38Z"/><path class="cls-24" d="M1180.06,666l23.49-13.57a4,4,0,0,1,.2,1.18.49.49,0,0,1,0,.17l-23.66,13.66Z"/><path class="cls-24" d="M1180.06,662.61l21.8-12.61a3.19,3.19,0,0,1,.92.91L1180,664.05Z"/><rect class="cls-25" x="1098.27" y="775.14" width="4.98" height="61.62" transform="translate(-180.08 336.2) rotate(-16.07)"/><path class="cls-13" d="M1078.2,758.83c.33-2.7,4-2.56,6.07.28-1-2.83-2-7.19,1.53-7.82,1.87-.33,3.71.76,5.15,2.22.29-1,.83-1.74,1.82-1.85,1.18-.13,1.92.76,2.38,1.88.74-2.07,2-4,3.66-4.52,2.35-.67,3.48,1,3.89,2.89a6,6,0,0,1,2.78-1.1c1.73,0,3.38.29,4.38,1.84,1.79,2.77-1.41,5.76-3.42,7.84a5.29,5.29,0,0,1,.66,5.37,3.45,3.45,0,0,1,3.64,3.24v.15c0,2.86-2.44,4.77-5,5.62,1.78.92,3.41,2.17,1.91,4.12s-4.26,1.61-6.58.8c.56,2.29.3,4.75-2.59,5.05-2.17.23-4.37-1.88-5.74-4.12a4.86,4.86,0,0,1-5.18,2.54,3.53,3.53,0,0,1-2.63-2.55c-3,1.52-6.64,2.42-8.93-.5a4.6,4.6,0,0,1-.19-4.89,3.4,3.4,0,0,1-2.75-2.26,3.54,3.54,0,0,1,.48-3.12,6.57,6.57,0,0,1-3.11-5.26,6.87,6.87,0,0,1,.88-3.4A7.1,7.1,0,0,1,1078.2,758.83Z"/><path class="cls-5" d="M1048.41,689.19a4.16,4.16,0,0,1,3.7-.69,3.87,3.87,0,0,1,.89-4.5c1.07-1,2.67-1.2,4.46.15-.82-2.91,2.37-6.62,5.77-3.84,1.37-2.51,5.9-3.09,7.14-1.1,2-7.3,8.09-3.42,8,.18,2-.44,5.2,0,6.44,2a4.62,4.62,0,0,1,.25,4.36,4.72,4.72,0,0,1,2.4.86,3.73,3.73,0,0,1,1.13,4.76,4.56,4.56,0,0,1,3.5,2.51,5,5,0,0,1-1,5.33,3.82,3.82,0,0,1,1.61,1.45,4.51,4.51,0,0,1,.09,4.35,5,5,0,0,1,3.3,1.13c2.17,1.94,1.46,4.74.28,7a4.54,4.54,0,0,1,3.45,2.73,5.86,5.86,0,0,1-1,5.9,11.7,11.7,0,0,0-3.66,3.48,3.82,3.82,0,0,0-3.58-1.73,5,5,0,0,0-3.9,2.88,2.2,2.2,0,0,0-2.34-.91,3,3,0,0,0-2.1,1.8,5,5,0,0,0-6.3.2,3.87,3.87,0,0,0-1.35,3.49c-1.21-1.87-5.63-2.39-6.58,1.34-4.24-1.91-6.62-.17-8.79,3.59a2.66,2.66,0,0,1-.49-.1,5.31,5.31,0,0,1-2.82-2.58,5.15,5.15,0,0,1-.06-4.71,5,5,0,0,1-2.72-2.65,5.16,5.16,0,0,1-.1-3.55c-1.86.07-3.37-.62-3.21-3.23a9.39,9.39,0,0,1,1.55-4.34c-2.92,0-5.54-.94-5.38-4.12a6,6,0,0,1,3-4.5,8.3,8.3,0,0,1-4-5.86,3.86,3.86,0,0,1,2-4,5.88,5.88,0,0,1-.92-2A5.08,5.08,0,0,1,1048.41,689.19Z"/><path class="cls-21" d="M1068.86,732.4c1-3.73,5.37-3.21,6.58-1.34a3.87,3.87,0,0,1,1.35-3.49,5,5,0,0,1,6.3-.2,3,3,0,0,1,2.1-1.8,2.2,2.2,0,0,1,2.34.91,5,5,0,0,1,3.9-2.88,3.82,3.82,0,0,1,3.58,1.73,11.7,11.7,0,0,1,3.66-3.48.76.76,0,0,1-.12.19,4.52,4.52,0,0,1,3.41,2.46,4.85,4.85,0,0,1-1.15,5.53,4.13,4.13,0,0,1,1.78,3.74,4,4,0,0,1-1.74,2.82,4.19,4.19,0,0,1,4,2c1.17,2.08-.3,4.59-1.76,6.67,1.26-.07,2.42.18,2.79,1.51a5.27,5.27,0,0,1-.73,4h.31a6,6,0,0,0-2.78,1.1c-.41-1.91-1.54-3.56-3.89-2.89-1.71.49-2.92,2.45-3.66,4.52-.46-1.12-1.2-2-2.38-1.88-1,.11-1.53.88-1.82,1.85-1.44-1.46-3.28-2.55-5.15-2.22-3.55.63-2.48,5-1.53,7.82-2.08-2.84-5.74-3-6.07-.28a7.1,7.1,0,0,0-6.87,2.45,4.07,4.07,0,0,1-1.77-.73,4.78,4.78,0,0,1-1.7-5.72c-3.61-1-5.53-4.89-3.43-8.13a8.65,8.65,0,0,1-5.17-6.11,6.06,6.06,0,0,1,.8-4.6C1062.23,732.23,1064.61,730.49,1068.86,732.4Z"/><path class="cls-19" d="M1211.73,853.76a13.66,13.66,0,0,1-3.23,2.25,96.58,96.58,0,0,0-12.27-35.72l-7.57-13.12a4.21,4.21,0,0,1,3.63-1.35l7.25,12.56a101.2,101.2,0,0,1,12.47,35A1.29,1.29,0,0,1,1211.73,853.76Z"/><path class="cls-26" d="M1208.86,830l-3.48,54-1.27,19.72c-7.28,7.66-22.17,12.92-39.4,12.92s-32.14-5.27-39.41-12.94L1124,884l-3.48-54Z"/><path class="cls-21" d="M1164.68,806.52c24.38,0,44.15,10.51,44.15,23.48s-19.77,23.49-44.15,23.49S1120.52,843,1120.52,830,1140.29,806.52,1164.68,806.52Z"/><path class="cls-27" d="M1164.67,825c-17.4,0-32.31,5.44-38.59,13.15a12.92,12.92,0,0,1-3.18-8.16c0-11.77,18.7-21.31,41.77-21.31s41.78,9.54,41.78,21.31a12.84,12.84,0,0,1-3.18,8.16C1197,830.45,1182.08,825,1164.67,825Z"/><path class="cls-27" d="M1164.67,851.31c-17.4,0-32.31-5.43-38.59-13.15,6.28-7.71,21.19-13.15,38.59-13.15s32.32,5.44,38.6,13.15C1197,845.88,1182.08,851.31,1164.67,851.31Z"/><path class="cls-26" d="M1164.66,881.66c21.79,0,39.47,9.4,39.47,21s-17.68,21-39.47,21-39.47-9.4-39.47-21S1142.86,881.66,1164.66,881.66Z"/><path class="cls-19" d="M1135.86,837.76a4.1,4.1,0,1,0,4.11-4.09h0A4.11,4.11,0,0,0,1135.86,837.76Z"/><path class="cls-21" d="M1130.86,832.52a7.1,7.1,0,0,0-.28,2v6.89c0,3.87,7.56,6.85,8.75,7.91l1.81-1v-7.65c0-3.87-2.38-8.41-5.28-10.09a3.4,3.4,0,0,0-3.36-.28h0l-.16.12-.3.21-1.44,1Zm1.38,3a4.4,4.4,0,0,1,.23-1.39,2.86,2.86,0,0,1,1.24.39c2,1.13,3.55,4.16,3.55,6.78a4.3,4.3,0,0,1-.23,1.38,2.85,2.85,0,0,1-1.24-.38,8.79,8.79,0,0,1-3.55-6.83Z"/><path class="cls-26" d="M1128.77,835.81v9.09l10.56,4.4v-7.4c0-3.87-2.37-8.41-5.28-10.08S1128.77,831.94,1128.77,835.81Zm3.47-.34a4.4,4.4,0,0,1,.23-1.39,2.86,2.86,0,0,1,1.24.39c2,1.13,3.55,4.16,3.55,6.78a4.3,4.3,0,0,1-.23,1.38,2.85,2.85,0,0,1-1.24-.38A8.58,8.58,0,0,1,1132.24,835.47Z"/><path class="cls-21" d="M1132.47,834.08a4.4,4.4,0,0,0-.23,1.39c0,2.61,1.59,5.65,3.55,6.78a2.85,2.85,0,0,0,1.24.38,2.07,2.07,0,0,1-2.37,1.72h0a2.07,2.07,0,0,1-1-.42c-2-1.13-3.54-4.17-3.54-6.78C1130.17,835.12,1131.13,834,1132.47,834.08Z"/><path class="cls-21" d="M1188,799.43a7.49,7.49,0,0,0-.28,2v6.89c0,3.87,7.57,6.85,8.76,7.9l1.8-1v-7.65c0-3.88-2.37-8.42-5.28-10.09a3.35,3.35,0,0,0-3.35-.28h0l-.17.12a1.94,1.94,0,0,0-.29.21l-1.45,1Zm1.38,3a5,5,0,0,1,.23-1.38,2.89,2.89,0,0,1,1.25.38c2,1.13,3.55,4.17,3.55,6.78a4.4,4.4,0,0,1-.23,1.39,2.78,2.78,0,0,1-1.25-.39,8.64,8.64,0,0,1-3.55-6.83Z"/><path class="cls-26" d="M1185.93,802.76v8.93l10.56,4.56v-7.39c0-3.87-2.38-8.41-5.28-10.09S1185.93,798.85,1185.93,802.76Zm3.46-.34a5,5,0,0,1,.23-1.38,2.89,2.89,0,0,1,1.25.38c2,1.13,3.55,4.17,3.55,6.78a4.4,4.4,0,0,1-.23,1.39,2.78,2.78,0,0,1-1.25-.39,8.63,8.63,0,0,1-3.55-6.82Z"/><path class="cls-21" d="M1189.62,801a5,5,0,0,0-.23,1.38c0,2.62,1.59,5.65,3.55,6.78a2.78,2.78,0,0,0,1.25.39,2.07,2.07,0,0,1-2.38,1.71h0a2.06,2.06,0,0,1-.94-.42c-2-1.13-3.55-4.16-3.55-6.78C1187.32,802,1188.28,800.9,1189.62,801Z"/><path class="cls-19" d="M1149.41,861.82c10.06,17.41,24,29.53,36.48,31.63,5.75,1,10.67-.28,14.63-3.7,8.22-7.12,10.43-22.57,7-39.68.31-4.79.48-7.44.84-11.93,7.44,22.67,5.84,44.8-5.36,54.5a20.09,20.09,0,0,1-13.52,4.94,24.12,24.12,0,0,1-4.24-.37c-13.55-2.28-28.55-15.11-39.16-33.48l-12.48-21.61c-1.13-2.41-.53-4,2.34-5.29a9.32,9.32,0,0,1,1.28,3.9Z"/><path class="cls-19" d="M1185.67,808.69a4.1,4.1,0,1,0,4.11-4.09h0A4.11,4.11,0,0,0,1185.67,808.69Z"/><polygon class="cls-24" points="1109.73 616.94 1115.37 616.94 1113.88 863.03 1108.24 863.03 1109.73 616.94"/><path class="cls-24" d="M1175.86,694.06v235.7c0,.83-1.26,1.5-2.82,1.5s-2.82-.67-2.82-1.5V694.06Z"/><path class="cls-24" d="M1142.77,694.06v235.7c0,.83-1.26,1.5-2.82,1.5s-2.81-.67-2.81-1.5V694.06Z"/><path class="cls-20" d="M1244,809.35s.07,8.12,0,8.72-4.44,3-4.44,3,2.44-5.76-2.11-8.89-48.1-28.81-54.76-32.06-17.22-6.82-27.46-2-64.18,37.21-64.18,37.21l-2.27-6.66s62.71-37,69.21-39.65,14.63-1.15,21,1.62S1244,809.35,1244,809.35Z"/><path class="cls-20" d="M1076.63,820.6l83.34,50,79-45.5c7.5-4.32,6.55-12-2.11-17l-53.81-30.78c-8.65-5-21.87-5.54-29.36-1.22Zm83.34,41-69.64-41.84,65.86-38.24c6.27-3.61,17.31-3.16,24.54,1l48.13,27.77c7.23,4.17,8.21,7.2,2,10.81Z"/><path class="cls-28" d="M1076.63,812.16l83.34,50,79-45.5c7.5-4.33,6.55-12-2.11-16.95l-53.81-30.78c-8.65-5-21.87-5.55-29.36-1.22Zm83.34,41-69.64-41.77,65.86-38.24c6.27-3.62,17.31-3.16,24.54,1l48.13,27.69c7.23,4.18,8.21,7.21,2,10.82Z"/><polygon class="cls-20" points="1159.97 950.53 1166.73 946.63 1166.73 748.95 1159.97 752.86 1159.97 950.53"/><polygon class="cls-23" points="1159.97 950.53 1153.2 946.63 1153.2 748.8 1159.97 752.86 1159.97 950.53"/><polygon class="cls-20" points="1083.39 905.69 1090.16 901.78 1090.16 702.86 1083.39 706.76 1083.39 905.69"/><polygon class="cls-23" points="1083.39 905.69 1076.63 901.78 1076.63 702.86 1083.39 706.76 1083.39 905.69"/><path class="cls-19" d="M1036.13,898.84a15.45,15.45,0,0,0,3.59,2.51,108.19,108.19,0,0,1,13.67-39.8l8.44-14.61a4.65,4.65,0,0,0-4-1.51l-8.08,14a113.15,113.15,0,0,0-13.89,39A1,1,0,0,0,1036.13,898.84Z"/><path class="cls-29" d="M1039.35,942.66c0,4.24,1.94,8.23,5.3,11.77l-1.42-22A16.35,16.35,0,0,0,1039.35,942.66Z"/><path class="cls-29" d="M1133.86,932.47l-1.41,21.95c3.35-3.54,5.28-7.52,5.28-11.76A16.29,16.29,0,0,0,1133.86,932.47Z"/><path class="cls-30" d="M1039.35,872.35l3.88,60.11,1.42,22c8.11,8.54,24.7,14.4,43.9,14.4s35.81-5.87,43.91-14.41l1.41-22,3.87-60.12Z"/><path class="cls-31" d="M1088.55,846.18c-27.17,0-49.2,11.72-49.2,26.17s22,26.17,49.2,26.17,49.19-11.72,49.19-26.17S1115.72,846.18,1088.55,846.18Z"/><path class="cls-13" d="M1088.55,866.76c19.39,0,36,6,43,14.65a14.31,14.31,0,0,0,3.55-9.09c0-13.11-20.84-23.74-46.55-23.74S1042,859.21,1042,872.32a14.37,14.37,0,0,0,3.55,9.09C1052.55,872.84,1069.16,866.76,1088.55,866.76Z"/><path class="cls-32" d="M1088.55,896.09c19.39,0,36-6.05,43-14.65-7-8.6-23.61-14.65-43-14.65s-36,6.05-43,14.65C1052.55,890,1069.16,896.09,1088.55,896.09Z"/><path class="cls-5" d="M1110,859.43a1.77,1.77,0,1,1-1.77-1.77h0a1.76,1.76,0,0,1,1.76,1.76h0Z"/><path class="cls-5" d="M1103.86,885.76a1.77,1.77,0,1,1-1.78-1.78h0a1.76,1.76,0,0,1,1.76,1.76h0Z"/><path class="cls-5" d="M1079.68,876.76c-2.24,2-5.76,3.63-8.84,2.79a6,6,0,0,1-8.11,2.49l-.1,0a5.66,5.66,0,0,1-1.38-1,5.45,5.45,0,0,1-5.73.12,4,4,0,0,1-1.59-5.5v-.11a5,5,0,0,1-1.55-5.57c1.14-2.53,4.24-3.53,6.84-2.87a3.66,3.66,0,0,1,2-4.51,3.55,3.55,0,0,1,3.93.52c.56-3.2,5.74-5,8.71-3.53A5.85,5.85,0,0,1,1077,866c1.48.24,3.06,2.22,3.64,3.28C1082.24,872.12,1082.16,874.51,1079.68,876.76Z"/><path class="cls-5" d="M1131.51,875.16a5.11,5.11,0,0,1-2.32,4.93,5.25,5.25,0,0,1-1.79.67,6.43,6.43,0,0,1-1.12,3.08c-1,1.3-3.34,1.92-4.92,1.92a6.55,6.55,0,0,1-6.41-4.55,6.93,6.93,0,0,1-3.64,1.33c-3.22.08-4.72-1.46-5-3.84a7.66,7.66,0,0,1-6.39.55c-1.85-.7-3.4-2.4-2.82-4.49a3.81,3.81,0,0,1,1.1-1.74c-2.62-1-6.08-2.57-4.13-5.41,1.34-2,4.84-2.13,6.64-.6a5.49,5.49,0,0,1,4.33-3.26,9.1,9.1,0,0,1,6.13,1.88c.2-1.37,1-2.63,2.43-2.6a4.29,4.29,0,0,1,3.76,2.48,4.52,4.52,0,0,1,4-.36,5.1,5.1,0,0,1,3.38,5,6.78,6.78,0,0,1,3.27.49A5.9,5.9,0,0,1,1131.51,875.16Z"/><path class="cls-5" d="M1085.72,859.43a2.58,2.58,0,1,1-2.58-2.58h0a2.57,2.57,0,0,1,2.57,2.57Z"/><path class="cls-5" d="M1052.91,865a2.58,2.58,0,1,1-2.58-2.58h0a2.57,2.57,0,0,1,2.58,2.56Z"/><path class="cls-5" d="M1095.58,883a4.56,4.56,0,1,1-4.56-4.56,4.56,4.56,0,0,1,4.56,4.56Z"/><circle class="cls-5" cx="1081.31" cy="887.02" r="3.09"/><circle class="cls-5" cx="1096.2" cy="858.47" r="2.65"/><path class="cls-5" d="M1056.44,860.24a1.77,1.77,0,1,1-1.77-1.77h0a1.76,1.76,0,0,1,1.76,1.76h0Z"/><path class="cls-5" d="M1094.55,854.05a1.77,1.77,0,1,1-1.78-1.78h0a1.76,1.76,0,0,1,1.76,1.76h0Z"/><path class="cls-5" d="M1068.7,887.61a1.77,1.77,0,1,1-1.77-1.77,1.77,1.77,0,0,1,1.77,1.77Z"/><path class="cls-19" d="M1120.66,881a4.57,4.57,0,1,1-4.58-4.56h0A4.58,4.58,0,0,1,1120.66,881Z"/><path class="cls-13" d="M1126.23,875.15a7.94,7.94,0,0,1,.31,2.22V885c0,4.31-8.43,7.63-9.75,8.81l-2-1.17v-8.52c0-4.32,2.65-9.37,5.89-11.24a3.75,3.75,0,0,1,3.73-.31h0l.19.14.32.23,1.61,1.15Zm-1.54,3.29a5.4,5.4,0,0,0-.25-1.55,3.42,3.42,0,0,0-1.39.43c-2.19,1.26-4,4.64-4,7.56a5.4,5.4,0,0,0,.26,1.54,3,3,0,0,0,1.39-.43C1122.92,884.76,1124.69,881.35,1124.69,878.44Z"/><path class="cls-30" d="M1128.55,878.82V889l-11.76,4.9v-8.24c0-4.31,2.64-9.37,5.88-11.24S1128.55,874.5,1128.55,878.82Zm-3.86-.38a5.4,5.4,0,0,0-.25-1.55,3.42,3.42,0,0,0-1.39.43c-2.19,1.26-4,4.64-4,7.56a5.4,5.4,0,0,0,.26,1.54,3,3,0,0,0,1.39-.43c2.22-1.23,4-4.64,4-7.55Z"/><path class="cls-13" d="M1124.44,876.89a5.4,5.4,0,0,1,.25,1.55c0,2.91-1.77,6.29-4,7.55a3,3,0,0,1-1.39.43,2.31,2.31,0,0,0,2.66,1.9h0a2.29,2.29,0,0,0,1-.46c2.18-1.26,4-4.64,4-7.55C1127,878.06,1125.93,876.76,1124.44,876.89Z"/><path class="cls-30" d="M1062.55,838.29a7.87,7.87,0,0,1,.31,2.21v7.68c0,4.31-8.43,7.63-9.75,8.8l-2-1.16V847.3c0-4.32,2.64-9.37,5.88-11.24a3.79,3.79,0,0,1,3.74-.32h0l.19.13.32.24,1.61,1.15Zm-1.54,3.29a5.08,5.08,0,0,0-.25-1.55,3.42,3.42,0,0,0-1.39.43c-2.19,1.26-4,4.64-4,7.55a5.41,5.41,0,0,0,.26,1.55,3,3,0,0,0,1.39-.43c2.22-1.26,4-4.64,4-7.55Z"/><path class="cls-13" d="M1064.86,842v10l-11.76,5v-8.22c0-4.32,2.64-9.37,5.88-11.24S1064.86,837.64,1064.86,842Zm-3.86-.38a5.08,5.08,0,0,0-.25-1.55,3.42,3.42,0,0,0-1.39.43c-2.19,1.26-4,4.64-4,7.55a5.41,5.41,0,0,0,.26,1.55,3,3,0,0,0,1.39-.43c2.23-1.26,4-4.64,4-7.55Z"/><path class="cls-30" d="M1060.76,840a5.08,5.08,0,0,1,.25,1.55c0,2.91-1.77,6.29-4,7.55a3,3,0,0,1-1.39.43,2.31,2.31,0,0,0,2.66,1.9h0a2.29,2.29,0,0,0,1-.46c2.18-1.26,4-4.64,4-7.55C1063.32,841.2,1062.25,839.92,1060.76,840Z"/><path class="cls-19" d="M1105.56,907.76c-11.2,19.41-26.78,32.91-40.64,35.25-6.41,1.08-11.9-.31-16.3-4.12-9.17-7.94-11.62-25.15-7.82-44.21-.35-5.34-.54-8.29-.94-13.3-8.29,25.26-6.51,49.92,6,60.73a22.48,22.48,0,0,0,15.06,5.5,27.72,27.72,0,0,0,4.73-.41c15.09-2.54,31.8-16.83,43.63-37.31l13.9-24.07c1.26-2.69.59-4.41-2.6-5.89a10.46,10.46,0,0,0-1.43,4.34Z"/><circle class="cls-19" cx="1060.6" cy="848.61" r="4.56"/><polygon class="cls-23" points="1079.47 813.87 1155.47 859.49 1155.47 869.05 1079.07 823.68 1079.47 813.87"/><path class="cls-20" d="M1244,700.05s.07,8.12,0,8.72-4.44,3-4.44,3,2.44-5.76-2.11-8.89-48.1-28.81-54.76-32.06-17.22-6.82-27.46-2S1091.05,706,1091.05,706l-2.27-6.66s62.71-37,69.21-39.65,14.63-1.15,21,1.62S1244,700.05,1244,700.05Z"/><path class="cls-20" d="M1076.63,711.3l83.34,50,79-45.5c7.5-4.32,6.55-11.95-2.11-16.95l-53.81-30.78c-8.65-5-21.87-5.54-29.36-1.22Zm83.34,41-69.64-41.77,65.86-38.24c6.27-3.61,17.31-3.16,24.54,1l48.13,27.7c7.23,4.17,8.21,7.2,2,10.81Z"/><path class="cls-28" d="M1076.63,702.86l83.34,50,79-45.5c7.5-4.33,6.55-12-2.11-17l-53.81-30.78c-8.65-5-21.87-5.55-29.36-1.22Zm83.34,41-69.64-41.77,65.86-38.24c6.27-3.62,17.31-3.16,24.54,1l48.13,27.69c7.23,4.18,8.21,7.21,2,10.82Z"/><polygon class="cls-23" points="1159.97 761.3 1076.63 711.3 1076.63 702.86 1159.97 752.86 1159.97 761.3"/><polygon class="cls-28" points="1083.39 816.17 1093.11 822.05 1100.79 817.62 1091.04 811.76 1083.39 816.17"/><rect class="cls-24" x="1170.19" y="760.17" width="5.64" height="29"/><rect class="cls-24" x="1137.13" y="764.56" width="5.64" height="29"/><rect class="cls-24" x="1170.19" y="646.54" width="5.64" height="53.19"/><path class="cls-33" d="M1179.58,653.58v3.66c0,1.93-2.94,3.49-6.57,3.49s-6.56-1.56-6.56-3.49v-3.66Z"/><path class="cls-34" d="M1173,650.25c3.63,0,6.57,1.57,6.57,3.5s-2.94,3.49-6.57,3.49-6.56-1.57-6.56-3.49S1169.38,650.25,1173,650.25Z"/><polygon class="cls-35" points="1139.37 632.61 1196.1 665.36 1214.97 654.47 1158.24 621.72 1139.37 632.61"/><polygon class="cls-36" points="1196.1 665.36 1196.1 672.68 1139.37 639.93 1139.37 632.61 1196.1 665.36"/><polygon class="cls-37" points="1214.97 654.47 1214.97 661.78 1196.1 672.68 1196.1 665.36 1214.97 654.47"/><path class="cls-26" d="M1140.1,616.31c1.46,2.11,2.43,6.33,2.43,6.33a17.15,17.15,0,0,1,1.63-2.6,6.72,6.72,0,0,1,2.84-1.78,21.59,21.59,0,0,0-.35,4.09,8.73,8.73,0,0,0,2.55,4.84,26,26,0,0,1,1.46-2.76,12.13,12.13,0,0,1,3.09-2.71s1.3,2.87,1.78,4.17,2.12,4.72,2.12,4.72,1.62-1.79,2.6-2.93,3.57-1.79,3.57-1.79a11,11,0,0,0,.68,3.14,40.74,40.74,0,0,0,2.28,4.93s1.43-2.05,1.91-2.57l2.23-2.36a10.71,10.71,0,0,1,2,3.58,21.08,21.08,0,0,0,1.43,3.68,35.35,35.35,0,0,1,2.82-2.37,5.7,5.7,0,0,1,3.69-1,10.29,10.29,0,0,0-.87,3.53,12.87,12.87,0,0,0,.89,4.71s2.28-1,2.6-2.44.57-4.06.57-4.06a25.44,25.44,0,0,1,3.66,4.55,49,49,0,0,1,2.43,5.68,15.4,15.4,0,0,0,1.14-3.08,15.69,15.69,0,0,1,1.79-3.74,29.25,29.25,0,0,1,3,3.74c1.57,2.27,2.82,4.22,2.82,4.22a25.37,25.37,0,0,0,1-4.87,28.33,28.33,0,0,0,0-4.12,12,12,0,0,1,2.93,1.52,22.29,22.29,0,0,1,2.72,2.6,13.74,13.74,0,0,1,2.25-4,30.48,30.48,0,0,1,5.54-4.26,22.66,22.66,0,0,0-.93,8.89c.36,5.63-.44,11.77-1.38,12.65a70.94,70.94,0,0,1-8.53,5.35c-2.53,1.35-5.44,3.47-7.72,2.66-2.52-.9-8.2-5.06-17.06-9.83-5.16-2.78-11.15-6.73-15.51-9.11-7.41-4-14.16-7.17-18.56-10.15-3-2-2.92-3.11-3.3-5.06-1-5-3.65-15.52-3.65-15.52A15.44,15.44,0,0,1,1140.1,616.31Z"/><path class="cls-21" d="M1145,607.9s3.29,1.34,4.19,3.37c.81-4.79,3.76-6.15,3.76-6.15s3.63,2.09,4.89,5c1.26-1.94,7.11-3.48,7.11-3.48a36.42,36.42,0,0,1,3.25,7.47c1.78-1.78,6.51-2.29,6.51-2.29s2,3.67,2,6.44c1.54-1.3,4.38-1.48,7.31-.73,2.19,2.51,3.09,8.53,3.09,8.53a30.45,30.45,0,0,1,7.08-1.94c1.58,2.49,3.07,7.76,3.07,7.76s3.09-4.69,6.34-4.52c.16,3.33,1.28,4.36,1.91,7.88l7.79-2.31a30.48,30.48,0,0,0-5.54,4.26,13.74,13.74,0,0,0-2.25,4,22.29,22.29,0,0,0-2.72-2.6,12,12,0,0,0-2.93-1.52,28.33,28.33,0,0,1,0,4.12,25.37,25.37,0,0,1-1,4.87s-1.25-1.95-2.82-4.22a29.25,29.25,0,0,0-3-3.74,15.69,15.69,0,0,0-1.79,3.74,15.4,15.4,0,0,1-1.14,3.08,49,49,0,0,0-2.43-5.68,25.44,25.44,0,0,0-3.66-4.55s-.24,2.6-.57,4.06-2.6,2.44-2.6,2.44a12.87,12.87,0,0,1-.89-4.71,10.29,10.29,0,0,1,.87-3.53,5.7,5.7,0,0,0-3.69,1,35.35,35.35,0,0,0-2.82,2.37,21.08,21.08,0,0,1-1.43-3.68,10.71,10.71,0,0,0-2-3.58l-2.23,2.36c-.48.52-1.91,2.57-1.91,2.57a40.74,40.74,0,0,1-2.28-4.93,11,11,0,0,1-.68-3.14s-2.6.65-3.57,1.79-2.6,2.93-2.6,2.93-1.63-3.42-2.12-4.72-1.78-4.17-1.78-4.17a12.13,12.13,0,0,0-3.09,2.71,26,26,0,0,0-1.46,2.76,8.73,8.73,0,0,1-2.55-4.84,21.59,21.59,0,0,1,.35-4.09,6.72,6.72,0,0,0-2.84,1.78,17.15,17.15,0,0,0-1.63,2.6,24.46,24.46,0,0,0-2.43-6.33,16,16,0,0,0-3.41-3.5s3.41.33,4.63,1.87C1141.72,612.49,1145,607.9,1145,607.9Z"/><path class="cls-33" d="M1104.49,616.05v3.65c0,1.93,2.94,3.5,6.57,3.5s6.56-1.57,6.56-3.5v-3.65Z"/><path class="cls-34" d="M1111.06,612.76c-3.63,0-6.57,1.56-6.57,3.49s2.94,3.49,6.57,3.49,6.56-1.56,6.56-3.49S1114.68,612.76,1111.06,612.76Z"/><polygon class="cls-35" points="1144.7 595.08 1087.97 627.83 1069.1 616.93 1125.82 584.18 1144.7 595.08"/><polygon class="cls-36" points="1087.97 627.83 1087.97 635.14 1144.7 602.39 1144.7 595.08 1087.97 627.83"/><polygon class="cls-37" points="1069.1 616.93 1069.1 624.25 1087.97 635.14 1087.97 627.83 1069.1 616.93"/><path class="cls-30" d="M1144,578.76c-1.46,2.11-2.44,6.34-2.44,6.34a16.16,16.16,0,0,0-1.62-2.6,6.72,6.72,0,0,0-2.85-1.79,20.07,20.07,0,0,1,.36,4.09,8.73,8.73,0,0,1-2.55,4.85,26,26,0,0,0-1.46-2.76,12.17,12.17,0,0,0-3.09-2.72s-1.3,2.88-1.79,4.18-2.11,4.71-2.11,4.71-1.62-1.79-2.6-2.92-3.57-1.79-3.57-1.79a11,11,0,0,1-.68,3.14,40.74,40.74,0,0,1-2.28,4.93s-1.43-2.06-1.92-2.58l-2.22-2.35a10.71,10.71,0,0,0-2,3.58,20.36,20.36,0,0,1-1.44,3.68,30.58,30.58,0,0,0-2.82-2.38,5.65,5.65,0,0,0-3.68-1,10.52,10.52,0,0,1,.87,3.53,12.47,12.47,0,0,1-.89,4.71s-2.28-1-2.6-2.43-.57-4.07-.57-4.07a27.13,27.13,0,0,0-3.66,4.55,53.73,53.73,0,0,0-2.43,5.69,15.49,15.49,0,0,1-1.14-3.09,15.63,15.63,0,0,0-1.79-3.73,29.87,29.87,0,0,0-3,3.73c-1.57,2.28-2.82,4.23-2.82,4.23a26.09,26.09,0,0,1-1-4.88,28.33,28.33,0,0,1,0-4.12,12,12,0,0,0-2.93,1.52,22.29,22.29,0,0,0-2.72,2.6,13.41,13.41,0,0,0-2.26-4,29.37,29.37,0,0,0-5.53-4.27,22.47,22.47,0,0,1,.93,8.89c-.36,5.64.43,11.77,1.38,12.65a70.94,70.94,0,0,0,8.53,5.35c2.52,1.35,5.44,3.48,7.71,2.67,2.53-.9,8.21-5.07,17.07-9.84,5.16-2.78,11.15-6.72,15.51-9.1,7.41-4,14.16-7.18,18.56-10.15,3-2,2.92-3.11,3.3-5.06,1-5,3.65-15.52,3.65-15.52A16.31,16.31,0,0,0,1144,578.76Z"/><path class="cls-16" d="M1139.05,570.37s-3.28,1.33-4.18,3.37c-.81-4.8-3.76-6.15-3.76-6.15s-3.63,2.08-4.89,5c-1.26-1.93-7.11-3.48-7.11-3.48a36.27,36.27,0,0,0-3.25,7.48c-1.79-1.79-6.51-2.29-6.51-2.29s-2,3.67-2,6.43c-1.54-1.3-4.38-1.47-7.31-.73-2.2,2.52-3.09,8.53-3.09,8.53a30.16,30.16,0,0,0-7.09-1.93c-1.57,2.48-3.06,7.76-3.06,7.76s-3.09-4.69-6.34-4.53c-.16,3.33-1.29,4.36-1.91,7.88l-7.79-2.31a29.69,29.69,0,0,1,5.53,4.27,13.41,13.41,0,0,1,2.26,4,22.29,22.29,0,0,1,2.72-2.6,12,12,0,0,1,2.93-1.52,28.33,28.33,0,0,0,0,4.12,26.26,26.26,0,0,0,1,4.88s1.25-2,2.82-4.23a29.87,29.87,0,0,1,3-3.73,15.63,15.63,0,0,1,1.79,3.73,15.49,15.49,0,0,0,1.14,3.09,53.73,53.73,0,0,1,2.43-5.69,27.13,27.13,0,0,1,3.66-4.55s.24,2.6.57,4.07,2.6,2.43,2.6,2.43a12.47,12.47,0,0,0,.89-4.71,10.52,10.52,0,0,0-.87-3.53,5.65,5.65,0,0,1,3.68,1,30.58,30.58,0,0,1,2.82,2.38,20.36,20.36,0,0,0,1.44-3.68,10.71,10.71,0,0,1,2-3.58s1.74,1.83,2.22,2.35,1.92,2.58,1.92,2.58a40.74,40.74,0,0,0,2.28-4.93,11,11,0,0,0,.68-3.14s2.6.65,3.57,1.79,2.6,2.92,2.6,2.92,1.63-3.41,2.11-4.71,1.79-4.18,1.79-4.18a12,12,0,0,1,3.09,2.72,26,26,0,0,1,1.46,2.76,8.73,8.73,0,0,0,2.55-4.85,20.81,20.81,0,0,0-.36-4.09,6.72,6.72,0,0,1,2.85,1.79,16.16,16.16,0,0,1,1.62,2.6,24.06,24.06,0,0,1,2.44-6.34,15.9,15.9,0,0,1,3.41-3.49s-3.41.32-4.63,1.87C1142.35,575,1139.05,570.37,1139.05,570.37Z"/><polygon class="cls-24" points="1109.18 707.85 1114.82 707.85 1115.06 667.9 1109.42 667.9 1109.18 707.85"/><rect class="cls-24" x="1108.61" y="784.86" width="5.62" height="33.47"/><path class="cls-33" d="M1148.44,703v3.65c0,1.93-2.94,3.49-6.56,3.49s-6.57-1.56-6.57-3.49V703Z"/><path class="cls-34" d="M1141.86,699.76c3.62,0,6.56,1.56,6.56,3.49s-2.94,3.49-6.56,3.49-6.57-1.56-6.57-3.49S1138.25,699.76,1141.86,699.76Z"/><polygon class="cls-35" points="1108.24 682.06 1164.97 714.82 1183.84 703.92 1127.11 671.17 1108.24 682.06"/><polygon class="cls-36" points="1164.97 714.82 1164.97 722.13 1108.24 689.38 1108.24 682.06 1164.97 714.82"/><polygon class="cls-37" points="1183.84 703.92 1183.84 711.24 1164.97 722.13 1164.97 714.82 1183.84 703.92"/><path class="cls-16" d="M1180.46,678.15a30.57,30.57,0,0,0-2.56,3.91,12.6,12.6,0,0,0-.73,4.87s-1.33-1.9-2.16-3.11a13.75,13.75,0,0,0-2-2.44,21.55,21.55,0,0,1-2,4.4,35,35,0,0,1-3.8,3.71s-.15-2.83-.36-3.9a21.37,21.37,0,0,1,.18-5.3s-1.74.32-3,.42a13,13,0,0,0-3.6,1.35s.37-2.08.5-3.78a10.8,10.8,0,0,0-.87-4,8.35,8.35,0,0,1-2.49,2.13,25.89,25.89,0,0,1-3.53,1.34,39.22,39.22,0,0,1,.18-4.6,21.45,21.45,0,0,0,0-4.24s-2.31,1.47-3.31,2.28a14.73,14.73,0,0,1-2.38,1.51v-8.45s-1.27.37-2.38.67a5.11,5.11,0,0,0-2.69,1.71s.36-2.32.49-3.92a32.92,32.92,0,0,0-.19-4.55,10.43,10.43,0,0,0-3,.28l-2.87,1.12s-.15-2-.36-3.41c-.32-2.14-.84-4.75-.84-4.75a24.07,24.07,0,0,0-2.21,1.58,14.53,14.53,0,0,0-2.5,2.92s-.18-2.92-.06-4.75a14.91,14.91,0,0,0-.55-4.2s-1.46,1.56-2.46,2.81-2,2.38-2,2.38a18.08,18.08,0,0,0,.18-3.6,15.23,15.23,0,0,1,.3-4.26,11.33,11.33,0,0,0-3,1.22,7,7,0,0,0-2.26,2.62,41.71,41.71,0,0,1-.18-5c.12-1.83.37-3.23.37-3.23a5.81,5.81,0,0,0-2.44.73,8.3,8.3,0,0,0-2.27,2.19,40.16,40.16,0,0,0-2.25-6.94,37.9,37.9,0,0,0-3.25-4.71,4.38,4.38,0,0,1,4.21,2.11,18,18,0,0,1,2.06,4.47,22.12,22.12,0,0,1,1.78-5.13,18.36,18.36,0,0,1,3.25-3.89l2.6,5.33,3.74-4.52a37.59,37.59,0,0,1,2.19,5.62,16,16,0,0,1,4.65-2.54s-1.64,4.72-.91,7.48c1.36-2.2,4.63-3.49,4.63-3.49s0,7.15.49,8.21a4.3,4.3,0,0,1,3.88-.41v6.66s3.25-1.62,5.69-1.11c.18,2.7.67,8.83.67,8.83a8.46,8.46,0,0,1,4.78-1.4c.86,1.91,2.61,8,2.61,8a6.43,6.43,0,0,1,4.63-2.19c-.45,2.92,1.54,6.9,1.54,6.9s2.28-3,4.31-3.17a50.62,50.62,0,0,0,1.62,8.45s1.3-4.18,3.58-4.82c1.14,3.46,2.89,5,3.49,8.56.49-2,2.61-4,6.23-4.79-2.23,2.6-2.77,7.76-2.77,7.76Z"/><path class="cls-30" d="M1179.58,703.92s-4.69,2.78-8.92,5.07c-2.32,1.25-6.28,3.63-7.75,2.76-3-1.79-16.72-9.73-25-14.54-7.88-4.57-24.08-13.55-25.2-15.15s.32-33.76.17-40.1-.74-10.8-.74-10.8a37.9,37.9,0,0,1,3.25,4.71,40.16,40.16,0,0,1,2.25,6.94,8.3,8.3,0,0,1,2.27-2.19,5.81,5.81,0,0,1,2.44-.73s-.25,1.4-.37,3.23a41.71,41.71,0,0,0,.18,5,7,7,0,0,1,2.26-2.62,11.33,11.33,0,0,1,3-1.22,15.23,15.23,0,0,0-.3,4.26,18.08,18.08,0,0,1-.18,3.6s1-1.22,2-2.38,2.43-2.86,2.43-2.86a14.91,14.91,0,0,1,.55,4.2c-.12,1.83.06,4.75.06,4.75a14.53,14.53,0,0,1,2.5-2.92c.71-.56,1.45-1.09,2.21-1.58,0,0,.52,2.61.84,4.75.21,1.45.36,3.41.36,3.41l2.87-1.12a10.43,10.43,0,0,1,3-.28,32.92,32.92,0,0,1,.19,4.55c-.13,1.6-.49,3.92-.49,3.92a5.11,5.11,0,0,1,2.69-1.71c1.11-.3,2.38-.67,2.38-.67v8.45a14.73,14.73,0,0,0,2.38-1.51c1-.81,3.31-2.28,3.31-2.28a21.45,21.45,0,0,1,0,4.24,39.22,39.22,0,0,0-.18,4.6,25.89,25.89,0,0,0,3.53-1.34,8.35,8.35,0,0,0,2.49-2.13,10.8,10.8,0,0,1,.87,4c-.13,1.7-.5,3.78-.5,3.78a13,13,0,0,1,3.6-1.35c1.31-.1,3-.42,3-.42a21.37,21.37,0,0,0-.18,5.3c.21,1.07.36,3.9.36,3.9a35,35,0,0,0,3.8-3.71,21.55,21.55,0,0,0,2-4.4,13.75,13.75,0,0,1,2,2.44c.83,1.21,2.16,3.11,2.16,3.11A12.51,12.51,0,0,1,1178,682a30.57,30.57,0,0,1,2.56-3.91l.61,3.91s.54-5.16,2.77-7.76c.12,3.14-.85,6.47-1,9.34C1182.65,691.19,1179.58,703.92,1179.58,703.92Z"/><path class="cls-25" d="M1165.27,749.11a19.65,19.65,0,0,0,4.92,5c8.67,5.36,12.46,7.22,24.23,3.41,9.5-3.08,12.21-9.8,18.91-15.84s14.53-4.85,20.92-9.57a27.68,27.68,0,0,0,11-17.26c2.71,12.89-3.27,18.1-7.78,25.17,2.77,12.27,15.25,48.45,22.4,65.28s15.6,41,14.3,48.78-7.8,26-21.11,42-41.63,12.07-54.81,6.57-15.44-16.8-21.12-33-12.49-74.56-12.2-91.9C1165.22,762.31,1162.8,756.57,1165.27,749.11Z"/><path class="cls-19" d="M1234.25,732.08c-6.39,4.72-14.23,3.52-20.92,9.57s-9.41,12.76-18.91,15.84c-11.77,3.81-15.56,2-24.23-3.41a19.65,19.65,0,0,1-4.92-5,30.65,30.65,0,0,1,1.17-2.92c4.31-9.09,16.54-1.06,16.54-1.06s3.06-10.21,8-13,14.57,0,14.57,0a18,18,0,0,1,9.43-14.81c9.57-5.5,16.5-.32,19.93,4.86,5.57-7.31,10.39-7.31,10.39-7.31A27.7,27.7,0,0,1,1234.25,732.08Z"/><path class="cls-34" d="M1175.15,772.33c2.9,1.94,8,15.93,10.1,31,1.36,9.84,17.28,48,22.91,60.76s12.9,29.68,10.41,33.49-13,1.19-21-2.82-13.67-12.5-14.45-25.1-9-57.59-10.84-69.6C1169.86,784,1167.06,766.88,1175.15,772.33Z"/><path class="cls-34" d="M1227.92,752.86s6.32,7.46,10,11.93,7.32,12,7.32,12a87.2,87.2,0,0,1-10.39-9C1231,763.42,1227.92,752.86,1227.92,752.86Z"/><path class="cls-34" d="M1214.47,764.76s6.39,14.87,7.6,20.07,2,17,2,17-5.94-8.85-7.89-17S1214.47,764.76,1214.47,764.76Z"/><path class="cls-34" d="M1198.19,770.67a66.35,66.35,0,0,1,10.27,14.81c2.8,5.58,6.26,16.61,6.26,16.61s-7.63-7.19-10.26-12.92S1198.19,770.67,1198.19,770.67Z"/><polygon class="cls-25" points="1097.26 795.26 1100.34 795.26 1105.58 813.48 1100.79 814.81 1095.98 798.1 1097.26 795.26"/><path class="cls-21" d="M1152,739s-4.13-.38-4,6.65.18,31.56,0,43.5-1.94,46.21-1.94,46.21-8.18,4.36-12,4.22-4.68-3-7.51-8.41-8.35-5.83-11.17-6.18-12,.86-13.31-4.67-.81-8-4.94-8.58-10.45-1.26-10.35-5.94-.9-58.65,0-72,3.68-21.9,9.43-26,13.56-1.57,18.86,2.33,14.59,9.61,20.82,13.61c10.18,6.5,17.68,7.41,20.72,9.83s0,8.19,0,8.19Z"/><path class="cls-26" d="M1137.74,743.82s-1.14,16.45-1.88,23.87-3.65,43.5-5.28,50.65-2,10.4-2,10.4-2.92-8-1.55-21.58c.7-7,1.42-21.54,3.58-36.49A129.87,129.87,0,0,1,1137.74,743.82Z"/><path class="cls-26" d="M1105.58,724.76s-.78,21.3-3.52,36.53-3.21,44-3.21,44-3.23-15.66-2.65-26.16,2.8-25.23,4.59-35.29A154.77,154.77,0,0,1,1105.58,724.76Z"/></svg>