<svg id="Layer_1" data-name="Layer 1" xmlns="http://www.w3.org/2000/svg" viewBox="0 0 1920 1080"><defs><style>.cls-1{fill:#dce2f9;}.cls-2{fill:#879efd;}.cls-3{fill:#7c93f8;}.cls-4{fill:#4c70e0;}.cls-37,.cls-4{isolation:isolate;opacity:0.5;}.cls-5{fill:#d8c4c3;}.cls-6{fill:#c4aead;}.cls-7{fill:#778dfd;}.cls-8{fill:#94a9ff;}.cls-9{fill:#ccb5b4;}.cls-10{fill:#eddddd;}.cls-11{fill:#2c1d1b;}.cls-12{fill:#ffce00;}.cls-13,.cls-37{fill:#ffb600;}.cls-14{fill:#3f2a28;}.cls-15{fill:#ff61ad;}.cls-16{fill:#ff85c5;}.cls-17{fill:#ffb9a4;}.cls-18{fill:#ffc9b6;}.cls-19{fill:#bbcdff;}.cls-20{fill:#a6c2ff;}.cls-21{fill:#fff;}.cls-22{fill:#eddcda;}.cls-23{fill:#f4ebea;}.cls-24{fill:#d3bcba;}.cls-25{fill:#fde01a;}.cls-26{fill:#c9b2b1;}.cls-27{fill:#a9beff;}.cls-28{fill:#92b1ff;}.cls-29{fill:#f445a1;}.cls-30{fill:#ff76be;}.cls-31{fill:#ceb7b6;}.cls-32{fill:#dec9c5;}.cls-33{fill:#ddc9c7;}.cls-34{fill:#493130;}.cls-35{fill:#fed517;}.cls-36{fill:#8da3ff;}</style></defs><rect class="cls-1" width="1920" height="1080"/><path class="cls-2" d="M1920,632.32V1080H0V144.12H37.18l3.84.12,1.4,0,3.87.17,1.4.07,3.9.22L53,145l3.94.28,1.36.11,4,.34,1.32.12c1.34.12,2.69.26,4,.4l1.29.13c1.36.14,2.74.3,4.11.46l1.22.14,4.2.52,1.16.15,4.29.59,1.09.15,4.38.66,1,.15,4.51.73.9.15,4.65.81.77.14,4.82.89.62.12c1.68.32,3.37.66,5,1l.41.08,5.32,1.11h.15a637.59,637.59,0,0,1,73.27,20.68l.2.07,5.51,1.92.48.17,5.24,1.87.7.26q2.52.9,5,1.84l.88.32,4.88,1.82,1,.39,4.76,1.81,1.14.45,4.65,1.8,1.24.5q2.28.88,4.55,1.8l1.37.55,4.45,1.8,1.45.59,4.4,1.82,1.49.62c1.45.6,2.91,1.21,4.36,1.83l1.56.65,4.31,1.84,1.61.7,4.28,1.85,1.65.72,4.26,1.87,1.69.75,4.23,1.89,1.73.78,4.2,1.9,1.78.81,4.18,1.92,1.79.83,4.17,1.93,1.84.86,4.16,2,1.84.87,4.18,2,1.85.89,4.16,2,1.88.91,4.17,2L316,228l4.16,2.05,1.92.95,4.17,2.08,1.91.95,4.19,2.11,1.91,1c1.4.7,2.79,1.41,4.19,2.13.65.32,1.29.65,1.93,1l4.2,2.15,1.93,1,4.24,2.2,1.89,1,4.3,2.24,1.86,1,4.32,2.28,1.86,1,4.33,2.29,1.87,1,4.35,2.32,1.86,1,4.39,2.37,1.84,1L388,265.5l1.84,1,4.48,2.45,1.77,1,4.55,2.5,1.73.95,4.56,2.52,1.74,1,4.61,2.57,1.69.93,5.39,3c.31.16.61.33.91.5q6.31,3.54,12.66,7.13l2.87,1.62,3.48,2,3.7,2.11,2.6,1.47,4.08,2.34L453,301.9l4.29,2.47,2,1.16,4.49,2.59,1.89,1.09,4.55,2.63L472,312.9l4.71,2.74,1.68,1,5,2.93,1.3.76,5.29,3.09,1.11.65,5.58,3.26.78.46,5.86,3.44.53.31,6.16,3.62.21.13c104.06,60.92,214,128.71,329.54,190h0l7.22,3.81.28.15,7,3.68.44.23,6.9,3.6.51.27,6.8,3.52.68.35q3.33,1.73,6.68,3.43l.75.39,6.63,3.38.8.41c2.2,1.11,4.39,2.23,6.59,3.33l.86.44,6.52,3.27,1,.48,6.46,3.22,1,.5,6.39,3.16,1.11.55,6.38,3.12,1.08.53,6.38,3.09,1.13.55,6.37,3.06,1.13.54,6.42,3.06,1.08.51,6.44,3,1.1.52,6.46,3,1.09.51,6.49,3,1.06.48,6.61,3,.93.42,6.7,3,.89.4,6.8,3.05.79.35,7,3.08.63.27,7.16,3.13.46.2,7.38,3.19.25.11c35.82,15.37,72.12,29.62,108.92,42.42l.59.2,7.23,2.5,1,.34,6.83,2.3,1.35.45q3.24,1.1,6.49,2.16l1.63.53,6.23,2,1.83.58,6,1.93,2,.63c2,.61,3.91,1.23,5.88,1.83l2.18.67,5.72,1.75,2.31.69,5.61,1.68,2.42.71,5.51,1.61,2.53.72,5.42,1.54,2.61.74,5.35,1.48,2.7.74,5.27,1.43,2.78.73c1.73.47,3.47.92,5.21,1.38l2.84.74,5.16,1.32,2.9.73,5.12,1.27,3,.73,5.07,1.23,3,.71,5.06,1.19,3,.69,5,1.15,3,.68,5,1.1,3.08.67,5,1.06,3.13.65,5,1,3.15.63,5,1,3.18.61,5,.94,3.19.59,5,.9,3.21.57,5,.86,3.23.55,5,.82,3.25.53,5,.77,3.25.51,5,.74,3.27.48,5,.69,3.28.46,5,.66,3.28.43,5,.62,3.25.4,5.07.59,3.21.36,5.11.56,3.18.33,5.17.52,3.14.3c1.76.17,3.53.33,5.29.48l3,.27,5.5.46,2.83.23,5.72.42,2.63.19c2.12.15,4.25.28,6.38.41l2,.13c2.75.17,5.51.32,8.26.46h.12c2.81.14,5.62.28,8.44.4h1.08c2.43.1,4.86.2,7.3.28l2.84.09,5.55.16,3.39.07,5,.11H1478c1.58,0,3.15.05,4.73.06h16.71l4.17-.06,4.3-.07c1.41,0,2.82-.06,4.23-.1l4.24-.1,4.29-.14,4.21-.15,4.32-.18,4.18-.18,4.37-.22,4.15-.22,4.42-.27,4.1-.25,4.48-.32,4.06-.29,4.51-.35,4-.33,4.54-.4,4-.37,4.57-.45,4-.4,4.6-.5,4-.44,4.63-.54,4-.48,4.66-.59,4-.51,4.7-.64,3.93-.55,4.74-.69,3.9-.59,4.77-.74,3.89-.62,4.81-.8,3.85-.66c1.62-.27,3.24-.56,4.85-.85l3.82-.68,4.9-.91,3.79-.72,4.94-1,3.75-.75,5-1,3.73-.79,5-1.08,3.69-.82,5.08-1.14,3.64-.85,5.14-1.21,3.6-.87c1.73-.42,3.46-.84,5.19-1.28l3.55-.89c1.75-.45,3.51-.89,5.26-1.35l3.48-.92c1.78-.46,3.56-.94,5.34-1.42,1.14-.3,2.27-.62,3.41-.93l5.43-1.5,3.31-.94,5.54-1.59,3.22-1,5.64-1.68,3.11-1c1.92-.59,3.84-1.17,5.76-1.78l3-.93,6-1.89,2.72-.89,6.17-2c.83-.27,1.66-.56,2.48-.84,2.15-.72,4.29-1.44,6.44-2.18l2.11-.74c2.27-.79,4.55-1.58,6.82-2.39l1.57-.57c2.46-.88,4.91-1.76,7.37-2.66l.75-.28q17.35-6.37,34.81-13.53A199.09,199.09,0,0,1,1920,632.32Z"/><path class="cls-3" d="M1920,677.58V1080H0V677.58A200.78,200.78,0,0,1,86.77,697.3C373.5,834.66,681.14,880.16,961,881.24q19.51-.09,39.19-.47h.24q8-.15,16.05-.36h.72q24.35-.64,48.94-1.75h.71q8-.36,16-.78h1q24.5-1.29,49.16-3.09l1.1-.08q7.94-.59,15.89-1.22l1.17-.1q16.5-1.33,33.06-2.9h.13c5.37-.51,10.73-1,16.1-1.59l1.5-.16q7.88-.81,15.78-1.67l1.35-.15q16.35-1.81,32.75-3.86l.77-.1c5.3-.66,10.59-1.35,15.9-2.05l1.76-.24q7.85-1,15.71-2.16l1.48-.21q16.26-2.29,32.54-4.86l1.24-.2q7.85-1.23,15.7-2.54l2-.34q7.82-1.29,15.63-2.66l1.53-.27q16.17-2.83,32.35-5.93l1.66-.32q7.76-1.48,15.51-3l2.24-.45q7.77-1.58,15.54-3.2l1.55-.32q16.08-3.39,32.17-7l2-.46q7.67-1.75,15.33-3.58l2.39-.56q7.73-1.85,15.46-3.76l1.51-.37,15.77-4,.56-.14q7.86-2,15.71-4.12l2.26-.6q7.59-2,15.18-4.14l2.46-.68q7.71-2.14,15.42-4.36l1.37-.39q7.71-2.24,15.42-4.52l1-.53q7.73-2.29,15.43-4.68l2.48-.76q7.52-2.32,15-4.72l2.5-.8q7.68-2.46,15.36-5l1.18-.4q7.59-2.5,15.16-5.09l1.54-.53q7.59-2.6,15.16-5.27l2.63-.92q7.43-2.64,14.86-5.34l2.5-.91q7.65-2.8,15.3-5.68l.91-.34q7.52-2.84,15-5.75l1.87-.73q7.45-2.9,14.9-5.88l2.73-1.09,14.72-6,2.42-1q7.65-3.17,15.28-6.41l.5-.21q7.54-3.21,15.06-6.51l2.13-.93q7.34-3.22,14.67-6.54l2.76-1.24q7.29-3.32,14.58-6.69l2.3-1.07q7.63-3.57,15.26-7.21A200.66,200.66,0,0,1,1920,677.58Z"/><path class="cls-4" d="M809.73,972.25s-35.61,9.68-7.61,37.64,109.67,11.66,105-16.34-7-30.29,16.29-44.34,0-51.06,0-51.06l-77,81.39Z"/><polygon class="cls-5" points="584.4 912.47 883.03 740.07 883.03 60.48 584.4 232.88 584.4 912.47"/><polygon class="cls-6" points="871.21 77.88 871.21 730.18 591.93 891.43 591.93 896.6 875.5 732.88 875.5 75.41 871.21 77.88"/><polygon class="cls-7" points="843.19 94.05 591.93 529.27 591.93 558.5 868.5 79.44 843.19 94.05"/><polygon class="cls-7" points="763.5 140.07 591.93 437.25 591.93 505.05 822.21 106.17 763.5 140.07"/><polygon class="cls-7" points="591.93 611.52 591.93 891.43 871.21 730.18 871.21 127.78 591.93 611.52"/><polygon class="cls-7" points="591.93 239.13 591.93 331.19 671.65 193.1 591.93 239.13"/><polygon class="cls-8" points="671.65 193.1 591.93 331.19 591.93 437.25 763.5 140.07 671.65 193.1"/><polygon class="cls-8" points="871.21 77.88 868.5 79.44 591.93 558.5 591.93 611.52 871.21 127.78 871.21 77.88"/><polygon class="cls-8" points="822.21 106.17 591.93 505.05 591.93 529.27 843.19 94.05 822.21 106.17"/><polygon class="cls-9" points="584.4 232.88 577.09 228.02 577.09 907.61 584.4 912.47 584.4 232.88"/><polygon class="cls-10" points="883.03 60.48 875.72 55.6 577.09 228.02 584.4 232.88 883.03 60.48"/><polygon class="cls-5" points="730.22 158.75 737.2 154.72 737.2 807.55 730.22 811.47 730.22 158.75"/><polygon class="cls-5" points="871.51 293.89 591.63 455.48 591.63 463.04 871.51 301.45 871.51 293.89"/><polygon class="cls-5" points="871.51 535.85 591.63 697.44 591.63 705.01 871.51 543.42 871.51 535.85"/><path class="cls-11" d="M918.2,910.93s7.52,30-5.15,36.06c-11.36,5.44-24.1-2.82-42.61-12.17-12-6.07-20.58-13.34-22.88-24.17s9-17.69,20.17-12S918.2,910.93,918.2,910.93Z"/><path class="cls-11" d="M842.29,970.72s-25.18-3.77-35.28,3-6.29,25.36,13.72,32.16c12.9,4.39,26,5.82,35.59,1.08,9.84,7,36.86-.57,36.86-7.61,0-14.44-3.64-21.51-7.24-44.73C882,929.32,842.29,970.72,842.29,970.72Z"/><path class="cls-12" d="M777.93,261.15c-1.28-3.23-1.37-12.17-1.17-16.74s-3.45-13.29-6.45-18.16-3.65-9.73-1.42-11.09,5.08,6.45,6.7,6.45,4.46-1.22,4.55-5.48S776.4,203.76,774,200.3s-5.88-6.45-6.29-8.31,3.45-2.84,3.45-2.84H772c-2.8-1.28-5.66-1.07-8.6,1.72s-2.48,12-2.86,15.91c-1.08,12-5.38,14.92-5.27,26.78.15,17.28,6.45,30.11,14.81,35.09a12.12,12.12,0,0,0,7.13,1.84c.72-.78,1.43-1.56,2-2.24C781.09,266,779.19,264.38,777.93,261.15Z"/><path class="cls-12" d="M773.64,189.22a54.78,54.78,0,0,1,15.89,3.88C785.52,189.71,780.27,188,773.64,189.22Z"/><path class="cls-13" d="M773.64,189.22c-.71-.07-1.27-.1-1.68-.11.2.1.42.13.62.24C773,189.27,773.28,189.28,773.64,189.22Z"/><path class="cls-13" d="M786.3,264.75c4.15-6.3,4.46-13.46,8.54-20,2.83-4.5,4.43-7.68,5.22-13.18,1.79-12.33-.87-30.34-10.53-38.49a54.78,54.78,0,0,0-15.89-3.88c-.36.06-.68.05-1.08.13-.2-.11-.42-.14-.62-.24h-.87s-3.86,1-3.46,2.84,3.85,4.87,6.29,8.31,6.26,11.57,6.18,15.83-2.93,5.48-4.55,5.48-4.46-7.78-6.7-6.45-1.62,6.23,1.42,11.09,6.7,13.6,6.45,18.16-.12,13.49,1.16,16.74,3.16,4.85,1.27,7.09c-.57.69-1.28,1.47-2,2.25A12,12,0,0,0,786.3,264.75Z"/><path class="cls-5" d="M806.28,244s-1-26.95-2.46-36.94-12.91-20.1-21.51-21.71c-3-.58-4.57-.5-5.51,1.47-4.38.26-8.07-1.07-8,2.15,0,1.85,1.7.93,7.44,8.66,3.39,4.58,8.51,12.9,9,16.9s-2.26,6.85-6.75,6.85c-2.15,0-4-4.17-5.67-5.89s-3.32-2.67-4-.41c-.89,2.77.89,7,4.6,11.22a75.65,75.65,0,0,1,7.9,11.53c1.5,2.67,8.49,13.15,8.49,13.15Z"/><path class="cls-5" d="M690.33,518.94a82,82,0,0,0,11.93,12c5.38-6.06,7.84-10.43,16.22-13-3.23-6.05-8.14-11.35-9.68-18.42-1.57-7.39,0-24.31-.55-31a251,251,0,0,0-3.72-25.89c-.8-4-3.56-3.71-4.36-.49-1.94-2.48-3.55-1.34-5.17,2.1-1.62-1.29-3.55,1-3.39,4.59-2.27,0-3.23,6.21-3.23,10.6,0,6.74-1.68,14.2-2.25,25.18C685.29,501.36,685.15,512.57,690.33,518.94Z"/><path class="cls-5" d="M702.13,494.69s1.79-10.53,3.23-13.08c1.28-2.25,4.08-8.76,5.38-9.86,3-2.59,4.06-.17,3.22,5-.88,5.5-.88,6.45-1.77,10.11a92.81,92.81,0,0,0-2.75,14.88C708.49,509.79,702.13,494.69,702.13,494.69Z"/><path class="cls-11" d="M914.22,634.24c-11.68-26.38-46.15-39.4-58-25.17-16.48,19.8-8.82,98.24-6.72,112.19,2,13.24,7.75,33.46,10.54,46.51,3.47,16.35,16.61,127.49,18.48,147.83,6.51,8.95,37,9.18,44.53-7.05,1.47-29.84-.12-64.75-.51-93.6-.42-31.55-3.22-28.47-12.11-56.91C910.3,748.71,934.79,680.78,914.22,634.24Z"/><path class="cls-14" d="M892.6,966c2.26-16-2.76-73.65-3.42-93.81-1.08-32.06-21-69.73-33.33-84.63,16-18.73,26.82-70.52,23.83-88.37,16.54-28.11,10.14-62.85-9.42-86.48-1.23-1.48-75.87-15.22-75.88-13.59-.09,15.73,3.22,92,4.73,110.32,1.07,13.41,1,80,8.31,104.22,6.6,22,26.28,99,34.83,157.11C848.45,977.44,880.78,983.33,892.6,966Z"/><path class="cls-9" d="M787.45,285.6c1,7.93,18.21,3.95,26.17,0s17-7.7,13.4-15.13-16-3.48-26.43,0S786.34,276.9,787.45,285.6Z"/><path class="cls-15" d="M898,400c3.34-13.26-20.11-54.9-40.85-58.68-6-13.76-24.39-40-29-54.22-8.32-25.31-14.49-39.38-19.77-56.87-8-4.62-20.74,8.08-22.89,14.15a346.51,346.51,0,0,0,15.45,73.39c5.25,15.73,12.91,29.27,28.73,35.53A123.48,123.48,0,0,0,840.42,381c3.45,6.6,7.28,14.61,12.37,21.06,1.73,12.85,9.55,23.59,17.71,34.41a1.39,1.39,0,0,0,.63,1.86,1.76,1.76,0,0,0,.3.1h.44c11.18,15.43,7.85,36.72,21.56,50.09,1.26,1.22,7.17,5.22,13-2.43C919.34,469.16,925.81,427.11,898,400Z"/><path class="cls-16" d="M904.41,529.78c0-19.81-1.15-31.53.06-39.06,2.92-18.28,9-71.05-38.26-77.13-4.74-.6-17.65,11.18-24.07,14.37a285.32,285.32,0,0,1-43,17.08,79.85,79.85,0,0,0-17.73,9.15c-12.77,8.6-5.83,36.41-3.13,50.15,2.4,12.14,3.13,71.47,9.85,84.1,7.72,14.49,1.65,33.12,1.73,40.31.1,9.41,107.37-10.64,111.82-20.49s.94-24.06,1.08-34.92C902.87,560.41,904.41,539.22,904.41,529.78Z"/><path class="cls-17" d="M807.45,443.8c17,6.55,41.55,0,52.1-19.74-6.36-7.89-13.45-20.08-14.31-33.8-.07-1.3-41.23,11.6-41.12,12.16C807.43,419.89,809.56,430.28,807.45,443.8Z"/><path class="cls-18" d="M806.45,329.32c-21,9.67-36.27,56.54-14.33,74.54,21.6,17.7,57.87-.91,65.7-23.51C868.57,349.42,838.65,314.54,806.45,329.32Z"/><path class="cls-19" d="M791.45,448.88s15.23,14,25.89,42.53c12.47,33.27,12.9,49.79,15.52,74.25s4.66,54.77,4.66,54.77l11.3-3.23s-4.06-75.76-10.9-105.47c-10.55-45.86-38.78-66.67-38.78-66.67Z"/><path class="cls-19" d="M855.88,418.21s21,20.49,27.15,41.15,6.89,134.3,6.89,134.3l9.8-12.58s-1-74.19,0-93.92c2.57-51.89-29.17-68.39-38.13-72.14Z"/><path class="cls-19" d="M794.38,801.68c11.45,9.68,26.32,12.53,45.78,6.92,6.59-1.89,15.48-14.23,22.07-18.59,11.23-7.43,19.65-5.65,31.25-7.71,24.73-4.4,29.54-9.32,35.39-22.72-1.8-47.45-1.07-120.54-7.39-137.72C911.18,594,904.43,583,904.43,583s-10.43,11.89-38.95,21-78.23-6.59-78.23-6.59c-3.58,10.93-7.27,31.75-7.2,71.51C780.13,690.32,793.45,794.86,794.38,801.68Z"/><path class="cls-20" d="M785.87,602.54s9,4.08,31.47,8.81c19.36,4.08,47.5-.43,62.36-8.27A79.2,79.2,0,0,0,904.43,583l-1.76-19s-16.4,34-64.78,34.52c-11.23.12-37.12-3.59-49.79-10.08A39.79,39.79,0,0,1,785.87,602.54Z"/><path class="cls-15" d="M854.74,416.17c-4.77,12.65-15,15.22-29.23,18.72-7.33,1.81-18.89,1.75-26.37,10.15,9.56,5.95,35.2,14,50.83,3.37,6.08-4.13,16.65-13.13,16.22-21.1A11.64,11.64,0,0,0,854.74,416.17Z"/><path class="cls-11" d="M871.53,354.53c4.39-6.79-3.22-17.44-12-20.12C857.3,323.07,847.1,317,836.22,320.2c-1.58-1.55-4.45-4.87-21-1.6-5.21,1.07-11.72,0-18.15-3.23-6.67,13.39-7,20.88-3.42,38.14,1.42,6.87-2.25,9.33,7.71,21.14,5.7,6.75,10.22,1.77,10.22,4.42,0,10.95,5.25,17.12,12.1,23.94,9.43,9.38,22.58,15.82,26.24,15.82,0-13.8,11.83-20.76,18.94-32.86C877.17,371.9,878.52,357,871.53,354.53Z"/><path class="cls-18" d="M807.49,378.22s5.69-8.12,10.55,0-1.45,15.81-6.45,16.22S807.49,378.22,807.49,378.22Z"/><path class="cls-20" d="M865.51,602.73a331.74,331.74,0,0,1,11.37,41.19c4,20.69,5.85,58.06,6.37,80.33s3,31.24,3,31.24l10.1-6.49s-.81-27.18,0-53.14-7.53-68.63-13.1-83-8-16.4-8-16.4Z"/><path class="cls-20" d="M878.53,598.35a195,195,0,0,1,14.07,26.28c7.3,16.23,8.91,32,14,56.08,4.22,20.17,4.3,61.67,4.3,61.67h10.34s1.07-38.16-2-62.48c-3.92-30.75-8-42.11-19.26-68.16C893.46,596.82,889,591,889,591Z"/><path class="cls-9" d="M708.18,564c4.51,7.61,20.43-2.79,29-11.56s10.5-11.9,6.11-16.59-18.42-.13-25.73,7.21S704.87,558.43,708.18,564Z"/><path class="cls-15" d="M804,480.57c-1.4-6-13.14-31-21.24-29-18.38,4.49-25.93,33.42-22,55.2-6.91,9-10.24,30.39-11.54,41.77-8.6-13.13-36.87-41.94-37.17-42.2-8.74-1.95-17.2,4.22-20.11,16.12,1.59,8,14,25.74,19.14,36.38,10.53,21.88,19.69,31.18,44.49,34.5,10.15-2.22,24.5-10.21,33.68-22.33,9.46-12.47,15-25.53,13-40C807.67,513.33,808.75,501.16,804,480.57Z"/><path class="cls-20" d="M833.73,672.88s1.07,35.48,6.45,55.91,19.86,39,19.86,39-8.54-33.79-14.15-56.2A331.45,331.45,0,0,0,833.73,672.88Z"/><path class="cls-13" d="M763.78,227.64a50.76,50.76,0,0,0,1.42,21.09c3.22,10.55,8.73,12.38,8.73,12.38a45.81,45.81,0,0,1-7.11-15.42C765,237.37,763.78,227.64,763.78,227.64Z"/><path class="cls-5" d="M692,497.11l-4.2,17.11s-.9,11.43,4.2,21.63S708.18,564,708.18,564s5.2-8.71,16.62-17.41,18.48-10.75,18.48-10.75-15.15-16.13-24.8-26.24-10.3-16.91-10.3-16.91Z"/><path class="cls-5" d="M780.1,232.88a76.24,76.24,0,0,0,1.48,19.36c2.15,11.19,5.87,33.41,5.87,33.41a77.6,77.6,0,0,1,18.83-12c13.51-6,20.74-3.16,20.74-3.16s-20.26-40.86-22.9-49.58S780.1,232.88,780.1,232.88Z"/><path class="cls-4" d="M1299.77,712.57l-143.14,96.29c-10.08,6.2-29,6-42-.43L1040.41,762c-13-6.45-15.45-16.78-5.37-23l147.7-91.74c10.08-6.19,29-6,42,.45l69.6,41.93C1307.43,696,1309.85,706.37,1299.77,712.57Z"/><path d="M1125.43,786.68c0-9.57,5.82-20.69,13-24.83a11.81,11.81,0,0,1,5.68-1.58,15.66,15.66,0,0,1,8.32,2.33c4.09,2.53,4.64,8.27,4.64,8.27l-14.6,30a11,11,0,0,1-9.52-.33,15,15,0,0,1-5.65-5.87,20.43,20.43,0,0,1-1.07-2.5A17.34,17.34,0,0,1,1125.43,786.68Z"/><path class="cls-14" d="M1157.34,775.1c0,9.56-5.81,20.68-13,24.82s-13-.26-13-9.83,5.82-20.67,13-24.82S1157.34,765.49,1157.34,775.1Z"/><path class="cls-21" d="M1152.53,778.84c0,5.24-3.23,11.33-7.12,13.6s-7.11-.14-7.11-5.38,3.23-11.33,7.11-13.6S1152.53,773.6,1152.53,778.84Z"/><path class="cls-5" d="M1151.28,761.39h-8.47v24.73a3.84,3.84,0,0,0,1.32,3.29h0l2.92,1.52,2.6-3.06-.74-.29a10.76,10.76,0,0,0,2.38-6.38Z"/><path class="cls-22" d="M1145.41,761.39v26c0,3.12,1.9,4.55,4.23,3.22s4.24-5,4.24-8.08V761.39Z"/><path d="M1258.3,709.7c0-9.57,5.82-20.67,13-24.82a11.92,11.92,0,0,1,5.67-1.59,16,16,0,0,1,8.33,2.34c4.09,2.52,4.64,8.27,4.64,8.27l-14.59,30a11.08,11.08,0,0,1-9.54-.34,15,15,0,0,1-5.65-5.87,20.15,20.15,0,0,1-1.07-2.48A17.71,17.71,0,0,1,1258.3,709.7Z"/><path class="cls-14" d="M1290.38,698.09c0,9.57-5.82,20.69-13,24.83s-13-.25-13-9.82,5.82-20.69,13-24.83S1290.38,688.53,1290.38,698.09Z"/><path class="cls-21" d="M1285.41,701.87c0,5.24-3.23,11.34-7.12,13.61s-7.12-.14-7.12-5.38,3.23-11.32,7.12-13.6S1285.41,696.61,1285.41,701.87Z"/><path class="cls-5" d="M1284.15,684.42h-8.46v24.73a3.83,3.83,0,0,0,1.31,3.3h0l2.93,1.52,2.59-3.06-.75-.29a10.8,10.8,0,0,0,2.37-6.39Z"/><path class="cls-22" d="M1278.29,684.42v26c0,3.12,1.89,4.55,4.24,3.23s4.22-5,4.22-8.09V684.42Z"/><path d="M1040.6,737.64c0-9.57,5.81-20.68,13-24.83a12,12,0,0,1,5.67-1.58,16,16,0,0,1,8.33,2.33c4.08,2.53,4.64,8.27,4.64,8.27l-14.6,30a11.11,11.11,0,0,1-9.52-.38,14.88,14.88,0,0,1-5.64-5.87,22.83,22.83,0,0,1-1.08-2.49A17.64,17.64,0,0,1,1040.6,737.64Z"/><path class="cls-14" d="M1072.69,726c0,9.56-5.82,20.68-13,24.83s-13-.26-13-9.83,5.82-20.68,13-24.82S1072.69,716.46,1072.69,726Z"/><path class="cls-21" d="M1067.72,729.81c0,5.23-3.22,11.33-7.11,13.6s-7.12-.14-7.12-5.38,3.22-11.32,7.12-13.59S1067.72,724.56,1067.72,729.81Z"/><path class="cls-5" d="M1066.48,712.36H1058v24.73a3.88,3.88,0,0,0,1.33,3.3h0l2.92,1.52,2.6-3.06-.74-.29a10.88,10.88,0,0,0,2.38-6.39Z"/><path class="cls-22" d="M1060.61,712.36v26c0,3.12,1.89,4.56,4.23,3.22s4.24-5,4.24-8.08V712.36Z"/><path class="cls-5" d="M1178.22,513.88l-6,3.72V636.09h0c.11,2,1.36,2.88,2.92,2a7.11,7.11,0,0,0,3-5.68.57.57,0,0,0-.07-.33h.07Z"/><path class="cls-22" d="M1270.42,662.72l-46-26.33c-9.83-5.67-24.84-6.3-33.34-1.38l-138.7,80.06.07-.47h-21.08v18.56h.07c.42,3.51,3.14,7.1,8.06,10l61.11,34.94c9.82,5.68,24.82,6.3,33.33,1.39l153.91-88.84c4.09-2.36,5.91-5.6,5.67-8.94h0V664.12Z"/><path class="cls-23" d="M1287.89,672.7,1134,761.58c-8.52,4.91-23.52,4.3-33.33-1.39l-61.14-34.94c-9.83-5.68-10.9-14.33-2.39-19.26l154-88.86c8.51-4.92,23.52-4.3,33.34,1.38l61.09,35C1295.34,659.13,1296.42,667.79,1287.89,672.7Z"/><path class="cls-14" d="M1147.84,612.74a18.28,18.28,0,0,0,4.07,2.85,123,123,0,0,1,15.53-45.16l9.58-16.59a5.29,5.29,0,0,0-4.6-1.71L1163.26,568a128.08,128.08,0,0,0-15.78,44.31A4.82,4.82,0,0,1,1147.84,612.74Z"/><path class="cls-24" d="M1151.5,662.49c0,4.81,2.15,9.34,6,13.36l-1.61-25A18.55,18.55,0,0,0,1151.5,662.49Z"/><path class="cls-24" d="M1258.86,650.91l-1.6,24.92c3.81-4,6-8.53,6-13.34A18.45,18.45,0,0,0,1258.86,650.91Z"/><path class="cls-13" d="M1151.5,582.63l4.4,68.25,1.61,25c9.21,9.68,28,16.35,49.85,16.35s40.65-6.67,49.85-16.37l1.65-24.9,4.3-68.28Z"/><path class="cls-25" d="M1207.36,552.94c-30.86,0-55.91,13.3-55.91,29.72s25,29.7,55.91,29.7,55.8-13.3,55.8-29.73S1238.21,552.94,1207.36,552.94Z"/><path class="cls-13" d="M1207.36,576.34c22,0,40.86,6.88,48.81,16.64a16.35,16.35,0,0,0,4-10.32c0-14.9-23.66-27-52.85-27s-52.86,12.06-52.86,26.93a16.37,16.37,0,0,0,4,10.33C1166.48,583.22,1185.34,576.34,1207.36,576.34Z"/><path class="cls-19" d="M1207.36,609.61c22,0,40.86-6.87,48.81-16.63-7.94-9.76-26.8-16.64-48.81-16.64s-40.86,6.88-48.82,16.64C1166.48,602.74,1185.34,609.61,1207.36,609.61Z"/><path class="cls-21" d="M1231.71,568a2,2,0,1,1-2-2h0A2,2,0,0,1,1231.71,568Z"/><path class="cls-21" d="M1224.7,597.88a2,2,0,1,1-2-2h0A2,2,0,0,1,1224.7,597.88Z"/><path class="cls-21" d="M1198.43,579.14c-.65-1.2-2.46-3.45-4.13-3.72a6.68,6.68,0,0,0-3.58-7.31c-3.38-1.66-9.26.37-9.9,4a4,4,0,0,0-4.46-.58,4.13,4.13,0,0,0-2.23,5.12c-3-.75-6.46.38-7.77,3.22-.86,1.93-.07,5.18,1.76,6.33a4.64,4.64,0,0,0,1.64,6.32l.1.05a6.23,6.23,0,0,0,6.45-.14,6.86,6.86,0,0,0,9.7,0h0a6.38,6.38,0,0,0,1.17-1.56c3.5.94,7.53-.85,10-3.23C1200.1,585.11,1200.2,582.4,1198.43,579.14Z"/><path class="cls-21" d="M1252.23,580.7a7.61,7.61,0,0,0-3.71-.56,5.8,5.8,0,0,0-3.85-5.67,5.15,5.15,0,0,0-4.55.41,4.83,4.83,0,0,0-4.3-2.8c-1.64,0-2.53,1.39-2.75,2.94a10.27,10.27,0,0,0-7-2.15,6.26,6.26,0,0,0-4.91,3.71c-2-1.74-6-1.56-7.53.68-2.21,3.22,1.71,5.06,4.69,6.14a4.34,4.34,0,0,0-1.25,2c-.65,2.37,1.08,4.3,3.23,5.09a8.69,8.69,0,0,0,7.25-.61c.27,2.7,2,4.45,5.63,4.3a7.92,7.92,0,0,0,4.13-1.5,7.45,7.45,0,0,0,7.29,5.16c1.78,0,4.42-.71,5.58-2.15a7.64,7.64,0,0,0,1.27-3.51,6.54,6.54,0,0,0,2-.75,5.8,5.8,0,0,0,2.63-5.59A6.74,6.74,0,0,0,1252.23,580.7Z"/><circle class="cls-21" cx="1201.22" cy="567.98" r="2.92"/><path class="cls-21" d="M1166.89,574.33a2.93,2.93,0,1,1-2.94-2.92h0a2.92,2.92,0,0,1,2.92,2.92Z"/><path class="cls-21" d="M1215.34,594.79a5.19,5.19,0,1,1-5.2-5.18h0a5.19,5.19,0,0,1,5.17,5.17Z"/><path class="cls-21" d="M1202.65,599.3a3.52,3.52,0,1,1-3.53-3.51h0a3.51,3.51,0,0,1,3.53,3.49Z"/><circle class="cls-21" cx="1216.04" cy="566.89" r="3.01"/><path class="cls-21" d="M1170.9,568.89a2,2,0,1,1-2-2h0A2,2,0,0,1,1170.9,568.89Z"/><path class="cls-21" d="M1214.18,561.88a2,2,0,1,1-2-2h0A2,2,0,0,1,1214.18,561.88Z"/><circle class="cls-21" cx="1182.81" cy="599.98" r="2"/><path class="cls-14" d="M1243.81,592.44a5.19,5.19,0,1,1-5.21-5.17h0A5.18,5.18,0,0,1,1243.81,592.44Z"/><path class="cls-25" d="M1250.49,584.63l-1.82-1.3-.38-.27-.2-.15h0a4.31,4.31,0,0,0-4.3.36c-3.67,2.15-6.68,7.86-6.68,12.76v9.68l2.28,1.32c1.52-1.33,11.08-5.11,11.08-10v-8.72a8.91,8.91,0,0,0-.36-2.51Zm-6.58,13.51a3.65,3.65,0,0,1-1.58.49,5.55,5.55,0,0,1-.29-1.76c0-3.3,2-7.14,4.49-8.6a3.65,3.65,0,0,1,1.57-.49,5.55,5.55,0,0,1,.29,1.76C1248.39,592.87,1246.38,596.71,1243.91,598.14Z"/><path class="cls-13" d="M1246.1,585c-3.68,2.15-6.69,7.86-6.69,12.76v9.35l13.37-5.56V590C1252.78,585.1,1249.77,582.83,1246.1,585Zm-2.1,13.14a3.65,3.65,0,0,1-1.58.49,5.55,5.55,0,0,1-.29-1.76c0-3.3,2-7.14,4.49-8.6a3.65,3.65,0,0,1,1.57-.49,5.55,5.55,0,0,1,.29,1.76c0,3.33-2,7.17-4.52,8.6Z"/><path class="cls-25" d="M1248.11,587.82a5.44,5.44,0,0,1,.29,1.75c0,3.3-2,7.14-4.48,8.6a3.54,3.54,0,0,1-1.58.5,2.63,2.63,0,0,0,3,2.15,2.57,2.57,0,0,0,1.18-.52c2.47-1.43,4.48-5.27,4.48-8.6C1251,589.09,1249.8,587.69,1248.11,587.82Z"/><path class="cls-13" d="M1178.22,542.79l-1.83-1.3a2.42,2.42,0,0,0-.36-.27l-.22-.15h0a4.31,4.31,0,0,0-4.3.35c-3.67,2.15-6.67,7.87-6.67,12.76v9.68l2.28,1.32c1.5-1.33,11.07-5.09,11.07-10v-8.7a9.35,9.35,0,0,0-.35-2.52Zm-6.58,13.5a3.65,3.65,0,0,1-1.58.49,5.85,5.85,0,0,1-.29-1.76c0-3.31,2-7.15,4.49-8.6a3.51,3.51,0,0,1,1.58-.48,6.17,6.17,0,0,1,.29,1.75c-.06,3.33-2.05,7.17-4.52,8.6Z"/><path class="cls-13" d="M1173.79,543.09c-3.66,2.15-6.67,7.87-6.67,12.76v9.36l13.35-5.77v-11.3C1180.47,543.25,1177.47,541,1173.79,543.09Zm-2.15,13.2a3.65,3.65,0,0,1-1.58.49,5.85,5.85,0,0,1-.29-1.76c0-3.31,2-7.15,4.49-8.6a3.51,3.51,0,0,1,1.58-.48,6.17,6.17,0,0,1,.29,1.75c-.06,3.33-2.05,7.17-4.52,8.6Z"/><path class="cls-25" d="M1175.8,546a5.44,5.44,0,0,1,.29,1.75c0,3.31-2,7.15-4.48,8.6a3.52,3.52,0,0,1-1.58.49c.6,2,2.23,2.77,4.19,1.63,2.49-1.43,4.5-5.27,4.5-8.6C1178.72,547.28,1177.5,545.84,1175.8,546Z"/><path class="cls-14" d="M1226.67,622.9c-12.72,22-30.41,37.35-46.15,40-7.28,1.22-13.5-.35-18.5-4.68-10.41-9-13.19-28.56-8.88-50.19-.39-6.06-.61-9.41-1.08-15-9.42,28.67-7.38,56.67,6.79,68.94a25.51,25.51,0,0,0,17.09,6.25,33.49,33.49,0,0,0,5.38-.46c17.13-2.89,36.1-19.12,49.52-42.37L1246.63,598c1.43-3,.67-5-3-6.69a11.71,11.71,0,0,0-1.61,4.94Z"/><path class="cls-14" d="M1180.8,555.75a5.18,5.18,0,1,1-5.18-5.18,5.18,5.18,0,0,1,5.18,5.18Z"/><path class="cls-5" d="M1115.56,550.89l-28.39,126.05,30.22-15.22,32.12-19.2-29-94.51Zm-9,62.48a10.3,10.3,0,0,1,5.55-7.34l6-3.49,6-3.47c3.4-2,4.69-1.47,5.55.94a107.21,107.21,0,0,1,3,10.54l-14.54,8.38-14.54,8.4s1.35-7.54,3-14Zm-10.42,51.44s2-11.38,4.49-21.11c1.3-5.17,3.22-8.14,8.38-11.1l9.12-5.29,9.12-5.24c5.14-3,7.08-2.24,8.38,1.41a163.46,163.46,0,0,1,4.5,15.95l-22,12.68Z"/><polygon class="cls-26" points="1132.68 610.55 1138.69 614.38 1135.91 597.86 1129.81 599.44 1132.68 610.55"/><polygon class="cls-26" points="1140.14 639.43 1135.28 621.95 1143.89 624.07 1146.15 643.26 1140.14 639.43"/><polygon class="cls-5" points="1093.2 680.78 1087.17 676.94 1115.56 550.89 1121.58 554.73 1093.2 680.78"/><polygon class="cls-23" points="1126.73 551.76 1121.58 554.73 1115.56 550.89 1120.71 547.91 1126.73 551.76"/><path class="cls-22" d="M1121.58,554.73l-28.38,126,31-17.87,31-17.91-28.39-93.27Zm20.09,72.59a162.38,162.38,0,0,1,4.48,15.94l-22,12.7-22,12.69s2-11.4,4.49-21.12c1.3-5.16,3.22-8.14,8.39-11.1,3.47-2,9.11-5.29,9.11-5.29l9.12-5.24c5.18-3,7.09-2.23,8.41,1.42Zm-5.94-23.46a107,107,0,0,1,3,10.53l-14.54,8.39-14.53,8.39s1.34-7.53,3-14a10.27,10.27,0,0,1,5.55-7.33l6-3.5,6-3.46c3.36-2,4.65-1.44,5.52,1Z"/><path class="cls-27" d="M1214.5,605.21l-86.89-50.44a3,3,0,0,0-3.3.1h0l89.63,51.75Z"/><path class="cls-27" d="M1120.09,561l91.08,52.59,1.57-3.91L1122,557.24A11.83,11.83,0,0,0,1120.09,561Z"/><path class="cls-27" d="M1121.15,567.73l87.94,51,.88-2.21-90.31-52.13A4,4,0,0,0,1121.15,567.73Z"/><path class="cls-28" d="M1119.58,564c0,.16.07.26.08.42l90.34,52.1,1.2-3L1120.09,561A10.21,10.21,0,0,0,1119.58,564Z"/><path class="cls-28" d="M1124.3,554.93a8.17,8.17,0,0,0-2.34,2.31l90.78,52.41,1.19-3Z"/><path class="cls-22" d="M1207.18,614.77c0,3.5,2.15,5.1,4.74,3.58s4.73-5.56,4.73-9-2.15-5.1-4.73-3.59S1207.18,611.29,1207.18,614.77Z"/><path class="cls-5" d="M1206.59,603.06l-28.37,126,30.19-15.26,32.17-19.16-29-94.51Zm-9,62.44a10.29,10.29,0,0,1,5.54-7.34l6-3.5,6-3.45c3.39-2,4.68-1.48,5.54.93a107,107,0,0,1,3,10.53l-14.53,8.4-14.54,8.39s1.4-7.53,3-14ZM1187.15,717s2-11.4,4.49-21.13c1.3-5.15,3.23-8.13,8.39-11.1l9.12-5.29,9.11-5.23c5.14-3,7.09-2.25,8.39,1.41a159.65,159.65,0,0,1,4.48,15.94l-22,12.7Z"/><polygon class="cls-26" points="1223.7 662.67 1229.71 666.51 1226.94 649.99 1220.83 651.57 1223.7 662.67"/><polygon class="cls-26" points="1231.16 691.55 1226.31 674.09 1234.92 676.2 1237.18 695.39 1231.16 691.55"/><polygon class="cls-5" points="1184.22 732.91 1178.2 729.07 1206.59 603.02 1212.61 606.87 1184.22 732.91"/><polygon class="cls-23" points="1217.76 603.89 1212.61 606.87 1206.59 603.02 1211.74 600.04 1217.76 603.89"/><path class="cls-22" d="M1212.63,606.87l-28.42,126,31-17.89,31-17.88-28.38-93.26Zm20.08,72.59a163,163,0,0,1,4.49,15.93l-22,12.7-22,12.7s2-11.4,4.48-21.12c1.31-5.16,3.23-8.14,8.4-11.11l9.11-5.29,9.12-5.23c5.11-2.94,7.06-2.24,8.37,1.42ZM1226.77,656a107,107,0,0,1,3,10.53l-14.54,8.4-14.53,8.38s1.34-7.52,3-14a10.24,10.24,0,0,1,5.55-7.34l6-3.49,6-3.46c3.37-1.94,4.66-1.43,5.52,1Z"/><path class="cls-5" d="M1335.47,457.91l-66.82-37.82c-9.82-5.67-24.46-8.19-32.82,4.44h0L1139,561.42l4.64,2.7,95.87-135.54c6.35-9.68,18.42-8.52,26.47-3.86l66.81,37.77c2.15,1.26,4.78,3.42,4.78,6.58s-1.93,5.49-5.55,11h0L1215.71,644.32h0a7.51,7.51,0,0,0-1.69,4.51c0,2.15,1.34,3.23,3,2.26a5.38,5.38,0,0,0,1.67-1.72h0l117-165.28c4.52-6.14,7.2-10,7.2-15C1342.91,464.61,1340.27,460.63,1335.47,457.91Z"/><path class="cls-5" d="M1274.33,568.86l-5.94,3.72V691.07h0c.12,2,1.36,2.89,2.93,2a7.17,7.17,0,0,0,3-5.68,1.93,1.93,0,0,0,0-.34h0Z"/><path class="cls-15" d="M1266.75,411.29h0a4.05,4.05,0,0,0-3.8.44c-3.4,2-6.15,7.23-6.15,11.75,0,2.52.87,4.24,2.15,5l8.86,5,58.19,33.6,7.52-17.2Z"/><path class="cls-29" d="M1323.82,462.09c0,4.53,2.75,6.62,6.13,4.65s6.15-7.22,6.15-11.74-2.75-6.61-6.15-4.66S1323.82,457.57,1323.82,462.09Z"/><path class="cls-5" d="M1332,456a1.07,1.07,0,0,0-1.15.06,4.21,4.21,0,0,0-1.75,3.35,1.61,1.61,0,0,0,.55,1.38l4.62,2.7,2.15-4.91Z"/><path class="cls-14" d="M1057.59,664.89a19.21,19.21,0,0,0,4.07,2.85,122.58,122.58,0,0,1,15.53-45.16l9.58-16.59a5.24,5.24,0,0,0-4.61-1.71L1073,620.16a128.29,128.29,0,0,0-15.77,44.3C1057.36,664.58,1057.45,664.75,1057.59,664.89Z"/><path class="cls-24" d="M1061.24,714.64c0,4.81,2.15,9.34,6,13.36l-1.61-24.94A18.44,18.44,0,0,0,1061.24,714.64Z"/><path class="cls-24" d="M1168.55,703.06,1166.94,728c3.81-4,6-8.54,6-13.34A18.42,18.42,0,0,0,1168.55,703.06Z"/><path class="cls-29" d="M1061.24,634.8l4.41,68.26,1.61,24.94c9.21,9.68,28,16.36,49.84,16.36s40.66-6.68,49.85-16.38l1.6-24.92,4.39-68.27Z"/><path class="cls-30" d="M1117.1,605.1c-30.85,0-55.86,13.3-55.86,29.7s25,29.71,55.86,29.71,55.9-13.3,55.9-29.71S1147.94,605.1,1117.1,605.1Z"/><path class="cls-15" d="M1117.11,628.49c22,0,40.86,6.87,48.81,16.64a16.24,16.24,0,0,0,4-10.33c0-14.89-23.65-26.95-52.84-26.95s-52.86,12.06-52.86,26.95a16.37,16.37,0,0,0,4,10.33C1076.23,635.32,1095.09,628.49,1117.11,628.49Z"/><path class="cls-19" d="M1117.11,661.76c22,0,40.86-6.87,48.81-16.63-7.94-9.77-26.8-16.64-48.81-16.64s-40.86,6.87-48.83,16.64C1076.23,654.89,1095.09,661.76,1117.11,661.76Z"/><path class="cls-21" d="M1141.46,620.13a2,2,0,1,1-2-2h.07A2,2,0,0,1,1141.46,620.13Z"/><path class="cls-21" d="M1134.44,650a2,2,0,1,1-2-2h0A2,2,0,0,1,1134.44,650Z"/><path class="cls-21" d="M1108.17,631.3c-.65-1.21-2.45-3.45-4.13-3.72a6.65,6.65,0,0,0-3.59-7.31c-3.36-1.67-9.24.37-9.88,4a4,4,0,0,0-4.46-.6,4.16,4.16,0,0,0-2.24,5.13c-2.95-.75-6.45.38-7.76,3.23-.87,1.91-.07,5.18,1.75,6.32a4.6,4.6,0,0,0,1.63,6.3h0l.12.07a6.19,6.19,0,0,0,6.5-.13,6.87,6.87,0,0,0,9.72-.06h0A6.59,6.59,0,0,0,1097,643c3.51,1,7.53-.83,10-3.17C1109.84,637.25,1110,634.55,1108.17,631.3Z"/><path class="cls-21" d="M1162,632.85a7.38,7.38,0,0,0-3.71-.55,5.8,5.8,0,0,0-3.85-5.67,5.08,5.08,0,0,0-4.55.41,4.87,4.87,0,0,0-4.3-2.82c-1.66,0-2.53,1.4-2.75,2.95a10.32,10.32,0,0,0-7-2.15,6.19,6.19,0,0,0-4.91,3.7c-2-1.74-6-1.55-7.53.67-2.22,3.23,1.71,5.07,4.69,6.15a4.21,4.21,0,0,0-1.25,2c-.66,2.38,1.07,4.3,3.23,5.1a8.73,8.73,0,0,0,7.25-.62c.26,2.69,2,4.45,5.62,4.36a8,8,0,0,0,4.13-1.51,7.47,7.47,0,0,0,7.29,5.17c1.79,0,4.42-.71,5.57-2.15a7.25,7.25,0,0,0,1.27-3.5,6.22,6.22,0,0,0,2-.76,5.85,5.85,0,0,0,2.63-5.59A6.77,6.77,0,0,0,1162,632.85Z"/><path class="cls-21" d="M1113.89,620.13a2.93,2.93,0,1,1-2.93-2.93h0A2.94,2.94,0,0,1,1113.89,620.13Z"/><path class="cls-21" d="M1076.64,626.49a2.93,2.93,0,1,1-2.94-2.92h0A2.94,2.94,0,0,1,1076.64,626.49Z"/><path class="cls-21" d="M1125.09,646.94a5.19,5.19,0,1,1-5.21-5.17h0a5.18,5.18,0,0,1,5.2,5.16Z"/><path class="cls-21" d="M1112.39,651.45a3.51,3.51,0,1,1-3.51-3.51,3.51,3.51,0,0,1,3.51,3.51Z"/><circle class="cls-21" cx="1125.79" cy="619.04" r="3.01"/><path class="cls-21" d="M1080.65,621.05a2,2,0,1,1-2-2h0A2,2,0,0,1,1080.65,621.05Z"/><path class="cls-21" d="M1123.91,614a2,2,0,1,1-2-2h0A2,2,0,0,1,1123.91,614Z"/><path class="cls-21" d="M1094.56,652.12a2,2,0,1,1-2-2h0A2,2,0,0,1,1094.56,652.12Z"/><path class="cls-14" d="M1153.56,644.6a5.19,5.19,0,1,1-5.2-5.18h0a5.18,5.18,0,0,1,5.19,5.17Z"/><path class="cls-15" d="M1160.23,636.79l-1.82-1.3a3.18,3.18,0,0,0-.37-.27l-.21-.15h0a4.31,4.31,0,0,0-4.3.36c-3.68,2.15-6.68,7.87-6.68,12.76v9.68l2.28,1.31c1.5-1.34,11.07-5.1,11.07-10v-8.71a8.62,8.62,0,0,0-.35-2.52Zm-6.58,13.51a3.51,3.51,0,0,1-1.58.48,6.17,6.17,0,0,1-.29-1.75c0-3.31,2-7.15,4.49-8.6a3.52,3.52,0,0,1,1.58-.49,5.85,5.85,0,0,1,.29,1.76C1158.14,645,1156.13,648.87,1153.65,650.3Z"/><path class="cls-29" d="M1155.84,637.09c-3.67,2.15-6.68,7.87-6.68,12.77v9.35l13.35-5.56v-11.5C1162.51,637.25,1159.51,635,1155.84,637.09Zm-2.15,13.21a3.64,3.64,0,0,1-1.58.48,5.44,5.44,0,0,1-.29-1.75c0-3.31,2-7.15,4.48-8.6a3.52,3.52,0,0,1,1.58-.49,5.55,5.55,0,0,1,.29,1.76c0,3.3-2,7.17-4.52,8.6Z"/><path class="cls-15" d="M1157.85,640a5.85,5.85,0,0,1,.29,1.76c0,3.31-2,7.15-4.49,8.6a3.51,3.51,0,0,1-1.58.48,2.63,2.63,0,0,0,3,2.16,2.71,2.71,0,0,0,1.18-.51c2.48-1.44,4.49-5.28,4.49-8.6C1160.76,641.29,1159.55,639.85,1157.85,640Z"/><path class="cls-29" d="M1087.91,594.93l-1.83-1.3-.32-.24-.22-.15h0a4.22,4.22,0,0,0-4.24.35c-3.67,2.15-6.68,7.86-6.68,12.76V616l2.29,1.32c1.5-1.33,11.07-5.1,11.07-10V598.6a9.27,9.27,0,0,0-.35-2.51Zm-6.56,13.51a3.65,3.65,0,0,1-1.57.49,5.29,5.29,0,0,1-.3-1.76c0-3.3,2-7.14,4.49-8.6a3.51,3.51,0,0,1,1.58-.48,6.17,6.17,0,0,1,.29,1.75C1085.84,603.17,1083.83,607,1081.35,608.44Z"/><path class="cls-15" d="M1083.54,595.25c-3.68,2.15-6.68,7.86-6.68,12.76v9.35l13.36-5.77V600.3C1090.22,595.4,1087.22,593.13,1083.54,595.25Zm-2.15,13.19a3.65,3.65,0,0,1-1.57.49,5.86,5.86,0,0,1-.3-1.76c0-3.3,2-7.14,4.49-8.6a3.64,3.64,0,0,1,1.58-.48,5.44,5.44,0,0,1,.29,1.75c0,3.33-2.05,7.17-4.53,8.6Z"/><path class="cls-29" d="M1085.55,598.12a6.17,6.17,0,0,1,.29,1.75c0,3.3-2,7.14-4.49,8.6a3.5,3.5,0,0,1-1.57.5c.6,2,2.22,2.77,4.19,1.63,2.47-1.43,4.48-5.27,4.48-8.6C1088.45,599.43,1087.24,598,1085.55,598.12Z"/><path class="cls-14" d="M1136.42,675.1c-12.72,22-30.41,37.36-46.15,40-7.28,1.24-13.5-.34-18.5-4.67-10.41-9-13.2-28.55-8.88-50.2-.4-6-.62-9.41-1.08-15-9.41,28.68-7.38,56.67,6.8,68.95a25.52,25.52,0,0,0,17.15,6.12,33.27,33.27,0,0,0,5.37-.46c17.13-2.88,36.12-19.12,49.54-42.37l15.78-27.34c1.43-3,.68-5-3-6.69a11.65,11.65,0,0,0-1.61,5Z"/><path class="cls-14" d="M1090.55,607.85a5.18,5.18,0,1,1-5.18-5.18,5.18,5.18,0,0,1,5.18,5.18Z"/><ellipse class="cls-4" cx="1106.06" cy="907.09" rx="31.84" ry="16.93"/><ellipse class="cls-4" cx="1143.99" cy="934.61" rx="31.84" ry="16.93"/><polygon class="cls-4" points="1151.91 906.53 1181.46 890.16 1237.94 931.96 1217.52 944.14 1151.91 906.53"/><path class="cls-15" d="M1079.65,833.25V805.81h52v62.72C1104.17,880.8,1095.86,850.13,1079.65,833.25Z"/><path class="cls-16" d="M1105.65,918.78c-14.36,0-26-6.19-26-13.82V833.25c16.21,16.88,24.52,47.55,52,35.28V905C1131.64,912.59,1120,918.78,1105.65,918.78Z"/><path class="cls-14" d="M1090.06,843.63a42.24,42.24,0,0,0,15.64,2.85c14.36,0,26-6.2,26-13.83v40.63c0,7.64-11.64,13.83-26,13.83a42.24,42.24,0,0,1-15.64-2.85Z"/><path class="cls-21" d="M1097.07,851.83a45.07,45.07,0,0,0,8.6.82c14.36,0,26-6.19,26-13.83v7.24c0,7.64-11.64,13.83-26,13.83a45.9,45.9,0,0,1-8.6-.82Z"/><path class="cls-16" d="M1080.79,802h0a13,13,0,0,1,.72-1.19l.42-.56c1.87-2.53,6.32-7.22,15.1-9.67,3-.84,4.78,0,5.7,1.57,1-.06,1.94-.15,2.94-.15s2,.09,3,.16c.91-1.64,2.65-2.42,5.7-1.58,12.35,3.4,16.24,11.39,16.24,11.39h-.07a8,8,0,0,1,1.07,3.82c0,7.63-11.63,13.83-26,13.83s-26-6.2-26-13.83A8,8,0,0,1,1080.79,802Z"/><path class="cls-15" d="M1105.65,789.18c8.74,0,15.82,3.77,15.82,8.42s-7.08,8.42-15.82,8.42-15.82-3.78-15.82-8.42S1096.92,789.18,1105.65,789.18Z"/><path class="cls-31" d="M1118.22,783.42v10.36a4.73,4.73,0,0,1-1.88,3.29v-8c0-.49-.3-.72-.66-.5a1.59,1.59,0,0,0-.68,1.28v8.23a13.7,13.7,0,0,1-3.73,1.55v-8.12a.78.78,0,0,0-1.55,0V800a22.51,22.51,0,0,1-3.66.39V792a.78.78,0,0,0-.78-.78h0a.76.76,0,0,0-.77.77h0v8.29a22.88,22.88,0,0,1-3.78-.41v-8.66a.76.76,0,0,0-.77-.77h0a.78.78,0,0,0-.78.77h0v8.14a12.65,12.65,0,0,1-3.11-1.41v-8.06a1.62,1.62,0,0,0-.67-1.28c-.37-.21-.68,0-.68.51v7.77a4.61,4.61,0,0,1-1.63-3.11V783.42Z"/><path class="cls-32" d="M1105.28,791.22a.78.78,0,0,1,.78.78h0v8.37h-.41c-.4,0-.75-.1-1.14-.13V792a.76.76,0,0,1,.76-.78Z"/><path class="cls-32" d="M1110.48,790.78a.78.78,0,0,1,.78.78h0v8.11c-.51.13-1,.25-1.55.35v-8.46a.78.78,0,0,1,.77-.78Z"/><path class="cls-32" d="M1100,790.45a.76.76,0,0,1,.77.77h0v8.7a11.92,11.92,0,0,1-1.55-.56v-8.14A.78.78,0,0,1,1100,790.45Z"/><path class="cls-32" d="M1095.43,788.61a1.62,1.62,0,0,1,.67,1.28V798a9.2,9.2,0,0,1-1.35-1.07v-7.81C1094.72,788.62,1095,788.4,1095.43,788.61Z"/><path class="cls-32" d="M1115.68,788.61c.36-.21.66,0,.66.51v8a8.13,8.13,0,0,1-1.34,1.08V790A1.58,1.58,0,0,1,1115.68,788.61Z"/><path class="cls-23" d="M1105.65,776.73c6.94,0,12.57,3,12.57,6.69s-5.58,6.73-12.57,6.73-12.56-3-12.56-6.68S1098.71,776.73,1105.65,776.73Z"/><path class="cls-31" d="M1105.54,776.73c5.22,0,9.46,2.26,9.46,5s-4.24,5-9.46,5-9.47-2.25-9.47-5S1100.31,776.73,1105.54,776.73Z"/><polygon class="cls-31" points="1098.32 764.26 1096.08 781.77 1115 781.77 1112.25 764.26 1098.32 764.26"/><path class="cls-32" d="M1105.28,760.56c3.85,0,7,1.65,7,3.7s-3.12,3.71-7,3.71-7-1.67-7-3.71S1101.43,760.56,1105.28,760.56Z"/><path class="cls-33" d="M1225.43,830.37c-6-15.9-13.73-39.71-13.73-39.71l-5.88-3.38-1.5-.87-9.52-5.5s-7.76,14.84-13.74,23.84-5.59,17.59-5.59,43.53V898l28.85,16.66,1.5.87L1231,930.07v-49.7C1231,854.42,1231.41,846.27,1225.43,830.37Z"/><path class="cls-33" d="M1185.52,749.63a41.23,41.23,0,0,1-6.51,13.81c-4.82,6.45-8.73,6.56-8.73,6.56l2.41,7s9-.4,13.51-7,7.3-10.75,7.3-10.75Z"/><path class="cls-13" d="M1211.78,756.73l-36.31-21v8.69s5.68,5.16,11.33,10.65,8,11.25,8,16.95v8.86l17.1,9.87Z"/><path class="cls-21" d="M1162.45,736.26h0a1.76,1.76,0,0,0-2.15,0,6.92,6.92,0,0,0-2.91,5.57,2.57,2.57,0,0,0,1,2.33h0l8.09,4.68,3.81-8.11Z"/><path class="cls-34" d="M1170.93,743a7,7,0,0,1-2.91,5.57c-1.61.93-2.93,0-2.93-2.15a7,7,0,0,1,2.93-5.58C1169.62,739.82,1170.93,740.81,1170.93,743Z"/><path class="cls-33" d="M1158.94,776.63l11.34-6.63s-2,4.72-5.19,6.35A7.58,7.58,0,0,1,1158.94,776.63Z"/><polygon class="cls-33" points="1170.93 780.36 1179.29 775.42 1175.47 773.26 1170.93 777.87 1170.93 780.36"/><path class="cls-23" d="M1174.19,756.26a41.13,41.13,0,0,1-6.45,13.8c-4.83,6.45-8.74,6.57-8.74,6.57l2.41,7s9-.38,13.52-7,7.29-10.7,7.29-10.7Z"/><path class="cls-35" d="M1197,765.42l-36.31-21v8.69s5.68,5.15,11.34,10.63,8,11.27,8,17v8.86l17.09,9.87Z"/><polygon class="cls-33" points="1211.9 790.78 1197.09 799.48 1216.23 938.77 1231.04 930.07 1211.9 790.78"/><polygon class="cls-13" points="1197.09 799.48 1211.9 790.78 1211.78 756.73 1196.97 765.42 1197.09 799.48"/><path class="cls-23" d="M1210.63,839.07c-6-15.9-13.73-39.71-13.73-39.71L1191,796l-1.51-.88-9.51-5.49s-7.77,14.83-13.74,23.84-5.6,17.59-5.6,43.53v49.71l28.85,16.65,1.51.87,25.21,14.56v-49.7C1216.23,863.11,1216.61,855,1210.63,839.07Z"/><polygon class="cls-25" points="1175.47 735.76 1160.66 744.46 1196.97 765.42 1211.78 756.73 1175.47 735.76"/><polygon class="cls-14" points="1204.44 917.83 1167.76 896.66 1167.76 833.81 1204.44 854.98 1204.44 917.83"/><polygon class="cls-21" points="1201.72 856.84 1170.12 838.6 1170.12 841.8 1201.72 860.05 1201.72 856.84"/><polygon class="cls-33" points="1201.72 846.12 1170.12 827.88 1170.12 829.48 1201.72 847.73 1201.72 846.12"/><polygon class="cls-33" points="1201.72 842.14 1170.12 823.89 1170.12 825.49 1201.72 843.74 1201.72 842.14"/><polygon class="cls-21" points="1201.72 864.24 1170.12 845.98 1170.12 849.19 1201.72 867.43 1201.72 864.24"/><path class="cls-35" d="M1193.9,872.94a9.64,9.64,0,0,0-3.87-1.22c-1.75-7-9.49-13-13.51-5.58a17.17,17.17,0,0,0-1.25,11.52c-1.75,2.65-1.63,6.56-.92,9.46,2.15,8.86,13,14.89,20.71,8.35C1201,890.4,1201.1,877,1193.9,872.94Zm-16.55-2.36a5.38,5.38,0,0,1,9.24-3,9,9,0,0,1,2.24,4.13,9.89,9.89,0,0,0-6.92,3.23,6.43,6.43,0,0,0-4.58.76c0-.3-.06-.59-.08-.89A27.17,27.17,0,0,1,1177.35,870.58Z"/><path class="cls-21" d="M1198.79,889.07a5.3,5.3,0,0,0-2.25-3.8,5,5,0,0,0-3.09-.44,5.78,5.78,0,0,0-.35-.9,5.35,5.35,0,0,0-5.67-3.38c-6.15,1.08-4.8,8.6-2.32,12.9a4.88,4.88,0,0,0-1.18,1.85c-.93,3.57,3.8,7.2,6.55,8.5,5.1,2.4,8.36-4.21,6.82-8.21A9,9,0,0,0,1198.79,889.07Z"/><path class="cls-21" d="M1175,858.85c-1.69-.22-4,3.55-1,6.77,1.56,1.66,4.5,1.39,4.61-1.44C1178.65,862.11,1177.21,859.14,1175,858.85Z"/><path class="cls-21" d="M1193.87,871.44c-1.4-.47-4.37,1.64-2,5a2.44,2.44,0,0,0,3.35.87h0a2.37,2.37,0,0,0,1.06-1.27A3.89,3.89,0,0,0,1193.87,871.44Z"/><path class="cls-36" d="M1116.82,846.89v85.36c0,8,12.26,14.55,27.38,14.55s27.38-6.51,27.38-14.55V846.89Z"/><path class="cls-14" d="M1160.68,870.79a44.63,44.63,0,0,1-16.48,3c-15.12,0-27.38-6.53-27.38-14.57V919.8c0,8,12.26,14.55,27.38,14.55a44.23,44.23,0,0,0,16.48-3Z"/><path class="cls-21" d="M1154.72,881.84a47.16,47.16,0,0,1-10.52,1.21c-15.12,0-27.38-6.53-27.38-14.57v4.89c0,8,12.26,14.56,27.38,14.56a47.74,47.74,0,0,0,10.52-1.2Z"/><path class="cls-27" d="M1170.37,843.24h0a12.1,12.1,0,0,0-.76-1.24c-.14-.2-.27-.39-.43-.59-2-2.66-6.67-7.61-15.91-10.17-3.23-.88-5,0-6,1.66-1.08-.07-2-.16-3.09-.16s-2.15.09-3.16.16c-1-1.71-2.81-2.54-6-1.66-13,3.59-17.12,12-17.12,12h.09a8.42,8.42,0,0,0-1.18,4c0,8,12.25,14.57,27.38,14.57s27.38-6.53,27.38-14.57A8.45,8.45,0,0,0,1170.37,843.24Z"/><polygon class="cls-13" points="1128.39 826.06 1124.97 839.47 1163.43 839.47 1159.82 824.82 1128.39 826.06"/><path class="cls-13" d="M1144.2,830.33c-10.75,0-19.35,4.6-19.35,10.29s8.6,10.3,19.35,10.3,19.36-4.61,19.36-10.3S1154.89,830.33,1144.2,830.33Z"/><path class="cls-25" d="M1144.2,817.65c-8.73,0-15.81,3.76-15.81,8.41s7.08,8.41,15.81,8.41,15.81-3.77,15.81-8.41S1152.93,817.65,1144.2,817.65Z"/><path class="cls-37" d="M1144,818.92c-7.19,0-13,3-13,6.59s5.83,6.58,13,6.58,13-2.94,13-6.58S1151.17,818.92,1144,818.92Z"/></svg>