<svg id="Layer_1" data-name="Layer 1" xmlns="http://www.w3.org/2000/svg" viewBox="0 0 1920 1080"><defs><style>.cls-1{fill:#dce2f9;}.cls-2{fill:#879efd;}.cls-3{fill:#7c93f8;}.cls-4{fill:#4c70e0;isolation:isolate;}.cls-4,.cls-9{opacity:0.5;}.cls-5{fill:#352221;}.cls-6{fill:#8da3ff;}.cls-7{fill:#6781ef;}.cls-8{fill:#778dfd;}.cls-10{fill:#a4baff;}.cls-11{fill:#bbceff;}.cls-12{opacity:0.57;}.cls-13{fill:#ffce00;}.cls-14{fill:#ffb600;}.cls-15{fill:#ffd836;}.cls-16{fill:#5273dd;}.cls-17{fill:#2c1d1b;}.cls-18{fill:#3f2a28;}.cls-19{fill:#bbcdff;}.cls-20{fill:#a6c2ff;}.cls-21{fill:#ffb9a4;}.cls-22{fill:#ffc9b6;}.cls-23{fill:#593d3d;}.cls-24{fill:#c6afaf;}.cls-25{fill:#d8c4c3;}.cls-26{fill:#472f2e;}.cls-27{fill:#b29a9a;}.cls-28{fill:#281818;}.cls-29{fill:#fed517;}.cls-30{fill:#efa500;}.cls-31{fill:#efdfdf;}.cls-32{fill:#fff;}.cls-33{fill:#493130;}.cls-34{fill:#f4ebea;}.cls-35{fill:#dec9c5;}.cls-36{fill:#ddc9c7;}.cls-37{fill:#eddcda;}.cls-38{fill:#422c2a;}.cls-39{fill:#ceb7b6;}.cls-40{fill:#627df4;}.cls-41{fill:#ff61ad;}</style></defs><rect class="cls-1" width="1920" height="1080"/><path class="cls-2" d="M1920,632.32V1080H0V144.12H39.88l2.18.07,1.43.06,1.28.06,1.46.06h.35l1.61.09,1.85.1h1.39l1.48.1,3,.21h.55l2.64.2,1.78.15,2.25.21,2.69.25c.31,0,.62.06.93.09h.3l2.49.27,1.14.12,1.47.16.53.06,1.66.21,2.8.34,2,.26,3.7.5,1.75.25,3.66.54,1.31.19.94.15,2.89.47,2.66.43,4.06.71,1.23.22,4.11.76.84.16.85.16h.21l1.38.27,3.71.74h.27l.72.15c2.69.55,5.39,1.12,8.1,1.73l1.18.27,3.5.8,1,.22.37.09c2.12.5,4.23,1,6.35,1.52l1.36.33,4.59,1.17,2.68.7,3,.8,2.21.6,2.55.7.19.05,1.25.35,2.87.8.79.23.25.07,4.68,1.36,1.23.37,3.91,1.18.61.18h.14l4.46,1.38,2.24.7c1.38.43,2.77.88,4.16,1.33l1.73.55c1.92.63,3.86,1.26,5.79,1.91l.36.12,3.42,1.16,1.89.64.85.29.17.06,2.41.84,2.72,1,3.95,1.4.77.28.69.25,3.51,1.26.18.07,1.4.52.34.12,3,1.12.79.3,8,3,2.14.83,6.89,2.7,1.3.51.71.29c2.39,1,4.78,1.92,7.17,2.89l1.6.65,1.73.72,2.32,1,1.45.6.73.31,2,.81,2.1.9.57.23,2.7,1.14,3.68,1.58.36.16,2,.86,1.7.74,4.75,2.08.69.31.46.2,2,.89,1.25.56,3.6,1.62.95.42.89.4q4.71,2.13,9.43,4.31l1.62.74.15.07.37.17,1.44.67.42.2,4.17,1.94,1,.48,4.18,2,2.12,1,2.94,1.4,2.06,1,6.52,3.15,2.42,1.19.62.3,2.14,1.05,8.1,4,1.78.88,1.93,1q4.78,2.4,9.58,4.84l1,.51,1.94,1,1.69.87.63.32.65.34,8,4.1.29.15.2.1,8.72,4.56h0l8.07,4.26,1.55.83,5.38,2.87,2.78,1.48.16.09,1.57.85,7,3.77,1.61.87,1,.53,6.72,3.67,2.32,1.27.35.19.79.43.27.15,4.13,2.28,2,1.09,1.53.85,3.92,2.17.53.3,2.11,1.17h.09l.81.45,4.7,2.62,7.15,4,1.21.68,4.54,2.56,8.6,4.88,2,1.15,1.83,1,1,.54,1.52.87,5.62,3.21,4.08,2.35,12.49,7.2,2.87,1.66,2.72,1.58q25.08,14.56,50.65,29.71l.76.45,2.43,1.44h0l8.3,4.91,16.47,9.78.1.07,6.94,4.12,4,2.38.12.08,3.06,1.82q17.78,10.56,35.77,21.29l11.23,6.68,16.92,10,34.13,20.16,5.72,3.36L684,437.91q17.25,10.08,34.69,20.15h.06l1.56.89,10,5.76a.41.41,0,0,1,.11.07q5.77,3.32,11.58,6.61c5,2.87,10.06,5.71,15.12,8.56q8.22,4.65,16.48,9.26l7.14,4q10.14,5.63,20.34,11.23a.21.21,0,0,1,.1.06q5.91,3.24,11.84,6.45h.08l.44.24c3.81,2.07,7.63,4.14,11.46,6.18l3.18,1.7,9.67,5.17c1.74.91,3.47,1.84,5.2,2.75q11,5.81,22,11.53l4.84,2.5,3.44,1.77c2.34,1.21,4.69,2.4,7,3.6,3.75,1.91,7.5,3.83,11.26,5.72h0l.46.23q8.11,4.08,16.25,8.11l1.64.81q8.38,4.14,16.82,8.23l7.84,3.77,6.19,3,12.66,6,.13.07,5.85,2.72q3.1,1.46,6.23,2.88l6.24,2.86,6.21,2.82h.09q6.09,2.76,12.19,5.47l1.74.77,5.89,2.6q14.14,6.19,28.39,12.18l3.34,1.4q5,2.1,10.09,4.17l2.52,1,8.4,3.41h.07q4.75,1.92,9.53,3.8l4.86,1.91,1.81.71,8.67,3.35,1.44.55q4.35,1.67,8.73,3.31l.78.29q8,3,16,5.9l2.91,1.06q15.48,5.57,31.06,10.8l2.71.91q5.28,1.75,10.57,3.47l1.79.58q5.17,1.68,10.37,3.31l3.83,1.2,6.48,2,4.32,1.31q11.94,3.61,24,7c1.28.36,2.56.73,3.85,1.08l4.78,1.33,8.14,2.2,4.14,1.1c3.1.81,6.21,1.62,9.32,2.41l3.58.91,4.48,1.11,9.48,2.31,7.82,1.85h.24l.21,0,3.64.84,5.94,1.33,6.36,1.4,9.45,2,2,.41q6.3,1.29,12.59,2.51l.34.07,1,.2c4.44.85,8.87,1.68,13.32,2.48l.47.09,5.37,1q3.3.59,6.62,1.14l.29.05,5.89,1,.81.14h.2l4.85.77,2.55.4q6.29,1,12.58,1.87l2.57.35c2.61.37,5.21.73,7.82,1.07l.71.09q4.53.6,9.08,1.15l1.35.17,5.9.69h.14l.58.07,5.66.63,2.45.26,5.27.55,1.39.14,4.29.41h.09l1.93.18q6.33.6,12.67,1.1h.06l.87.06c1.78.15,3.57.28,5.36.41l1.51.11,4.36.31,1.64.11,1.92.12,3.94.25,1.73.1,5.46.3,2.83.14,1.81.09,2.52.12,2.3.1,1.74.07c1.19.06,2.38.1,3.58.15h1l6,.19c1.62.06,3.23.09,4.84.13l4.22.1h1.18l3.93.06h2l4.78.05h18.16q5.07-.06,10.16-.18l3.64-.09h2.15l2.36-.07c2.07-.07,4.14-.13,6.2-.21l2.47-.11,6.11-.26,2-.11h.88l3.7-.2,3-.17c2.37-.13,4.74-.29,7.11-.44l.88-.06,1.93-.13,6.85-.5h.67c2.81-.22,5.63-.46,8.45-.7l2.51-.22c3-.27,6.09-.57,9.13-.87l.62-.06,3.3-.34c2.94-.3,5.89-.62,8.83-1l3.43-.4c3-.35,5.9-.72,8.85-1.09l.67-.08,3.83-.51,6.37-.88c2.86-.4,5.73-.8,8.58-1.23,2.11-.32,4.22-.64,6.33-1l1.69-.26q3.83-.62,7.65-1.26c1.66-.27,3.33-.56,5-.85l2.47-.43q4.31-.76,8.64-1.57l1.78-.33c4-.75,7.91-1.53,11.88-2.33l2.35-.48h.07q6.51-1.34,13-2.77,5.05-1.12,10.12-2.3l2.16-.5q4.5-1.07,9-2.17l1.77-.44q4.7-1.15,9.39-2.37l4.84-1.26,2.51-.67,1.14-.31c2.71-.73,5.42-1.48,8.13-2.23l3.28-.91,2.32-.66,4.46-1.29,3.36-1,4-1.19,1.74-.52,6-1.84.29-.09,3.67-1.15,4.43-1.39c2.27-.72,4.53-1.45,6.8-2.19l.65-.22q4.79-1.56,9.57-3.19l2.48-.84q4.52-1.54,9-3.14l1.45-.51q5.54-2,11-4l8.1-3,1.5-.57,3.14-1.21,7-2.7,5.27-2.08q4.6-1.85,9.22-3.73A198.94,198.94,0,0,1,1920,632.32Z"/><path class="cls-3" d="M1920,677.59V1080H0V677.58A200.78,200.78,0,0,1,86.77,697.3C373.17,834.5,680.43,880.05,960,881.23c279.57-1.18,586.82-46.73,873.22-183.93A201.42,201.42,0,0,1,1920,677.59Z"/><path class="cls-4" d="M925.37,866,790.76,788.29c-17.82-10.28-15.56-28.42,5-40.3l49.61-28.63c20.57-11.89,52-13.18,69.8-2.9l134.64,77.74c17.82,10.29,15.56,28.41-5,40.3l-49.62,28.63C974.6,875,943.23,876.32,925.37,866Z"/><path class="cls-4" d="M753.7,975.18c-25.61-22.27-83.36-53.63-86.65-63.69s28.34-42.23-39.41-88.13c-60.19-40.78-83.23-56.38-107-49.34L417.39,714.41,248,812.22l146.72,84.7,72-41.57c12,9.78,34.65,28.41,63.11,52,42.58,35.37,177.67,99.12,200,106.86S779.31,997.45,753.7,975.18Z"/><path class="cls-4" d="M1614.13,754.79,1043.22,423.22c-11.77-6.81-32.55-6-46.16,1.92L790,544.66c-13.61,7.85-15.1,19.84-3.31,26.62l57.8,33.46c-14.91,4.26-31,11.26-49.69,20.16-23.33,11.2-86.46,29-96.8,50.94s19.17,56.78,36.12,62.42c52.57,17.51,79.75-16.59,119.67-28.79,25.92-7.91,72.23-26.26,85.77-49.49l418,242.79c11.79,6.8,32.57,5.94,46.17-1.91l207.08-119.45C1624.42,773.52,1625.91,761.53,1614.13,754.79Z"/><path class="cls-5" d="M1366.39,840.7v41.65c0,5.09,7.74,9.2,17.3,9.2s17.32-4.11,17.32-9.2V840.7Z"/><path class="cls-5" d="M1556.08,730v41.66c0,5.08,7.74,9.2,17.3,9.2s17.32-4.12,17.32-9.2V730Z"/><path class="cls-5" d="M804.48,518.82v41.65c0,5.08,7.76,9.21,17.32,9.21s17.32-4.13,17.32-9.21V518.82Z"/><path class="cls-6" d="M1317.35,312.25,1092.91,183.38c-3.74-2.15-7.26-2.66-10.18-1.9l-.33-.39a32.05,32.05,0,0,0-21.29,7.09,84.42,84.42,0,0,0-17.32,19.48l29.74,24.3V355.13c0,14.21,8.73,30.86,19.36,37L1317.35,521c10.65,6.15,19.36-.44,19.36-14.64V349.25C1336.73,335,1328,318.39,1317.35,312.25Z"/><path class="cls-6" d="M1304.38,500.1s-2.94,10.38-14.67,17.17c-18.79,10.89-27.6,8.39-27.6,8.39l-2.26-37.09,33.33-8.76Z"/><path class="cls-7" d="M1285.94,540.07,1061.49,411.21c-10.65-6.15-19.36-22.8-19.36-37V217.11c0-14.21,8.73-20.8,19.36-14.64l224.45,128.85c10.65,6.16,19.36,22.81,19.36,37V525.43C1305.31,539.63,1296.58,546.22,1285.94,540.07Z"/><path class="cls-6" d="M1586.37,467,1361.92,338.11c-3.74-2.17-7.26-2.68-10.18-1.92l-.32-.4a32.16,32.16,0,0,0-21.3,7.1,84.34,84.34,0,0,0-17.3,19.48l29.74,24.3V509.84c0,14.21,8.71,30.86,19.36,37L1586.38,675.7c10.65,6.15,19.36-.44,19.36-14.64V504C1605.73,489.78,1597,473.12,1586.37,467Z"/><path class="cls-6" d="M1573.38,654.81s-2.93,10.38-14.65,17.18c-18.81,10.89-27.6,8.38-27.6,8.38l-2.22-37.13,33.32-8.77Z"/><path class="cls-7" d="M1555,694.78,1330.46,565.93c-10.65-6.16-19.36-22.81-19.36-37V371.82c0-14.21,8.71-20.79,19.36-14.64L1554.92,486c10.65,6.15,19.36,22.8,19.36,37V680.1C1574.32,694.34,1565.6,700.94,1555,694.78Z"/><path class="cls-6" d="M1042.68,221.24a84.86,84.86,0,0,0-17.31-19.49,32.09,32.09,0,0,0-21.3-7.08l-.33.39A13.61,13.61,0,0,0,993.57,197L799.33,309.11c-10.65,6.16-19.36,22.81-19.36,37v157.1a23.18,23.18,0,0,0,2.17,10.37v.09s2.93,10.39,14.66,17.18c18.8,10.89,27.6,8.39,27.6,8.39l2.26-37.14,167-96.38c10.64-6.15,19.36-22.81,19.36-37V245.53Z"/><path class="cls-8" d="M830.69,537l194.25-112.14c10.64-6.14,19.36-22.8,19.36-37V230.69c0-14.21-8.72-20.79-19.36-14.65L830.69,328.18c-10.65,6.16-19.36,22.81-19.36,37V522.29C811.33,536.5,820.09,543.09,830.69,537Z"/><path class="cls-7" d="M1549,689.51,1083.87,409.4c-10.82-6.24-29.9-5.45-42.36,1.76L896.82,494.65l-59.74-35.09c-12.79,12.55-15.24,39.57-15.24,60.06s6.28,25.64,16.54,31.56l475.14,274.31c10.82,6.26,29.9,5.46,42.35-1.75L1546,714C1558.49,706.78,1559.87,695.77,1549,689.51Z"/><path class="cls-6" d="M838.34,481l475.18,274.34c10.82,6.26,29.9,5.46,42.35-1.76L1546,643.82c12.49-7.26,13.87-18.22,3-24.48L1073.92,345c-10.82-6.24-29.9-5.44-42.35,1.77L841.46,456.51C828.89,463.72,827.51,474.74,838.34,481Z"/><g class="cls-9"><path class="cls-10" d="M1256.79,491.52l-157.72,91.07c-12,6.94-33.2,6-47.08-2L876.18,479.13c-13.88-8-15.4-20.25-3.39-27.18l157.72-91.06c12-6.94,33.21-6.05,47.09,1.95l175.81,101.53C1267.29,472.35,1268.8,484.59,1256.79,491.52Z"/><path class="cls-11" d="M1232,483.11l-137.39,79.27c-10.47,6-28.92,5.28-41-1.69L900.49,472.27c-12.1-7-13.41-17.63-2.94-23.68l137.38-79.32c10.48-6,28.93-5.28,41,1.7l153.15,88.42C1241.18,466.41,1242.51,477.07,1232,483.11Z"/><path class="cls-8" d="M1063.7,457.57c-9.19,0-16.63,4-16.63,8.84s7.49,8.85,16.63,8.85,16.61-4,16.61-8.85S1072.88,457.57,1063.7,457.57Z"/><path class="cls-6" d="M1053.8,381.05s-1.55,8.24,1.53,25.75,7.26,37.58,7.26,37.58,2.62-22.65,1.07-37.07S1053.8,381.05,1053.8,381.05Z"/><path class="cls-6" d="M1097.57,464.17s22.14-13.31,48.4-14.34,59.74,9.28,59.74,9.28-42.23-5.49-59.74-3.77S1097.57,464.17,1097.57,464.17Z"/><path class="cls-6" d="M918.22,454.93s23.11-11.52,49.38-10.48,58.82,13.93,58.82,13.93-41.66-8.79-59.29-8.47S918.22,454.93,918.22,454.93Z"/><path class="cls-6" d="M1065.76,487.82s-2.75,13.18-1,32.74c1.38,15.06,8,32.44,8,32.44s-.41-17.77-1-39.13C1071.28,495.33,1065.76,487.82,1065.76,487.82Z"/></g><g class="cls-12"><path class="cls-10" d="M1509.55,640.76l-157.76,91c-12,6.93-33.2,6-47.08-2l-175.82-101.5c-13.88-8-15.39-20.24-3.37-27.18l157.75-91c12-6.95,33.2-6.05,47.07,2l175.81,101.5C1520,621.58,1521.53,633.78,1509.55,640.76Z"/><path class="cls-11" d="M1484.76,632.34,1347.4,711.66c-10.47,6.05-28.93,5.29-41-1.69l-153.15-88.43c-12.1-7-13.42-17.63-3-23.68l137.39-79.32c10.47-6,28.92-5.27,41,1.71l153.15,88.42C1493.9,615.63,1495.22,626.3,1484.76,632.34Z"/><ellipse class="cls-8" cx="1316.41" cy="615.64" rx="16.63" ry="8.85"/><path class="cls-6" d="M1306.51,530.28s-1.55,8.24,1.55,25.75,7.26,37.51,7.26,37.51,2.61-22.64,1.07-37S1306.51,530.28,1306.51,530.28Z"/><path class="cls-6" d="M1350.28,613.41s22.14-13.31,48.4-14.34,59.75,9.27,59.75,9.27-42.24-5.48-59.75-3.77S1350.28,613.41,1350.28,613.41Z"/><path class="cls-6" d="M1170.93,604.17s23.13-11.53,49.39-10.49,58.83,13.94,58.83,13.94-41.67-8.79-59.29-8.47S1170.93,604.17,1170.93,604.17Z"/><path class="cls-6" d="M1318.48,637.06s-2.76,13.16-1,32.74c1.38,15,8.06,32.44,8.06,32.44s-.42-17.78-1-39.14C1324,644.56,1318.48,637.06,1318.48,637.06Z"/></g><path class="cls-8" d="M1294.16,487.82s-68.64,31.93-109.49,55.52-99.93,68.39-99.93,68.39,66.35-39.84,105.66-60.59S1294.16,487.82,1294.16,487.82Z"/><path class="cls-13" d="M1050.75,340.76c.52,21.6,23.22,44.26,32.33,51.49,18.39,14.6,39,24.77,59.46,36.3,21.7,12.26,61,23,91,9.32,20.25-9.2,26.15-36.4,27.08-48.41,1-13.18-2.23-25.25-4.11-38.08,16.07-3.32,23.52-8.12,21.36-14.42-2.42-7-8.39-7.76-23.3-7.4-2.1-17.65-7.68-27-16.94-40.68-7.15-4.78-14.52-9.25-21.36-13.77-32.37-21.52-66.1-41.74-99.57-61.47-13.65-8.06-39.86-19.27-55.76-19.16-4.31-3.39-10.89-7.1-18.88-5.77-13.41,2.23-15.59,14.27-9.6,22.62-7.58,13.69-12.84,67.29-12.57,76,.17,5.68,1.69,14.8,3.82,25.22A80.55,80.55,0,0,0,1050.75,340.76Z"/><path class="cls-14" d="M1026.25,369.52c2.87,7.47,15.31,8.36,22.77,6.64C1072.11,411,1111.11,440,1148.24,456c21.71,9.32,78.2,21.66,102.62,16.84,5,10.05,16.24,15.61,22.23,11.66,8.15-5.38,5.37-13.58,3.92-21.47,7.44-5.85,16.83-9.85,22.88-49.51,2.17-14.21,1.6-54.55-9.58-65.49,3.34-4.46,9.24-17.76,4.26-23.11-6.31-6.77-19.16-6.12-26.35-5.85-6.31-12.46-18.06-21.79-30.6-30.26,9.21,13.64,14.79,23,16.94,40.69,14.91-.37,20.9.43,23.3,7.39,2.16,6.3-5.29,11.11-21.36,14.42,1.87,12.83,5.13,24.91,4.11,38.09-.93,12.1-6.83,39.25-27.08,48.4-30,13.65-69.3,2.94-91-9.32-20.42-11.56-41.07-21.72-59.46-36.3-9.11-7.26-31.81-29.89-32.33-51.49a80.44,80.44,0,0,1-27-28.21c2.42,11.79,5.58,25.26,8.47,37.39C1030.25,356.51,1022.9,360.76,1026.25,369.52Z"/><path class="cls-14" d="M1058.52,199.36c-2.09-2.12-5.12-3.84-8.17-3.57a1.21,1.21,0,0,0-1.12,1.29h0a1.25,1.25,0,0,0,.29.69c2.51,2.42,5.24,4.06,7.27,7,1,1.42,3,3.91,4.61,1.67S1060.05,200.87,1058.52,199.36Z"/><path class="cls-14" d="M1047.3,210.25a13,13,0,0,0-7.35,4.68c-1.21,1.61-3.63,5.23-2,7.26,1.21,1.53,2.87.45,3.63-.93,1.89-3.39,3.22-6.29,6.77-8.36a1.45,1.45,0,0,0-1.09-2.65Z"/><path class="cls-14" d="M1040.12,312.71c-1-2.8-3.06-4.92-4-7.76s-.48-5.85-1.21-8.66a.82.82,0,0,0-1-.58.85.85,0,0,0-.37.21c-3.82,4.84-.48,16.24,5.4,18a1,1,0,0,0,1.22-.72s0,0,0-.05A.94.94,0,0,0,1040.12,312.71Z"/><path class="cls-14" d="M1060.38,331.74c-1.21-2.82-3.41-5-4.54-8-1-2.71-1.11-5.62-2.06-8.33a.71.71,0,0,0-.89-.47h0a.78.78,0,0,0-.39.3c-4,5.52-.17,16.57,5.93,19C1060,334.89,1060.91,332.93,1060.38,331.74Z"/><path class="cls-14" d="M1232.93,394.3a.91.91,0,0,0-1.29,0h0a.9.9,0,0,0-.25.6c-.32,3.27.6,6.25-.27,9.55-.72,2.81-2.77,5-3,7.88a1.46,1.46,0,0,0,1.47,1.45h0a1.49,1.49,0,0,0,.36,0C1236.29,411.78,1237.41,398.49,1232.93,394.3Z"/><path class="cls-14" d="M1219.13,429.27c-3.53-.37-7.05,0-10.51-1s-6.25-3.09-9.36-4.78a.75.75,0,0,0-1,.29.73.73,0,0,0-.07.56c2.25,7.9,15,12.6,21.71,7.77a1.52,1.52,0,0,0-.75-2.8Z"/><path class="cls-15" d="M1101.56,230c-14.22-6.05-35-15.73-49.17-6.33-25.23,16.86,9.6,55.73,27.83,65.42,18.8,10,73.37,31.58,81.81-3.85C1167.38,262.72,1108.92,233.17,1101.56,230Z"/><path class="cls-13" d="M1306.26,489.45c.53,21.59,23.22,44.25,32.33,51.49,18.41,14.59,39.05,24.77,59.48,36.3,21.68,12.27,61,23,91,9.33,20.24-9.19,26.14-36.4,27.07-48.4,1-13.17-2.22-25.24-4.11-38.08,16.07-3.31,23.52-8.12,21.36-14.41-2.42-7-8.39-7.76-23.28-7.41-2.12-17.64-7.69-27-16.95-40.67-7.15-4.78-14.52-9.26-21.35-13.78-32.37-21.52-66.11-41.73-99.58-61.48-13.65-8-39.85-19.25-55.75-19.14-4.31-3.4-10.89-7.11-18.89-5.78C1284.17,339.65,1282,351.7,1288,360c-7.6,13.71-12.85,67.3-12.59,76,.18,5.69,1.71,14.8,3.83,25.23A80.52,80.52,0,0,0,1306.26,489.45Z"/><path class="cls-14" d="M1281.78,518.22c2.85,7.45,15.29,8.34,22.75,6.64,23.08,34.8,62.09,63.88,99.22,79.86,21.71,9.32,78.21,21.66,102.62,16.84,5,10,16.24,15.61,22.23,11.66,8.15-5.38,5.37-13.59,3.92-21.48,7.45-5.84,16.83-9.84,22.88-49.49,2.17-14.23,1.6-54.55-9.58-65.49,3.34-4.48,9.25-17.76,4.26-23.12-6.31-6.77-19.16-6.13-26.35-5.86-6.31-12.44-18-21.78-30.6-30.25,9.22,13.63,14.79,23,16.94,40.67,14.9-.35,20.89.45,23.28,7.4,2.17,6.3-5.28,11.11-21.35,14.42,1.88,12.83,5.14,24.91,4.11,38.08-.93,12.1-6.84,39.26-27.07,48.4-30,13.64-69.31,2.94-91-9.33-20.42-11.54-41.07-21.72-59.47-36.3-9.12-7.26-31.8-29.9-32.34-51.49a80.69,80.69,0,0,1-27-28.21c2.42,11.79,5.58,25.26,8.47,37.38C1285.76,505.21,1278.42,509.44,1281.78,518.22Z"/><path class="cls-14" d="M1314,348c-2.1-2.13-5.13-3.84-8.17-3.63a1.22,1.22,0,0,0-1.14,1.28,1.32,1.32,0,0,0,.3.73c2.51,2.36,5.24,4.06,7.27,7,1,1.42,3,3.91,4.61,1.67S1315.57,349.57,1314,348Z"/><path class="cls-14" d="M1302.75,359a13,13,0,0,0-7.35,4.69c-1.21,1.6-3.63,5.23-2,7.26,1.21,1.54,2.87.46,3.63-.93,1.9-3.38,3.22-6.28,6.78-8.35a1.46,1.46,0,0,0-1.11-2.67Z"/><path class="cls-14" d="M1295.63,461.4c-1-2.81-3.06-4.91-4-7.76s-.48-5.84-1.21-8.67a.82.82,0,0,0-1-.57.84.84,0,0,0-.35.21c-3.84,4.84-.49,16.25,5.39,18.05a1,1,0,0,0,1.2-.74v0A1,1,0,0,0,1295.63,461.4Z"/><path class="cls-14" d="M1315.94,480.42c-1.21-2.82-3.41-5-4.54-8-1-2.7-1.11-5.62-2.06-8.31a.71.71,0,0,0-.91-.4.76.76,0,0,0-.3.23c-4,5.5-.17,16.56,5.93,19C1315.51,483.58,1316.42,481.62,1315.94,480.42Z"/><path class="cls-14" d="M1488.44,543a.91.91,0,0,0-1.29,0h0a.84.84,0,0,0-.25.6c-.32,3.27.6,6.25-.26,9.55-.73,2.79-2.78,5-3,7.88a1.46,1.46,0,0,0,1.47,1.44h.36C1491.8,560.46,1492.94,547.17,1488.44,543Z"/><path class="cls-14" d="M1474.64,578c-3.53-.38-7.05,0-10.5-1s-6.25-3.09-9.36-4.78a.75.75,0,0,0-1,.28.73.73,0,0,0-.08.56c2.25,7.91,15,12.61,21.78,7.77a1.51,1.51,0,0,0-.82-2.78Z"/><path class="cls-15" d="M1357.08,378.72c-14.22-6.05-35.09-15.73-49.18-6.32-25.23,16.86,9.61,55.66,27.83,65.42,18.8,10,73.37,31.58,81.81-3.85C1422.88,411.41,1364.44,381.85,1357.08,378.72Z"/><path class="cls-6" d="M1604.66,547a84.61,84.61,0,0,0-17.31-19.48,32.05,32.05,0,0,0-21.29-7.09l-.34.4c-3-.77-6.43-.26-10.17,1.9L1361.32,634.87c-10.65,6.14-19.37,22.8-19.37,37V829a23.16,23.16,0,0,0,2.19,10.36v.09s2.95,10.38,14.67,17.17c18.79,10.89,27.6,8.39,27.6,8.39l2.27-37.13h0l167-96.39c10.66-6.15,19.36-22.8,19.36-37V571.29Z"/><path class="cls-8" d="M1392.73,862.69,1587,750.54c10.66-6.15,19.36-22.8,19.36-37V556.44c0-14.2-8.71-20.8-19.36-14.64L1392.77,653.94c-10.65,6.15-19.37,22.8-19.37,37V848.05C1373.36,862.24,1382.08,868.84,1392.73,862.69Z"/><path class="cls-7" d="M1395.54,844.49c-1-3.36-3.63-5.58-5.18-8.69a19.44,19.44,0,0,1-1.9-5.44c-.35-1.92-.1-3.82-.8-5.63a1.48,1.48,0,0,0-1.84-1h0a1.53,1.53,0,0,0-.81.63c-2.42,3.53-1,9.78.54,13.46,1.62,4,4.15,8,8.71,8.33a1.32,1.32,0,0,0,1.33-1.31v0A1.24,1.24,0,0,0,1395.54,844.49Z"/><path class="cls-7" d="M1416.21,836.67c-1.82-2.56-4.92-3.49-7.85-4.37a20,20,0,0,0-9.36-1,1,1,0,0,0-.71,1.23s0,0,0,.05a1,1,0,0,0,.45.58,80.9,80.9,0,0,0,7.92,3.06c2.66,1.09,5.1,2.92,8,3.1a1.76,1.76,0,0,0,1.74-1.78h0A1.89,1.89,0,0,0,1416.21,836.67Z"/><path class="cls-7" d="M1578.83,558a.89.89,0,0,0-.13,1.09c1.21,2,4,2.62,5.91,3.79,2.42,1.48,4.29,3.87,6.84,5.11a1.91,1.91,0,0,0,2.75-2.11C1593.46,561,1583.27,553.91,1578.83,558Z"/><path class="cls-7" d="M1597.89,580.69a1.21,1.21,0,1,0-2.42,0h0a28.15,28.15,0,0,1-3,7.89c-1.41,2.28-3.63,3.93-4.63,6.4-.38.92,0,2.5,1.32,2.31C1596.22,596.36,1599.17,586.65,1597.89,580.69Z"/><path class="cls-7" d="M1587.42,701.89a1.15,1.15,0,0,0-1.46-.69,1.16,1.16,0,0,0-.75,1,113.08,113.08,0,0,1-1,12.87c-.56,3.28-1.71,6.31-1.21,9.68a1.78,1.78,0,0,0,2.2,1.23h0a1.74,1.74,0,0,0,.75-.44C1590.4,719.79,1589.34,708.44,1587.42,701.89Z"/><path class="cls-7" d="M1574.05,732.62c-1.62-2.71-3.21-5.47-5-8-.7-1-2.49-.43-2.06.87.94,2.85,2.15,5.62,3.31,8.38,1.08,2.54,1.83,5.44,3.92,7.32,1.07.94,3.27.4,3.11-1.29C1577,737.07,1575.45,735,1574.05,732.62Z"/><path class="cls-7" d="M1559.52,750c-2.3-.66-4.76-.39-7.1-1.06-2.55-.72-4.28-2.42-6.61-3.47-.65-.29-1.73,0-1.63.93.73,6,10.89,10.75,15.74,7a1.89,1.89,0,0,0,.58-2.59A1.86,1.86,0,0,0,1559.52,750Z"/><path class="cls-7" d="M837.57,343.26c-5.55,2.58-13.31,11.15-11,17.85a1.69,1.69,0,0,0,2.12,1.11h0a1.73,1.73,0,0,0,.93-.71c1.71-2.54,1.93-5.87,3.38-8.59a30.81,30.81,0,0,1,6.13-7.65C840.23,344.2,838.82,342.67,837.57,343.26Z"/><path class="cls-7" d="M842,375.1c-3.22-1.05-6.79-.47-10.11-1.39s-5.93-2.87-9.07-4.15a1.21,1.21,0,0,0-1.41,1v0a1.14,1.14,0,0,0,0,.45c2.6,6.5,14.9,11.95,21.06,7.64a2,2,0,0,0-.46-3.55Z"/><path class="cls-7" d="M857.62,325a76.27,76.27,0,0,0-4.54,10.31c-1.51,3.82-3.79,7.74-4.47,11.81a2.11,2.11,0,0,0,3.84,1.62c2.35-3.29,3.33-7.66,4.45-11.51a45.44,45.44,0,0,0,2.21-11.83.82.82,0,0,0-.86-.77A.78.78,0,0,0,857.62,325Z"/><path class="cls-7" d="M832.06,430.27c-.76-2.65-.75-5.73-2.53-7.91a.82.82,0,0,0-1.16,0h0a.44.44,0,0,0-.12.15c-1.89,2.42-1.1,6.12-.56,8.94.59,3.1,1.54,7.26,4.1,9.31,1.21.94,3.63.5,3.4-1.42C834.9,436.17,833,433.33,832.06,430.27Z"/><path class="cls-8" d="M798.71,512.41c-1.4-2.42-4-3.89-5.48-6.32a58.2,58.2,0,0,1-3.34-7.48,1,1,0,0,0-1.37-.36h0a1.17,1.17,0,0,0-.35.35c-2.83,5.77,1.8,16.65,8.87,16.73a2,2,0,0,0,1.94-2A2,2,0,0,0,798.71,512.41Z"/><path class="cls-8" d="M1363.3,846.75c-1.21-3-4-4.91-5.8-7.6-1.9-2.89-2.73-6.17-4.32-9.19-.9-1.71-3.25-.75-3.38.92-.31,3.74,1.52,7.66,3.43,10.77,1.77,2.86,4.33,6.66,7.87,7.26C1362.26,849.17,1363.88,848.12,1363.3,846.75Z"/><path class="cls-8" d="M1580.37,489.85c-2-3.63-4.17-7.39-7.71-9.6a.79.79,0,0,0-1.11.22h0a.78.78,0,0,0-.1.68c1,3.63,3.18,6.87,4.75,10.3s2.42,7.38,5.1,10.13a1.35,1.35,0,0,0,1.88,0,1.29,1.29,0,0,0,.33-.58C1584.25,496.94,1582.27,493.34,1580.37,489.85Z"/><path class="cls-8" d="M1592.72,479.78c-.41-.93-1.79-.38-1.81.5-.1,3.94.47,7.88.31,11.82-.17,4.22-1.72,7.81-2.69,11.84a1.72,1.72,0,0,0,1.26,2.09,1.7,1.7,0,0,0,1.61-.42C1598.46,499.89,1595.83,486.93,1592.72,479.78Z"/><path class="cls-16" d="M848.6,541.73c-1.52-2.42-3.8-4.26-5.33-6.73a78.31,78.31,0,0,1-3.63-7.7c-.46-1-1.78-.38-1.86.51-.46,5.46,3.38,13.8,8.47,16.26C847.71,544.79,849.58,543.29,848.6,541.73Z"/><path class="cls-16" d="M852.15,534.82c-.62-.11-1.21.65-.68,1.15,2.42,2,5,3.63,7.26,5.77s4,4.84,6.38,6.88a1,1,0,0,0,1.41,0l0,0a1,1,0,0,0,.25-1C865.34,541.59,858.17,535.83,852.15,534.82Z"/><path class="cls-16" d="M1256.13,765.85c-3.14.15-6.05,1.27-9.29,1.29-3.52,0-6.65-1.08-10-1.64a1,1,0,0,0-1.21.73v0a1,1,0,0,0,.24.91c4.92,4.92,16,6,21.47,1.47a1.63,1.63,0,0,0,0-2.31h0A1.59,1.59,0,0,0,1256.13,765.85Z"/><path class="cls-16" d="M1265.2,760.84c-1.11-1.21-3.63.07-2.94,1.72a62.28,62.28,0,0,1,3.31,8.74c.78,3,.55,6.36,1.61,9.25a2,2,0,0,0,3.85,0C1273.27,774.63,1269.19,765.3,1265.2,760.84Z"/><path class="cls-16" d="M1326.32,779.4c-2.3-1.67-5.34-2.2-8-3.18S1313,773.56,1310,773a.67.67,0,0,0-.79.49.7.7,0,0,0,.06.45c2.33,5.18,11.06,9.82,16.62,8.32a1.57,1.57,0,0,0,.36-2.81Z"/><path class="cls-16" d="M1325.34,795.12c-2.82-1.54-6.16.2-9.16.6-4,.54-8.06,0-12.1.33a.87.87,0,0,0-.82.9.89.89,0,0,0,.38.67c3.55,2.55,7.89,3.1,12.16,3,3.28-.1,8.48-.18,10-3.63A1.39,1.39,0,0,0,1325.34,795.12Z"/><path class="cls-16" d="M1326.22,815c-1.62-4-5.54-7.26-9-9.68-.9-.62-1.75.55-1.37,1.37,1.68,3.63,4.37,8.17,7.83,10.3C1324.86,817.71,1326.83,816.39,1326.22,815Z"/><path class="cls-14" d="M854.73,274.66c7.72-6.69,15.79-21.78,21.39-29.8.07-13.63-21.39-47.26-35.9-62.52,3.31-10-1.65-26.49-9.14-36.36s-21.78-17.23-21.78-17.23L782.92,146S818.13,260.22,854.73,274.66Z"/><path class="cls-17" d="M832.68,593.85a99,99,0,0,1-3.09,14.64c-2.24,7.49.51,17.92.51,17.92s1.62,4.6,8.56,6a26.88,26.88,0,0,0,11.67-.27A86.56,86.56,0,0,0,865,645.64c8.3,5.88,26.62,10.44,31.59,9.68,8-1.21,12.33-7.49,11.73-11.53s-10.09-15.24-17.86-20.08c-5.05-3.15-16.52-13.79-20-17.5a96.88,96.88,0,0,1-9.91-12.9Z"/><path class="cls-17" d="M821.69,274.66S845,334,848.57,358.06s10.89,60.4,15.19,90.67,4.29,59.76,2.26,89.32c-.8,11.74-5.09,42.35-2.82,59.05-2.56,10.83-27.94,12.19-31-.4-1.87-7.8-21.35-77-23.33-98.69S812,460.66,812,460.66s-31.7-67.86-42.82-94.56-3.55-59.81-3.55-59.81Z"/><path class="cls-17" d="M713.22,654.71s-4.3,15.94-3.77,25.17,2.75,11.43,5.53,14.52a5.53,5.53,0,0,0,6,1.77s1.29,19,10.31,26.72,25.42,8.47,32.88,5.63,2.58-16.41-4.78-29.77S742.72,671,740.38,659C722.4,656.48,713.22,654.71,713.22,654.71Z"/><path class="cls-18" d="M738.32,299.26s-11.4,16.12-20.49,44.47c-6.38,19.93-5.35,67.77-5.35,67.77s-1.63,47.07,1.4,63.35,2.77,19.57,2.77,19.57a263.1,263.1,0,0,0-11,85.17c2,46.15,5.78,79.25,5.78,79.25s2.58,8.72,14.42,9.93c10.8,1.11,18.68-6.39,18.68-6.39s19.79-97.7,27.13-120,10-47.95,10-47.95l15-109.69s29.66-19.36,14.52-68.18C801.57,286,738.32,299.26,738.32,299.26Z"/><path class="cls-15" d="M761.72,147.66c6.15-1.93,30.25-9.68,32.67-8.54,17.26,8.55,36.77,42.06,39.29,64.76,1,9.39-.76,52.11-6.35,67.14,8.14,3.63,6.75,11.07,3.28,15.63,3.31,4.53,5.6,5.36,7.37,9.74,3.39,8.47-1.14,12.44-7,18.78-8.58,9.27-23.55,16.78-48.11,20.18-28.44,3.93-50.27-7.91-59.09-19.68-2.1-2.77-1.72-10.06,4.5-14-4.74-14.4-8.27-41.87-12.9-59.17-7-26-13.84-56.94,1.21-76.58C723.19,157.29,748.33,152.07,761.72,147.66Z"/><path class="cls-19" d="M794.74,144.76a160.62,160.62,0,0,1,16.17,23.78,84.84,84.84,0,0,1,8.29,26.3l-41.69,22.67s-14.73-25.41-25.33-38.06c-11.57-13.76-19.9-22.65-19.9-22.65L725,159.87s15.61,20.92,22.21,33.15c3.38,6.24,15,24.5,17.85,39.63,1.09,5.84-2.42,38.83-4.64,56-3.89,30.59-37.71,24.28-37.71,24.28s-8.57,16.18-15.14,50c-4.84,24.69-.56,50.93,0,88.47.42,28.65-4.17,63.3-4.17,63.3s57.08,14.67,86.92,9.58A191.26,191.26,0,0,0,862.41,496c14.12-9.53,19.17-20.65,19.17-20.65S867.13,420.8,854,368.53C845.1,333,843.26,313,838.66,288.66c-2.91-15.41-6.49-48.27-6.79-69.58s-11.19-54.32-18.25-65.21c-9.68-15-18.15-17.68-18.15-17.68Z"/><path class="cls-20" d="M802.23,319.16c-2.42.13-13.84,9.81-26.32,11.6-13.83,2-20.27-1.32-25.41-3.63,3.26-.12,12.1,1.38,24.8-2S802.23,319.16,802.23,319.16Z"/><path class="cls-20" d="M823.24,286s-7.55,10.46-17.91,16.66a70.37,70.37,0,0,1-20.57,8.16s10.72-8.47,17.44-13.72S823.24,286,823.24,286Z"/><path class="cls-20" d="M771.68,404.31s10.89,29,20.57,54.55c5.47,14.34,14.08,34,14.08,34s-11.62-6.4-21.57-28.28C774,440.72,771.68,404.31,771.68,404.31Z"/><path class="cls-21" d="M758.83,116.55s23,17.45,30.55,29.15c12.85,19.84,14.63,25.66,3.11,36.61-29.28,4.18-46.09-14-51.11-28.62C748.69,149.66,758.83,116.55,758.83,116.55Z"/><path class="cls-14" d="M747.2,146.19s3.31,15.21,13.31,22.7c12,9,34.55,10.5,34.55,16.66-6.55,0-7.83.39-7.83,5.11,0,8.84-2.6,10.89-2.6,10.89s-18.45-5.77-30.17-10.66c-14.71-6.13-19.22-34.14-19.22-34.14S738.45,145.36,747.2,146.19Z"/><path class="cls-14" d="M795,149s9.53,10.34,13.6,15.1,1.71,13.54,3.74,17.49a53.12,53.12,0,0,1,3,6.61s-8.47-1.71-10.16-6.61-10.18,4-10.18,4l-6-4.94s9.08-5.79,6-12-8.16-14.36-8.16-14.36Z"/><path class="cls-22" d="M815.23,105.78c-.43-10-2.59-22.64-10.31-29.8s-20.73-7.78-30.63-7.08c-15.36,1.06-26.15,18-23.44,37.68,2.51,18.15,14.62,46.07,34.84,49.86,10.3,1.93,18.27-5.79,23-15.74C814.26,129,815.57,114.06,815.23,105.78Z"/><path class="cls-18" d="M738.73,95.86c-.33-13.89,5.82-31.46,20.5-37,8-3,26.48-5.7,34.83.87a9.9,9.9,0,0,1,2.42-2.28c4.74-3.12,10.89-1.34,14.69,2.42A21.64,21.64,0,0,1,816.38,70c8-4.54,18.32,6.31,14.74,16.45-5.3,15-26.13,16.67-38.48,10.38-1.81,12.29-14,22.7-26.63,23-2.72,6.53-7.69,14.86-15.53,16.31C748.31,123.74,738.73,109.63,738.73,95.86Z"/><path class="cls-22" d="M766.33,120.16s-3.72-8-10-3.63,5,17.69,5,17.69Z"/><path class="cls-20" d="M823.71,290.11a48.27,48.27,0,0,1-23.29,15.73,68.92,68.92,0,0,1-27,2.76s9.77-3.25,17.52-5.76S817.45,290.38,823.71,290.11Z"/><path class="cls-20" d="M808.67,278.86s-6.75,12.1-20.57,16.53-22.53,2.36-22.53,2.36,15.27-4.84,21.28-7.62S808.67,278.86,808.67,278.86Z"/><path class="cls-22" d="M722.46,310.79s16.27,12.77,20.85,19.26,2.2,16.77,1.39,29-12.5,9.12-22,7.92-11.69-5.76-6.12-7.92,12.91,0,12.91,0-15-8.38-15.92-23.65A33.37,33.37,0,0,1,722.46,310.79Z"/><path class="cls-14" d="M643.71,275.51c5.75-12.95,8.29-16.94,17.81-32.54s12-21.06,23.82-36.23c4.12-26.85,16.94-43.1,34.18-43.9,10.49,8,18.27,66.12,8,83.93-8.23,14.28-12.42,18.26-20.86,23.14-2.18,5.6-7.42,10.16-10.72,14.87,6,4.28,13,9.29,18.45,13.37a90.73,90.73,0,0,1,19.76,20.93,62.57,62.57,0,0,1-9,12.27c-5.44,5.67-10.34,10.42-10.34,10.42s-38.61-11.22-50-20.48c-5.73-4.66-12.33-12.32-15-20.3C647.84,294.85,640.71,282.31,643.71,275.51Z"/><path class="cls-23" d="M1081.52,730.23c-2.08-1.82-3.91-3.42-5.35-4.73l-14.52-13.1c-39.49-35.66-76.78-69.35-135-126.13-31.46-30.65-61.22-73.13-66.46-175.46-2.83-55,14.28-103.75,32-114.83,5.1-3.18,8.47-2,10.66-.78,24.8,13.75,68.28,47.73,68.72,48.07a6.22,6.22,0,0,0,7.66-9.79c-1.82-1.41-44.69-34.91-70.36-49.15-7.32-4.07-15.58-3.63-23.24,1.1-24.11,15-40.75,70.38-37.89,126,5.47,106.6,37,151.26,70.18,183.7,58.39,57,95.78,90.76,135.35,126.46l14.52,13.09c1.49,1.35,3.36,3,5.51,4.84,16.81,14.73,56.2,49.21,53.34,72.34-.75,6.12-6.32,11.19-11.76,16.94a45,45,0,0,1,.14,11.88,16.48,16.48,0,0,0,3.52-1.34c12.26-6.29,19.15-15,20.48-25.86C1142.67,783.83,1101.37,747.62,1081.52,730.23Z"/><polygon class="cls-24" points="1060.85 468.07 1141.44 506.37 1044.9 556.94 1060.85 468.07"/><polygon class="cls-25" points="1065.4 465.65 1145.99 503.95 1049.45 554.52 1065.4 465.65"/><polygon class="cls-24" points="1145.99 503.95 1148.67 510.08 1049.45 562.25 1046.93 563.36 1044.9 556.94 1145.99 503.95"/><path class="cls-5" d="M968.36,319.35s16.32,18.36,25.42,30.46c5.77,7.68,22.42,31.23,22.42,31.23l-16.31,11.77S983.47,368.75,976.63,360c-5-6.29-23.39-27.5-23.39-27.5S956.66,319.35,968.36,319.35Z"/><path class="cls-26" d="M999.62,392.47c1.28,1.9,6,.92,10.66-2.19s7.26-7.16,6.05-9.06-6.05-.93-10.66,2.18S998.34,390.55,999.62,392.47Z"/><path class="cls-25" d="M1003,391.05c.82,1.21,3.88.58,6.82-1.41s4.67-4.58,3.85-5.81-3.87-.58-6.82,1.41S1002.17,389.82,1003,391.05Z"/><polygon class="cls-25" points="1082.52 507.6 1093.17 500.29 1013.63 383.71 1002.99 391.02 1082.52 507.6"/><polygon class="cls-27" points="1049.45 554.52 1051.67 561.09 1046.93 563.36 1044.9 556.94 1049.45 554.52"/><path class="cls-14" d="M860.49,234.12a118.84,118.84,0,0,1,34.81,16.56c16.23,11.67,35.41,29.44,35.41,29.44l-18.32,24.51s-32.3-9.35-48.54-18.69-20-22.07-20-22.07Z"/><path class="cls-22" d="M926,275.87s-9-1.21-16,7.42c-6.18,7.63-4.84,18.36,1.08,20.69,2.7,1.07,14.33,4.18,16.78,6.79s14.69,20.77,17.42,17.43c3.15-3.89-1.38-7.64-3-11.71-1-2.49.46-7.05,2.42-8.78,5.7,4.1,17.63,13.31,17.63,13.31s22.08-3.38,8.19-22.68c-5.32-7.38-19.64-8.63-27.26-11.2S926,275.87,926,275.87Z"/><path class="cls-28" d="M954.61,837.51l12.34-7h0a5.83,5.83,0,0,1,5.93.47c5.08,2.94,9.21,10.82,9.21,17.6,0,3.3-1,5.72-2.58,7h0a5.32,5.32,0,0,1-.87.5L966.54,863Z"/><path class="cls-18" d="M951.19,845.07c0,6.79,4.13,14.67,9.21,17.61s9.22-.18,9.22-7S965.5,841,960.4,838.1,951.19,838.28,951.19,845.07Z"/><path class="cls-29" d="M954.61,847.75c0,3.72,2.26,8,5,9.68s5-.1,5-3.82-2.25-8-5-9.68S954.61,844,954.61,847.75Z"/><path class="cls-28" d="M1022.79,798.93l12.33-7h0a5.86,5.86,0,0,1,5.92.47c5.1,2.94,9.22,10.82,9.22,17.61,0,3.3-1,5.71-2.57,7h0a4.38,4.38,0,0,1-.86.5l-12.1,6.93Z"/><ellipse class="cls-18" cx="1028.59" cy="811.84" rx="8" ry="14.15" transform="translate(-235.74 467.54) rotate(-23.05)"/><path class="cls-29" d="M1022.79,809.17c0,3.71,2.25,8,5,9.68s5-.1,5-3.83-2.27-8-5-9.68S1022.79,805.45,1022.79,809.17Z"/><path class="cls-28" d="M842.85,763c0-16.82-10.23-36.36-22.84-43.65a21.17,21.17,0,0,0-10-2.78,28,28,0,0,0-14.63,4.1c-7.18,4.44-8.07,15.43-8.07,15.43L812.89,788a19.47,19.47,0,0,0,16.76-.6,26.19,26.19,0,0,0,9.92-10.4,35.27,35.27,0,0,0,1.89-4.38A30.74,30.74,0,0,0,842.85,763Z"/><path class="cls-18" d="M786.74,742.69c0,16.82,10.23,36.3,22.84,43.63s22.84-.45,22.84-17.25-10.22-36.31-22.84-43.65S786.74,725.81,786.74,742.69Z"/><path class="cls-29" d="M789.47,746c0,12.5,7.59,27,16.94,32.42s16.94-.32,16.94-12.82-7.6-27-16.94-32.42S789.47,733.53,789.47,746Z"/><path class="cls-30" d="M811.09,717.52a23.13,23.13,0,0,0-9.68-3.25v-30L894,697.34a64.31,64.31,0,0,1,25.06,3.55l138.29,19.58v67.76h0c.75,7.59-4.43,15.8-15.3,22.06L997.2,836.2c-18.61,10.76-47,11.93-63.15,2.63L832.85,781a37.65,37.65,0,0,0,1.84-12.1C834.64,748.39,826.49,726.41,811.09,717.52Z"/><path class="cls-14" d="M805.08,717.27a24.51,24.51,0,0,0-10.23-3.4V682.34l97.32,13.78a67.34,67.34,0,0,1,26.33,3.73l145.32,20.57v57.19h0c.78,8-4.65,16.6-16.07,23.18L1000.55,828c-19.55,11.29-49.42,12.54-66.36,2.75l-97.12-56.08s-2-1-2.78-1.47v-2.64C833.28,749.66,820.59,726.27,805.08,717.27Z"/><path class="cls-5" d="M794.89,680.4h0V669.8s1.78.09,4.09.26a38.58,38.58,0,0,1,12.1-10.34l47.19-27.22c19.56-11.29,49.42-12.54,66.36-2.75l128,73.9a25.55,25.55,0,0,1,8.21,7.16l3.17-.74v8.79c.74,7.95-4.71,16.53-16.08,23.1l-47.2,27.23c-19.55,11.29-49.42,12.52-66.36,2.74l-128-73.9C798.17,693.34,794.49,687,794.89,680.4Z"/><path class="cls-29" d="M934.23,761.21l-128-73.9c-16.94-9.78-14.8-27,4.75-38.31l47.2-27.23c19.55-11.29,49.42-12.52,66.36-2.74l128,73.9c16.94,9.77,14.79,27-4.77,38.31l-47.19,27.23C981,769.76,951.17,771,934.23,761.21Z"/><path class="cls-30" d="M1001.12,680.46l-88.27-51c-11.68-6.74-32.28-5.89-45.77,1.9l-32.51,18.77c-6.19,3.63-9.69,8-10.74,12.41-1.58-6,2-12.65,10.74-17.66l32.51-18.78c13.49-7.78,34.09-8.64,45.77-1.9l88.27,51c6.33,3.63,8.67,8.82,7.44,14C1007.69,685.93,1005.27,682.86,1001.12,680.46Z"/><path class="cls-14" d="M997.83,701.62,965.32,720.4c-13.5,7.78-34.09,8.64-45.77,1.9l-88.34-51c-4.16-2.42-6.57-5.47-7.44-8.76,1-4.41,4.55-8.84,10.73-12.41l32.58-18.8c13.49-7.79,34.09-8.64,45.77-1.9l88.27,51c4.15,2.42,6.57,5.47,7.44,8.76C1007.53,693.63,1004,698.06,997.83,701.62Z"/><path class="cls-31" d="M959.45,745.29l-93.08-53.74c-12.32-7.12-10.76-19.65,3.47-27.83l34.28-19.8c14.23-8.22,35.94-9.11,48.26-2l93.08,53.74c12.32,7.12,10.76,19.65-3.46,27.83l-34.3,19.8C993.49,751.5,971.76,752.37,959.45,745.29Z"/><path class="cls-32" d="M961.07,734.05l-82.74-47.77c-10.89-6.32-9.56-17.47,3.08-24.77l30.48-17.59c12.65-7.26,32-8.1,42.9-1.78l82.72,47.76c10.89,6.33,9.57,17.48-3.07,24.77L1004,732.27C991.32,739.56,972,740.36,961.07,734.05Z"/><path class="cls-31" d="M1031.94,694.16s-18.15,1.76-32.09,11.15S969,730.4,969,730.4l-5-2.86s18.15-18.95,32.15-26.63,30.86-9.76,30.86-9.76Z"/><path class="cls-31" d="M1012.21,682.86s-18.16,1.75-32.1,11.14-30.83,25.1-30.83,25.1l-5-2.87s18.15-19,32.15-26.62,30.86-9.76,30.86-9.76Z"/><path class="cls-31" d="M992.38,671.15s-18.15,1.75-32.09,11.14-30.81,25.09-30.81,25.09l-5-2.86s18.15-19,32.15-26.62,30.86-9.77,30.86-9.77Z"/><path class="cls-31" d="M972.6,659.84S954.45,661.6,940.51,671s-30.81,25.08-30.81,25.08l-5-2.85s18.15-19,32.15-26.62,30.86-9.77,30.86-9.77Z"/><path class="cls-31" d="M952.83,648.57s-18.15,1.75-32.09,11.14-30.83,25.09-30.83,25.09l-5-2.86s18.15-19,32.17-26.62S948,645.55,948,645.55Z"/><polygon class="cls-5" points="881.66 764.23 842.43 741.57 842.43 730.66 881.66 753.31 881.66 764.23"/><polygon class="cls-5" points="881.66 775.55 842.43 752.9 842.43 747.44 881.66 770.09 881.66 775.55"/><path class="cls-18" d="M870.18,638.8c-2.24,0-4.06,1-4.06,2.15s1.82,2.16,4.06,2.16,4.05-1,4.05-2.16S872.42,638.8,870.18,638.8Z"/><path class="cls-18" d="M882.07,631.84c-2.24,0-4.06,1-4.06,2.16s1.82,2.16,4.06,2.16,4.06-1,4.06-2.16S884.31,631.84,882.07,631.84Z"/><path class="cls-18" d="M835.1,658.25c-2.24,0-4.06,1-4.06,2.15s1.82,2.17,4.06,2.17,4.06-1,4.06-2.17S837.34,658.25,835.1,658.25Z"/><path class="cls-18" d="M847.05,651.36c-2.24,0-4,1-4,2.15s1.81,2.16,4,2.16,4.06-1,4.06-2.16S849.29,651.36,847.05,651.36Z"/><path class="cls-18" d="M859,644.4c-2.24,0-4.06,1-4.06,2.16s1.82,2.15,4.06,2.15,4-1,4-2.15S861.19,644.4,859,644.4Z"/><path class="cls-18" d="M894,624.94c-2.25,0-4.07,1-4.07,2.17s1.82,2.15,4.07,2.15,4-1,4-2.15S896.27,624.94,894,624.94Z"/><polygon class="cls-18" points="910.8 632.91 881.12 650.04 874.85 646.42 904.53 629.29 910.8 632.91"/><polygon class="cls-18" points="875.5 653.66 845.82 670.79 839.55 667.19 869.23 650.04 875.5 653.66"/><path class="cls-18" d="M1022.92,765.86h0c-1.92-1.54-4.59-1.66-7.56.06-5.8,3.36-10.52,12.35-10.52,20.1,0,4.19,1.4,7.09,3.63,8.4h0l8.2,5,13.69-29.16Z"/><path class="cls-33" d="M1034,778.81c0,7.74-4.72,16.74-10.53,20.1S1013,798.7,1013,791s4.71-16.75,10.52-20.1S1034,771.06,1034,778.81Z"/><path class="cls-23" d="M1090.28,854.89h-.63c-9.27-.2-17.8-4.85-25.41-13.81a191.7,191.7,0,0,1-12-16.46c-7.91-11.71-16.11-23.83-30.51-34.92a6.21,6.21,0,1,1,7.59-9.84c16,12.31,25.15,25.86,33.22,37.8a181.51,181.51,0,0,0,11.18,15.41c5.24,6.21,10.51,9.28,16.13,9.39h.33c11.26,0,23.37-11.66,32.67-21.78a6.21,6.21,0,1,1,9.16,8.39h0C1120.41,841.84,1106.28,854.89,1090.28,854.89Z"/><path class="cls-5" d="M381.67,852.1v28.39c0,3.46,5.27,6.28,11.79,6.28s11.8-2.82,11.8-6.28V852.1Z"/><path class="cls-5" d="M269.37,786.49v28.39c0,3.46,5.28,6.27,11.8,6.27s11.8-2.81,11.8-6.27V786.49Z"/><path class="cls-5" d="M511.57,777.68v28.39c0,3.46,5.29,6.27,11.8,6.27s11.8-2.81,11.8-6.27V777.68Z"/><polygon class="cls-34" points="265.21 622.86 393.46 696.91 541.55 611.4 413.3 537.36 265.21 622.86"/><polygon class="cls-35" points="265.21 797.58 393.46 871.62 541.55 786.12 413.3 712.07 265.21 797.58"/><polygon class="cls-36" points="541.55 611.4 541.55 786.12 393.46 871.62 393.46 696.91 541.55 611.4"/><polygon class="cls-32" points="407.73 700.26 529.8 629.78 529.8 667.96 407.73 738.44 407.73 700.26"/><polygon class="cls-32" points="407.73 748.52 529.8 678.03 529.8 781.63 407.73 852.1 407.73 748.52"/><polygon class="cls-37" points="265.21 622.86 265.21 797.58 393.46 871.62 393.46 696.91 265.21 622.86"/><path class="cls-38" d="M446,690.47a3.44,3.44,0,0,1,1.45-2.78.89.89,0,0,1,.92,0h.08L456,692.2c2.71,1.56,7.09,1.79,9.37.49l30.19-17.41h0c.56-.31.88-.69.88-1s-.36-1.07-1.72-1.86L486.87,668h0a1.29,1.29,0,0,1-.48-1.21,3.47,3.47,0,0,1,1.45-2.77.85.85,0,0,1,.94,0h0l8.07,4.66c2.51,1.44,3.94,3.52,3.94,5.7a5.64,5.64,0,0,1-3.1,4.84l-30.13,17.4a12.52,12.52,0,0,1-6.15,1.44,15.74,15.74,0,0,1-7.65-1.92l-7.26-4.37h0A1.22,1.22,0,0,1,446,690.47Z"/><path class="cls-38" d="M446,738.68a3.5,3.5,0,0,1,1.45-2.77.9.9,0,0,1,.92-.07h.08l7.51,4.51c2.71,1.56,7.09,1.79,9.37.47l30.19-17.31h0c.56-.32.88-.68.88-1s-.36-1.09-1.72-1.87l-7.79-4.5h0a1.31,1.31,0,0,1-.48-1.21,3.53,3.53,0,0,1,1.45-2.78.93.93,0,0,1,.94,0h0l8.07,4.67c2.51,1.44,3.94,3.51,3.94,5.7a5.63,5.63,0,0,1-3.1,4.84l-30.13,17.39a12.53,12.53,0,0,1-6.15,1.45,15.61,15.61,0,0,1-7.65-1.93l-7.26-4.37h0A1.22,1.22,0,0,1,446,738.68Z"/><path class="cls-39" d="M280,797.65a27.62,27.62,0,0,1-2.8-6.63c-.48-2.08-.26-4.27-.92-6.3a.7.7,0,0,0-.91-.39h0a.65.65,0,0,0-.3.22c-2.57,4.24,0,11.27,2.75,14.82C278.78,800.69,280.7,799,280,797.65Z"/><path class="cls-39" d="M292.36,796.45c-1.91-1.84-4.49-3.63-7.26-3.78a.84.84,0,0,0-.8.85.85.85,0,0,0,.23.55c1.62,1.94,4,3.31,5.73,5.14,1.44,1.5,2.34,3.87,4.49,4.34a.91.91,0,0,0,1.1-.63C296.65,800.41,294,798.05,292.36,796.45Z"/><path class="cls-39" d="M298.09,653.26c-2.32.28-3.79,2-5.78,3.1-2.28,1.32-4.84,2.12-7.08,3.63-.52.35-.56,1.41.21,1.52,4.22.6,12.52-2.11,13.89-6.56a1.31,1.31,0,0,0-.85-1.63h0A1.21,1.21,0,0,0,298.09,653.26Z"/><path class="cls-39" d="M299.89,660.9a.68.68,0,0,0-.84.48h0a.7.7,0,0,0,.06.51c.81,1.59,2.11,2.83,3,4.37a40.49,40.49,0,0,1,2.29,5.53c.68,1.73,3.85,1.74,3.63-.48C307.51,667.2,304.23,661.78,299.89,660.9Z"/><path class="cls-39" d="M279.63,649.39c.45-1.36-1.5-2.07-2.22-.95a24.35,24.35,0,0,0-3.47,18c.51,2.2,4.13,1.77,4-.54A41.2,41.2,0,0,1,279.63,649.39Z"/><path class="cls-39" d="M375.7,821.45a45.46,45.46,0,0,1-6.46,6.55c-2.31,1.91-4.93,3.41-6.87,5.73a.33.33,0,0,0,0,.47h0a.3.3,0,0,0,.2.08c6.25.12,12.1-5.6,15.92-10C380.24,822.31,377.3,819.45,375.7,821.45Z"/><path class="cls-39" d="M374.21,836a.79.79,0,0,0-.94.56.86.86,0,0,0,0,.39c.71,2.26,2.29,4.16,3.39,6.27,1,1.9,1.33,3.69,3.4,4.52a1.12,1.12,0,0,0,1.28-.52C383.12,843.43,377.66,837.21,374.21,836Z"/><path class="cls-8" d="M506.39,582a257.62,257.62,0,0,0-21.65-15.16c-9.2-5.41-25.92-3.23-25.92-3.23l19.44,11.22c4.84,2.82-1.64,10-7.58,8.47s-12.44-5.88-14.34,0c-1.1,3.41,4.84,4.43,14.61,8.76,8,3.56,26.79,11.3,26.79,11.3Z"/><path class="cls-14" d="M602.19,576.61s19.47-24.82,35.7-21.61,44.69,20.57,44.69,57.21c0,16.17-32.83,3.86-46.6,10.65s-52.47,23.56-71.4,25.19-76.52-44.71-76.52-44.71-3.39-2.79,3.78-15.36,11.37-14.06,11.37-14.06,24,9.19,32,15.15,25.63,14.27,25.63,14.27,13.8-14.82,22.49-20.23A50.43,50.43,0,0,1,602.19,576.61Z"/><path class="cls-17" d="M614.74,837.29s25.78,7.85,32.32,16.6,9.68,15.73,11,26.48-3.24,17.52-14.79,17c-10.13-.44-15.22-5.7-16.94-11.47,0,0-28.46-3-43-13.14S590.77,834.65,614.74,837.29Z"/><path class="cls-17" d="M538.55,702.93c22.83-5,51.05,3.48,75,14.66a4.65,4.65,0,0,1,1.75.47c28.78,13.83,87,28.12,94.48,34.45,11.64,28.38-4.08,70.19-33.89,66.41a54.23,54.23,0,0,1-48.28,4.44c.73,1,11.41,16.23,19.36,30.53-8.28,4.19-11.39,7.87-24.2,18.88-13.87-5.61-34.87-23.87-46.71-32.83s-52.3-52.83-52.3-89.8C508.87,736.19,512.19,708.8,538.55,702.93Z"/><path class="cls-18" d="M533.88,863.27c1.31-16.2,11.15-38.87,18-49.13,18.09-27,25-44.63,44.44-57,23.37-15,38.2,11.87,62.76,15.33.24-.13,25.67-10.15,27.44-11.09-.43.76,4.93,37.86-4,57.63-8.16,18.15-27.77,20.85-50.51,21.48-9.22,15.84-23.61,27.12-27.7,29.12,7.1,5.59,15.09,9.68,27.07,20.93,17.3,16.23,38.62,34.46,59.5,48.52a44.56,44.56,0,0,0-12.46,10.49A30.61,30.61,0,0,0,672,964.63c-39-8.93-69.94-29.35-102-52-11.53-8.13-17.8-16.47-26-26.62C528.17,883.54,528.93,867.91,533.88,863.27Z"/><path class="cls-22" d="M576,584.55l22.92,18.79c12.36-4.39,21.78-19,27.07-33-4.53-3.63-20.57-12.78-21.68-17.63,4.76-13.31-2.42-24.56-14.82-36.54-13-12.54-36.3-12.41-50.4-1.34-2,.8-12.52,8.34-11.12,21.06,1.58,14.18,9.68,48.25,21.72,54.45C558.07,594.6,567.89,587.61,576,584.55Z"/><path class="cls-17" d="M609,516a31.3,31.3,0,0,0-18.71-25.84c-13.08-6-36.42-6.83-47,5a9.81,9.81,0,0,0-.53-1.14c-3.26-4.18-8.61-3.53-12.43-.62a21.51,21.51,0,0,0-6.76,9.34,10.15,10.15,0,0,0-7,.12c-7.6,3.14-7.26,13.91-4.63,20.19,5.57,13,26.17,27.32,41.34,23.76-.75,7.6,3,11.71,9,16.69,9.5,7.78,23.17,8.19,33.94,2.85,12.19-6,23.27-20,22.4-34.21A20.23,20.23,0,0,0,609,516Z"/><path class="cls-22" d="M548,550.17s2.75-8.89,11.13-3.32S557.47,569,557.47,569Z"/><path class="cls-13" d="M627.88,564.21c-14,6-13,8.62-42.28,31.1S554.87,631,557.53,644.92s4.67,21.07,16,48.23c14.52,34.57,33,53.35,33,53.35s-10,3.06-14.45,5.87-5.61,18.15-.58,22.9c14.38,13.52,75.51,37,121.51-20.47-2.22-38.66-14.52-97.84-24.42-128.34C677.46,592,640.21,558.87,627.88,564.21Z"/><path class="cls-19" d="M541,809.75c-18.31,15.11-25.7,44.24-17.77,63,7.26,17.22,23.86,24.64,23.86,24.64s6.7-46.77,19.58-70.53,30.53-25.49,42.27-39.77,5.84-28.81,5.84-28.81l-32-42.72s-34,43.83-54.45,54.36C530.75,787.11,541.35,801.74,541,809.75Z"/><path class="cls-20" d="M541,809.75s15.61-14.35,25.67-23.26c12-10.61,17.69-18.85,25.51-34.1,2.22-18-9.37-33-9.37-33s-13.71-1.91-14.64,14.87c-1.5,27-38.83,41.58-38.83,41.58S539.75,804.47,541,809.75Z"/><path class="cls-14" d="M610,754.79s18.15,9.91,35,14.35,18.89,3.85,30.9,6.18c-4.66,0-30.78,2.6-41.51-3.83S610,754.79,610,754.79Z"/><path class="cls-14" d="M667.07,746.84a35.1,35.1,0,0,1-24.1,6.59c-14.41-1.4-23.51-3.16-23.51-3.16S635,745.84,643,746.84,667.07,746.84,667.07,746.84Z"/><path class="cls-17" d="M670.85,924.3s21.2-1.47,29.86,0,9.92,17.09,17.52,24.49S747.84,960,753.7,975.18s-4.85,38.72-18.59,32.94c-22.58-9.5-68.19-47.51-68.19-47.51S656.44,944.37,670.85,924.3Z"/><path class="cls-19" d="M576.84,693.28s5,32.67,10.25,41.58c10.29,17.65,22.36,14.88,22.93,15.28,0,0-3.37-19.72-7.46-32.35s-10.42-34-10.42-34Z"/><path class="cls-19" d="M576.84,603s17.54-4.85,33.18,17.28c16,22.72,20.69,50.59,30.11,81.22,10.27,33.41,16.94,51.06,16.94,51.06l10-5.67S654.47,714.47,643,671.4c-4-14.91-13.9-50.4-24.57-60.4-16-14.9-32.84-15.73-32.84-15.73Z"/><path class="cls-19" d="M618.13,568.23s21.15.65,36.8,22.81c16,22.72,17.07,45.07,26.49,75.69,10.26,33.41,14.08,52.7,14.08,52.7l9.25-5.25s-9-34.43-20.49-77.45c-4-14.9-18.65-51.63-29.32-61.56-16-14.89-28.05-14.52-28.05-14.52Z"/><path class="cls-20" d="M708.56,708.31s-33.8,28.74-55.45,35.85c-25.41,8.35-50.55,4.92-61-2.3a39.5,39.5,0,0,0,0,10.53s4.2,4.72,17.88,8.87,35,.74,53.25-7.67,46.61-29.83,46.61-29.83Z"/><path class="cls-40" d="M463.12,708.31c5.06,1.45,9-7.55,13.31-24.2s7.95-25.66,1.9-26.87-14.14,4.37-19.62,19.56S458.37,707,463.12,708.31Z"/><path class="cls-14" d="M574.54,617.38c-11.4-4.71-24,5.53-44.77,28.62-20.57,8.25-58.41,14.38-62.24,17.85-12,14.18-14.83,31.61,0,40.06,3.22,1.84,26,12.87,28.84,10.71,11.1,5,44.16-1.44,53.06-18.33,9,3.39,29.81,8.74,47.91-22.37C606.52,658.06,604.61,629.78,574.54,617.38Z"/><path class="cls-41" d="M451.16,663c-5.16-5.41-26.06-15-33.51-20.91-9.16-7.26-14.26-11.16-20.57-13.7-9.75,1.53-19.7,1.94-30.56,7.86-12.49,6.8-27.28,20.79-32.76,34.46,4.65,8.65,11.36,12.61,17.85,17.24,5.3,3.78,14.93,6.79,20.42,10.06,5.91,3.5,10,8,17.13,15.73,17.65-4.46,23.88-21.93,35.52-28.94C430.23,681.42,452.9,672.86,451.16,663Z"/><path class="cls-8" d="M478.27,657.24a257.09,257.09,0,0,0-30.25-4.6c-15.29-1.11-30.26-.94-34.37-2.76a141,141,0,0,1-9.43-11.13c-6.58-8.7-5.08-15.33-8.7-14.79s-3.52,6.47-3.36,11.83a38.79,38.79,0,0,0,.68,5.59l-3.63-1.65c-25-11.29-35.1-7.44-34.56,8.47.41,12.78,39.54,24.63,52.94,26.33,13.39,14.11,39.64,30.07,55.66,33.79-3.52-6.86-1.21-21.54,2.42-30.64C471.5,662.93,478.27,657.24,478.27,657.24Z"/><path class="cls-23" d="M1290.8,1024.39a93.33,93.33,0,0,1-48.4-13.13c-21.6-13-30.71-31.91-24.38-50.48,6-17.51,26.53-35.09,65.62-44.3-35.71-7.48-85-5.5-166,1.21C970.22,930,828,878.86,780.73,824.4c-33.42-38.53-22-75.7-15.49-89.91,7.65-16.77,20.4-29.41,29.66-29.41v4.47c-6.46,0-18.29,10.77-25.59,26.81-6.14,13.41-16.95,48.55,14.78,85.1,46.55,53.65,187.18,104,333.18,91.78,88.57-7.42,139.75-9.12,176.75,1,27.46-5,62.85-6.11,107.28-1,115.08,13.13,196.74-22.1,234.75-59.45,22.85-22.44,33.62-47.74,31.18-73.18l4.45-.42c2.54,26.44-9,53.7-32.49,76.78-49.48,48.6-140.83,71.87-238.39,60.7-38.44-4.38-70.7-4-96.81-.28,18.15,6.52,33,16.44,47.9,30.7,15.37,14.71,17.23,32.25,5.09,48.11C1343.91,1013.26,1318.15,1024.39,1290.8,1024.39Zm3.32-105.27c-41.62,7.72-65.54,24.48-71.92,43.15-5.6,16.42,2.8,33.32,22.46,45.21,41.57,25.09,91.34,8.83,108.72-13.89,10.76-14.05,9.1-29.05-4.65-42.16-16.53-15.87-33.08-26.21-54.57-32.35Z"/></svg>